<svg version="1.1" xmlns="http://www.w3.org/2000/svg" viewBox="0 0 680.0593036104995 311.66345391269317" width="680.0593036104995" height="311.66345391269317">
  <!-- svg-source:excalidraw -->
  
  <defs>
    <style class="style-fonts">
      @font-face {
        font-family: "Virgil";
        src: url("https://excalidraw.com/Virgil.woff2");
      }
      @font-face {
        font-family: "Cascadia";
        src: url("https://excalidraw.com/Cascadia.woff2");
      }
      @font-face {
        font-family: "Assistant";
        src: url("https://excalidraw.com/Assistant-Regular.woff2");
      }
    </style>
    
  </defs>
  <g transform="translate(61.0314436442215 12.993223402942135) rotate(0 27.700000762939453 12.5)"><text x="0" y="0" font-family="Virgil, Segoe UI Emoji" font-size="20px" fill="#1e1e1e" text-anchor="start" style="white-space: pre;" direction="ltr" dominant-baseline="text-before-edge">start</text></g><g transform="translate(571.8649700355243 10) rotate(0 15.824999809265137 12.5)"><text x="0" y="0" font-family="Virgil, Segoe UI Emoji" font-size="20px" fill="#1e1e1e" text-anchor="start" style="white-space: pre;" direction="ltr" dominant-baseline="text-before-edge">end</text></g><g stroke-linecap="round" transform="translate(10 107.12113439074392) rotate(0 87 28)"><path d="M14 0 C44.5 -1.76, 80.07 -2.95, 160 0 M14 0 C62.42 1.28, 109.13 1.57, 160 0 M160 0 C168.74 -0.51, 175.03 3.12, 174 14 M160 0 C168.24 -0.06, 176.16 5.72, 174 14 M174 14 C175.9 20.81, 175.62 32.08, 174 42 M174 14 C174.74 24.11, 173.67 33.78, 174 42 M174 42 C175.07 50.93, 170.73 55.97, 160 56 M174 42 C173.82 51.16, 167.51 56.18, 160 56 M160 56 C121.48 58.96, 82.93 55.77, 14 56 M160 56 C120.61 56.02, 79.35 56.02, 14 56 M14 56 C5.96 56.79, -1.03 52.9, 0 42 M14 56 C5.68 57.88, -0.92 50.53, 0 42 M0 42 C-1.28 34.91, 0.21 23.56, 0 14 M0 42 C-0.75 34.06, 0.61 25.49, 0 14 M0 14 C0.09 3.17, 4.76 1.44, 14 0 M0 14 C1.89 6.31, 4.37 -0.58, 14 0" stroke="#1e1e1e" stroke-width="2" fill="none"></path></g><g transform="translate(35.04166793823242 122.62113439074392) rotate(0 61.95833206176758 12.5)"><text x="61.95833206176758" y="0" font-family="Virgil, Segoe UI Emoji" font-size="20px" fill="#1e1e1e" text-anchor="middle" style="white-space: pre;" direction="ltr" dominant-baseline="text-before-edge">InititateCall</text></g><g stroke-linecap="round" transform="translate(253.00914232418575 105.86873935787003) rotate(0 86.99999999999997 28)"><path d="M14 0 C54.66 0.74, 92.21 2.12, 160 0 M14 0 C55.16 -0.45, 97.43 -0.97, 160 0 M160 0 C168.38 -0.05, 175.88 5.58, 174 14 M160 0 C169.5 0.88, 174.33 6.73, 174 14 M174 14 C175.27 19.88, 175.76 27.28, 174 42 M174 14 C174.44 22.85, 174.6 32.09, 174 42 M174 42 C173.84 51.18, 167.75 56.16, 160 56 M174 42 C173.04 51.83, 171.48 55.08, 160 56 M160 56 C104.05 53.73, 49.5 56.7, 14 56 M160 56 C121.44 55.93, 81.09 56.32, 14 56 M14 56 C5.55 57.64, -0.8 50.64, 0 42 M14 56 C4.72 55.54, 1.31 49.8, 0 42 M0 42 C-0.47 30.32, 0.58 19.46, 0 14 M0 42 C-0.07 33.34, -0.07 26.89, 0 14 M0 14 C1.64 6.09, 4.41 -0.5, 14 0 M0 14 C1.39 4.17, 2.74 0.89, 14 0" stroke="#1e1e1e" stroke-width="2" fill="none"></path></g><g transform="translate(278.55914156124624 121.36873935787003) rotate(0 61.45000076293945 12.5)"><text x="61.45000076293945" y="0" font-family="Virgil, Segoe UI Emoji" font-size="20px" fill="#1e1e1e" text-anchor="middle" style="white-space: pre;" direction="ltr" dominant-baseline="text-before-edge">HandoverCall</text></g><g stroke-linecap="round"><g transform="translate(187.79949719999797 134.27124396831312) rotate(0 31.806486658323678 0.15906577905639097)"><path d="M-0.67 0.65 C9.73 0.85, 51.96 0.5, 62.82 0.35 M1.18 -0.06 C11.92 0.43, 54.62 1.76, 65.12 1.9" stroke="#1e1e1e" stroke-width="2" fill="none"></path></g><g transform="translate(187.79949719999797 134.27124396831312) rotate(0 31.806486658323678 0.15906577905639097)"><path d="M41.43 9.89 C50.53 6.02, 57.45 6.11, 65.12 1.9 M41.43 9.89 C46.6 8.07, 54.01 5.32, 65.12 1.9" stroke="#1e1e1e" stroke-width="2" fill="none"></path></g><g transform="translate(187.79949719999797 134.27124396831312) rotate(0 31.806486658323678 0.15906577905639097)"><path d="M41.84 -7.21 C50.67 -5.33, 57.46 0.49, 65.12 1.9 M41.84 -7.21 C46.75 -4.72, 54.06 -3.17, 65.12 1.9" stroke="#1e1e1e" stroke-width="2" fill="none"></path></g></g><mask></mask><g stroke-linecap="round" transform="translate(496.0593036104995 103.83266027358479) rotate(0 87 28)"><path d="M14 0 C69.82 0.31, 125.12 -0.9, 160 0 M14 0 C61.63 -0.68, 111.89 -0.08, 160 0 M160 0 C170.67 -0.18, 172.32 3.09, 174 14 M160 0 C169.33 0.34, 173.5 5.08, 174 14 M174 14 C172.09 22.25, 171.95 31.24, 174 42 M174 14 C174.09 22.42, 173.91 29.17, 174 42 M174 42 C172.99 52.98, 167.78 55.24, 160 56 M174 42 C173.41 50.97, 171.53 56.82, 160 56 M160 56 C116.47 54.29, 72.32 55.68, 14 56 M160 56 C103.92 54.78, 47.65 54.82, 14 56 M14 56 C6.64 56.57, -1.63 52.11, 0 42 M14 56 C5.73 57.74, 1.66 51.28, 0 42 M0 42 C0.99 34.17, 0.82 28.37, 0 14 M0 42 C-0.2 33.29, -0.47 24.19, 0 14 M0 14 C0.05 3.94, 4.9 -0.76, 14 0 M0 14 C2.29 2.82, 2.95 2.29, 14 0" stroke="#1e1e1e" stroke-width="2" fill="none"></path></g><g transform="translate(515.9009707857924 119.33266027358479) rotate(0 67.15833282470703 12.5)"><text x="67.15833282470703" y="0" font-family="Virgil, Segoe UI Emoji" font-size="20px" fill="#1e1e1e" text-anchor="middle" style="white-space: pre;" direction="ltr" dominant-baseline="text-before-edge">TerminateCall</text></g><g stroke-linecap="round"><g transform="translate(93.89077314876073 164.71615051101116) rotate(0 256.6152747112439 51.411501228812654)"><path d="M-0.01 0.35 C43.6 17.58, 175.76 104.49, 261.36 104.43 C346.96 104.38, 471.64 17.75, 513.6 0.02 M-1.48 -0.51 C41.98 16.91, 174.51 102.97, 260.26 102.74 C346.01 102.51, 470.85 15.47, 513.04 -1.9" stroke="#1e1e1e" stroke-width="2" fill="none"></path></g><g transform="translate(93.89077314876073 164.71615051101116) rotate(0 256.6152747112439 51.411501228812654)"><path d="M496.29 16.66 C501.29 11.08, 506.66 7.12, 513.04 -1.9 M496.29 16.66 C502.56 9.51, 508.25 2.83, 513.04 -1.9" stroke="#1e1e1e" stroke-width="2" fill="none"></path></g><g transform="translate(93.89077314876073 164.71615051101116) rotate(0 256.6152747112439 51.411501228812654)"><path d="M488.27 1.55 C495.61 0.11, 503.17 0.29, 513.04 -1.9 M488.27 1.55 C497.48 0.02, 506.11 -1.11, 513.04 -1.9" stroke="#1e1e1e" stroke-width="2" fill="none"></path></g></g><mask></mask><g stroke-linecap="round"><g transform="translate(338.8837182585581 163.04275449820693) rotate(0 100.58373727642703 15.259277567218646)"><path d="M-1.2 -0.95 C17.59 4.25, 78.32 30.35, 112.16 30.53 C146.01 30.71, 187.1 5, 201.88 0.15 M0.37 1.17 C19.56 6.63, 80.78 32.13, 114.3 32.07 C147.82 32.02, 187.06 5.75, 201.49 0.84" stroke="#1e1e1e" stroke-width="2" fill="none"></path></g><g transform="translate(338.8837182585581 163.04275449820693) rotate(0 100.58373727642703 15.259277567218646)"><path d="M183.89 18.6 C186.9 12.42, 192.99 10.9, 201.49 0.84 M183.89 18.6 C187.73 15.68, 190.87 11.97, 201.49 0.84" stroke="#1e1e1e" stroke-width="2" fill="none"></path></g><g transform="translate(338.8837182585581 163.04275449820693) rotate(0 100.58373727642703 15.259277567218646)"><path d="M176.59 3.13 C181.37 0.98, 189.32 3.4, 201.49 0.84 M176.59 3.13 C181.84 3.3, 186.45 2.69, 201.49 0.84" stroke="#1e1e1e" stroke-width="2" fill="none"></path></g></g><mask></mask><g stroke-linecap="round"><g transform="translate(395.86052124791917 103.47332959045639) rotate(0 -54.10930699388513 -24.395959107743977)"><path d="M0.14 -0.64 C-8.87 -8.68, -36.21 -49.32, -54.16 -49.39 C-72.1 -49.45, -98.62 -8.82, -107.53 -1.02 M-1.25 1.64 C-10.4 -6.15, -37.27 -47.42, -55.05 -48.16 C-72.83 -48.9, -99.26 -10.53, -107.93 -2.81" stroke="#1e1e1e" stroke-width="2" fill="none"></path></g><g transform="translate(395.86052124791917 103.47332959045639) rotate(0 -54.10930699388513 -24.395959107743977)"><path d="M-98.69 -26.04 C-102.66 -19.09, -105.27 -11.37, -107.93 -2.81 M-98.69 -26.04 C-101.26 -16.75, -105.95 -7.74, -107.93 -2.81" stroke="#1e1e1e" stroke-width="2" fill="none"></path></g><g transform="translate(395.86052124791917 103.47332959045639) rotate(0 -54.10930699388513 -24.395959107743977)"><path d="M-85.92 -14.66 C-93.5 -11.01, -99.82 -6.59, -107.93 -2.81 M-85.92 -14.66 C-93.51 -9.86, -103.16 -5.26, -107.93 -2.81" stroke="#1e1e1e" stroke-width="2" fill="none"></path></g></g><mask></mask><g stroke-linecap="round"><g transform="translate(90.65632080910751 41.79423524948925) rotate(0 -0.7009985553933973 31.19443571500608)"><path d="M-0.94 -0.1 C-1.34 10.22, -2.38 52.35, -2.4 62.69" stroke="#1e1e1e" stroke-width="2.5" fill="none" stroke-dasharray="8 10"></path></g><g transform="translate(90.65632080910751 41.79423524948925) rotate(0 -0.7009985553933973 31.19443571500608)"><path d="M-10.59 39.07 C-8.14 44.54, -5.03 53.85, -2.4 62.69" stroke="#1e1e1e" stroke-width="2.5" fill="none"></path></g><g transform="translate(90.65632080910751 41.79423524948925) rotate(0 -0.7009985553933973 31.19443571500608)"><path d="M6.51 39.33 C3.84 44.59, 1.84 53.83, -2.4 62.69" stroke="#1e1e1e" stroke-width="2.5" fill="none"></path></g></g><mask></mask><g stroke-linecap="round"><g transform="translate(593.9732835815646 104.1831066795014) rotate(0 0 -31.544934992702764)"><path d="M0 -0.23 C-0.22 -10.54, -0.9 -52.33, -0.77 -62.61" stroke="#1e1e1e" stroke-width="2.5" fill="none" stroke-dasharray="8 10"></path></g><g transform="translate(593.9732835815646 104.1831066795014) rotate(0 0 -31.544934992702764)"><path d="M7.88 -39.15 C4.67 -48.52, 2.86 -53.96, -0.77 -62.61" stroke="#1e1e1e" stroke-width="2.5" fill="none"></path></g><g transform="translate(593.9732835815646 104.1831066795014) rotate(0 0 -31.544934992702764)"><path d="M-9.22 -39.09 C-6.54 -48.47, -2.45 -53.94, -0.77 -62.61" stroke="#1e1e1e" stroke-width="2.5" fill="none"></path></g></g><mask></mask><g transform="translate(327.0671239765957 28.475859350050655) rotate(0 14.808333396911621 12.5)"><text x="14.808333396911621" y="0" font-family="Virgil, Segoe UI Emoji" font-size="20px" fill="#1e1e1e" text-anchor="middle" style="white-space: pre;" direction="ltr" dominant-baseline="text-before-edge">trf</text></g><g transform="translate(201.77476587160737 100.88014552659024) rotate(0 14.808333396911621 12.5)"><text x="14.808333396911621" y="0" font-family="Virgil, Segoe UI Emoji" font-size="20px" fill="#1e1e1e" text-anchor="middle" style="white-space: pre;" direction="ltr" dominant-baseline="text-before-edge">trf</text></g><g transform="translate(319.263178108927 276.66345391269317) rotate(0 34.29999923706055 12.5)"><text x="34.29999923706055" y="0" font-family="Virgil, Segoe UI Emoji" font-size="20px" fill="#1e1e1e" text-anchor="middle" style="white-space: pre;" direction="ltr" dominant-baseline="text-before-edge">blocked</text></g><g transform="translate(412.3766379708405 196.71944930092843) rotate(0 36.55833435058594 12.5)"><text x="36.55833435058594" y="0" font-family="Virgil, Segoe UI Emoji" font-size="20px" fill="#1e1e1e" text-anchor="middle" style="white-space: pre;" direction="ltr" dominant-baseline="text-before-edge">dropped</text></g></svg>