<svg version="1.1" xmlns="http://www.w3.org/2000/svg" viewBox="0 0 680.0593036104995 290.82549633191115" width="680.0593036104995" height="290.82549633191115">
  <!-- svg-source:excalidraw -->
  
  <defs>
    <style class="style-fonts">
      @font-face {
        font-family: "Virgil";
        src: url("https://excalidraw.com/Virgil.woff2");
      }
      @font-face {
        font-family: "Cascadia";
        src: url("https://excalidraw.com/Cascadia.woff2");
      }
      @font-face {
        font-family: "Assistant";
        src: url("https://excalidraw.com/Assistant-Regular.woff2");
      }
    </style>
    
  </defs>
  <g transform="translate(61.0314436442215 12.993223402942135) rotate(0 27.700000762939453 12.5)"><text x="0" y="0" font-family="Virgil, Segoe UI Emoji" font-size="20px" fill="#1e1e1e" text-anchor="start" style="white-space: pre;" direction="ltr" dominant-baseline="text-before-edge">start</text></g><g transform="translate(571.8649700355243 10) rotate(0 15.824999809265137 12.5)"><text x="0" y="0" font-family="Virgil, Segoe UI Emoji" font-size="20px" fill="#1e1e1e" text-anchor="start" style="white-space: pre;" direction="ltr" dominant-baseline="text-before-edge">end</text></g><g stroke-linecap="round" transform="translate(10 107.12113439074392) rotate(0 87 28)"><path d="M14 0 C44.5 -1.76, 80.07 -2.95, 160 0 M14 0 C62.42 1.28, 109.13 1.57, 160 0 M160 0 C168.74 -0.51, 175.03 3.12, 174 14 M160 0 C168.24 -0.06, 176.16 5.72, 174 14 M174 14 C175.9 20.81, 175.62 32.08, 174 42 M174 14 C174.74 24.11, 173.67 33.78, 174 42 M174 42 C175.07 50.93, 170.73 55.97, 160 56 M174 42 C173.82 51.16, 167.51 56.18, 160 56 M160 56 C121.48 58.96, 82.93 55.77, 14 56 M160 56 C120.61 56.02, 79.35 56.02, 14 56 M14 56 C5.96 56.79, -1.03 52.9, 0 42 M14 56 C5.68 57.88, -0.92 50.53, 0 42 M0 42 C-1.28 34.91, 0.21 23.56, 0 14 M0 42 C-0.75 34.06, 0.61 25.49, 0 14 M0 14 C0.09 3.17, 4.76 1.44, 14 0 M0 14 C1.89 6.31, 4.37 -0.58, 14 0" stroke="#1e1e1e" stroke-width="2" fill="none"></path></g><g transform="translate(35.04166793823242 122.62113439074392) rotate(0 61.95833206176758 12.5)"><text x="61.95833206176758" y="0" font-family="Virgil, Segoe UI Emoji" font-size="20px" fill="#1e1e1e" text-anchor="middle" style="white-space: pre;" direction="ltr" dominant-baseline="text-before-edge">InititateCall</text></g><g stroke-linecap="round" transform="translate(253.00914232418575 105.86873935787003) rotate(0 86.99999999999997 28)"><path d="M14 0 C54.66 0.74, 92.21 2.12, 160 0 M14 0 C55.16 -0.45, 97.43 -0.97, 160 0 M160 0 C168.38 -0.05, 175.88 5.58, 174 14 M160 0 C169.5 0.88, 174.33 6.73, 174 14 M174 14 C175.27 19.88, 175.76 27.28, 174 42 M174 14 C174.44 22.85, 174.6 32.09, 174 42 M174 42 C173.84 51.18, 167.75 56.16, 160 56 M174 42 C173.04 51.83, 171.48 55.08, 160 56 M160 56 C104.05 53.73, 49.5 56.7, 14 56 M160 56 C121.44 55.93, 81.09 56.32, 14 56 M14 56 C5.55 57.64, -0.8 50.64, 0 42 M14 56 C4.72 55.54, 1.31 49.8, 0 42 M0 42 C-0.47 30.32, 0.58 19.46, 0 14 M0 42 C-0.07 33.34, -0.07 26.89, 0 14 M0 14 C1.64 6.09, 4.41 -0.5, 14 0 M0 14 C1.39 4.17, 2.74 0.89, 14 0" stroke="#1e1e1e" stroke-width="2" fill="none"></path></g><g transform="translate(278.55914156124624 121.36873935787003) rotate(0 61.45000076293945 12.5)"><text x="61.45000076293945" y="0" font-family="Virgil, Segoe UI Emoji" font-size="20px" fill="#1e1e1e" text-anchor="middle" style="white-space: pre;" direction="ltr" dominant-baseline="text-before-edge">HandoverCall</text></g><g mask="url(#mask-_GT0nyq8oodud5fQb4rM2)" stroke-linecap="round"><g transform="translate(187.79949719999797 134.27124396831312) rotate(0 31.806486658323678 0.15906577905639097)"><path d="M-0.67 0.65 C9.73 0.85, 51.96 0.5, 62.82 0.35 M1.18 -0.06 C11.92 0.43, 54.62 1.76, 65.12 1.9" stroke="#1e1e1e" stroke-width="2" fill="none"></path></g><g transform="translate(187.79949719999797 134.27124396831312) rotate(0 31.806486658323678 0.15906577905639097)"><path d="M41.43 9.89 C50.53 6.02, 57.45 6.11, 65.12 1.9 M41.43 9.89 C46.6 8.07, 54.01 5.32, 65.12 1.9" stroke="#1e1e1e" stroke-width="2" fill="none"></path></g><g transform="translate(187.79949719999797 134.27124396831312) rotate(0 31.806486658323678 0.15906577905639097)"><path d="M41.84 -7.21 C50.67 -5.33, 57.46 0.49, 65.12 1.9 M41.84 -7.21 C46.75 -4.72, 54.06 -3.17, 65.12 1.9" stroke="#1e1e1e" stroke-width="2" fill="none"></path></g></g><mask id="mask-_GT0nyq8oodud5fQb4rM2"><rect x="0" y="0" fill="#fff" width="351.4124705166453" height="234.5893755264259"></rect><rect x="204.79765046141" y="121.9303097473695" fill="#000" width="29.616666793823242" height="25" opacity="1"></rect></mask><g transform="translate(204.79765046140994 121.9303097473695) rotate(0 15.226104845847004 13.263320712605491)"><text x="14.808333396911621" y="0" font-family="Virgil, Segoe UI Emoji" font-size="20px" fill="#1e1e1e" text-anchor="middle" style="white-space: pre;" direction="ltr" dominant-baseline="text-before-edge">trf</text></g><g stroke-linecap="round" transform="translate(496.0593036104995 103.83266027358479) rotate(0 87 28)"><path d="M14 0 C69.82 0.31, 125.12 -0.9, 160 0 M14 0 C61.63 -0.68, 111.89 -0.08, 160 0 M160 0 C170.67 -0.18, 172.32 3.09, 174 14 M160 0 C169.33 0.34, 173.5 5.08, 174 14 M174 14 C172.09 22.25, 171.95 31.24, 174 42 M174 14 C174.09 22.42, 173.91 29.17, 174 42 M174 42 C172.99 52.98, 167.78 55.24, 160 56 M174 42 C173.41 50.97, 171.53 56.82, 160 56 M160 56 C116.47 54.29, 72.32 55.68, 14 56 M160 56 C103.92 54.78, 47.65 54.82, 14 56 M14 56 C6.64 56.57, -1.63 52.11, 0 42 M14 56 C5.73 57.74, 1.66 51.28, 0 42 M0 42 C0.99 34.17, 0.82 28.37, 0 14 M0 42 C-0.2 33.29, -0.47 24.19, 0 14 M0 14 C0.05 3.94, 4.9 -0.76, 14 0 M0 14 C2.29 2.82, 2.95 2.29, 14 0" stroke="#1e1e1e" stroke-width="2" fill="none"></path></g><g transform="translate(515.9009707857924 119.33266027358479) rotate(0 67.15833282470703 12.5)"><text x="67.15833282470703" y="0" font-family="Virgil, Segoe UI Emoji" font-size="20px" fill="#1e1e1e" text-anchor="middle" style="white-space: pre;" direction="ltr" dominant-baseline="text-before-edge">TerminateCall</text></g><g mask="url(#mask-qJo0DF40Kpgj7ndh0XKa-)" stroke-linecap="round"><g transform="translate(93.89077314876073 164.71615051101116) rotate(0 257.3276919468433 50.61003183876329)"><path d="M-0.01 0.35 C43.6 17.58, 175.52 104.76, 261.36 104.43 C347.2 104.11, 472.82 16.41, 515.03 -1.58 M-1.48 -0.51 C41.98 16.91, 174.27 103.24, 260.26 102.74 C346.25 102.24, 472.04 14.13, 514.46 -3.5" stroke="#1e1e1e" stroke-width="2" fill="none"></path></g><g transform="translate(93.89077314876073 164.71615051101116) rotate(0 257.3276919468433 50.61003183876329)"><path d="M497.77 15.1 C502.76 9.52, 508.11 5.54, 514.46 -3.5 M497.77 15.1 C504.02 7.94, 509.69 1.24, 514.46 -3.5" stroke="#1e1e1e" stroke-width="2" fill="none"></path></g><g transform="translate(93.89077314876073 164.71615051101116) rotate(0 257.3276919468433 50.61003183876329)"><path d="M489.71 0.02 C497.04 -1.44, 504.6 -1.28, 514.46 -3.5 M489.71 0.02 C498.91 -1.53, 507.53 -2.69, 514.46 -3.5" stroke="#1e1e1e" stroke-width="2" fill="none"></path></g></g><mask id="mask-qJo0DF40Kpgj7ndh0XKa-"><rect x="0" y="0" fill="#fff" width="708.5461570424472" height="370.71477847528456"></rect><rect x="321.2489202128804" y="255.82549633191115" fill="#000" width="68.5999984741211" height="25" opacity="1"></rect></mask><g transform="translate(321.2489202128804 255.82549633191115) rotate(0 29.417466770653107 -40.645045743143044)"><text x="34.29999923706055" y="0" font-family="Virgil, Segoe UI Emoji" font-size="20px" fill="#1e1e1e" text-anchor="middle" style="white-space: pre;" direction="ltr" dominant-baseline="text-before-edge">blocked</text></g><g mask="url(#mask-GW-wwjA206NZF_NVr2mHV)" stroke-linecap="round"><g transform="translate(338.8837182585581 163.04275449820693) rotate(0 102.8990932921252 13.972887069227795)"><path d="M-1.2 -0.95 C17.59 4.25, 77.54 31, 112.16 30.53 C146.78 30.06, 190.96 1.73, 206.51 -3.77 M0.37 1.17 C19.56 6.63, 80.01 32.78, 114.3 32.07 C148.59 31.36, 190.92 2.48, 206.12 -3.08" stroke="#1e1e1e" stroke-width="2" fill="none"></path></g><g transform="translate(338.8837182585581 163.04275449820693) rotate(0 102.8990932921252 13.972887069227795)"><path d="M188.85 14.99 C191.77 8.74, 197.78 7.13, 206.12 -3.08 M188.85 14.99 C192.62 12.01, 195.7 8.24, 206.12 -3.08" stroke="#1e1e1e" stroke-width="2" fill="none"></path></g><g transform="translate(338.8837182585581 163.04275449820693) rotate(0 102.8990932921252 13.972887069227795)"><path d="M181.27 -0.34 C186.04 -2.61, 193.98 -0.3, 206.12 -3.08 M181.27 -0.34 C186.51 -0.26, 191.11 -0.96, 206.12 -3.08" stroke="#1e1e1e" stroke-width="2" fill="none"></path></g></g><mask id="mask-GW-wwjA206NZF_NVr2mHV"><rect x="0" y="0" fill="#fff" width="644.6819048428085" height="296.1340906286259"></rect><rect x="415.5778044141389" y="181.06130963264422" fill="#000" width="73.11666870117188" height="25" opacity="1"></rect></mask><g transform="translate(415.5778044141389 181.06130963264422) rotate(0 25.961708384683504 -3.861424463927335)"><text x="36.55833435058594" y="0" font-family="Virgil, Segoe UI Emoji" font-size="20px" fill="#1e1e1e" text-anchor="middle" style="white-space: pre;" direction="ltr" dominant-baseline="text-before-edge">dropped</text></g><g mask="url(#mask-xsx7FxDWF248UEAs5TUmF)" stroke-linecap="round"><g transform="translate(395.86052124791917 103.47332959045639) rotate(0 -56.543905221687055 -23.93995987208524)"><path d="M0.14 -0.64 C-8.87 -8.68, -35.4 -49.82, -54.16 -49.39 C-72.91 -48.95, -102.68 -6.32, -112.4 1.98 M-1.25 1.64 C-10.4 -6.15, -36.46 -47.92, -55.05 -48.16 C-73.64 -48.4, -103.32 -8.04, -112.8 0.19" stroke="#1e1e1e" stroke-width="2" fill="none"></path></g><g transform="translate(395.86052124791917 103.47332959045639) rotate(0 -56.543905221687055 -23.93995987208524)"><path d="M-103.05 -22.83 C-107.17 -15.95, -109.93 -8.28, -112.8 0.19 M-103.05 -22.83 C-105.82 -13.63, -110.71 -4.7, -112.8 0.19" stroke="#1e1e1e" stroke-width="2" fill="none"></path></g><g transform="translate(395.86052124791917 103.47332959045639) rotate(0 -56.543905221687055 -23.93995987208524)"><path d="M-90.54 -11.18 C-98.18 -7.67, -104.58 -3.39, -112.8 0.19 M-90.54 -11.18 C-98.23 -6.56, -107.98 -2.16, -112.8 0.19" stroke="#1e1e1e" stroke-width="2" fill="none"></path></g></g><mask id="mask-xsx7FxDWF248UEAs5TUmF"><rect x="0" y="0" fill="#fff" width="608.9483316912933" height="253.17724627726182"></rect><rect x="326.7882788076146" y="42.181411374968434" fill="#000" width="29.616666793823242" height="25" opacity="1"></rect></mask><g transform="translate(326.78827880761446 42.181411374968434) rotate(0 12.741146561685525 37.58398346768112)"><text x="14.808333396911621" y="0" font-family="Virgil, Segoe UI Emoji" font-size="20px" fill="#1e1e1e" text-anchor="middle" style="white-space: pre;" direction="ltr" dominant-baseline="text-before-edge">trf</text></g><g stroke-linecap="round"><g transform="translate(90.65632080910751 41.79423524948925) rotate(0 -0.7009985553933973 31.19443571500608)"><path d="M-0.94 -0.1 C-1.34 10.22, -2.38 52.35, -2.4 62.69" stroke="#1e1e1e" stroke-width="2.5" fill="none" stroke-dasharray="8 10"></path></g><g transform="translate(90.65632080910751 41.79423524948925) rotate(0 -0.7009985553933973 31.19443571500608)"><path d="M-10.59 39.07 C-8.14 44.54, -5.03 53.85, -2.4 62.69" stroke="#1e1e1e" stroke-width="2.5" fill="none"></path></g><g transform="translate(90.65632080910751 41.79423524948925) rotate(0 -0.7009985553933973 31.19443571500608)"><path d="M6.51 39.33 C3.84 44.59, 1.84 53.83, -2.4 62.69" stroke="#1e1e1e" stroke-width="2.5" fill="none"></path></g></g><mask></mask><g stroke-linecap="round"><g transform="translate(593.9732835815646 104.1831066795014) rotate(0 0 -31.544934992702764)"><path d="M0 -0.23 C-0.22 -10.54, -0.9 -52.33, -0.77 -62.61" stroke="#1e1e1e" stroke-width="2.5" fill="none" stroke-dasharray="8 10"></path></g><g transform="translate(593.9732835815646 104.1831066795014) rotate(0 0 -31.544934992702764)"><path d="M7.88 -39.15 C4.67 -48.52, 2.86 -53.96, -0.77 -62.61" stroke="#1e1e1e" stroke-width="2.5" fill="none"></path></g><g transform="translate(593.9732835815646 104.1831066795014) rotate(0 0 -31.544934992702764)"><path d="M-9.22 -39.09 C-6.54 -48.47, -2.45 -53.94, -0.77 -62.61" stroke="#1e1e1e" stroke-width="2.5" fill="none"></path></g></g><mask></mask></svg>