<?xml version="1.0" encoding="utf-8" standalone="no"?>
<!DOCTYPE svg PUBLIC "-//W3C//DTD SVG 1.1//EN"
  "http://www.w3.org/Graphics/SVG/1.1/DTD/svg11.dtd">
<svg xmlns:xlink="http://www.w3.org/1999/xlink" width="864pt" height="576pt" viewBox="0 0 864 576" xmlns="http://www.w3.org/2000/svg" version="1.1">
 <metadata>
  <rdf:RDF xmlns:dc="http://purl.org/dc/elements/1.1/" xmlns:cc="http://creativecommons.org/ns#" xmlns:rdf="http://www.w3.org/1999/02/22-rdf-syntax-ns#">
   <cc:Work>
    <dc:type rdf:resource="http://purl.org/dc/dcmitype/StillImage"/>
    <dc:date>2024-04-14T16:23:58.513967</dc:date>
    <dc:format>image/svg+xml</dc:format>
    <dc:creator>
     <cc:Agent>
      <dc:title>Matplotlib v3.8.3, https://matplotlib.org/</dc:title>
     </cc:Agent>
    </dc:creator>
   </cc:Work>
  </rdf:RDF>
 </metadata>
 <defs>
  <style type="text/css">*{stroke-linejoin: round; stroke-linecap: butt}</style>
 </defs>
 <g id="figure_1">
  <g id="patch_1">
   <path d="M 0 576 
L 864 576 
L 864 0 
L 0 0 
z
" style="fill: #ffffff"/>
  </g>
  <g id="axes_1">
   <g id="patch_2">
    <path d="M 108 512.64 
L 777.6 512.64 
L 777.6 69.12 
L 108 69.12 
z
" style="fill: #eaeaf2"/>
   </g>
   <g id="matplotlib.axis_1">
    <g id="xtick_1">
     <g id="line2d_1">
      <path d="M 138.436364 512.64 
L 138.436364 69.12 
" clip-path="url(#p09d712ef69)" style="fill: none; stroke: #ffffff; stroke-linecap: round"/>
     </g>
     <g id="text_1">
      <!-- 0 -->
      <g style="fill: #262626" transform="translate(133.346364 534.2975) scale(0.16 -0.16)">
       <defs>
        <path id="DejaVuSans-30" d="M 2034 4250 
Q 1547 4250 1301 3770 
Q 1056 3291 1056 2328 
Q 1056 1369 1301 889 
Q 1547 409 2034 409 
Q 2525 409 2770 889 
Q 3016 1369 3016 2328 
Q 3016 3291 2770 3770 
Q 2525 4250 2034 4250 
z
M 2034 4750 
Q 2819 4750 3233 4129 
Q 3647 3509 3647 2328 
Q 3647 1150 3233 529 
Q 2819 -91 2034 -91 
Q 1250 -91 836 529 
Q 422 1150 422 2328 
Q 422 3509 836 4129 
Q 1250 4750 2034 4750 
z
" transform="scale(0.015625)"/>
       </defs>
       <use xlink:href="#DejaVuSans-30"/>
      </g>
     </g>
    </g>
    <g id="xtick_2">
     <g id="line2d_2">
      <path d="M 236.378664 512.64 
L 236.378664 69.12 
" clip-path="url(#p09d712ef69)" style="fill: none; stroke: #ffffff; stroke-linecap: round"/>
     </g>
     <g id="text_2">
      <!-- 2 -->
      <g style="fill: #262626" transform="translate(231.288664 534.2975) scale(0.16 -0.16)">
       <defs>
        <path id="DejaVuSans-32" d="M 1228 531 
L 3431 531 
L 3431 0 
L 469 0 
L 469 531 
Q 828 903 1448 1529 
Q 2069 2156 2228 2338 
Q 2531 2678 2651 2914 
Q 2772 3150 2772 3378 
Q 2772 3750 2511 3984 
Q 2250 4219 1831 4219 
Q 1534 4219 1204 4116 
Q 875 4013 500 3803 
L 500 4441 
Q 881 4594 1212 4672 
Q 1544 4750 1819 4750 
Q 2544 4750 2975 4387 
Q 3406 4025 3406 3419 
Q 3406 3131 3298 2873 
Q 3191 2616 2906 2266 
Q 2828 2175 2409 1742 
Q 1991 1309 1228 531 
z
" transform="scale(0.015625)"/>
       </defs>
       <use xlink:href="#DejaVuSans-32"/>
      </g>
     </g>
    </g>
    <g id="xtick_3">
     <g id="line2d_3">
      <path d="M 334.320965 512.64 
L 334.320965 69.12 
" clip-path="url(#p09d712ef69)" style="fill: none; stroke: #ffffff; stroke-linecap: round"/>
     </g>
     <g id="text_3">
      <!-- 4 -->
      <g style="fill: #262626" transform="translate(329.230965 534.2975) scale(0.16 -0.16)">
       <defs>
        <path id="DejaVuSans-34" d="M 2419 4116 
L 825 1625 
L 2419 1625 
L 2419 4116 
z
M 2253 4666 
L 3047 4666 
L 3047 1625 
L 3713 1625 
L 3713 1100 
L 3047 1100 
L 3047 0 
L 2419 0 
L 2419 1100 
L 313 1100 
L 313 1709 
L 2253 4666 
z
" transform="scale(0.015625)"/>
       </defs>
       <use xlink:href="#DejaVuSans-34"/>
      </g>
     </g>
    </g>
    <g id="xtick_4">
     <g id="line2d_4">
      <path d="M 432.263265 512.64 
L 432.263265 69.12 
" clip-path="url(#p09d712ef69)" style="fill: none; stroke: #ffffff; stroke-linecap: round"/>
     </g>
     <g id="text_4">
      <!-- 6 -->
      <g style="fill: #262626" transform="translate(427.173265 534.2975) scale(0.16 -0.16)">
       <defs>
        <path id="DejaVuSans-36" d="M 2113 2584 
Q 1688 2584 1439 2293 
Q 1191 2003 1191 1497 
Q 1191 994 1439 701 
Q 1688 409 2113 409 
Q 2538 409 2786 701 
Q 3034 994 3034 1497 
Q 3034 2003 2786 2293 
Q 2538 2584 2113 2584 
z
M 3366 4563 
L 3366 3988 
Q 3128 4100 2886 4159 
Q 2644 4219 2406 4219 
Q 1781 4219 1451 3797 
Q 1122 3375 1075 2522 
Q 1259 2794 1537 2939 
Q 1816 3084 2150 3084 
Q 2853 3084 3261 2657 
Q 3669 2231 3669 1497 
Q 3669 778 3244 343 
Q 2819 -91 2113 -91 
Q 1303 -91 875 529 
Q 447 1150 447 2328 
Q 447 3434 972 4092 
Q 1497 4750 2381 4750 
Q 2619 4750 2861 4703 
Q 3103 4656 3366 4563 
z
" transform="scale(0.015625)"/>
       </defs>
       <use xlink:href="#DejaVuSans-36"/>
      </g>
     </g>
    </g>
    <g id="xtick_5">
     <g id="line2d_5">
      <path d="M 530.205566 512.64 
L 530.205566 69.12 
" clip-path="url(#p09d712ef69)" style="fill: none; stroke: #ffffff; stroke-linecap: round"/>
     </g>
     <g id="text_5">
      <!-- 8 -->
      <g style="fill: #262626" transform="translate(525.115566 534.2975) scale(0.16 -0.16)">
       <defs>
        <path id="DejaVuSans-38" d="M 2034 2216 
Q 1584 2216 1326 1975 
Q 1069 1734 1069 1313 
Q 1069 891 1326 650 
Q 1584 409 2034 409 
Q 2484 409 2743 651 
Q 3003 894 3003 1313 
Q 3003 1734 2745 1975 
Q 2488 2216 2034 2216 
z
M 1403 2484 
Q 997 2584 770 2862 
Q 544 3141 544 3541 
Q 544 4100 942 4425 
Q 1341 4750 2034 4750 
Q 2731 4750 3128 4425 
Q 3525 4100 3525 3541 
Q 3525 3141 3298 2862 
Q 3072 2584 2669 2484 
Q 3125 2378 3379 2068 
Q 3634 1759 3634 1313 
Q 3634 634 3220 271 
Q 2806 -91 2034 -91 
Q 1263 -91 848 271 
Q 434 634 434 1313 
Q 434 1759 690 2068 
Q 947 2378 1403 2484 
z
M 1172 3481 
Q 1172 3119 1398 2916 
Q 1625 2713 2034 2713 
Q 2441 2713 2670 2916 
Q 2900 3119 2900 3481 
Q 2900 3844 2670 4047 
Q 2441 4250 2034 4250 
Q 1625 4250 1398 4047 
Q 1172 3844 1172 3481 
z
" transform="scale(0.015625)"/>
       </defs>
       <use xlink:href="#DejaVuSans-38"/>
      </g>
     </g>
    </g>
    <g id="xtick_6">
     <g id="line2d_6">
      <path d="M 628.147866 512.64 
L 628.147866 69.12 
" clip-path="url(#p09d712ef69)" style="fill: none; stroke: #ffffff; stroke-linecap: round"/>
     </g>
     <g id="text_6">
      <!-- 10 -->
      <g style="fill: #262626" transform="translate(617.967866 534.2975) scale(0.16 -0.16)">
       <defs>
        <path id="DejaVuSans-31" d="M 794 531 
L 1825 531 
L 1825 4091 
L 703 3866 
L 703 4441 
L 1819 4666 
L 2450 4666 
L 2450 531 
L 3481 531 
L 3481 0 
L 794 0 
L 794 531 
z
" transform="scale(0.015625)"/>
       </defs>
       <use xlink:href="#DejaVuSans-31"/>
       <use xlink:href="#DejaVuSans-30" x="63.623047"/>
      </g>
     </g>
    </g>
    <g id="xtick_7">
     <g id="line2d_7">
      <path d="M 726.090166 512.64 
L 726.090166 69.12 
" clip-path="url(#p09d712ef69)" style="fill: none; stroke: #ffffff; stroke-linecap: round"/>
     </g>
     <g id="text_7">
      <!-- 12 -->
      <g style="fill: #262626" transform="translate(715.910166 534.2975) scale(0.16 -0.16)">
       <use xlink:href="#DejaVuSans-31"/>
       <use xlink:href="#DejaVuSans-32" x="63.623047"/>
      </g>
     </g>
    </g>
    <g id="text_8">
     <!-- Values -->
     <g style="fill: #262626" transform="translate(416.6625 553.7825) scale(0.16 -0.16)">
      <defs>
       <path id="DejaVuSans-56" d="M 1831 0 
L 50 4666 
L 709 4666 
L 2188 738 
L 3669 4666 
L 4325 4666 
L 2547 0 
L 1831 0 
z
" transform="scale(0.015625)"/>
       <path id="DejaVuSans-61" d="M 2194 1759 
Q 1497 1759 1228 1600 
Q 959 1441 959 1056 
Q 959 750 1161 570 
Q 1363 391 1709 391 
Q 2188 391 2477 730 
Q 2766 1069 2766 1631 
L 2766 1759 
L 2194 1759 
z
M 3341 1997 
L 3341 0 
L 2766 0 
L 2766 531 
Q 2569 213 2275 61 
Q 1981 -91 1556 -91 
Q 1019 -91 701 211 
Q 384 513 384 1019 
Q 384 1609 779 1909 
Q 1175 2209 1959 2209 
L 2766 2209 
L 2766 2266 
Q 2766 2663 2505 2880 
Q 2244 3097 1772 3097 
Q 1472 3097 1187 3025 
Q 903 2953 641 2809 
L 641 3341 
Q 956 3463 1253 3523 
Q 1550 3584 1831 3584 
Q 2591 3584 2966 3190 
Q 3341 2797 3341 1997 
z
" transform="scale(0.015625)"/>
       <path id="DejaVuSans-6c" d="M 603 4863 
L 1178 4863 
L 1178 0 
L 603 0 
L 603 4863 
z
" transform="scale(0.015625)"/>
       <path id="DejaVuSans-75" d="M 544 1381 
L 544 3500 
L 1119 3500 
L 1119 1403 
Q 1119 906 1312 657 
Q 1506 409 1894 409 
Q 2359 409 2629 706 
Q 2900 1003 2900 1516 
L 2900 3500 
L 3475 3500 
L 3475 0 
L 2900 0 
L 2900 538 
Q 2691 219 2414 64 
Q 2138 -91 1772 -91 
Q 1169 -91 856 284 
Q 544 659 544 1381 
z
M 1991 3584 
L 1991 3584 
z
" transform="scale(0.015625)"/>
       <path id="DejaVuSans-65" d="M 3597 1894 
L 3597 1613 
L 953 1613 
Q 991 1019 1311 708 
Q 1631 397 2203 397 
Q 2534 397 2845 478 
Q 3156 559 3463 722 
L 3463 178 
Q 3153 47 2828 -22 
Q 2503 -91 2169 -91 
Q 1331 -91 842 396 
Q 353 884 353 1716 
Q 353 2575 817 3079 
Q 1281 3584 2069 3584 
Q 2775 3584 3186 3129 
Q 3597 2675 3597 1894 
z
M 3022 2063 
Q 3016 2534 2758 2815 
Q 2500 3097 2075 3097 
Q 1594 3097 1305 2825 
Q 1016 2553 972 2059 
L 3022 2063 
z
" transform="scale(0.015625)"/>
       <path id="DejaVuSans-73" d="M 2834 3397 
L 2834 2853 
Q 2591 2978 2328 3040 
Q 2066 3103 1784 3103 
Q 1356 3103 1142 2972 
Q 928 2841 928 2578 
Q 928 2378 1081 2264 
Q 1234 2150 1697 2047 
L 1894 2003 
Q 2506 1872 2764 1633 
Q 3022 1394 3022 966 
Q 3022 478 2636 193 
Q 2250 -91 1575 -91 
Q 1294 -91 989 -36 
Q 684 19 347 128 
L 347 722 
Q 666 556 975 473 
Q 1284 391 1588 391 
Q 1994 391 2212 530 
Q 2431 669 2431 922 
Q 2431 1156 2273 1281 
Q 2116 1406 1581 1522 
L 1381 1569 
Q 847 1681 609 1914 
Q 372 2147 372 2553 
Q 372 3047 722 3315 
Q 1072 3584 1716 3584 
Q 2034 3584 2315 3537 
Q 2597 3491 2834 3397 
z
" transform="scale(0.015625)"/>
      </defs>
      <use xlink:href="#DejaVuSans-56"/>
      <use xlink:href="#DejaVuSans-61" x="60.658203"/>
      <use xlink:href="#DejaVuSans-6c" x="121.9375"/>
      <use xlink:href="#DejaVuSans-75" x="149.720703"/>
      <use xlink:href="#DejaVuSans-65" x="213.099609"/>
      <use xlink:href="#DejaVuSans-73" x="274.623047"/>
     </g>
    </g>
   </g>
   <g id="matplotlib.axis_2">
    <g id="ytick_1">
     <g id="line2d_8">
      <path d="M 108 512.64 
L 777.6 512.64 
" clip-path="url(#p09d712ef69)" style="fill: none; stroke: #ffffff; stroke-linecap: round"/>
     </g>
     <g id="text_9">
      <!-- 0.0 -->
      <g style="fill: #262626" transform="translate(73.055 518.71875) scale(0.16 -0.16)">
       <defs>
        <path id="DejaVuSans-2e" d="M 684 794 
L 1344 794 
L 1344 0 
L 684 0 
L 684 794 
z
" transform="scale(0.015625)"/>
       </defs>
       <use xlink:href="#DejaVuSans-30"/>
       <use xlink:href="#DejaVuSans-2e" x="63.623047"/>
       <use xlink:href="#DejaVuSans-30" x="95.410156"/>
      </g>
     </g>
    </g>
    <g id="ytick_2">
     <g id="line2d_9">
      <path d="M 108 451.80412 
L 777.6 451.80412 
" clip-path="url(#p09d712ef69)" style="fill: none; stroke: #ffffff; stroke-linecap: round"/>
     </g>
     <g id="text_10">
      <!-- 0.1 -->
      <g style="fill: #262626" transform="translate(73.055 457.88287) scale(0.16 -0.16)">
       <use xlink:href="#DejaVuSans-30"/>
       <use xlink:href="#DejaVuSans-2e" x="63.623047"/>
       <use xlink:href="#DejaVuSans-31" x="95.410156"/>
      </g>
     </g>
    </g>
    <g id="ytick_3">
     <g id="line2d_10">
      <path d="M 108 390.96824 
L 777.6 390.96824 
" clip-path="url(#p09d712ef69)" style="fill: none; stroke: #ffffff; stroke-linecap: round"/>
     </g>
     <g id="text_11">
      <!-- 0.2 -->
      <g style="fill: #262626" transform="translate(73.055 397.04699) scale(0.16 -0.16)">
       <use xlink:href="#DejaVuSans-30"/>
       <use xlink:href="#DejaVuSans-2e" x="63.623047"/>
       <use xlink:href="#DejaVuSans-32" x="95.410156"/>
      </g>
     </g>
    </g>
    <g id="ytick_4">
     <g id="line2d_11">
      <path d="M 108 330.13236 
L 777.6 330.13236 
" clip-path="url(#p09d712ef69)" style="fill: none; stroke: #ffffff; stroke-linecap: round"/>
     </g>
     <g id="text_12">
      <!-- 0.3 -->
      <g style="fill: #262626" transform="translate(73.055 336.21111) scale(0.16 -0.16)">
       <defs>
        <path id="DejaVuSans-33" d="M 2597 2516 
Q 3050 2419 3304 2112 
Q 3559 1806 3559 1356 
Q 3559 666 3084 287 
Q 2609 -91 1734 -91 
Q 1441 -91 1130 -33 
Q 819 25 488 141 
L 488 750 
Q 750 597 1062 519 
Q 1375 441 1716 441 
Q 2309 441 2620 675 
Q 2931 909 2931 1356 
Q 2931 1769 2642 2001 
Q 2353 2234 1838 2234 
L 1294 2234 
L 1294 2753 
L 1863 2753 
Q 2328 2753 2575 2939 
Q 2822 3125 2822 3475 
Q 2822 3834 2567 4026 
Q 2313 4219 1838 4219 
Q 1578 4219 1281 4162 
Q 984 4106 628 3988 
L 628 4550 
Q 988 4650 1302 4700 
Q 1616 4750 1894 4750 
Q 2613 4750 3031 4423 
Q 3450 4097 3450 3541 
Q 3450 3153 3228 2886 
Q 3006 2619 2597 2516 
z
" transform="scale(0.015625)"/>
       </defs>
       <use xlink:href="#DejaVuSans-30"/>
       <use xlink:href="#DejaVuSans-2e" x="63.623047"/>
       <use xlink:href="#DejaVuSans-33" x="95.410156"/>
      </g>
     </g>
    </g>
    <g id="ytick_5">
     <g id="line2d_12">
      <path d="M 108 269.29648 
L 777.6 269.29648 
" clip-path="url(#p09d712ef69)" style="fill: none; stroke: #ffffff; stroke-linecap: round"/>
     </g>
     <g id="text_13">
      <!-- 0.4 -->
      <g style="fill: #262626" transform="translate(73.055 275.37523) scale(0.16 -0.16)">
       <use xlink:href="#DejaVuSans-30"/>
       <use xlink:href="#DejaVuSans-2e" x="63.623047"/>
       <use xlink:href="#DejaVuSans-34" x="95.410156"/>
      </g>
     </g>
    </g>
    <g id="ytick_6">
     <g id="line2d_13">
      <path d="M 108 208.4606 
L 777.6 208.4606 
" clip-path="url(#p09d712ef69)" style="fill: none; stroke: #ffffff; stroke-linecap: round"/>
     </g>
     <g id="text_14">
      <!-- 0.5 -->
      <g style="fill: #262626" transform="translate(73.055 214.53935) scale(0.16 -0.16)">
       <defs>
        <path id="DejaVuSans-35" d="M 691 4666 
L 3169 4666 
L 3169 4134 
L 1269 4134 
L 1269 2991 
Q 1406 3038 1543 3061 
Q 1681 3084 1819 3084 
Q 2600 3084 3056 2656 
Q 3513 2228 3513 1497 
Q 3513 744 3044 326 
Q 2575 -91 1722 -91 
Q 1428 -91 1123 -41 
Q 819 9 494 109 
L 494 744 
Q 775 591 1075 516 
Q 1375 441 1709 441 
Q 2250 441 2565 725 
Q 2881 1009 2881 1497 
Q 2881 1984 2565 2268 
Q 2250 2553 1709 2553 
Q 1456 2553 1204 2497 
Q 953 2441 691 2322 
L 691 4666 
z
" transform="scale(0.015625)"/>
       </defs>
       <use xlink:href="#DejaVuSans-30"/>
       <use xlink:href="#DejaVuSans-2e" x="63.623047"/>
       <use xlink:href="#DejaVuSans-35" x="95.410156"/>
      </g>
     </g>
    </g>
    <g id="ytick_7">
     <g id="line2d_14">
      <path d="M 108 147.62472 
L 777.6 147.62472 
" clip-path="url(#p09d712ef69)" style="fill: none; stroke: #ffffff; stroke-linecap: round"/>
     </g>
     <g id="text_15">
      <!-- 0.6 -->
      <g style="fill: #262626" transform="translate(73.055 153.70347) scale(0.16 -0.16)">
       <use xlink:href="#DejaVuSans-30"/>
       <use xlink:href="#DejaVuSans-2e" x="63.623047"/>
       <use xlink:href="#DejaVuSans-36" x="95.410156"/>
      </g>
     </g>
    </g>
    <g id="ytick_8">
     <g id="line2d_15">
      <path d="M 108 86.78884 
L 777.6 86.78884 
" clip-path="url(#p09d712ef69)" style="fill: none; stroke: #ffffff; stroke-linecap: round"/>
     </g>
     <g id="text_16">
      <!-- 0.7 -->
      <g style="fill: #262626" transform="translate(73.055 92.86759) scale(0.16 -0.16)">
       <defs>
        <path id="DejaVuSans-37" d="M 525 4666 
L 3525 4666 
L 3525 4397 
L 1831 0 
L 1172 0 
L 2766 4134 
L 525 4134 
L 525 4666 
z
" transform="scale(0.015625)"/>
       </defs>
       <use xlink:href="#DejaVuSans-30"/>
       <use xlink:href="#DejaVuSans-2e" x="63.623047"/>
       <use xlink:href="#DejaVuSans-37" x="95.410156"/>
      </g>
     </g>
    </g>
    <g id="text_17">
     <!-- Frequency -->
     <g style="fill: #262626" transform="translate(65.7275 332.2075) rotate(-90) scale(0.16 -0.16)">
      <defs>
       <path id="DejaVuSans-46" d="M 628 4666 
L 3309 4666 
L 3309 4134 
L 1259 4134 
L 1259 2759 
L 3109 2759 
L 3109 2228 
L 1259 2228 
L 1259 0 
L 628 0 
L 628 4666 
z
" transform="scale(0.015625)"/>
       <path id="DejaVuSans-72" d="M 2631 2963 
Q 2534 3019 2420 3045 
Q 2306 3072 2169 3072 
Q 1681 3072 1420 2755 
Q 1159 2438 1159 1844 
L 1159 0 
L 581 0 
L 581 3500 
L 1159 3500 
L 1159 2956 
Q 1341 3275 1631 3429 
Q 1922 3584 2338 3584 
Q 2397 3584 2469 3576 
Q 2541 3569 2628 3553 
L 2631 2963 
z
" transform="scale(0.015625)"/>
       <path id="DejaVuSans-71" d="M 947 1747 
Q 947 1113 1208 752 
Q 1469 391 1925 391 
Q 2381 391 2643 752 
Q 2906 1113 2906 1747 
Q 2906 2381 2643 2742 
Q 2381 3103 1925 3103 
Q 1469 3103 1208 2742 
Q 947 2381 947 1747 
z
M 2906 525 
Q 2725 213 2448 61 
Q 2172 -91 1784 -91 
Q 1150 -91 751 415 
Q 353 922 353 1747 
Q 353 2572 751 3078 
Q 1150 3584 1784 3584 
Q 2172 3584 2448 3432 
Q 2725 3281 2906 2969 
L 2906 3500 
L 3481 3500 
L 3481 -1331 
L 2906 -1331 
L 2906 525 
z
" transform="scale(0.015625)"/>
       <path id="DejaVuSans-6e" d="M 3513 2113 
L 3513 0 
L 2938 0 
L 2938 2094 
Q 2938 2591 2744 2837 
Q 2550 3084 2163 3084 
Q 1697 3084 1428 2787 
Q 1159 2491 1159 1978 
L 1159 0 
L 581 0 
L 581 3500 
L 1159 3500 
L 1159 2956 
Q 1366 3272 1645 3428 
Q 1925 3584 2291 3584 
Q 2894 3584 3203 3211 
Q 3513 2838 3513 2113 
z
" transform="scale(0.015625)"/>
       <path id="DejaVuSans-63" d="M 3122 3366 
L 3122 2828 
Q 2878 2963 2633 3030 
Q 2388 3097 2138 3097 
Q 1578 3097 1268 2742 
Q 959 2388 959 1747 
Q 959 1106 1268 751 
Q 1578 397 2138 397 
Q 2388 397 2633 464 
Q 2878 531 3122 666 
L 3122 134 
Q 2881 22 2623 -34 
Q 2366 -91 2075 -91 
Q 1284 -91 818 406 
Q 353 903 353 1747 
Q 353 2603 823 3093 
Q 1294 3584 2113 3584 
Q 2378 3584 2631 3529 
Q 2884 3475 3122 3366 
z
" transform="scale(0.015625)"/>
       <path id="DejaVuSans-79" d="M 2059 -325 
Q 1816 -950 1584 -1140 
Q 1353 -1331 966 -1331 
L 506 -1331 
L 506 -850 
L 844 -850 
Q 1081 -850 1212 -737 
Q 1344 -625 1503 -206 
L 1606 56 
L 191 3500 
L 800 3500 
L 1894 763 
L 2988 3500 
L 3597 3500 
L 2059 -325 
z
" transform="scale(0.015625)"/>
      </defs>
      <use xlink:href="#DejaVuSans-46"/>
      <use xlink:href="#DejaVuSans-72" x="50.269531"/>
      <use xlink:href="#DejaVuSans-65" x="89.132812"/>
      <use xlink:href="#DejaVuSans-71" x="150.65625"/>
      <use xlink:href="#DejaVuSans-75" x="214.132812"/>
      <use xlink:href="#DejaVuSans-65" x="277.511719"/>
      <use xlink:href="#DejaVuSans-6e" x="339.035156"/>
      <use xlink:href="#DejaVuSans-63" x="402.414062"/>
      <use xlink:href="#DejaVuSans-79" x="457.394531"/>
     </g>
    </g>
   </g>
   <g id="patch_3">
    <path d="M 138.436364 512.64 
L 145.162632 512.64 
L 145.162632 107.327083 
L 138.436364 107.327083 
z
" clip-path="url(#p09d712ef69)" style="fill: #bbbbbb; stroke: #5a5a5a; stroke-linejoin: miter"/>
   </g>
   <g id="patch_4">
    <path d="M 145.162632 512.64 
L 151.8889 512.64 
L 151.8889 133.904979 
L 145.162632 133.904979 
z
" clip-path="url(#p09d712ef69)" style="fill: #bbbbbb; stroke: #5a5a5a; stroke-linejoin: miter"/>
   </g>
   <g id="patch_5">
    <path d="M 151.8889 512.64 
L 158.615168 512.64 
L 158.615168 176.872578 
L 151.8889 176.872578 
z
" clip-path="url(#p09d712ef69)" style="fill: #bbbbbb; stroke: #5a5a5a; stroke-linejoin: miter"/>
   </g>
   <g id="patch_6">
    <path d="M 158.615168 512.64 
L 165.341436 512.64 
L 165.341436 211.866808 
L 158.615168 211.866808 
z
" clip-path="url(#p09d712ef69)" style="fill: #bbbbbb; stroke: #5a5a5a; stroke-linejoin: miter"/>
   </g>
   <g id="patch_7">
    <path d="M 165.341436 512.64 
L 172.067705 512.64 
L 172.067705 215.410527 
L 165.341436 215.410527 
z
" clip-path="url(#p09d712ef69)" style="fill: #bbbbbb; stroke: #5a5a5a; stroke-linejoin: miter"/>
   </g>
   <g id="patch_8">
    <path d="M 172.067705 512.64 
L 178.793973 512.64 
L 178.793973 253.948477 
L 172.067705 253.948477 
z
" clip-path="url(#p09d712ef69)" style="fill: #bbbbbb; stroke: #5a5a5a; stroke-linejoin: miter"/>
   </g>
   <g id="patch_9">
    <path d="M 178.793973 512.64 
L 185.520241 512.64 
L 185.520241 274.767829 
L 178.793973 274.767829 
z
" clip-path="url(#p09d712ef69)" style="fill: #bbbbbb; stroke: #5a5a5a; stroke-linejoin: miter"/>
   </g>
   <g id="patch_10">
    <path d="M 185.520241 512.64 
L 192.246509 512.64 
L 192.246509 304.003515 
L 185.520241 304.003515 
z
" clip-path="url(#p09d712ef69)" style="fill: #bbbbbb; stroke: #5a5a5a; stroke-linejoin: miter"/>
   </g>
   <g id="patch_11">
    <path d="M 192.246509 512.64 
L 198.972777 512.64 
L 198.972777 321.279147 
L 192.246509 321.279147 
z
" clip-path="url(#p09d712ef69)" style="fill: #bbbbbb; stroke: #5a5a5a; stroke-linejoin: miter"/>
   </g>
   <g id="patch_12">
    <path d="M 198.972777 512.64 
L 205.699046 512.64 
L 205.699046 334.12513 
L 198.972777 334.12513 
z
" clip-path="url(#p09d712ef69)" style="fill: #bbbbbb; stroke: #5a5a5a; stroke-linejoin: miter"/>
   </g>
   <g id="patch_13">
    <path d="M 205.699046 512.64 
L 212.425314 512.64 
L 212.425314 350.071868 
L 205.699046 350.071868 
z
" clip-path="url(#p09d712ef69)" style="fill: #bbbbbb; stroke: #5a5a5a; stroke-linejoin: miter"/>
   </g>
   <g id="patch_14">
    <path d="M 212.425314 512.64 
L 219.151582 512.64 
L 219.151582 367.790466 
L 212.425314 367.790466 
z
" clip-path="url(#p09d712ef69)" style="fill: #bbbbbb; stroke: #5a5a5a; stroke-linejoin: miter"/>
   </g>
   <g id="patch_15">
    <path d="M 219.151582 512.64 
L 225.87785 512.64 
L 225.87785 378.864589 
L 219.151582 378.864589 
z
" clip-path="url(#p09d712ef69)" style="fill: #bbbbbb; stroke: #5a5a5a; stroke-linejoin: miter"/>
   </g>
   <g id="patch_16">
    <path d="M 225.87785 512.64 
L 232.604119 512.64 
L 232.604119 400.569871 
L 225.87785 400.569871 
z
" clip-path="url(#p09d712ef69)" style="fill: #bbbbbb; stroke: #5a5a5a; stroke-linejoin: miter"/>
   </g>
   <g id="patch_17">
    <path d="M 232.604119 512.64 
L 239.330387 512.64 
L 239.330387 402.784696 
L 232.604119 402.784696 
z
" clip-path="url(#p09d712ef69)" style="fill: #bbbbbb; stroke: #5a5a5a; stroke-linejoin: miter"/>
   </g>
   <g id="patch_18">
    <path d="M 239.330387 512.64 
L 246.056655 512.64 
L 246.056655 431.577417 
L 239.330387 431.577417 
z
" clip-path="url(#p09d712ef69)" style="fill: #bbbbbb; stroke: #5a5a5a; stroke-linejoin: miter"/>
   </g>
   <g id="patch_19">
    <path d="M 246.056655 512.64 
L 252.782923 512.64 
L 252.782923 437.778926 
L 246.056655 437.778926 
z
" clip-path="url(#p09d712ef69)" style="fill: #bbbbbb; stroke: #5a5a5a; stroke-linejoin: miter"/>
   </g>
   <g id="patch_20">
    <path d="M 252.782923 512.64 
L 259.509191 512.64 
L 259.509191 435.121136 
L 252.782923 435.121136 
z
" clip-path="url(#p09d712ef69)" style="fill: #bbbbbb; stroke: #5a5a5a; stroke-linejoin: miter"/>
   </g>
   <g id="patch_21">
    <path d="M 259.509191 512.64 
L 266.23546 512.64 
L 266.23546 440.436715 
L 259.509191 440.436715 
z
" clip-path="url(#p09d712ef69)" style="fill: #bbbbbb; stroke: #5a5a5a; stroke-linejoin: miter"/>
   </g>
   <g id="patch_22">
    <path d="M 266.23546 512.64 
L 272.961728 512.64 
L 272.961728 440.87968 
L 266.23546 440.87968 
z
" clip-path="url(#p09d712ef69)" style="fill: #bbbbbb; stroke: #5a5a5a; stroke-linejoin: miter"/>
   </g>
   <g id="patch_23">
    <path d="M 272.961728 512.64 
L 279.687996 512.64 
L 279.687996 455.054558 
L 272.961728 455.054558 
z
" clip-path="url(#p09d712ef69)" style="fill: #bbbbbb; stroke: #5a5a5a; stroke-linejoin: miter"/>
   </g>
   <g id="patch_24">
    <path d="M 279.687996 512.64 
L 286.414264 512.64 
L 286.414264 452.396769 
L 279.687996 452.396769 
z
" clip-path="url(#p09d712ef69)" style="fill: #bbbbbb; stroke: #5a5a5a; stroke-linejoin: miter"/>
   </g>
   <g id="patch_25">
    <path d="M 286.414264 512.64 
L 293.140532 512.64 
L 293.140532 464.799787 
L 286.414264 464.799787 
z
" clip-path="url(#p09d712ef69)" style="fill: #bbbbbb; stroke: #5a5a5a; stroke-linejoin: miter"/>
   </g>
   <g id="patch_26">
    <path d="M 293.140532 512.64 
L 299.866801 512.64 
L 299.866801 466.128682 
L 293.140532 466.128682 
z
" clip-path="url(#p09d712ef69)" style="fill: #bbbbbb; stroke: #5a5a5a; stroke-linejoin: miter"/>
   </g>
   <g id="patch_27">
    <path d="M 299.866801 512.64 
L 306.593069 512.64 
L 306.593069 478.974665 
L 299.866801 478.974665 
z
" clip-path="url(#p09d712ef69)" style="fill: #bbbbbb; stroke: #5a5a5a; stroke-linejoin: miter"/>
   </g>
   <g id="patch_28">
    <path d="M 306.593069 512.64 
L 313.319337 512.64 
L 313.319337 477.64577 
L 306.593069 477.64577 
z
" clip-path="url(#p09d712ef69)" style="fill: #bbbbbb; stroke: #5a5a5a; stroke-linejoin: miter"/>
   </g>
   <g id="patch_29">
    <path d="M 313.319337 512.64 
L 320.045605 512.64 
L 320.045605 483.404314 
L 313.319337 483.404314 
z
" clip-path="url(#p09d712ef69)" style="fill: #bbbbbb; stroke: #5a5a5a; stroke-linejoin: miter"/>
   </g>
   <g id="patch_30">
    <path d="M 320.045605 512.64 
L 326.771873 512.64 
L 326.771873 493.149543 
L 320.045605 493.149543 
z
" clip-path="url(#p09d712ef69)" style="fill: #bbbbbb; stroke: #5a5a5a; stroke-linejoin: miter"/>
   </g>
   <g id="patch_31">
    <path d="M 326.771873 512.64 
L 333.498142 512.64 
L 333.498142 489.605823 
L 326.771873 489.605823 
z
" clip-path="url(#p09d712ef69)" style="fill: #bbbbbb; stroke: #5a5a5a; stroke-linejoin: miter"/>
   </g>
   <g id="patch_32">
    <path d="M 333.498142 512.64 
L 340.22441 512.64 
L 340.22441 485.619139 
L 333.498142 485.619139 
z
" clip-path="url(#p09d712ef69)" style="fill: #bbbbbb; stroke: #5a5a5a; stroke-linejoin: miter"/>
   </g>
   <g id="patch_33">
    <path d="M 340.22441 512.64 
L 346.950678 512.64 
L 346.950678 483.404314 
L 340.22441 483.404314 
z
" clip-path="url(#p09d712ef69)" style="fill: #bbbbbb; stroke: #5a5a5a; stroke-linejoin: miter"/>
   </g>
   <g id="patch_34">
    <path d="M 346.950678 512.64 
L 353.676946 512.64 
L 353.676946 494.478438 
L 346.950678 494.478438 
z
" clip-path="url(#p09d712ef69)" style="fill: #bbbbbb; stroke: #5a5a5a; stroke-linejoin: miter"/>
   </g>
   <g id="patch_35">
    <path d="M 353.676946 512.64 
L 360.403214 512.64 
L 360.403214 501.122912 
L 353.676946 501.122912 
z
" clip-path="url(#p09d712ef69)" style="fill: #bbbbbb; stroke: #5a5a5a; stroke-linejoin: miter"/>
   </g>
   <g id="patch_36">
    <path d="M 360.403214 512.64 
L 367.129483 512.64 
L 367.129483 495.807332 
L 360.403214 495.807332 
z
" clip-path="url(#p09d712ef69)" style="fill: #bbbbbb; stroke: #5a5a5a; stroke-linejoin: miter"/>
   </g>
   <g id="patch_37">
    <path d="M 367.129483 512.64 
L 373.855751 512.64 
L 373.855751 500.236982 
L 367.129483 500.236982 
z
" clip-path="url(#p09d712ef69)" style="fill: #bbbbbb; stroke: #5a5a5a; stroke-linejoin: miter"/>
   </g>
   <g id="patch_38">
    <path d="M 373.855751 512.64 
L 380.582019 512.64 
L 380.582019 500.236982 
L 373.855751 500.236982 
z
" clip-path="url(#p09d712ef69)" style="fill: #bbbbbb; stroke: #5a5a5a; stroke-linejoin: miter"/>
   </g>
   <g id="patch_39">
    <path d="M 380.582019 512.64 
L 387.308287 512.64 
L 387.308287 499.794017 
L 380.582019 499.794017 
z
" clip-path="url(#p09d712ef69)" style="fill: #bbbbbb; stroke: #5a5a5a; stroke-linejoin: miter"/>
   </g>
   <g id="patch_40">
    <path d="M 387.308287 512.64 
L 394.034555 512.64 
L 394.034555 501.122912 
L 387.308287 501.122912 
z
" clip-path="url(#p09d712ef69)" style="fill: #bbbbbb; stroke: #5a5a5a; stroke-linejoin: miter"/>
   </g>
   <g id="patch_41">
    <path d="M 394.034555 512.64 
L 400.760824 512.64 
L 400.760824 501.565877 
L 394.034555 501.565877 
z
" clip-path="url(#p09d712ef69)" style="fill: #bbbbbb; stroke: #5a5a5a; stroke-linejoin: miter"/>
   </g>
   <g id="patch_42">
    <path d="M 400.760824 512.64 
L 407.487092 512.64 
L 407.487092 502.894771 
L 400.760824 502.894771 
z
" clip-path="url(#p09d712ef69)" style="fill: #bbbbbb; stroke: #5a5a5a; stroke-linejoin: miter"/>
   </g>
   <g id="patch_43">
    <path d="M 407.487092 512.64 
L 414.21336 512.64 
L 414.21336 504.223666 
L 407.487092 504.223666 
z
" clip-path="url(#p09d712ef69)" style="fill: #bbbbbb; stroke: #5a5a5a; stroke-linejoin: miter"/>
   </g>
   <g id="patch_44">
    <path d="M 414.21336 512.64 
L 420.939628 512.64 
L 420.939628 505.995526 
L 414.21336 505.995526 
z
" clip-path="url(#p09d712ef69)" style="fill: #bbbbbb; stroke: #5a5a5a; stroke-linejoin: miter"/>
   </g>
   <g id="patch_45">
    <path d="M 420.939628 512.64 
L 427.665897 512.64 
L 427.665897 507.767386 
L 420.939628 507.767386 
z
" clip-path="url(#p09d712ef69)" style="fill: #bbbbbb; stroke: #5a5a5a; stroke-linejoin: miter"/>
   </g>
   <g id="patch_46">
    <path d="M 427.665897 512.64 
L 434.392165 512.64 
L 434.392165 506.438491 
L 427.665897 506.438491 
z
" clip-path="url(#p09d712ef69)" style="fill: #bbbbbb; stroke: #5a5a5a; stroke-linejoin: miter"/>
   </g>
   <g id="patch_47">
    <path d="M 434.392165 512.64 
L 441.118433 512.64 
L 441.118433 504.666631 
L 434.392165 504.666631 
z
" clip-path="url(#p09d712ef69)" style="fill: #bbbbbb; stroke: #5a5a5a; stroke-linejoin: miter"/>
   </g>
   <g id="patch_48">
    <path d="M 441.118433 512.64 
L 447.844701 512.64 
L 447.844701 512.197035 
L 441.118433 512.197035 
z
" clip-path="url(#p09d712ef69)" style="fill: #bbbbbb; stroke: #5a5a5a; stroke-linejoin: miter"/>
   </g>
   <g id="patch_49">
    <path d="M 447.844701 512.64 
L 454.570969 512.64 
L 454.570969 509.096281 
L 447.844701 509.096281 
z
" clip-path="url(#p09d712ef69)" style="fill: #bbbbbb; stroke: #5a5a5a; stroke-linejoin: miter"/>
   </g>
   <g id="patch_50">
    <path d="M 454.570969 512.64 
L 461.297238 512.64 
L 461.297238 510.425175 
L 454.570969 510.425175 
z
" clip-path="url(#p09d712ef69)" style="fill: #bbbbbb; stroke: #5a5a5a; stroke-linejoin: miter"/>
   </g>
   <g id="patch_51">
    <path d="M 461.297238 512.64 
L 468.023506 512.64 
L 468.023506 507.767386 
L 461.297238 507.767386 
z
" clip-path="url(#p09d712ef69)" style="fill: #bbbbbb; stroke: #5a5a5a; stroke-linejoin: miter"/>
   </g>
   <g id="patch_52">
    <path d="M 468.023506 512.64 
L 474.749774 512.64 
L 474.749774 511.311105 
L 468.023506 511.311105 
z
" clip-path="url(#p09d712ef69)" style="fill: #bbbbbb; stroke: #5a5a5a; stroke-linejoin: miter"/>
   </g>
   <g id="patch_53">
    <path d="M 474.749774 512.64 
L 481.476042 512.64 
L 481.476042 510.86814 
L 474.749774 510.86814 
z
" clip-path="url(#p09d712ef69)" style="fill: #bbbbbb; stroke: #5a5a5a; stroke-linejoin: miter"/>
   </g>
   <g id="patch_54">
    <path d="M 481.476042 512.64 
L 488.20231 512.64 
L 488.20231 509.98221 
L 481.476042 509.98221 
z
" clip-path="url(#p09d712ef69)" style="fill: #bbbbbb; stroke: #5a5a5a; stroke-linejoin: miter"/>
   </g>
   <g id="patch_55">
    <path d="M 488.20231 512.64 
L 494.928579 512.64 
L 494.928579 511.75407 
L 488.20231 511.75407 
z
" clip-path="url(#p09d712ef69)" style="fill: #bbbbbb; stroke: #5a5a5a; stroke-linejoin: miter"/>
   </g>
   <g id="patch_56">
    <path d="M 494.928579 512.64 
L 501.654847 512.64 
L 501.654847 511.311105 
L 494.928579 511.311105 
z
" clip-path="url(#p09d712ef69)" style="fill: #bbbbbb; stroke: #5a5a5a; stroke-linejoin: miter"/>
   </g>
   <g id="patch_57">
    <path d="M 501.654847 512.64 
L 508.381115 512.64 
L 508.381115 509.539245 
L 501.654847 509.539245 
z
" clip-path="url(#p09d712ef69)" style="fill: #bbbbbb; stroke: #5a5a5a; stroke-linejoin: miter"/>
   </g>
   <g id="patch_58">
    <path d="M 508.381115 512.64 
L 515.107383 512.64 
L 515.107383 510.86814 
L 508.381115 510.86814 
z
" clip-path="url(#p09d712ef69)" style="fill: #bbbbbb; stroke: #5a5a5a; stroke-linejoin: miter"/>
   </g>
   <g id="patch_59">
    <path d="M 515.107383 512.64 
L 521.833651 512.64 
L 521.833651 511.311105 
L 515.107383 511.311105 
z
" clip-path="url(#p09d712ef69)" style="fill: #bbbbbb; stroke: #5a5a5a; stroke-linejoin: miter"/>
   </g>
   <g id="patch_60">
    <path d="M 521.833651 512.64 
L 528.55992 512.64 
L 528.55992 512.64 
L 521.833651 512.64 
z
" clip-path="url(#p09d712ef69)" style="fill: #bbbbbb; stroke: #5a5a5a; stroke-linejoin: miter"/>
   </g>
   <g id="patch_61">
    <path d="M 528.55992 512.64 
L 535.286188 512.64 
L 535.286188 512.197035 
L 528.55992 512.197035 
z
" clip-path="url(#p09d712ef69)" style="fill: #bbbbbb; stroke: #5a5a5a; stroke-linejoin: miter"/>
   </g>
   <g id="patch_62">
    <path d="M 535.286188 512.64 
L 542.012456 512.64 
L 542.012456 511.75407 
L 535.286188 511.75407 
z
" clip-path="url(#p09d712ef69)" style="fill: #bbbbbb; stroke: #5a5a5a; stroke-linejoin: miter"/>
   </g>
   <g id="patch_63">
    <path d="M 542.012456 512.64 
L 548.738724 512.64 
L 548.738724 511.75407 
L 542.012456 511.75407 
z
" clip-path="url(#p09d712ef69)" style="fill: #bbbbbb; stroke: #5a5a5a; stroke-linejoin: miter"/>
   </g>
   <g id="patch_64">
    <path d="M 548.738724 512.64 
L 555.464992 512.64 
L 555.464992 512.64 
L 548.738724 512.64 
z
" clip-path="url(#p09d712ef69)" style="fill: #bbbbbb; stroke: #5a5a5a; stroke-linejoin: miter"/>
   </g>
   <g id="patch_65">
    <path d="M 555.464992 512.64 
L 562.191261 512.64 
L 562.191261 512.64 
L 555.464992 512.64 
z
" clip-path="url(#p09d712ef69)" style="fill: #bbbbbb; stroke: #5a5a5a; stroke-linejoin: miter"/>
   </g>
   <g id="patch_66">
    <path d="M 562.191261 512.64 
L 568.917529 512.64 
L 568.917529 512.197035 
L 562.191261 512.197035 
z
" clip-path="url(#p09d712ef69)" style="fill: #bbbbbb; stroke: #5a5a5a; stroke-linejoin: miter"/>
   </g>
   <g id="patch_67">
    <path d="M 568.917529 512.64 
L 575.643797 512.64 
L 575.643797 511.311105 
L 568.917529 511.311105 
z
" clip-path="url(#p09d712ef69)" style="fill: #bbbbbb; stroke: #5a5a5a; stroke-linejoin: miter"/>
   </g>
   <g id="patch_68">
    <path d="M 575.643797 512.64 
L 582.370065 512.64 
L 582.370065 512.197035 
L 575.643797 512.197035 
z
" clip-path="url(#p09d712ef69)" style="fill: #bbbbbb; stroke: #5a5a5a; stroke-linejoin: miter"/>
   </g>
   <g id="patch_69">
    <path d="M 582.370065 512.64 
L 589.096334 512.64 
L 589.096334 512.64 
L 582.370065 512.64 
z
" clip-path="url(#p09d712ef69)" style="fill: #bbbbbb; stroke: #5a5a5a; stroke-linejoin: miter"/>
   </g>
   <g id="patch_70">
    <path d="M 589.096334 512.64 
L 595.822602 512.64 
L 595.822602 512.197035 
L 589.096334 512.197035 
z
" clip-path="url(#p09d712ef69)" style="fill: #bbbbbb; stroke: #5a5a5a; stroke-linejoin: miter"/>
   </g>
   <g id="patch_71">
    <path d="M 595.822602 512.64 
L 602.54887 512.64 
L 602.54887 512.197035 
L 595.822602 512.197035 
z
" clip-path="url(#p09d712ef69)" style="fill: #bbbbbb; stroke: #5a5a5a; stroke-linejoin: miter"/>
   </g>
   <g id="patch_72">
    <path d="M 602.54887 512.64 
L 609.275138 512.64 
L 609.275138 512.197035 
L 602.54887 512.197035 
z
" clip-path="url(#p09d712ef69)" style="fill: #bbbbbb; stroke: #5a5a5a; stroke-linejoin: miter"/>
   </g>
   <g id="patch_73">
    <path d="M 609.275138 512.64 
L 616.001406 512.64 
L 616.001406 512.64 
L 609.275138 512.64 
z
" clip-path="url(#p09d712ef69)" style="fill: #bbbbbb; stroke: #5a5a5a; stroke-linejoin: miter"/>
   </g>
   <g id="patch_74">
    <path d="M 616.001406 512.64 
L 622.727675 512.64 
L 622.727675 511.75407 
L 616.001406 511.75407 
z
" clip-path="url(#p09d712ef69)" style="fill: #bbbbbb; stroke: #5a5a5a; stroke-linejoin: miter"/>
   </g>
   <g id="patch_75">
    <path d="M 622.727675 512.64 
L 629.453943 512.64 
L 629.453943 511.75407 
L 622.727675 511.75407 
z
" clip-path="url(#p09d712ef69)" style="fill: #bbbbbb; stroke: #5a5a5a; stroke-linejoin: miter"/>
   </g>
   <g id="patch_76">
    <path d="M 629.453943 512.64 
L 636.180211 512.64 
L 636.180211 512.64 
L 629.453943 512.64 
z
" clip-path="url(#p09d712ef69)" style="fill: #bbbbbb; stroke: #5a5a5a; stroke-linejoin: miter"/>
   </g>
   <g id="patch_77">
    <path d="M 636.180211 512.64 
L 642.906479 512.64 
L 642.906479 511.75407 
L 636.180211 511.75407 
z
" clip-path="url(#p09d712ef69)" style="fill: #bbbbbb; stroke: #5a5a5a; stroke-linejoin: miter"/>
   </g>
   <g id="patch_78">
    <path d="M 642.906479 512.64 
L 649.632747 512.64 
L 649.632747 512.197035 
L 642.906479 512.197035 
z
" clip-path="url(#p09d712ef69)" style="fill: #bbbbbb; stroke: #5a5a5a; stroke-linejoin: miter"/>
   </g>
   <g id="patch_79">
    <path d="M 649.632747 512.64 
L 656.359016 512.64 
L 656.359016 512.197035 
L 649.632747 512.197035 
z
" clip-path="url(#p09d712ef69)" style="fill: #bbbbbb; stroke: #5a5a5a; stroke-linejoin: miter"/>
   </g>
   <g id="patch_80">
    <path d="M 656.359016 512.64 
L 663.085284 512.64 
L 663.085284 512.197035 
L 656.359016 512.197035 
z
" clip-path="url(#p09d712ef69)" style="fill: #bbbbbb; stroke: #5a5a5a; stroke-linejoin: miter"/>
   </g>
   <g id="patch_81">
    <path d="M 663.085284 512.64 
L 669.811552 512.64 
L 669.811552 512.197035 
L 663.085284 512.197035 
z
" clip-path="url(#p09d712ef69)" style="fill: #bbbbbb; stroke: #5a5a5a; stroke-linejoin: miter"/>
   </g>
   <g id="patch_82">
    <path d="M 669.811552 512.64 
L 676.53782 512.64 
L 676.53782 512.64 
L 669.811552 512.64 
z
" clip-path="url(#p09d712ef69)" style="fill: #bbbbbb; stroke: #5a5a5a; stroke-linejoin: miter"/>
   </g>
   <g id="patch_83">
    <path d="M 676.53782 512.64 
L 683.264088 512.64 
L 683.264088 512.197035 
L 676.53782 512.197035 
z
" clip-path="url(#p09d712ef69)" style="fill: #bbbbbb; stroke: #5a5a5a; stroke-linejoin: miter"/>
   </g>
   <g id="patch_84">
    <path d="M 683.264088 512.64 
L 689.990357 512.64 
L 689.990357 512.64 
L 683.264088 512.64 
z
" clip-path="url(#p09d712ef69)" style="fill: #bbbbbb; stroke: #5a5a5a; stroke-linejoin: miter"/>
   </g>
   <g id="patch_85">
    <path d="M 689.990357 512.64 
L 696.716625 512.64 
L 696.716625 512.64 
L 689.990357 512.64 
z
" clip-path="url(#p09d712ef69)" style="fill: #bbbbbb; stroke: #5a5a5a; stroke-linejoin: miter"/>
   </g>
   <g id="patch_86">
    <path d="M 696.716625 512.64 
L 703.442893 512.64 
L 703.442893 512.64 
L 696.716625 512.64 
z
" clip-path="url(#p09d712ef69)" style="fill: #bbbbbb; stroke: #5a5a5a; stroke-linejoin: miter"/>
   </g>
   <g id="patch_87">
    <path d="M 703.442893 512.64 
L 710.169161 512.64 
L 710.169161 512.64 
L 703.442893 512.64 
z
" clip-path="url(#p09d712ef69)" style="fill: #bbbbbb; stroke: #5a5a5a; stroke-linejoin: miter"/>
   </g>
   <g id="patch_88">
    <path d="M 710.169161 512.64 
L 716.895429 512.64 
L 716.895429 512.64 
L 710.169161 512.64 
z
" clip-path="url(#p09d712ef69)" style="fill: #bbbbbb; stroke: #5a5a5a; stroke-linejoin: miter"/>
   </g>
   <g id="patch_89">
    <path d="M 716.895429 512.64 
L 723.621698 512.64 
L 723.621698 512.64 
L 716.895429 512.64 
z
" clip-path="url(#p09d712ef69)" style="fill: #bbbbbb; stroke: #5a5a5a; stroke-linejoin: miter"/>
   </g>
   <g id="patch_90">
    <path d="M 723.621698 512.64 
L 730.347966 512.64 
L 730.347966 512.64 
L 723.621698 512.64 
z
" clip-path="url(#p09d712ef69)" style="fill: #bbbbbb; stroke: #5a5a5a; stroke-linejoin: miter"/>
   </g>
   <g id="patch_91">
    <path d="M 730.347966 512.64 
L 737.074234 512.64 
L 737.074234 512.64 
L 730.347966 512.64 
z
" clip-path="url(#p09d712ef69)" style="fill: #bbbbbb; stroke: #5a5a5a; stroke-linejoin: miter"/>
   </g>
   <g id="patch_92">
    <path d="M 737.074234 512.64 
L 743.800502 512.64 
L 743.800502 512.64 
L 737.074234 512.64 
z
" clip-path="url(#p09d712ef69)" style="fill: #bbbbbb; stroke: #5a5a5a; stroke-linejoin: miter"/>
   </g>
   <g id="line2d_16">
    <path d="M 141.799498 107.327083 
L 148.525766 133.904979 
L 155.252034 176.872578 
L 161.978302 211.866808 
L 168.704571 215.410527 
L 175.430839 253.948477 
L 182.157107 274.767829 
L 188.883375 304.003515 
L 195.609643 321.279147 
L 202.335912 334.12513 
L 209.06218 350.071868 
L 215.788448 367.790466 
L 222.514716 378.864589 
L 229.240984 400.569871 
L 235.967253 402.784696 
L 242.693521 431.577417 
L 249.419789 437.778926 
L 256.146057 435.121136 
L 262.872325 440.436715 
L 269.598594 440.87968 
L 276.324862 455.054558 
L 283.05113 452.396769 
L 289.777398 464.799787 
L 296.503666 466.128682 
L 303.229935 478.974665 
L 309.956203 477.64577 
L 316.682471 483.404314 
L 323.408739 493.149543 
L 330.135008 489.605823 
L 336.861276 485.619139 
L 343.587544 483.404314 
L 350.313812 494.478438 
L 357.04008 501.122912 
L 363.766349 495.807332 
L 370.492617 500.236982 
L 377.218885 500.236982 
L 383.945153 499.794017 
L 390.671421 501.122912 
L 397.39769 501.565877 
L 404.123958 502.894771 
L 410.850226 504.223666 
L 417.576494 505.995526 
L 424.302762 507.767386 
L 431.029031 506.438491 
L 437.755299 504.666631 
L 444.481567 512.197035 
L 451.207835 509.096281 
L 457.934103 510.425175 
L 464.660372 507.767386 
L 471.38664 511.311105 
L 478.112908 510.86814 
L 484.839176 509.98221 
L 491.565445 511.75407 
L 498.291713 511.311105 
L 505.017981 509.539245 
L 511.744249 510.86814 
L 518.470517 511.311105 
L 525.196786 512.64 
L 531.923054 512.197035 
L 538.649322 511.75407 
L 545.37559 511.75407 
L 552.101858 512.64 
L 558.828127 512.64 
L 565.554395 512.197035 
L 572.280663 511.311105 
L 579.006931 512.197035 
L 585.733199 512.64 
L 592.459468 512.197035 
L 599.185736 512.197035 
L 605.912004 512.197035 
L 612.638272 512.64 
L 619.36454 511.75407 
L 626.090809 511.75407 
L 632.817077 512.64 
L 639.543345 511.75407 
L 646.269613 512.197035 
L 652.995881 512.197035 
L 659.72215 512.197035 
L 666.448418 512.197035 
L 673.174686 512.64 
L 679.900954 512.197035 
L 686.627223 512.64 
L 693.353491 512.64 
L 700.079759 512.64 
L 706.806027 512.64 
L 713.532295 512.64 
L 720.258564 512.64 
L 726.984832 512.64 
L 733.7111 512.64 
L 740.437368 512.64 
L 747.163636 512.197035 
" clip-path="url(#p09d712ef69)" style="fill: none; stroke: #000000; stroke-width: 3; stroke-linecap: round"/>
   </g>
   <g id="line2d_17">
    <path d="M 141.799498 90.24 
L 145.735152 114.309126 
L 149.670806 137.006749 
L 153.60646 158.41102 
L 157.542114 178.595636 
L 161.477768 197.630096 
L 165.413422 215.579938 
L 169.349076 232.506965 
L 173.28473 248.469458 
L 177.220384 263.52238 
L 181.216587 277.929506 
L 185.212789 291.503431 
L 189.208992 304.292339 
L 193.205194 316.341632 
L 197.201397 327.694082 
L 201.197599 338.389991 
L 205.25435 348.615444 
L 209.311102 358.24084 
L 213.367853 367.301393 
L 217.485152 375.953678 
L 221.602452 384.090877 
L 225.719751 391.743652 
L 229.8976 399.043423 
L 234.075448 405.902431 
L 238.313844 412.437773 
L 242.612789 418.657837 
L 246.911735 424.491789 
L 251.271228 430.038189 
L 255.691271 435.305437 
L 260.171861 440.302132 
L 264.713001 445.03703 
L 269.375237 449.575952 
L 274.098022 453.863203 
L 278.941904 457.957799 
L 283.846334 461.813048 
L 288.871861 465.4817 
L 294.018486 468.964467 
L 299.286208 472.262977 
L 304.735575 475.413314 
L 310.366587 478.410665 
L 316.179246 481.25179 
L 322.173549 483.934928 
L 328.410047 486.483313 
L 334.949288 488.912781 
L 341.730723 491.194166 
L 348.875448 493.360887 
L 356.383465 495.402306 
L 364.254773 497.310807 
L 372.61047 499.106086 
L 381.511103 500.787784 
L 391.017221 502.353783 
L 401.189373 503.801067 
L 412.148655 505.133318 
L 424.076715 506.356173 
L 437.155196 507.469264 
L 451.565744 508.468842 
L 467.671652 509.359162 
L 485.957306 510.14195 
L 507.028192 510.815325 
L 531.913635 511.380861 
L 562.248445 511.838908 
L 600.9995 512.190424 
L 654.403298 512.437204 
L 739.352877 512.582841 
L 747.163636 512.589124 
L 747.163636 512.589124 
" clip-path="url(#p09d712ef69)" style="fill: none; stroke: #5d5d5d; stroke-width: 2; stroke-linecap: round"/>
   </g>
   <g id="line2d_18">
    <path d="M 141.877195 512.64 
L 141.877195 69.12 
" clip-path="url(#p09d712ef69)" style="fill: none; stroke-dasharray: 11.1,4.8; stroke-dashoffset: 0; stroke: #c41e3a; stroke-width: 3"/>
   </g>
   <g id="line2d_19">
    <path d="M 339.394603 512.64 
L 339.394603 69.12 
" clip-path="url(#p09d712ef69)" style="fill: none; stroke-dasharray: 11.1,4.8; stroke-dashoffset: 0; stroke: #c41e3a; stroke-width: 3"/>
   </g>
   <g id="patch_93">
    <path d="M 108 512.64 
L 108 69.12 
" style="fill: none; stroke: #ffffff; stroke-width: 1.25; stroke-linejoin: miter; stroke-linecap: square"/>
   </g>
   <g id="patch_94">
    <path d="M 777.6 512.64 
L 777.6 69.12 
" style="fill: none; stroke: #ffffff; stroke-width: 1.25; stroke-linejoin: miter; stroke-linecap: square"/>
   </g>
   <g id="patch_95">
    <path d="M 108 512.64 
L 777.6 512.64 
" style="fill: none; stroke: #ffffff; stroke-width: 1.25; stroke-linejoin: miter; stroke-linecap: square"/>
   </g>
   <g id="patch_96">
    <path d="M 108 69.12 
L 777.6 69.12 
" style="fill: none; stroke: #ffffff; stroke-width: 1.25; stroke-linejoin: miter; stroke-linecap: square"/>
   </g>
   <g id="text_18">
    <!-- inter-arrival time -->
    <g style="fill: #262626" transform="translate(375.745 45.2035) scale(0.16 -0.16)">
     <defs>
      <path id="DejaVuSans-69" d="M 603 3500 
L 1178 3500 
L 1178 0 
L 603 0 
L 603 3500 
z
M 603 4863 
L 1178 4863 
L 1178 4134 
L 603 4134 
L 603 4863 
z
" transform="scale(0.015625)"/>
      <path id="DejaVuSans-74" d="M 1172 4494 
L 1172 3500 
L 2356 3500 
L 2356 3053 
L 1172 3053 
L 1172 1153 
Q 1172 725 1289 603 
Q 1406 481 1766 481 
L 2356 481 
L 2356 0 
L 1766 0 
Q 1100 0 847 248 
Q 594 497 594 1153 
L 594 3053 
L 172 3053 
L 172 3500 
L 594 3500 
L 594 4494 
L 1172 4494 
z
" transform="scale(0.015625)"/>
      <path id="DejaVuSans-2d" d="M 313 2009 
L 1997 2009 
L 1997 1497 
L 313 1497 
L 313 2009 
z
" transform="scale(0.015625)"/>
      <path id="DejaVuSans-76" d="M 191 3500 
L 800 3500 
L 1894 563 
L 2988 3500 
L 3597 3500 
L 2284 0 
L 1503 0 
L 191 3500 
z
" transform="scale(0.015625)"/>
      <path id="DejaVuSans-20" transform="scale(0.015625)"/>
      <path id="DejaVuSans-6d" d="M 3328 2828 
Q 3544 3216 3844 3400 
Q 4144 3584 4550 3584 
Q 5097 3584 5394 3201 
Q 5691 2819 5691 2113 
L 5691 0 
L 5113 0 
L 5113 2094 
Q 5113 2597 4934 2840 
Q 4756 3084 4391 3084 
Q 3944 3084 3684 2787 
Q 3425 2491 3425 1978 
L 3425 0 
L 2847 0 
L 2847 2094 
Q 2847 2600 2669 2842 
Q 2491 3084 2119 3084 
Q 1678 3084 1418 2786 
Q 1159 2488 1159 1978 
L 1159 0 
L 581 0 
L 581 3500 
L 1159 3500 
L 1159 2956 
Q 1356 3278 1631 3431 
Q 1906 3584 2284 3584 
Q 2666 3584 2933 3390 
Q 3200 3197 3328 2828 
z
" transform="scale(0.015625)"/>
     </defs>
     <use xlink:href="#DejaVuSans-69"/>
     <use xlink:href="#DejaVuSans-6e" x="27.783203"/>
     <use xlink:href="#DejaVuSans-74" x="91.162109"/>
     <use xlink:href="#DejaVuSans-65" x="130.371094"/>
     <use xlink:href="#DejaVuSans-72" x="191.894531"/>
     <use xlink:href="#DejaVuSans-2d" x="226.632812"/>
     <use xlink:href="#DejaVuSans-61" x="262.716797"/>
     <use xlink:href="#DejaVuSans-72" x="323.996094"/>
     <use xlink:href="#DejaVuSans-72" x="363.359375"/>
     <use xlink:href="#DejaVuSans-69" x="404.472656"/>
     <use xlink:href="#DejaVuSans-76" x="432.255859"/>
     <use xlink:href="#DejaVuSans-61" x="491.435547"/>
     <use xlink:href="#DejaVuSans-6c" x="552.714844"/>
     <use xlink:href="#DejaVuSans-20" x="580.498047"/>
     <use xlink:href="#DejaVuSans-74" x="612.285156"/>
     <use xlink:href="#DejaVuSans-69" x="651.494141"/>
     <use xlink:href="#DejaVuSans-6d" x="679.277344"/>
     <use xlink:href="#DejaVuSans-65" x="776.689453"/>
    </g>
    <!-- expon(loc=0, scale=1.36982) -->
    <g style="fill: #262626" transform="translate(323.20125 63.12) scale(0.16 -0.16)">
     <defs>
      <path id="DejaVuSans-78" d="M 3513 3500 
L 2247 1797 
L 3578 0 
L 2900 0 
L 1881 1375 
L 863 0 
L 184 0 
L 1544 1831 
L 300 3500 
L 978 3500 
L 1906 2253 
L 2834 3500 
L 3513 3500 
z
" transform="scale(0.015625)"/>
      <path id="DejaVuSans-70" d="M 1159 525 
L 1159 -1331 
L 581 -1331 
L 581 3500 
L 1159 3500 
L 1159 2969 
Q 1341 3281 1617 3432 
Q 1894 3584 2278 3584 
Q 2916 3584 3314 3078 
Q 3713 2572 3713 1747 
Q 3713 922 3314 415 
Q 2916 -91 2278 -91 
Q 1894 -91 1617 61 
Q 1341 213 1159 525 
z
M 3116 1747 
Q 3116 2381 2855 2742 
Q 2594 3103 2138 3103 
Q 1681 3103 1420 2742 
Q 1159 2381 1159 1747 
Q 1159 1113 1420 752 
Q 1681 391 2138 391 
Q 2594 391 2855 752 
Q 3116 1113 3116 1747 
z
" transform="scale(0.015625)"/>
      <path id="DejaVuSans-6f" d="M 1959 3097 
Q 1497 3097 1228 2736 
Q 959 2375 959 1747 
Q 959 1119 1226 758 
Q 1494 397 1959 397 
Q 2419 397 2687 759 
Q 2956 1122 2956 1747 
Q 2956 2369 2687 2733 
Q 2419 3097 1959 3097 
z
M 1959 3584 
Q 2709 3584 3137 3096 
Q 3566 2609 3566 1747 
Q 3566 888 3137 398 
Q 2709 -91 1959 -91 
Q 1206 -91 779 398 
Q 353 888 353 1747 
Q 353 2609 779 3096 
Q 1206 3584 1959 3584 
z
" transform="scale(0.015625)"/>
      <path id="DejaVuSans-28" d="M 1984 4856 
Q 1566 4138 1362 3434 
Q 1159 2731 1159 2009 
Q 1159 1288 1364 580 
Q 1569 -128 1984 -844 
L 1484 -844 
Q 1016 -109 783 600 
Q 550 1309 550 2009 
Q 550 2706 781 3412 
Q 1013 4119 1484 4856 
L 1984 4856 
z
" transform="scale(0.015625)"/>
      <path id="DejaVuSans-3d" d="M 678 2906 
L 4684 2906 
L 4684 2381 
L 678 2381 
L 678 2906 
z
M 678 1631 
L 4684 1631 
L 4684 1100 
L 678 1100 
L 678 1631 
z
" transform="scale(0.015625)"/>
      <path id="DejaVuSans-2c" d="M 750 794 
L 1409 794 
L 1409 256 
L 897 -744 
L 494 -744 
L 750 256 
L 750 794 
z
" transform="scale(0.015625)"/>
      <path id="DejaVuSans-39" d="M 703 97 
L 703 672 
Q 941 559 1184 500 
Q 1428 441 1663 441 
Q 2288 441 2617 861 
Q 2947 1281 2994 2138 
Q 2813 1869 2534 1725 
Q 2256 1581 1919 1581 
Q 1219 1581 811 2004 
Q 403 2428 403 3163 
Q 403 3881 828 4315 
Q 1253 4750 1959 4750 
Q 2769 4750 3195 4129 
Q 3622 3509 3622 2328 
Q 3622 1225 3098 567 
Q 2575 -91 1691 -91 
Q 1453 -91 1209 -44 
Q 966 3 703 97 
z
M 1959 2075 
Q 2384 2075 2632 2365 
Q 2881 2656 2881 3163 
Q 2881 3666 2632 3958 
Q 2384 4250 1959 4250 
Q 1534 4250 1286 3958 
Q 1038 3666 1038 3163 
Q 1038 2656 1286 2365 
Q 1534 2075 1959 2075 
z
" transform="scale(0.015625)"/>
      <path id="DejaVuSans-29" d="M 513 4856 
L 1013 4856 
Q 1481 4119 1714 3412 
Q 1947 2706 1947 2009 
Q 1947 1309 1714 600 
Q 1481 -109 1013 -844 
L 513 -844 
Q 928 -128 1133 580 
Q 1338 1288 1338 2009 
Q 1338 2731 1133 3434 
Q 928 4138 513 4856 
z
" transform="scale(0.015625)"/>
     </defs>
     <use xlink:href="#DejaVuSans-65"/>
     <use xlink:href="#DejaVuSans-78" x="59.773438"/>
     <use xlink:href="#DejaVuSans-70" x="118.953125"/>
     <use xlink:href="#DejaVuSans-6f" x="182.429688"/>
     <use xlink:href="#DejaVuSans-6e" x="243.611328"/>
     <use xlink:href="#DejaVuSans-28" x="306.990234"/>
     <use xlink:href="#DejaVuSans-6c" x="346.003906"/>
     <use xlink:href="#DejaVuSans-6f" x="373.787109"/>
     <use xlink:href="#DejaVuSans-63" x="434.96875"/>
     <use xlink:href="#DejaVuSans-3d" x="489.949219"/>
     <use xlink:href="#DejaVuSans-30" x="573.738281"/>
     <use xlink:href="#DejaVuSans-2c" x="637.361328"/>
     <use xlink:href="#DejaVuSans-20" x="669.148438"/>
     <use xlink:href="#DejaVuSans-73" x="700.935547"/>
     <use xlink:href="#DejaVuSans-63" x="753.035156"/>
     <use xlink:href="#DejaVuSans-61" x="808.015625"/>
     <use xlink:href="#DejaVuSans-6c" x="869.294922"/>
     <use xlink:href="#DejaVuSans-65" x="897.078125"/>
     <use xlink:href="#DejaVuSans-3d" x="958.601562"/>
     <use xlink:href="#DejaVuSans-31" x="1042.390625"/>
     <use xlink:href="#DejaVuSans-2e" x="1106.013672"/>
     <use xlink:href="#DejaVuSans-33" x="1137.800781"/>
     <use xlink:href="#DejaVuSans-36" x="1201.423828"/>
     <use xlink:href="#DejaVuSans-39" x="1265.046875"/>
     <use xlink:href="#DejaVuSans-38" x="1328.669922"/>
     <use xlink:href="#DejaVuSans-32" x="1392.292969"/>
     <use xlink:href="#DejaVuSans-29" x="1455.916016"/>
    </g>
   </g>
   <g id="legend_1">
    <g id="patch_97">
     <path d="M 649.943281 126.357813 
L 769.9 126.357813 
Q 772.1 126.357813 772.1 124.157813 
L 772.1 76.82 
Q 772.1 74.62 769.9 74.62 
L 649.943281 74.62 
Q 647.743281 74.62 647.743281 76.82 
L 647.743281 124.157813 
Q 647.743281 126.357813 649.943281 126.357813 
z
" style="fill: #eaeaf2; opacity: 0.8; stroke: #cccccc; stroke-linejoin: miter"/>
    </g>
    <g id="line2d_20">
     <path d="M 652.143281 83.528281 
L 663.143281 83.528281 
L 674.143281 83.528281 
" style="fill: none; stroke: #5d5d5d; stroke-width: 2; stroke-linecap: round"/>
    </g>
    <g id="text_19">
     <!-- Expon (best fit) -->
     <g style="fill: #262626" transform="translate(682.943281 87.378281) scale(0.11 -0.11)">
      <defs>
       <path id="DejaVuSans-45" d="M 628 4666 
L 3578 4666 
L 3578 4134 
L 1259 4134 
L 1259 2753 
L 3481 2753 
L 3481 2222 
L 1259 2222 
L 1259 531 
L 3634 531 
L 3634 0 
L 628 0 
L 628 4666 
z
" transform="scale(0.015625)"/>
       <path id="DejaVuSans-62" d="M 3116 1747 
Q 3116 2381 2855 2742 
Q 2594 3103 2138 3103 
Q 1681 3103 1420 2742 
Q 1159 2381 1159 1747 
Q 1159 1113 1420 752 
Q 1681 391 2138 391 
Q 2594 391 2855 752 
Q 3116 1113 3116 1747 
z
M 1159 2969 
Q 1341 3281 1617 3432 
Q 1894 3584 2278 3584 
Q 2916 3584 3314 3078 
Q 3713 2572 3713 1747 
Q 3713 922 3314 415 
Q 2916 -91 2278 -91 
Q 1894 -91 1617 61 
Q 1341 213 1159 525 
L 1159 0 
L 581 0 
L 581 4863 
L 1159 4863 
L 1159 2969 
z
" transform="scale(0.015625)"/>
       <path id="DejaVuSans-66" d="M 2375 4863 
L 2375 4384 
L 1825 4384 
Q 1516 4384 1395 4259 
Q 1275 4134 1275 3809 
L 1275 3500 
L 2222 3500 
L 2222 3053 
L 1275 3053 
L 1275 0 
L 697 0 
L 697 3053 
L 147 3053 
L 147 3500 
L 697 3500 
L 697 3744 
Q 697 4328 969 4595 
Q 1241 4863 1831 4863 
L 2375 4863 
z
" transform="scale(0.015625)"/>
      </defs>
      <use xlink:href="#DejaVuSans-45"/>
      <use xlink:href="#DejaVuSans-78" x="63.183594"/>
      <use xlink:href="#DejaVuSans-70" x="122.363281"/>
      <use xlink:href="#DejaVuSans-6f" x="185.839844"/>
      <use xlink:href="#DejaVuSans-6e" x="247.021484"/>
      <use xlink:href="#DejaVuSans-20" x="310.400391"/>
      <use xlink:href="#DejaVuSans-28" x="342.1875"/>
      <use xlink:href="#DejaVuSans-62" x="381.201172"/>
      <use xlink:href="#DejaVuSans-65" x="444.677734"/>
      <use xlink:href="#DejaVuSans-73" x="506.201172"/>
      <use xlink:href="#DejaVuSans-74" x="558.300781"/>
      <use xlink:href="#DejaVuSans-20" x="597.509766"/>
      <use xlink:href="#DejaVuSans-66" x="629.296875"/>
      <use xlink:href="#DejaVuSans-69" x="664.501953"/>
      <use xlink:href="#DejaVuSans-74" x="692.285156"/>
      <use xlink:href="#DejaVuSans-29" x="731.494141"/>
     </g>
    </g>
    <g id="line2d_21">
     <path d="M 652.143281 99.674219 
L 663.143281 99.674219 
L 674.143281 99.674219 
" style="fill: none; stroke-dasharray: 11.1,4.8; stroke-dashoffset: 0; stroke: #c41e3a; stroke-width: 3"/>
    </g>
    <g id="text_20">
     <!-- CII low (0.05) -->
     <g style="fill: #262626" transform="translate(682.943281 103.524219) scale(0.11 -0.11)">
      <defs>
       <path id="DejaVuSans-43" d="M 4122 4306 
L 4122 3641 
Q 3803 3938 3442 4084 
Q 3081 4231 2675 4231 
Q 1875 4231 1450 3742 
Q 1025 3253 1025 2328 
Q 1025 1406 1450 917 
Q 1875 428 2675 428 
Q 3081 428 3442 575 
Q 3803 722 4122 1019 
L 4122 359 
Q 3791 134 3420 21 
Q 3050 -91 2638 -91 
Q 1578 -91 968 557 
Q 359 1206 359 2328 
Q 359 3453 968 4101 
Q 1578 4750 2638 4750 
Q 3056 4750 3426 4639 
Q 3797 4528 4122 4306 
z
" transform="scale(0.015625)"/>
       <path id="DejaVuSans-49" d="M 628 4666 
L 1259 4666 
L 1259 0 
L 628 0 
L 628 4666 
z
" transform="scale(0.015625)"/>
       <path id="DejaVuSans-77" d="M 269 3500 
L 844 3500 
L 1563 769 
L 2278 3500 
L 2956 3500 
L 3675 769 
L 4391 3500 
L 4966 3500 
L 4050 0 
L 3372 0 
L 2619 2869 
L 1863 0 
L 1184 0 
L 269 3500 
z
" transform="scale(0.015625)"/>
      </defs>
      <use xlink:href="#DejaVuSans-43"/>
      <use xlink:href="#DejaVuSans-49" x="69.824219"/>
      <use xlink:href="#DejaVuSans-49" x="99.316406"/>
      <use xlink:href="#DejaVuSans-20" x="128.808594"/>
      <use xlink:href="#DejaVuSans-6c" x="160.595703"/>
      <use xlink:href="#DejaVuSans-6f" x="188.378906"/>
      <use xlink:href="#DejaVuSans-77" x="249.560547"/>
      <use xlink:href="#DejaVuSans-20" x="331.347656"/>
      <use xlink:href="#DejaVuSans-28" x="363.134766"/>
      <use xlink:href="#DejaVuSans-30" x="402.148438"/>
      <use xlink:href="#DejaVuSans-2e" x="465.771484"/>
      <use xlink:href="#DejaVuSans-30" x="497.558594"/>
      <use xlink:href="#DejaVuSans-35" x="561.181641"/>
      <use xlink:href="#DejaVuSans-29" x="624.804688"/>
     </g>
    </g>
    <g id="line2d_22">
     <path d="M 652.143281 115.820156 
L 663.143281 115.820156 
L 674.143281 115.820156 
" style="fill: none; stroke-dasharray: 11.1,4.8; stroke-dashoffset: 0; stroke: #c41e3a; stroke-width: 3"/>
    </g>
    <g id="text_21">
     <!-- CII high (0.05) -->
     <g style="fill: #262626" transform="translate(682.943281 119.670156) scale(0.11 -0.11)">
      <defs>
       <path id="DejaVuSans-68" d="M 3513 2113 
L 3513 0 
L 2938 0 
L 2938 2094 
Q 2938 2591 2744 2837 
Q 2550 3084 2163 3084 
Q 1697 3084 1428 2787 
Q 1159 2491 1159 1978 
L 1159 0 
L 581 0 
L 581 4863 
L 1159 4863 
L 1159 2956 
Q 1366 3272 1645 3428 
Q 1925 3584 2291 3584 
Q 2894 3584 3203 3211 
Q 3513 2838 3513 2113 
z
" transform="scale(0.015625)"/>
       <path id="DejaVuSans-67" d="M 2906 1791 
Q 2906 2416 2648 2759 
Q 2391 3103 1925 3103 
Q 1463 3103 1205 2759 
Q 947 2416 947 1791 
Q 947 1169 1205 825 
Q 1463 481 1925 481 
Q 2391 481 2648 825 
Q 2906 1169 2906 1791 
z
M 3481 434 
Q 3481 -459 3084 -895 
Q 2688 -1331 1869 -1331 
Q 1566 -1331 1297 -1286 
Q 1028 -1241 775 -1147 
L 775 -588 
Q 1028 -725 1275 -790 
Q 1522 -856 1778 -856 
Q 2344 -856 2625 -561 
Q 2906 -266 2906 331 
L 2906 616 
Q 2728 306 2450 153 
Q 2172 0 1784 0 
Q 1141 0 747 490 
Q 353 981 353 1791 
Q 353 2603 747 3093 
Q 1141 3584 1784 3584 
Q 2172 3584 2450 3431 
Q 2728 3278 2906 2969 
L 2906 3500 
L 3481 3500 
L 3481 434 
z
" transform="scale(0.015625)"/>
      </defs>
      <use xlink:href="#DejaVuSans-43"/>
      <use xlink:href="#DejaVuSans-49" x="69.824219"/>
      <use xlink:href="#DejaVuSans-49" x="99.316406"/>
      <use xlink:href="#DejaVuSans-20" x="128.808594"/>
      <use xlink:href="#DejaVuSans-68" x="160.595703"/>
      <use xlink:href="#DejaVuSans-69" x="223.974609"/>
      <use xlink:href="#DejaVuSans-67" x="251.757812"/>
      <use xlink:href="#DejaVuSans-68" x="315.234375"/>
      <use xlink:href="#DejaVuSans-20" x="378.613281"/>
      <use xlink:href="#DejaVuSans-28" x="410.400391"/>
      <use xlink:href="#DejaVuSans-30" x="449.414062"/>
      <use xlink:href="#DejaVuSans-2e" x="513.037109"/>
      <use xlink:href="#DejaVuSans-30" x="544.824219"/>
      <use xlink:href="#DejaVuSans-35" x="608.447266"/>
      <use xlink:href="#DejaVuSans-29" x="672.070312"/>
     </g>
    </g>
   </g>
  </g>
 </g>
 <defs>
  <clipPath id="p09d712ef69">
   <rect x="108" y="69.12" width="669.6" height="443.52"/>
  </clipPath>
 </defs>
</svg>
