<svg version="1.1" xmlns="http://www.w3.org/2000/svg" viewBox="0 0 944.911361242788 791.9525566352489" width="944.911361242788" height="791.9525566352489">
  <!-- svg-source:excalidraw -->
  
  <defs>
    <style class="style-fonts">
      @font-face {
        font-family: "Virgil";
        src: url("https://excalidraw.com/Virgil.woff2");
      }
      @font-face {
        font-family: "Cascadia";
        src: url("https://excalidraw.com/Cascadia.woff2");
      }
      @font-face {
        font-family: "Assistant";
        src: url("https://excalidraw.com/Assistant-Regular.woff2");
      }
    </style>
    
  </defs>
  <g transform="translate(155.00870646557195 50.6535085920394) rotate(0 49.858333587646484 22.5)"><text x="0" y="0" font-family="Virgil, Segoe UI Emoji" font-size="36px" fill="#1e1e1e" text-anchor="start" style="white-space: pre;" direction="ltr" dominant-baseline="text-before-edge">start</text></g><g stroke-linecap="round" transform="translate(407.8763032465263 204.27711231676105) rotate(0 94.09992068121943 99.65490567986205)"><path d="M118.75 25 C134.75 40.04, 148.77 56.26, 164.45 75 M118.75 25 C132.12 38.95, 145.8 54.54, 164.45 75 M164.45 75 C189.63 100.33, 186.58 98.55, 164.45 125 M164.45 75 C190.36 100.77, 188.24 98.8, 164.45 125 M164.45 125 C147.5 141.54, 133.37 157.79, 118.75 174.31 M164.45 125 C148.41 141.84, 132.87 157.96, 118.75 174.31 M118.75 174.31 C94.01 197.69, 93.29 198.92, 71.25 174.31 M118.75 174.31 C93.68 199.28, 94.78 201.43, 71.25 174.31 M71.25 174.31 C55.62 160.06, 41.9 143.08, 23.75 125 M71.25 174.31 C60.9 163.38, 49.04 152.83, 23.75 125 M23.75 125 C-1.65 99.08, -1.79 100.56, 23.75 75 M23.75 125 C1.64 101.64, -0.74 101.1, 23.75 75 M23.75 75 C36.92 61.89, 45.98 51.4, 71.25 25 M23.75 75 C40.98 56.26, 59.56 37.07, 71.25 25 M71.25 25 C96.98 -1.12, 93.12 0.52, 118.75 25 M71.25 25 C95.89 1.27, 93.63 -0.55, 118.75 25" stroke="#1e1e1e" stroke-width="2" fill="none"></path></g><g transform="translate(470.1929299994895 279.10456515669216) rotate(0 31.733333587646484 25)"><text x="31.733333587646484" y="0" font-family="Virgil, Segoe UI Emoji" font-size="20px" fill="#1e1e1e" text-anchor="middle" style="white-space: pre;" direction="ltr" dominant-baseline="text-before-edge">FEL  </text><text x="31.733333587646484" y="25" font-family="Virgil, Segoe UI Emoji" font-size="20px" fill="#1e1e1e" text-anchor="middle" style="white-space: pre;" direction="ltr" dominant-baseline="text-before-edge">empty?</text></g><g stroke-linecap="round" transform="translate(694.2623837629482 270.29531652976095) rotate(0 120.3244887399199 34.70898713651536)"><path d="M17.35 0 C62.95 0.02, 109.32 0.78, 223.29 0 M17.35 0 C67.18 0.89, 117.11 0.14, 223.29 0 M223.29 0 C235.85 -0.67, 241.88 6.37, 240.65 17.35 M223.29 0 C236.35 -0.35, 242.56 6.73, 240.65 17.35 M240.65 17.35 C242.32 26.94, 240.6 32.36, 240.65 52.06 M240.65 17.35 C240.29 26.6, 241.29 33.65, 240.65 52.06 M240.65 52.06 C240.68 64.66, 234.41 71.18, 223.29 69.42 M240.65 52.06 C238.81 65.4, 233.27 69.56, 223.29 69.42 M223.29 69.42 C144.74 68.29, 70.02 68.2, 17.35 69.42 M223.29 69.42 C149.34 69.69, 77.05 69.08, 17.35 69.42 M17.35 69.42 C5.32 70.87, -1.16 62.52, 0 52.06 M17.35 69.42 C5.62 67.22, -0.74 65, 0 52.06 M0 52.06 C-1.66 40.91, 1.18 26.84, 0 17.35 M0 52.06 C1.08 42.85, -0.06 34.81, 0 17.35 M0 17.35 C-0.54 6.2, 4.81 -0.06, 17.35 0 M0 17.35 C-0.86 5.5, 6.84 -1.04, 17.35 0" stroke="#1e1e1e" stroke-width="2" fill="none"></path></g><g transform="translate(711.245205327575 280.0043036662763) rotate(0 103.34166717529291 25)"><text x="103.34166717529297" y="0" font-family="Virgil, Segoe UI Emoji" font-size="20px" fill="#1e1e1e" text-anchor="middle" style="white-space: pre;" direction="ltr" dominant-baseline="text-before-edge">Terminate simulation,</text><text x="103.34166717529297" y="25" font-family="Virgil, Segoe UI Emoji" font-size="20px" fill="#1e1e1e" text-anchor="middle" style="white-space: pre;" direction="ltr" dominant-baseline="text-before-edge">collect statistics</text></g><g stroke-linecap="round" transform="translate(363.2216763511241 10) rotate(0 134.59373900715394 61.48854019385844)"><path d="M30.74 0 C90.74 0.09, 147.85 0.24, 238.44 0 M30.74 0 C107.13 -1.09, 181.76 -0.6, 238.44 0 M238.44 0 C257.33 -1.52, 268.69 10.04, 269.19 30.74 M238.44 0 C259.89 2.05, 267.92 11.9, 269.19 30.74 M269.19 30.74 C267.6 51.48, 269.75 77.92, 269.19 92.23 M269.19 30.74 C268.22 50.19, 269.02 70.08, 269.19 92.23 M269.19 92.23 C271.02 111.75, 257.34 123.54, 238.44 122.98 M269.19 92.23 C268.62 112.5, 260.13 122.12, 238.44 122.98 M238.44 122.98 C194.49 120.01, 150.24 120.6, 30.74 122.98 M238.44 122.98 C174.55 121.07, 111.94 120.89, 30.74 122.98 M30.74 122.98 C9.1 123.99, 0.81 112.52, 0 92.23 M30.74 122.98 C8.41 123.15, 1.9 111.96, 0 92.23 M0 92.23 C1.13 73.35, -1.1 55.75, 0 30.74 M0 92.23 C0.97 74.05, -0.68 57.18, 0 30.74 M0 30.74 C1.8 12.16, 11.26 -1.1, 30.74 0 M0 30.74 C0 12.45, 12.15 0.26, 30.74 0" stroke="#1e1e1e" stroke-width="2" fill="none"></path></g><g transform="translate(379.7404184100358 21.488540193858398) rotate(0 118.07499694824219 50)"><text x="118.07499694824219" y="0" font-family="Virgil, Segoe UI Emoji" font-size="20px" fill="#1e1e1e" text-anchor="middle" style="white-space: pre;" direction="ltr" dominant-baseline="text-before-edge">Initialize system;</text><text x="118.07499694824219" y="25" font-family="Virgil, Segoe UI Emoji" font-size="20px" fill="#1e1e1e" text-anchor="middle" style="white-space: pre;" direction="ltr" dominant-baseline="text-before-edge">Generate initial list of </text><text x="118.07499694824219" y="50" font-family="Virgil, Segoe UI Emoji" font-size="20px" fill="#1e1e1e" text-anchor="middle" style="white-space: pre;" direction="ltr" dominant-baseline="text-before-edge">events to enqueue to </text><text x="118.07499694824219" y="75" font-family="Virgil, Segoe UI Emoji" font-size="20px" fill="#1e1e1e" text-anchor="middle" style="white-space: pre;" direction="ltr" dominant-baseline="text-before-edge">FEL</text></g><g stroke-linecap="round" transform="translate(368.0549883532535 477.8022496440716) rotate(0 132.6756937543587 40.235925542821064)"><path d="M20.12 0 C78.49 2.01, 136.69 2.11, 245.23 0 M20.12 0 C75.54 -1.31, 129.96 -0.9, 245.23 0 M245.23 0 C258.91 1.48, 267.34 7.94, 265.35 20.12 M245.23 0 C258.91 2.16, 266.84 4.41, 265.35 20.12 M265.35 20.12 C265.2 36.37, 266.38 50.04, 265.35 60.35 M265.35 20.12 C265.37 31.48, 266.26 40.95, 265.35 60.35 M265.35 60.35 C265.66 74.23, 257.28 79.11, 245.23 80.47 M265.35 60.35 C265.4 75.62, 260.91 82.45, 245.23 80.47 M245.23 80.47 C171 80.05, 100.19 78.02, 20.12 80.47 M245.23 80.47 C156.32 79.7, 68.98 80.4, 20.12 80.47 M20.12 80.47 C8.03 80.58, 1.26 72.8, 0 60.35 M20.12 80.47 C5.42 80.73, 1.75 72.68, 0 60.35 M0 60.35 C1.48 49.4, -0.6 38.66, 0 20.12 M0 60.35 C0.75 51.46, 0.81 42.14, 0 20.12 M0 20.12 C-1.64 6.03, 7.3 -0.51, 20.12 0 M0 20.12 C1.64 5.26, 7.61 0.83, 20.12 0" stroke="#1e1e1e" stroke-width="2" fill="none"></path></g><g transform="translate(394.23901340644034 493.03817518689266) rotate(0 106.49166870117188 25)"><text x="106.49166870117188" y="0" font-family="Virgil, Segoe UI Emoji" font-size="20px" fill="#1e1e1e" text-anchor="middle" style="white-space: pre;" direction="ltr" dominant-baseline="text-before-edge">Dequeue next event; </text><text x="106.49166870117188" y="25" font-family="Virgil, Segoe UI Emoji" font-size="20px" fill="#1e1e1e" text-anchor="middle" style="white-space: pre;" direction="ltr" dominant-baseline="text-before-edge">Handle event</text></g><g stroke-linecap="round"><g transform="translate(265.6559495056638 71.95730019501838) rotate(0 48.282863422730145 0.5261923921190714)"><path d="M0.56 0.6 C16.57 0.59, 80.17 0.24, 96.09 0.15 M-0.61 -0.13 C15.2 -0.03, 78.95 1.05, 94.89 1.22" stroke="#1e1e1e" stroke-width="2" fill="none"></path></g><g transform="translate(265.6559495056638 71.95730019501838) rotate(0 48.282863422730145 0.5261923921190714)"><path d="M71.28 9.44 C79.41 6.04, 84.05 3.48, 94.89 1.22 M71.28 9.44 C76.73 8.13, 81.61 6.76, 94.89 1.22" stroke="#1e1e1e" stroke-width="2" fill="none"></path></g><g transform="translate(265.6559495056638 71.95730019501838) rotate(0 48.282863422730145 0.5261923921190714)"><path d="M71.52 -7.66 C79.61 -5.88, 84.18 -3.27, 94.89 1.22 M71.52 -7.66 C76.94 -5.23, 81.76 -2.86, 94.89 1.22" stroke="#1e1e1e" stroke-width="2" fill="none"></path></g></g><mask></mask><g stroke-linecap="round"><g transform="translate(503.51098571496163 132.98897843244262) rotate(0 -0.3757670635810655 37.57670635810965)"><path d="M0.05 -0.39 C0.01 12.1, 0.09 61.69, 0.03 74.31 M-1.38 -1.64 C-1.53 11.03, -0.6 62.34, -0.51 75.41" stroke="#1e1e1e" stroke-width="2" fill="none"></path></g><g transform="translate(503.51098571496163 132.98897843244262) rotate(0 -0.3757670635810655 37.57670635810965)"><path d="M-9.36 52.03 C-7.28 60.85, -5.19 67.83, -0.51 75.41 M-9.36 52.03 C-6.57 59.27, -3.21 67.41, -0.51 75.41" stroke="#1e1e1e" stroke-width="2" fill="none"></path></g><g transform="translate(503.51098571496163 132.98897843244262) rotate(0 -0.3757670635810655 37.57670635810965)"><path d="M7.74 51.8 C4.31 60.71, 0.91 67.76, -0.51 75.41 M7.74 51.8 C5.13 59.22, 3.1 67.43, -0.51 75.41" stroke="#1e1e1e" stroke-width="2" fill="none"></path></g></g><mask></mask><g stroke-linecap="round"><g transform="translate(503.19736670586497 397.3488507134741) rotate(0 -0.04885954224789657 38.53017556774171)"><path d="M0.52 1.02 C0.59 13.87, 0.74 63.8, 0.78 76.44 M-0.66 0.51 C-0.71 13.57, 0.11 64.72, 0.29 77.65" stroke="#1e1e1e" stroke-width="2" fill="none"></path></g><g transform="translate(503.19736670586497 397.3488507134741) rotate(0 -0.04885954224789657 38.53017556774171)"><path d="M-8.61 54.29 C-4.08 63.45, -3.87 71.14, 0.29 77.65 M-8.61 54.29 C-5.92 60.57, -3.3 66.68, 0.29 77.65" stroke="#1e1e1e" stroke-width="2" fill="none"></path></g><g transform="translate(503.19736670586497 397.3488507134741) rotate(0 -0.04885954224789657 38.53017556774171)"><path d="M8.49 54.04 C7.35 63.35, 1.9 71.13, 0.29 77.65 M8.49 54.04 C6.29 60.51, 4.04 66.7, 0.29 77.65" stroke="#1e1e1e" stroke-width="2" fill="none"></path></g></g><mask></mask><g stroke-linecap="round"><g transform="translate(589.7717048611436 303.40345779362394) rotate(0 50.68347873756096 0.5798694674285798)"><path d="M-0.84 0.83 C16.12 1.11, 85.24 0.65, 102.21 0.78 M0.92 0.23 C17.76 0.74, 85.2 2.23, 101.71 2.11" stroke="#1e1e1e" stroke-width="2" fill="none"></path></g><g transform="translate(589.7717048611436 303.40345779362394) rotate(0 50.68347873756096 0.5798694674285798)"><path d="M78.13 10.43 C87.53 9.2, 93.45 4.32, 101.71 2.11 M78.13 10.43 C85.34 6.68, 94.03 4.94, 101.71 2.11" stroke="#1e1e1e" stroke-width="2" fill="none"></path></g><g transform="translate(589.7717048611436 303.40345779362394) rotate(0 50.68347873756096 0.5798694674285798)"><path d="M78.3 -6.67 C87.52 -2.14, 93.39 -1.25, 101.71 2.11 M78.3 -6.67 C85.61 -4.66, 94.24 -0.65, 101.71 2.11" stroke="#1e1e1e" stroke-width="2" fill="none"></path></g></g><mask></mask><g stroke-linecap="round" transform="translate(128.94669408824308 644.5632555076088) rotate(0 117.78548799812827 37.64278482414409)"><path d="M18.82 0 C67.2 -0.65, 112.4 -1.36, 216.75 0 M18.82 0 C93.34 -0.1, 168.33 -1.59, 216.75 0 M216.75 0 C228.41 0.32, 234.63 7.17, 235.57 18.82 M216.75 0 C231.12 0.81, 234.09 5.86, 235.57 18.82 M235.57 18.82 C236.75 27.25, 235.56 38.05, 235.57 56.46 M235.57 18.82 C235.38 30.79, 235.09 45.12, 235.57 56.46 M235.57 56.46 C235.57 70.36, 227.44 75.51, 216.75 75.29 M235.57 56.46 C233.29 67.46, 230.14 75.65, 216.75 75.29 M216.75 75.29 C158.63 72.91, 97 73.5, 18.82 75.29 M216.75 75.29 C160.96 76.5, 103.78 75.76, 18.82 75.29 M18.82 75.29 C6.74 74.88, -1.98 70.89, 0 56.46 M18.82 75.29 C4.51 74.88, -1.37 70.82, 0 56.46 M0 56.46 C1.08 41.84, 1.54 30.97, 0 18.82 M0 56.46 C0 47.23, 0.64 38.55, 0 18.82 M0 18.82 C-0.36 5.14, 5.75 1.89, 18.82 0 M0 18.82 C-0.37 8.16, 6.09 1.23, 18.82 0" stroke="#1e1e1e" stroke-width="2" fill="none"></path></g><g transform="translate(154.79051643695732 669.7060403317529) rotate(0 91.94166564941406 12.5)"><text x="91.94166564941406" y="0" font-family="Virgil, Segoe UI Emoji" font-size="20px" fill="#1e1e1e" text-anchor="middle" style="white-space: pre;" direction="ltr" dominant-baseline="text-before-edge">Handle InitiateCall</text></g><g stroke-linecap="round" transform="translate(392.4461878572514 643.3489721261849) rotate(0 117.7854879981283 37.64278482414409)"><path d="M18.82 0 C63.93 1.08, 104.9 -0.54, 216.75 0 M18.82 0 C87.41 1.35, 155.64 0.27, 216.75 0 M216.75 0 C227.72 -1.67, 236.78 7.14, 235.57 18.82 M216.75 0 C227.72 1.79, 237.67 4.16, 235.57 18.82 M235.57 18.82 C236.35 30.28, 234.47 46.32, 235.57 56.46 M235.57 18.82 C235.89 28.39, 235.4 36.05, 235.57 56.46 M235.57 56.46 C234.98 69.85, 228.56 76.39, 216.75 75.29 M235.57 56.46 C234.22 71.2, 230.74 73.13, 216.75 75.29 M216.75 75.29 C152.82 73.98, 90.3 75.55, 18.82 75.29 M216.75 75.29 C162.97 73.5, 110.14 74.28, 18.82 75.29 M18.82 75.29 C4.46 75.73, -1.86 68.39, 0 56.46 M18.82 75.29 C7.68 74.47, -0.19 67.75, 0 56.46 M0 56.46 C0.88 41.74, 0.32 28.75, 0 18.82 M0 56.46 C0.19 48.29, 0.28 39.44, 0 18.82 M0 18.82 C-1.12 7.78, 6.69 1.75, 18.82 0 M0 18.82 C0.67 5.91, 4.31 0.75, 18.82 0" stroke="#1e1e1e" stroke-width="2" fill="none"></path></g><g transform="translate(413.1483399789148 668.491756950329) rotate(0 97.08333587646484 12.5)"><text x="97.08333587646484" y="0" font-family="Virgil, Segoe UI Emoji" font-size="20px" fill="#1e1e1e" text-anchor="middle" style="white-space: pre;" direction="ltr" dominant-baseline="text-before-edge">Handle HandoverCall</text></g><g stroke-linecap="round" transform="translate(655.8584934318396 643.1625537426876) rotate(0 117.78548799812825 37.64278482414409)"><path d="M18.82 0 C88.48 -2.85, 156.35 -2.83, 216.75 0 M18.82 0 C66.07 2.73, 113.46 2.87, 216.75 0 M216.75 0 C228.18 1.5, 235.99 8.03, 235.57 18.82 M216.75 0 C229.97 -0.36, 233.61 7.03, 235.57 18.82 M235.57 18.82 C234.81 27.11, 235.8 35.23, 235.57 56.46 M235.57 18.82 C235.77 30.59, 235.04 42.2, 235.57 56.46 M235.57 56.46 C236.34 67.63, 228.37 76.53, 216.75 75.29 M235.57 56.46 C237.1 69.93, 227.26 75.3, 216.75 75.29 M216.75 75.29 C172.49 76.56, 128.21 75.92, 18.82 75.29 M216.75 75.29 C167.63 74.99, 116.82 73.55, 18.82 75.29 M18.82 75.29 C4.31 76.16, 1.21 67.11, 0 56.46 M18.82 75.29 C7.74 75.64, 2.2 67.1, 0 56.46 M0 56.46 C1.87 42.2, 0.17 33.76, 0 18.82 M0 56.46 C0.18 41.81, -0.79 28.76, 0 18.82 M0 18.82 C-0.52 6.32, 6.14 0.06, 18.82 0 M0 18.82 C-0.71 6.42, 6.26 2.27, 18.82 0" stroke="#1e1e1e" stroke-width="2" fill="none"></path></g><g transform="translate(670.8523173064327 668.3053385668317) rotate(0 102.79166412353516 12.5)"><text x="102.79166412353516" y="0" font-family="Virgil, Segoe UI Emoji" font-size="20px" fill="#1e1e1e" text-anchor="middle" style="white-space: pre;" direction="ltr" dominant-baseline="text-before-edge">Handle TerminateCall</text></g><g stroke-linecap="round"><g transform="translate(511.26445514374893 559.2632399266729) rotate(0 0.5800056026616289 41.23573520970132)"><path d="M-0.82 -0.53 C-0.71 13.12, 0.74 69.11, 0.9 82.87 M0.94 1.81 C0.86 15.01, -0.45 67.41, -0.19 80.95" stroke="#1e1e1e" stroke-width="2" fill="none"></path></g><g transform="translate(511.26445514374893 559.2632399266729) rotate(0 0.5800056026616289 41.23573520970132)"><path d="M-8.61 57.41 C-6.63 64.49, -2.42 70.67, -0.19 80.95 M-8.61 57.41 C-5.34 64.05, -4.52 70.17, -0.19 80.95" stroke="#1e1e1e" stroke-width="2" fill="none"></path></g><g transform="translate(511.26445514374893 559.2632399266729) rotate(0 0.5800056026616289 41.23573520970132)"><path d="M8.49 57.51 C5.06 64.44, 3.84 70.59, -0.19 80.95 M8.49 57.51 C7.27 64.01, 3.6 70.11, -0.19 80.95" stroke="#1e1e1e" stroke-width="2" fill="none"></path></g></g><mask></mask><g stroke-linecap="round"><g transform="translate(511.32444939133575 599.8305589925085) rotate(0 -133.81810417526145 21.21407036854265)"><path d="M0.15 -0.1 C-31.5 0.34, -145.71 -3.67, -190.29 3.58 C-234.88 10.84, -254.32 37.02, -267.38 43.45 M-1.22 -1.2 C-33.05 -0.72, -147.08 -2.48, -191.54 4.66 C-236.01 11.8, -255.12 35.23, -268.01 41.64" stroke="#1e1e1e" stroke-width="2" fill="none"></path></g><g transform="translate(511.32444939133575 599.8305589925085) rotate(0 -133.81810417526145 21.21407036854265)"><path d="M-253.47 21.3 C-257.38 25.81, -262.57 32.62, -268.01 41.64 M-253.47 21.3 C-259.58 29.64, -264.05 36.39, -268.01 41.64" stroke="#1e1e1e" stroke-width="2" fill="none"></path></g><g transform="translate(511.32444939133575 599.8305589925085) rotate(0 -133.81810417526145 21.21407036854265)"><path d="M-243.8 35.4 C-250.4 36.16, -258.18 39.2, -268.01 41.64 M-243.8 35.4 C-253.52 38.29, -261.71 39.61, -268.01 41.64" stroke="#1e1e1e" stroke-width="2" fill="none"></path></g></g><mask></mask><g stroke-linecap="round"><g transform="translate(514.1552752478492 598.8166976473639) rotate(0 133.81810417526145 21.21407036854265)"><path d="M-0.18 0.77 C31.67 1.56, 146.09 -2.47, 190.81 4.37 C235.53 11.21, 255.53 35.57, 268.14 41.8 M-1.73 0.12 C30.07 1.15, 145.54 -1.26, 190.43 5.85 C235.33 12.96, 255.02 36.68, 267.65 42.79" stroke="#1e1e1e" stroke-width="2" fill="none"></path></g><g transform="translate(514.1552752478492 598.8166976473639) rotate(0 133.81810417526145 21.21407036854265)"><path d="M243.4 36.68 C251.44 40.23, 256.78 40.98, 267.65 42.79 M243.4 36.68 C248.35 38.04, 255.74 39.39, 267.65 42.79" stroke="#1e1e1e" stroke-width="2" fill="none"></path></g><g transform="translate(514.1552752478492 598.8166976473639) rotate(0 133.81810417526145 21.21407036854265)"><path d="M253 22.53 C258.31 30.02, 260.95 34.73, 267.65 42.79 M253 22.53 C255.44 27.34, 260.45 32.19, 267.65 42.79" stroke="#1e1e1e" stroke-width="2" fill="none"></path></g></g><mask></mask><g transform="translate(782.8874343454213 41.95216725724865) rotate(0 28.5 22.5)"><text x="28.5" y="0" font-family="Virgil, Segoe UI Emoji" font-size="36px" fill="#1e1e1e" text-anchor="middle" style="white-space: pre;" direction="ltr" dominant-baseline="text-before-edge">end</text></g><g stroke-linecap="round"><g transform="translate(817.7509357117949 270.8986710648586) rotate(0 -1.3000092217397423 -88.45357734218013)"><path d="M-0.46 -0.36 C-1 -29.77, -2.53 -148.03, -2.97 -177.52 M1.5 -1.59 C0.74 -30.76, -3.17 -147.21, -4.11 -176.3" stroke="#1e1e1e" stroke-width="2" fill="none"></path></g><g transform="translate(817.7509357117949 270.8986710648586) rotate(0 -1.3000092217397423 -88.45357734218013)"><path d="M5.21 -153.11 C1.81 -161.24, -1.62 -168.94, -4.11 -176.3 M5.21 -153.11 C2.43 -159.3, -0.23 -165.8, -4.11 -176.3" stroke="#1e1e1e" stroke-width="2" fill="none"></path></g><g transform="translate(817.7509357117949 270.8986710648586) rotate(0 -1.3000092217397423 -88.45357734218013)"><path d="M-11.88 -152.54 C-9.76 -160.79, -7.67 -168.67, -4.11 -176.3 M-11.88 -152.54 C-10.08 -158.79, -8.16 -165.43, -4.11 -176.3" stroke="#1e1e1e" stroke-width="2" fill="none"></path></g></g><mask></mask><g stroke-linecap="round"><g transform="translate(11.059609068659029 679.6396320696348) rotate(0 200.13234506874818 -188.8458578706942)"><path d="M-0.93 0.71 C6.85 -53.17, -21.15 -259.71, 45.8 -322.58 C112.75 -385.46, 341.82 -367.5, 400.76 -376.55 M0.78 0.03 C8.57 -53.7, -21.21 -258.04, 45.37 -321.09 C111.95 -384.14, 341.28 -368.64, 400.26 -378.29" stroke="#1e1e1e" stroke-width="2" fill="none"></path></g><g transform="translate(11.059609068659029 679.6396320696348) rotate(0 200.13234506874818 -188.8458578706942)"><path d="M377.24 -368.53 C383.55 -368.88, 387.41 -371.91, 400.26 -378.29 M377.24 -368.53 C385.94 -373.33, 394.8 -376.34, 400.26 -378.29" stroke="#1e1e1e" stroke-width="2" fill="none"></path></g><g transform="translate(11.059609068659029 679.6396320696348) rotate(0 200.13234506874818 -188.8458578706942)"><path d="M376.35 -385.61 C382.95 -382.11, 387.02 -381.3, 400.26 -378.29 M376.35 -385.61 C385.29 -383.66, 394.5 -379.92, 400.26 -378.29" stroke="#1e1e1e" stroke-width="2" fill="none"></path></g></g><mask></mask><g stroke-linecap="round"><g transform="translate(700.9634130168822 780.7731526003084) rotate(0 -345.2935217272781 -51.4631816549886)"><path d="M1.11 -0.94 C-99.15 -2.93, -486.18 5.5, -601.41 -11.59 C-716.65 -28.67, -675.63 -88.33, -690.33 -103.46 M0.23 1.18 C-100.16 -1.16, -486.94 4.13, -602.14 -13.14 C-717.33 -30.4, -676.5 -87.18, -690.96 -102.42" stroke="#1e1e1e" stroke-width="2" fill="none"></path></g></g><mask></mask><g stroke-linecap="round"><g transform="translate(788.6884498725829 720.4889923233404) rotate(0 -44.2399491693638 30.462714438431817)"><path d="M-0.9 0.51 C-1.34 9.35, 10.91 43.77, -3.5 53.7 C-17.92 63.62, -73.39 58.98, -87.38 60.06 M0.83 -0.27 C0.33 8.13, 10.44 41.5, -4.29 51.7 C-19.02 61.9, -73.24 59.4, -87.57 60.93" stroke="#1e1e1e" stroke-width="2" fill="none"></path></g></g><mask></mask><g stroke-linecap="round"><g transform="translate(518.0908106770296 718.5328648110833) rotate(0 0 30.503259693578343)"><path d="M0.5 -1.18 C0.42 9.06, -0.9 51.46, -1.04 61.73 M-0.7 0.82 C-0.37 10.69, 1.23 49.88, 1.12 59.98" stroke="#1e1e1e" stroke-width="2" fill="none"></path></g></g><mask></mask><g stroke-linecap="round"><g transform="translate(245.53704396921938 718.5328648110833) rotate(0 -0.6520425040856708 29.13376666369072)"><path d="M1.01 0.34 C0.73 10.02, -1.7 48.05, -2.07 57.82 M0.08 -0.52 C0.22 9.33, 0.58 49.54, 0.24 59.13" stroke="#1e1e1e" stroke-width="2" fill="none"></path></g></g><mask></mask><g transform="translate(611.0807574739085 314.97234078253234) rotate(0 15.591666221618652 12.5)"><text x="15.591666221618652" y="0" font-family="Virgil, Segoe UI Emoji" font-size="20px" fill="#1e1e1e" text-anchor="middle" style="white-space: pre;" direction="ltr" dominant-baseline="text-before-edge">yes</text></g><g transform="translate(528.4640906800853 417.47234078253257) rotate(0 10.208333015441895 12.5)"><text x="10.208333015441895" y="0" font-family="Virgil, Segoe UI Emoji" font-size="20px" fill="#1e1e1e" text-anchor="middle" style="white-space: pre;" direction="ltr" dominant-baseline="text-before-edge">no</text></g></svg>