<svg version="1.1" xmlns="http://www.w3.org/2000/svg" viewBox="0 0 710.1160802340783 576.265625" width="1420.2321604681565" height="1152.53125">
  <!-- svg-source:excalidraw -->
  
  <defs>
    <style class="style-fonts">
      @font-face {
        font-family: "Virgil";
        src: url("https://excalidraw.com/Virgil.woff2");
      }
      @font-face {
        font-family: "Cascadia";
        src: url("https://excalidraw.com/Cascadia.woff2");
      }
      @font-face {
        font-family: "Assistant";
        src: url("https://excalidraw.com/Assistant-Regular.woff2");
      }
    </style>
    
  </defs>
  <g transform="translate(510.11608023407825 529) rotate(0 27.700000762939453 12.5)"><text x="0" y="17.52" font-family="Virgil, Segoe UI Emoji" font-size="20px" fill="#1e1e1e" text-anchor="start" style="white-space: pre;" direction="ltr" dominant-baseline="alphabetic">start</text></g><g stroke-linecap="round"><g transform="translate(499.2657524344286 543.658568034082) rotate(0 -31.358165110184927 1.0593575265568802)"><path d="M0 0 C-10.45 0.35, -52.26 1.77, -62.72 2.12" stroke="#1e1e1e" stroke-width="2.5" fill="none" stroke-dasharray="8 10"></path></g><g transform="translate(499.2657524344286 543.658568034082) rotate(0 -31.358165110184927 1.0593575265568802)"><path d="M-39.53 -7.22 C-47.34 -4.07, -55.16 -0.92, -62.72 2.12" stroke="#1e1e1e" stroke-width="2.5" fill="none"></path></g><g transform="translate(499.2657524344286 543.658568034082) rotate(0 -31.358165110184927 1.0593575265568802)"><path d="M-38.95 9.87 C-46.96 7.26, -54.97 4.64, -62.72 2.12" stroke="#1e1e1e" stroke-width="2.5" fill="none"></path></g></g><mask></mask><g stroke-linecap="round" transform="translate(227.11608023407825 10) rotate(0 106.5 78)"><path d="M133.75 19.75 C152.58 33.92, 171.41 48.09, 186.25 59.25 M133.75 19.75 C147.98 30.46, 162.22 41.17, 186.25 59.25 M186.25 59.25 C213 79, 213 79, 186.25 98.75 M186.25 59.25 C213 79, 213 79, 186.25 98.75 M186.25 98.75 C172.69 108.43, 159.13 118.12, 133.75 136.25 M186.25 98.75 C171.27 109.45, 156.29 120.15, 133.75 136.25 M133.75 136.25 C107 156, 107 156, 80.25 136.25 M133.75 136.25 C107 156, 107 156, 80.25 136.25 M80.25 136.25 C66.58 126.67, 52.91 117.09, 26.75 98.75 M80.25 136.25 C61.79 123.31, 43.33 110.37, 26.75 98.75 M26.75 98.75 C0 79, 0 79, 26.75 59.25 M26.75 98.75 C0 79, 0 79, 26.75 59.25 M26.75 59.25 C40.57 49.05, 54.39 38.84, 80.25 19.75 M26.75 59.25 C39.19 50.06, 51.64 40.87, 80.25 19.75 M80.25 19.75 C107 0, 107 0, 133.75 19.75 M80.25 19.75 C107 0, 107 0, 133.75 19.75" stroke="#1e1e1e" stroke-width="2" fill="none"></path></g><g transform="translate(285.46607870819935 63) rotate(0 47.900001525878906 25)"><text x="47.900001525878906" y="17.52" font-family="Virgil, Segoe UI Emoji" font-size="20px" fill="#1e1e1e" text-anchor="middle" style="white-space: pre;" direction="ltr" dominant-baseline="alphabetic">channel </text><text x="47.900001525878906" y="42.519999999999996" font-family="Virgil, Segoe UI Emoji" font-size="20px" fill="#1e1e1e" text-anchor="middle" style="white-space: pre;" direction="ltr" dominant-baseline="alphabetic">available?</text></g><g stroke-linecap="round"><g transform="translate(445.52626788002 89.38776879007736) rotate(0 28.794906177029134 -0.1938843950386797)"><path d="M0 0 C9.6 -0.06, 47.99 -0.32, 57.59 -0.39 M0 0 C9.6 -0.06, 47.99 -0.32, 57.59 -0.39" stroke="#1e1e1e" stroke-width="2" fill="none"></path></g><g transform="translate(445.52626788002 89.38776879007736) rotate(0 28.794906177029134 -0.1938843950386797)"><path d="M34.16 8.32 C38.85 6.58, 43.55 4.83, 57.59 -0.39 M34.16 8.32 C39.56 6.31, 44.97 4.3, 57.59 -0.39" stroke="#1e1e1e" stroke-width="2" fill="none"></path></g><g transform="translate(445.52626788002 89.38776879007736) rotate(0 28.794906177029134 -0.1938843950386797)"><path d="M34.04 -8.78 C38.76 -7.1, 43.48 -5.42, 57.59 -0.39 M34.04 -8.78 C39.47 -6.84, 44.9 -4.91, 57.59 -0.39" stroke="#1e1e1e" stroke-width="2" fill="none"></path></g></g><mask></mask><g transform="translate(454.11608023407825 46) rotate(0 15.583333015441895 12.5)"><text x="0" y="17.52" font-family="Virgil, Segoe UI Emoji" font-size="20px" fill="#1e1e1e" text-anchor="start" style="white-space: pre;" direction="ltr" dominant-baseline="alphabetic">yes</text></g><g stroke-linecap="round"><g transform="translate(336.01199753431956 175.96818085833223) rotate(0 -0.19795865012065406 24.765909570833884)"><path d="M0 0 C-0.07 8.26, -0.33 41.28, -0.4 49.53 M0 0 C-0.07 8.26, -0.33 41.28, -0.4 49.53" stroke="#1e1e1e" stroke-width="2" fill="none"></path></g><g transform="translate(336.01199753431956 175.96818085833223) rotate(0 -0.19795865012065406 24.765909570833884)"><path d="M-8.68 26.19 C-6.18 33.25, -3.67 40.3, -0.4 49.53 M-8.68 26.19 C-7.01 30.91, -5.33 35.63, -0.4 49.53" stroke="#1e1e1e" stroke-width="2" fill="none"></path></g><g transform="translate(336.01199753431956 175.96818085833223) rotate(0 -0.19795865012065406 24.765909570833884)"><path d="M8.26 26.33 C5.64 33.34, 3.03 40.36, -0.4 49.53 M8.26 26.33 C6.51 31.02, 4.76 35.71, -0.4 49.53" stroke="#1e1e1e" stroke-width="2" fill="none"></path></g></g><mask></mask><g transform="translate(360.61608023407825 184.5) rotate(0 10.199999809265137 12.5)"><text x="0" y="17.52" font-family="Virgil, Segoe UI Emoji" font-size="20px" fill="#1e1e1e" text-anchor="start" style="white-space: pre;" direction="ltr" dominant-baseline="alphabetic">no</text></g><g stroke-linecap="round" transform="translate(512.1160802340783 69) rotate(0 94 19.5)"><path d="M9.75 0 C71.1 0, 132.46 0, 178.25 0 M9.75 0 C44.98 0, 80.2 0, 178.25 0 M178.25 0 C184.75 0, 188 3.25, 188 9.75 M178.25 0 C184.75 0, 188 3.25, 188 9.75 M188 9.75 C188 14.61, 188 19.46, 188 29.25 M188 9.75 C188 14.95, 188 20.16, 188 29.25 M188 29.25 C188 35.75, 184.75 39, 178.25 39 M188 29.25 C188 35.75, 184.75 39, 178.25 39 M178.25 39 C121.76 39, 65.27 39, 9.75 39 M178.25 39 C133.51 39, 88.77 39, 9.75 39 M9.75 39 C3.25 39, 0 35.75, 0 29.25 M9.75 39 C3.25 39, 0 35.75, 0 29.25 M0 29.25 C0 22.57, 0 15.9, 0 9.75 M0 29.25 C0 21.68, 0 14.12, 0 9.75 M0 9.75 C0 3.25, 3.25 0, 9.75 0 M0 9.75 C0 3.25, 3.25 0, 9.75 0" stroke="#1e1e1e" stroke-width="2" fill="none"></path></g><g transform="translate(526.7994145846642 76) rotate(0 79.31666564941406 12.5)"><text x="79.31666564941406" y="17.52" font-family="Virgil, Segoe UI Emoji" font-size="20px" fill="#1e1e1e" text-anchor="middle" style="white-space: pre;" direction="ltr" dominant-baseline="alphabetic">allocate channel</text></g><g stroke-linecap="round" transform="translate(231.61608023407825 234) rotate(0 106.5 78)"><path d="M133.75 19.75 C147.65 30.21, 161.55 40.67, 186.25 59.25 M133.75 19.75 C149.85 31.86, 165.95 43.98, 186.25 59.25 M186.25 59.25 C213 79, 213 79, 186.25 98.75 M186.25 59.25 C213 79, 213 79, 186.25 98.75 M186.25 98.75 C166.64 112.76, 147.04 126.76, 133.75 136.25 M186.25 98.75 C168.84 111.18, 151.43 123.62, 133.75 136.25 M133.75 136.25 C107 156, 107 156, 80.25 136.25 M133.75 136.25 C107 156, 107 156, 80.25 136.25 M80.25 136.25 C67.37 127.22, 54.5 118.2, 26.75 98.75 M80.25 136.25 C62.4 123.74, 44.56 111.23, 26.75 98.75 M26.75 98.75 C0 79, 0 79, 26.75 59.25 M26.75 98.75 C0 79, 0 79, 26.75 59.25 M26.75 59.25 C45.5 45.41, 64.25 31.56, 80.25 19.75 M26.75 59.25 C37.46 51.35, 48.16 43.44, 80.25 19.75 M80.25 19.75 C107 0, 107 0, 133.75 19.75 M80.25 19.75 C107 0, 107 0, 133.75 19.75" stroke="#1e1e1e" stroke-width="2" fill="none"></path></g><g transform="translate(290.38274664643177 287) rotate(0 47.483333587646484 25)"><text x="47.483333587646484" y="17.52" font-family="Virgil, Segoe UI Emoji" font-size="20px" fill="#1e1e1e" text-anchor="middle" style="white-space: pre;" direction="ltr" dominant-baseline="alphabetic">handover </text><text x="47.483333587646484" y="42.519999999999996" font-family="Virgil, Segoe UI Emoji" font-size="20px" fill="#1e1e1e" text-anchor="middle" style="white-space: pre;" direction="ltr" dominant-baseline="alphabetic">or new?</text></g><g stroke-linecap="round"><g transform="translate(400.11608023407825 278) rotate(0 0 0)"><path d="M0 0 C0 0, 0 0, 0 0 M0 0 C0 0, 0 0, 0 0" stroke="#1e1e1e" stroke-width="2" fill="none"></path></g><g transform="translate(400.11608023407825 278) rotate(0 0 0)"><path d="MNaN NaN CNaN NaN, NaN NaN, 0 0 MNaN NaN CNaN NaN, NaN NaN, 0 0" stroke="#1e1e1e" stroke-width="2" fill="none"></path></g><g transform="translate(400.11608023407825 278) rotate(0 0 0)"><path d="MNaN NaN CNaN NaN, NaN NaN, 0 0 MNaN NaN CNaN NaN, NaN NaN, 0 0" stroke="#1e1e1e" stroke-width="2" fill="none"></path></g></g><mask></mask><g stroke-linecap="round"><g transform="translate(383.11608023407825 294) rotate(0 0 0)"><path d="M0 0 C0 0, 0 0, 0 0 M0 0 C0 0, 0 0, 0 0" stroke="#1e1e1e" stroke-width="2" fill="none"></path></g><g transform="translate(383.11608023407825 294) rotate(0 0 0)"><path d="MNaN NaN CNaN NaN, NaN NaN, 0 0 MNaN NaN CNaN NaN, NaN NaN, 0 0" stroke="#1e1e1e" stroke-width="2" fill="none"></path></g><g transform="translate(383.11608023407825 294) rotate(0 0 0)"><path d="MNaN NaN CNaN NaN, NaN NaN, 0 0 MNaN NaN CNaN NaN, NaN NaN, 0 0" stroke="#1e1e1e" stroke-width="2" fill="none"></path></g></g><mask></mask><g stroke-linecap="round"><g transform="translate(452.11608023407825 310) rotate(0 40.5 37.5)"><path d="M0 0 C12.67 0.67, 62.5 -8.5, 76 4 C89.5 16.5, 80.17 63.17, 81 75 M0 0 C12.67 0.67, 62.5 -8.5, 76 4 C89.5 16.5, 80.17 63.17, 81 75" stroke="#1e1e1e" stroke-width="2" fill="none"></path></g><g transform="translate(452.11608023407825 310) rotate(0 40.5 37.5)"><path d="M73.89 51.03 C75.67 57.05, 77.46 63.07, 81 75 M73.89 51.03 C76.38 59.42, 78.87 67.82, 81 75" stroke="#1e1e1e" stroke-width="2" fill="none"></path></g><g transform="translate(452.11608023407825 310) rotate(0 40.5 37.5)"><path d="M90.96 52.07 C88.46 57.83, 85.96 63.58, 81 75 M90.96 52.07 C87.47 60.1, 83.98 68.13, 81 75" stroke="#1e1e1e" stroke-width="2" fill="none"></path></g></g><mask></mask><g stroke-linecap="round"><g transform="translate(219.80267364501924 311.8097905815622) rotate(0 -40.5 37.50000000000003)"><path d="M0 0 C-12.67 0.67, -62.5 -8.5, -76 4 C-89.5 16.5, -80.17 63.17, -81 75 M0 0 C-12.67 0.67, -62.5 -8.5, -76 4 C-89.5 16.5, -80.17 63.17, -81 75" stroke="#1e1e1e" stroke-width="2" fill="none"></path></g><g transform="translate(219.80267364501924 311.8097905815622) rotate(0 -40.5 37.50000000000003)"><path d="M-90.96 52.07 C-88.29 58.22, -85.62 64.37, -81 75 M-90.96 52.07 C-88.72 57.22, -86.49 62.37, -81 75" stroke="#1e1e1e" stroke-width="2" fill="none"></path></g><g transform="translate(219.80267364501924 311.8097905815622) rotate(0 -40.5 37.50000000000003)"><path d="M-73.89 51.03 C-75.8 57.46, -77.7 63.89, -81 75 M-73.89 51.03 C-75.49 56.42, -77.08 61.8, -81 75" stroke="#1e1e1e" stroke-width="2" fill="none"></path></g></g><mask></mask><g transform="translate(164.11608023407825 332) rotate(0 15.466666221618652 12.5)"><text x="0" y="17.52" font-family="Virgil, Segoe UI Emoji" font-size="20px" fill="#1e1e1e" text-anchor="start" style="white-space: pre;" direction="ltr" dominant-baseline="alphabetic">h/o</text></g><g transform="translate(474.11608023407825 328) rotate(0 16.21666717529297 12.5)"><text x="0" y="17.52" font-family="Virgil, Segoe UI Emoji" font-size="20px" fill="#1e1e1e" text-anchor="start" style="white-space: pre;" direction="ltr" dominant-baseline="alphabetic">new</text></g><g stroke-linecap="round" transform="translate(472.11608023407825 398) rotate(0 60 17.5)"><path d="M8.75 0 C45.65 0, 82.55 0, 111.25 0 M8.75 0 C32.14 0, 55.53 0, 111.25 0 M111.25 0 C117.08 0, 120 2.92, 120 8.75 M111.25 0 C117.08 0, 120 2.92, 120 8.75 M120 8.75 C120 13.64, 120 18.52, 120 26.25 M120 8.75 C120 13.62, 120 18.48, 120 26.25 M120 26.25 C120 32.08, 117.08 35, 111.25 35 M120 26.25 C120 32.08, 117.08 35, 111.25 35 M111.25 35 C87.86 35, 64.47 35, 8.75 35 M111.25 35 C88.9 35, 66.55 35, 8.75 35 M8.75 35 C2.92 35, 0 32.08, 0 26.25 M8.75 35 C2.92 35, 0 32.08, 0 26.25 M0 26.25 C0 20.44, 0 14.63, 0 8.75 M0 26.25 C0 20.22, 0 14.2, 0 8.75 M0 8.75 C0 2.92, 2.92 0, 8.75 0 M0 8.75 C0 2.92, 2.92 0, 8.75 0" stroke="#1e1e1e" stroke-width="2" fill="none"></path></g><g transform="translate(508.9827470279015 403) rotate(0 23.133333206176758 12.5)"><text x="23.133333206176758" y="17.52" font-family="Virgil, Segoe UI Emoji" font-size="20px" fill="#1e1e1e" text-anchor="middle" style="white-space: pre;" direction="ltr" dominant-baseline="alphabetic">block</text></g><g stroke-linecap="round" transform="translate(79.11608023407825 398.5) rotate(0 60 17.5)"><path d="M8.75 0 C48.82 0, 88.88 0, 111.25 0 M8.75 0 C34.88 0, 61.01 0, 111.25 0 M111.25 0 C117.08 0, 120 2.92, 120 8.75 M111.25 0 C117.08 0, 120 2.92, 120 8.75 M120 8.75 C120 14.26, 120 19.78, 120 26.25 M120 8.75 C120 15.19, 120 21.64, 120 26.25 M120 26.25 C120 32.08, 117.08 35, 111.25 35 M120 26.25 C120 32.08, 117.08 35, 111.25 35 M111.25 35 C87.98 35, 64.72 35, 8.75 35 M111.25 35 C79.74 35, 48.22 35, 8.75 35 M8.75 35 C2.92 35, 0 32.08, 0 26.25 M8.75 35 C2.92 35, 0 32.08, 0 26.25 M0 26.25 C0 19.63, 0 13, 0 8.75 M0 26.25 C0 19.98, 0 13.71, 0 8.75 M0 8.75 C0 2.92, 2.92 0, 8.75 0 M0 8.75 C0 2.92, 2.92 0, 8.75 0" stroke="#1e1e1e" stroke-width="2" fill="none"></path></g><g transform="translate(118.6660794711388 403.5) rotate(0 20.450000762939453 12.5)"><text x="20.450000762939453" y="17.52" font-family="Virgil, Segoe UI Emoji" font-size="20px" fill="#1e1e1e" text-anchor="middle" style="white-space: pre;" direction="ltr" dominant-baseline="alphabetic">drop</text></g><g stroke-linecap="round"><g transform="translate(203.99108023407825 440.7265625) rotate(0 53.5 39.5)"><path d="M0 0 C17.83 13.17, 89.17 65.83, 107 79 M0 0 C17.83 13.17, 89.17 65.83, 107 79" stroke="#1e1e1e" stroke-width="2" fill="none"></path></g><g transform="translate(203.99108023407825 440.7265625) rotate(0 53.5 39.5)"><path d="M83.02 71.93 C91.48 74.42, 99.95 76.92, 107 79 M83.02 71.93 C88.99 73.68, 94.95 75.44, 107 79" stroke="#1e1e1e" stroke-width="2" fill="none"></path></g><g transform="translate(203.99108023407825 440.7265625) rotate(0 53.5 39.5)"><path d="M93.18 58.17 C98.06 65.52, 102.93 72.87, 107 79 M93.18 58.17 C96.62 63.35, 100.05 68.53, 107 79" stroke="#1e1e1e" stroke-width="2" fill="none"></path></g></g><mask></mask><g stroke-linecap="round"><g transform="translate(465.49108023407825 440.2265625) rotate(0 -53.5 39.5)"><path d="M0 0 C-17.83 13.17, -89.17 65.83, -107 79 M0 0 C-17.83 13.17, -89.17 65.83, -107 79" stroke="#1e1e1e" stroke-width="2" fill="none"></path></g><g transform="translate(465.49108023407825 440.2265625) rotate(0 -53.5 39.5)"><path d="M-93.18 58.17 C-98.12 65.61, -103.06 73.06, -107 79 M-93.18 58.17 C-96.93 63.83, -100.69 69.48, -107 79" stroke="#1e1e1e" stroke-width="2" fill="none"></path></g><g transform="translate(465.49108023407825 440.2265625) rotate(0 -53.5 39.5)"><path d="M-83.02 71.93 C-91.59 74.45, -100.16 76.98, -107 79 M-83.02 71.93 C-89.53 73.85, -96.05 75.77, -107 79" stroke="#1e1e1e" stroke-width="2" fill="none"></path></g></g><mask></mask><g stroke-linecap="round" transform="translate(241.93639273407825 524.265625) rotate(0 91.5 21)"><path d="M10.5 0 C59.3 0, 108.1 0, 172.5 0 M10.5 0 C57.31 0, 104.12 0, 172.5 0 M172.5 0 C179.5 0, 183 3.5, 183 10.5 M172.5 0 C179.5 0, 183 3.5, 183 10.5 M183 10.5 C183 18.56, 183 26.62, 183 31.5 M183 10.5 C183 15.93, 183 21.36, 183 31.5 M183 31.5 C183 38.5, 179.5 42, 172.5 42 M183 31.5 C183 38.5, 179.5 42, 172.5 42 M172.5 42 C130.5 42, 88.5 42, 10.5 42 M172.5 42 C136.62 42, 100.75 42, 10.5 42 M10.5 42 C3.5 42, 0 38.5, 0 31.5 M10.5 42 C3.5 42, 0 38.5, 0 31.5 M0 31.5 C0 24.87, 0 18.23, 0 10.5 M0 31.5 C0 25.8, 0 20.1, 0 10.5 M0 10.5 C0 3.5, 3.5 0, 10.5 0 M0 10.5 C0 3.5, 3.5 0, 10.5 0" stroke="#1e1e1e" stroke-width="2" fill="none"></path></g><g transform="translate(263.7197255587853 532.765625) rotate(0 69.71666717529297 12.5)"><text x="69.71666717529297" y="17.52" font-family="Virgil, Segoe UI Emoji" font-size="20px" fill="#1e1e1e" text-anchor="middle" style="white-space: pre;" direction="ltr" dominant-baseline="alphabetic">await request</text></g><g stroke-linecap="round"><g transform="translate(229.93639273407825 545.1328125) rotate(0 -99.5 -229)"><path d="M0 0 C-32.17 -8.33, -159.83 14.67, -193 -50 C-226.17 -114.67, -229.33 -320, -199 -388 C-168.67 -456, -42.33 -446.33, -11 -458 M0 0 C-32.17 -8.33, -159.83 14.67, -193 -50 C-226.17 -114.67, -229.33 -320, -199 -388 C-168.67 -456, -42.33 -446.33, -11 -458" stroke="#1e1e1e" stroke-width="2" fill="none"></path></g><g transform="translate(229.93639273407825 545.1328125) rotate(0 -99.5 -229)"><path d="M-32.94 -446.01 C-28.11 -448.65, -23.29 -451.28, -11 -458 M-32.94 -446.01 C-24.41 -450.67, -15.88 -455.33, -11 -458" stroke="#1e1e1e" stroke-width="2" fill="none"></path></g><g transform="translate(229.93639273407825 545.1328125) rotate(0 -99.5 -229)"><path d="M-35.51 -462.92 C-30.12 -461.84, -24.73 -460.76, -11 -458 M-35.51 -462.92 C-25.98 -461.01, -16.45 -459.09, -11 -458" stroke="#1e1e1e" stroke-width="2" fill="none"></path></g></g><mask></mask><g transform="translate(57.253058383492316 47.1328125) rotate(0 58.68333435058594 12.5)"><text x="58.68333435058594" y="17.52" font-family="Virgil, Segoe UI Emoji" font-size="20px" fill="#1e1e1e" text-anchor="middle" style="white-space: pre;" direction="ltr" dominant-baseline="alphabetic">new request</text></g><g stroke-linecap="round"><g transform="translate(612.4051427340783 119.28125) rotate(0 -88.5 204)"><path d="M0 0 C0.17 51.5, 30.67 241, 1 309 C-28.67 377, -148.17 391.5, -178 408 M0 0 C0.17 51.5, 30.67 241, 1 309 C-28.67 377, -148.17 391.5, -178 408" stroke="#1e1e1e" stroke-width="2" fill="none"></path></g><g transform="translate(612.4051427340783 119.28125) rotate(0 -88.5 204)"><path d="M-158.54 392.31 C-165.39 397.83, -172.24 403.36, -178 408 M-158.54 392.31 C-163.64 396.42, -168.73 400.53, -178 408" stroke="#1e1e1e" stroke-width="2" fill="none"></path></g><g transform="translate(612.4051427340783 119.28125) rotate(0 -88.5 204)"><path d="M-153 408.49 C-161.8 408.32, -170.6 408.14, -178 408 M-153 408.49 C-159.55 408.36, -166.1 408.23, -178 408" stroke="#1e1e1e" stroke-width="2" fill="none"></path></g></g><mask></mask></svg>