<?xml version="1.0" encoding="utf-8" standalone="no"?>
<!DOCTYPE svg PUBLIC "-//W3C//DTD SVG 1.1//EN"
  "http://www.w3.org/Graphics/SVG/1.1/DTD/svg11.dtd">
<svg xmlns:xlink="http://www.w3.org/1999/xlink" width="864pt" height="576pt" viewBox="0 0 864 576" xmlns="http://www.w3.org/2000/svg" version="1.1">
 <metadata>
  <rdf:RDF xmlns:dc="http://purl.org/dc/elements/1.1/" xmlns:cc="http://creativecommons.org/ns#" xmlns:rdf="http://www.w3.org/1999/02/22-rdf-syntax-ns#">
   <cc:Work>
    <dc:type rdf:resource="http://purl.org/dc/dcmitype/StillImage"/>
    <dc:date>2024-04-14T23:10:48.656664</dc:date>
    <dc:format>image/svg+xml</dc:format>
    <dc:creator>
     <cc:Agent>
      <dc:title>Matplotlib v3.8.3, https://matplotlib.org/</dc:title>
     </cc:Agent>
    </dc:creator>
   </cc:Work>
  </rdf:RDF>
 </metadata>
 <defs>
  <style type="text/css">*{stroke-linejoin: round; stroke-linecap: butt}</style>
 </defs>
 <g id="figure_1">
  <g id="patch_1">
   <path d="M 0 576 
L 864 576 
L 864 0 
L 0 0 
z
" style="fill: #ffffff"/>
  </g>
  <g id="axes_1">
   <g id="patch_2">
    <path d="M 108 512.64 
L 777.6 512.64 
L 777.6 69.12 
L 108 69.12 
z
" style="fill: #eaeaf2"/>
   </g>
   <g id="matplotlib.axis_1">
    <g id="xtick_1">
     <g id="line2d_1">
      <path d="M 109.55987 512.64 
L 109.55987 69.12 
" clip-path="url(#pe74fef932e)" style="fill: none; stroke: #ffffff; stroke-linecap: round"/>
     </g>
     <g id="text_1">
      <!-- 0.001 -->
      <g style="fill: #262626" transform="translate(86.65737 534.2975) scale(0.16 -0.16)">
       <defs>
        <path id="DejaVuSans-30" d="M 2034 4250 
Q 1547 4250 1301 3770 
Q 1056 3291 1056 2328 
Q 1056 1369 1301 889 
Q 1547 409 2034 409 
Q 2525 409 2770 889 
Q 3016 1369 3016 2328 
Q 3016 3291 2770 3770 
Q 2525 4250 2034 4250 
z
M 2034 4750 
Q 2819 4750 3233 4129 
Q 3647 3509 3647 2328 
Q 3647 1150 3233 529 
Q 2819 -91 2034 -91 
Q 1250 -91 836 529 
Q 422 1150 422 2328 
Q 422 3509 836 4129 
Q 1250 4750 2034 4750 
z
" transform="scale(0.015625)"/>
        <path id="DejaVuSans-2e" d="M 684 794 
L 1344 794 
L 1344 0 
L 684 0 
L 684 794 
z
" transform="scale(0.015625)"/>
        <path id="DejaVuSans-31" d="M 794 531 
L 1825 531 
L 1825 4091 
L 703 3866 
L 703 4441 
L 1819 4666 
L 2450 4666 
L 2450 531 
L 3481 531 
L 3481 0 
L 794 0 
L 794 531 
z
" transform="scale(0.015625)"/>
       </defs>
       <use xlink:href="#DejaVuSans-30"/>
       <use xlink:href="#DejaVuSans-2e" x="63.623047"/>
       <use xlink:href="#DejaVuSans-30" x="95.410156"/>
       <use xlink:href="#DejaVuSans-30" x="159.033203"/>
       <use xlink:href="#DejaVuSans-31" x="222.65625"/>
      </g>
     </g>
    </g>
    <g id="xtick_2">
     <g id="line2d_2">
      <path d="M 254.010202 512.64 
L 254.010202 69.12 
" clip-path="url(#pe74fef932e)" style="fill: none; stroke: #ffffff; stroke-linecap: round"/>
     </g>
     <g id="text_2">
      <!-- 0.002 -->
      <g style="fill: #262626" transform="translate(231.107702 534.2975) scale(0.16 -0.16)">
       <defs>
        <path id="DejaVuSans-32" d="M 1228 531 
L 3431 531 
L 3431 0 
L 469 0 
L 469 531 
Q 828 903 1448 1529 
Q 2069 2156 2228 2338 
Q 2531 2678 2651 2914 
Q 2772 3150 2772 3378 
Q 2772 3750 2511 3984 
Q 2250 4219 1831 4219 
Q 1534 4219 1204 4116 
Q 875 4013 500 3803 
L 500 4441 
Q 881 4594 1212 4672 
Q 1544 4750 1819 4750 
Q 2544 4750 2975 4387 
Q 3406 4025 3406 3419 
Q 3406 3131 3298 2873 
Q 3191 2616 2906 2266 
Q 2828 2175 2409 1742 
Q 1991 1309 1228 531 
z
" transform="scale(0.015625)"/>
       </defs>
       <use xlink:href="#DejaVuSans-30"/>
       <use xlink:href="#DejaVuSans-2e" x="63.623047"/>
       <use xlink:href="#DejaVuSans-30" x="95.410156"/>
       <use xlink:href="#DejaVuSans-30" x="159.033203"/>
       <use xlink:href="#DejaVuSans-32" x="222.65625"/>
      </g>
     </g>
    </g>
    <g id="xtick_3">
     <g id="line2d_3">
      <path d="M 398.460534 512.64 
L 398.460534 69.12 
" clip-path="url(#pe74fef932e)" style="fill: none; stroke: #ffffff; stroke-linecap: round"/>
     </g>
     <g id="text_3">
      <!-- 0.003 -->
      <g style="fill: #262626" transform="translate(375.558034 534.2975) scale(0.16 -0.16)">
       <defs>
        <path id="DejaVuSans-33" d="M 2597 2516 
Q 3050 2419 3304 2112 
Q 3559 1806 3559 1356 
Q 3559 666 3084 287 
Q 2609 -91 1734 -91 
Q 1441 -91 1130 -33 
Q 819 25 488 141 
L 488 750 
Q 750 597 1062 519 
Q 1375 441 1716 441 
Q 2309 441 2620 675 
Q 2931 909 2931 1356 
Q 2931 1769 2642 2001 
Q 2353 2234 1838 2234 
L 1294 2234 
L 1294 2753 
L 1863 2753 
Q 2328 2753 2575 2939 
Q 2822 3125 2822 3475 
Q 2822 3834 2567 4026 
Q 2313 4219 1838 4219 
Q 1578 4219 1281 4162 
Q 984 4106 628 3988 
L 628 4550 
Q 988 4650 1302 4700 
Q 1616 4750 1894 4750 
Q 2613 4750 3031 4423 
Q 3450 4097 3450 3541 
Q 3450 3153 3228 2886 
Q 3006 2619 2597 2516 
z
" transform="scale(0.015625)"/>
       </defs>
       <use xlink:href="#DejaVuSans-30"/>
       <use xlink:href="#DejaVuSans-2e" x="63.623047"/>
       <use xlink:href="#DejaVuSans-30" x="95.410156"/>
       <use xlink:href="#DejaVuSans-30" x="159.033203"/>
       <use xlink:href="#DejaVuSans-33" x="222.65625"/>
      </g>
     </g>
    </g>
    <g id="xtick_4">
     <g id="line2d_4">
      <path d="M 542.910867 512.64 
L 542.910867 69.12 
" clip-path="url(#pe74fef932e)" style="fill: none; stroke: #ffffff; stroke-linecap: round"/>
     </g>
     <g id="text_4">
      <!-- 0.004 -->
      <g style="fill: #262626" transform="translate(520.008367 534.2975) scale(0.16 -0.16)">
       <defs>
        <path id="DejaVuSans-34" d="M 2419 4116 
L 825 1625 
L 2419 1625 
L 2419 4116 
z
M 2253 4666 
L 3047 4666 
L 3047 1625 
L 3713 1625 
L 3713 1100 
L 3047 1100 
L 3047 0 
L 2419 0 
L 2419 1100 
L 313 1100 
L 313 1709 
L 2253 4666 
z
" transform="scale(0.015625)"/>
       </defs>
       <use xlink:href="#DejaVuSans-30"/>
       <use xlink:href="#DejaVuSans-2e" x="63.623047"/>
       <use xlink:href="#DejaVuSans-30" x="95.410156"/>
       <use xlink:href="#DejaVuSans-30" x="159.033203"/>
       <use xlink:href="#DejaVuSans-34" x="222.65625"/>
      </g>
     </g>
    </g>
    <g id="xtick_5">
     <g id="line2d_5">
      <path d="M 687.361199 512.64 
L 687.361199 69.12 
" clip-path="url(#pe74fef932e)" style="fill: none; stroke: #ffffff; stroke-linecap: round"/>
     </g>
     <g id="text_5">
      <!-- 0.005 -->
      <g style="fill: #262626" transform="translate(664.458699 534.2975) scale(0.16 -0.16)">
       <defs>
        <path id="DejaVuSans-35" d="M 691 4666 
L 3169 4666 
L 3169 4134 
L 1269 4134 
L 1269 2991 
Q 1406 3038 1543 3061 
Q 1681 3084 1819 3084 
Q 2600 3084 3056 2656 
Q 3513 2228 3513 1497 
Q 3513 744 3044 326 
Q 2575 -91 1722 -91 
Q 1428 -91 1123 -41 
Q 819 9 494 109 
L 494 744 
Q 775 591 1075 516 
Q 1375 441 1709 441 
Q 2250 441 2565 725 
Q 2881 1009 2881 1497 
Q 2881 1984 2565 2268 
Q 2250 2553 1709 2553 
Q 1456 2553 1204 2497 
Q 953 2441 691 2322 
L 691 4666 
z
" transform="scale(0.015625)"/>
       </defs>
       <use xlink:href="#DejaVuSans-30"/>
       <use xlink:href="#DejaVuSans-2e" x="63.623047"/>
       <use xlink:href="#DejaVuSans-30" x="95.410156"/>
       <use xlink:href="#DejaVuSans-30" x="159.033203"/>
       <use xlink:href="#DejaVuSans-35" x="222.65625"/>
      </g>
     </g>
    </g>
    <g id="text_6">
     <!-- Values -->
     <g style="fill: #262626" transform="translate(416.6625 553.7825) scale(0.16 -0.16)">
      <defs>
       <path id="DejaVuSans-56" d="M 1831 0 
L 50 4666 
L 709 4666 
L 2188 738 
L 3669 4666 
L 4325 4666 
L 2547 0 
L 1831 0 
z
" transform="scale(0.015625)"/>
       <path id="DejaVuSans-61" d="M 2194 1759 
Q 1497 1759 1228 1600 
Q 959 1441 959 1056 
Q 959 750 1161 570 
Q 1363 391 1709 391 
Q 2188 391 2477 730 
Q 2766 1069 2766 1631 
L 2766 1759 
L 2194 1759 
z
M 3341 1997 
L 3341 0 
L 2766 0 
L 2766 531 
Q 2569 213 2275 61 
Q 1981 -91 1556 -91 
Q 1019 -91 701 211 
Q 384 513 384 1019 
Q 384 1609 779 1909 
Q 1175 2209 1959 2209 
L 2766 2209 
L 2766 2266 
Q 2766 2663 2505 2880 
Q 2244 3097 1772 3097 
Q 1472 3097 1187 3025 
Q 903 2953 641 2809 
L 641 3341 
Q 956 3463 1253 3523 
Q 1550 3584 1831 3584 
Q 2591 3584 2966 3190 
Q 3341 2797 3341 1997 
z
" transform="scale(0.015625)"/>
       <path id="DejaVuSans-6c" d="M 603 4863 
L 1178 4863 
L 1178 0 
L 603 0 
L 603 4863 
z
" transform="scale(0.015625)"/>
       <path id="DejaVuSans-75" d="M 544 1381 
L 544 3500 
L 1119 3500 
L 1119 1403 
Q 1119 906 1312 657 
Q 1506 409 1894 409 
Q 2359 409 2629 706 
Q 2900 1003 2900 1516 
L 2900 3500 
L 3475 3500 
L 3475 0 
L 2900 0 
L 2900 538 
Q 2691 219 2414 64 
Q 2138 -91 1772 -91 
Q 1169 -91 856 284 
Q 544 659 544 1381 
z
M 1991 3584 
L 1991 3584 
z
" transform="scale(0.015625)"/>
       <path id="DejaVuSans-65" d="M 3597 1894 
L 3597 1613 
L 953 1613 
Q 991 1019 1311 708 
Q 1631 397 2203 397 
Q 2534 397 2845 478 
Q 3156 559 3463 722 
L 3463 178 
Q 3153 47 2828 -22 
Q 2503 -91 2169 -91 
Q 1331 -91 842 396 
Q 353 884 353 1716 
Q 353 2575 817 3079 
Q 1281 3584 2069 3584 
Q 2775 3584 3186 3129 
Q 3597 2675 3597 1894 
z
M 3022 2063 
Q 3016 2534 2758 2815 
Q 2500 3097 2075 3097 
Q 1594 3097 1305 2825 
Q 1016 2553 972 2059 
L 3022 2063 
z
" transform="scale(0.015625)"/>
       <path id="DejaVuSans-73" d="M 2834 3397 
L 2834 2853 
Q 2591 2978 2328 3040 
Q 2066 3103 1784 3103 
Q 1356 3103 1142 2972 
Q 928 2841 928 2578 
Q 928 2378 1081 2264 
Q 1234 2150 1697 2047 
L 1894 2003 
Q 2506 1872 2764 1633 
Q 3022 1394 3022 966 
Q 3022 478 2636 193 
Q 2250 -91 1575 -91 
Q 1294 -91 989 -36 
Q 684 19 347 128 
L 347 722 
Q 666 556 975 473 
Q 1284 391 1588 391 
Q 1994 391 2212 530 
Q 2431 669 2431 922 
Q 2431 1156 2273 1281 
Q 2116 1406 1581 1522 
L 1381 1569 
Q 847 1681 609 1914 
Q 372 2147 372 2553 
Q 372 3047 722 3315 
Q 1072 3584 1716 3584 
Q 2034 3584 2315 3537 
Q 2597 3491 2834 3397 
z
" transform="scale(0.015625)"/>
      </defs>
      <use xlink:href="#DejaVuSans-56"/>
      <use xlink:href="#DejaVuSans-61" x="60.658203"/>
      <use xlink:href="#DejaVuSans-6c" x="121.9375"/>
      <use xlink:href="#DejaVuSans-75" x="149.720703"/>
      <use xlink:href="#DejaVuSans-65" x="213.099609"/>
      <use xlink:href="#DejaVuSans-73" x="274.623047"/>
     </g>
    </g>
   </g>
   <g id="matplotlib.axis_2">
    <g id="ytick_1">
     <g id="line2d_6">
      <path d="M 108 512.64 
L 777.6 512.64 
" clip-path="url(#pe74fef932e)" style="fill: none; stroke: #ffffff; stroke-linecap: round"/>
     </g>
     <g id="text_7">
      <!-- 0 -->
      <g style="fill: #262626" transform="translate(88.32 518.71875) scale(0.16 -0.16)">
       <use xlink:href="#DejaVuSans-30"/>
      </g>
     </g>
    </g>
    <g id="ytick_2">
     <g id="line2d_7">
      <path d="M 108 420.427675 
L 777.6 420.427675 
" clip-path="url(#pe74fef932e)" style="fill: none; stroke: #ffffff; stroke-linecap: round"/>
     </g>
     <g id="text_8">
      <!-- 200 -->
      <g style="fill: #262626" transform="translate(67.96 426.506425) scale(0.16 -0.16)">
       <use xlink:href="#DejaVuSans-32"/>
       <use xlink:href="#DejaVuSans-30" x="63.623047"/>
       <use xlink:href="#DejaVuSans-30" x="127.246094"/>
      </g>
     </g>
    </g>
    <g id="ytick_3">
     <g id="line2d_8">
      <path d="M 108 328.215351 
L 777.6 328.215351 
" clip-path="url(#pe74fef932e)" style="fill: none; stroke: #ffffff; stroke-linecap: round"/>
     </g>
     <g id="text_9">
      <!-- 400 -->
      <g style="fill: #262626" transform="translate(67.96 334.294101) scale(0.16 -0.16)">
       <use xlink:href="#DejaVuSans-34"/>
       <use xlink:href="#DejaVuSans-30" x="63.623047"/>
       <use xlink:href="#DejaVuSans-30" x="127.246094"/>
      </g>
     </g>
    </g>
    <g id="ytick_4">
     <g id="line2d_9">
      <path d="M 108 236.003026 
L 777.6 236.003026 
" clip-path="url(#pe74fef932e)" style="fill: none; stroke: #ffffff; stroke-linecap: round"/>
     </g>
     <g id="text_10">
      <!-- 600 -->
      <g style="fill: #262626" transform="translate(67.96 242.081776) scale(0.16 -0.16)">
       <defs>
        <path id="DejaVuSans-36" d="M 2113 2584 
Q 1688 2584 1439 2293 
Q 1191 2003 1191 1497 
Q 1191 994 1439 701 
Q 1688 409 2113 409 
Q 2538 409 2786 701 
Q 3034 994 3034 1497 
Q 3034 2003 2786 2293 
Q 2538 2584 2113 2584 
z
M 3366 4563 
L 3366 3988 
Q 3128 4100 2886 4159 
Q 2644 4219 2406 4219 
Q 1781 4219 1451 3797 
Q 1122 3375 1075 2522 
Q 1259 2794 1537 2939 
Q 1816 3084 2150 3084 
Q 2853 3084 3261 2657 
Q 3669 2231 3669 1497 
Q 3669 778 3244 343 
Q 2819 -91 2113 -91 
Q 1303 -91 875 529 
Q 447 1150 447 2328 
Q 447 3434 972 4092 
Q 1497 4750 2381 4750 
Q 2619 4750 2861 4703 
Q 3103 4656 3366 4563 
z
" transform="scale(0.015625)"/>
       </defs>
       <use xlink:href="#DejaVuSans-36"/>
       <use xlink:href="#DejaVuSans-30" x="63.623047"/>
       <use xlink:href="#DejaVuSans-30" x="127.246094"/>
      </g>
     </g>
    </g>
    <g id="ytick_5">
     <g id="line2d_10">
      <path d="M 108 143.790701 
L 777.6 143.790701 
" clip-path="url(#pe74fef932e)" style="fill: none; stroke: #ffffff; stroke-linecap: round"/>
     </g>
     <g id="text_11">
      <!-- 800 -->
      <g style="fill: #262626" transform="translate(67.96 149.869451) scale(0.16 -0.16)">
       <defs>
        <path id="DejaVuSans-38" d="M 2034 2216 
Q 1584 2216 1326 1975 
Q 1069 1734 1069 1313 
Q 1069 891 1326 650 
Q 1584 409 2034 409 
Q 2484 409 2743 651 
Q 3003 894 3003 1313 
Q 3003 1734 2745 1975 
Q 2488 2216 2034 2216 
z
M 1403 2484 
Q 997 2584 770 2862 
Q 544 3141 544 3541 
Q 544 4100 942 4425 
Q 1341 4750 2034 4750 
Q 2731 4750 3128 4425 
Q 3525 4100 3525 3541 
Q 3525 3141 3298 2862 
Q 3072 2584 2669 2484 
Q 3125 2378 3379 2068 
Q 3634 1759 3634 1313 
Q 3634 634 3220 271 
Q 2806 -91 2034 -91 
Q 1263 -91 848 271 
Q 434 634 434 1313 
Q 434 1759 690 2068 
Q 947 2378 1403 2484 
z
M 1172 3481 
Q 1172 3119 1398 2916 
Q 1625 2713 2034 2713 
Q 2441 2713 2670 2916 
Q 2900 3119 2900 3481 
Q 2900 3844 2670 4047 
Q 2441 4250 2034 4250 
Q 1625 4250 1398 4047 
Q 1172 3844 1172 3481 
z
" transform="scale(0.015625)"/>
       </defs>
       <use xlink:href="#DejaVuSans-38"/>
       <use xlink:href="#DejaVuSans-30" x="63.623047"/>
       <use xlink:href="#DejaVuSans-30" x="127.246094"/>
      </g>
     </g>
    </g>
    <g id="text_12">
     <!-- Frequency -->
     <g style="fill: #262626" transform="translate(60.6325 332.2075) rotate(-90) scale(0.16 -0.16)">
      <defs>
       <path id="DejaVuSans-46" d="M 628 4666 
L 3309 4666 
L 3309 4134 
L 1259 4134 
L 1259 2759 
L 3109 2759 
L 3109 2228 
L 1259 2228 
L 1259 0 
L 628 0 
L 628 4666 
z
" transform="scale(0.015625)"/>
       <path id="DejaVuSans-72" d="M 2631 2963 
Q 2534 3019 2420 3045 
Q 2306 3072 2169 3072 
Q 1681 3072 1420 2755 
Q 1159 2438 1159 1844 
L 1159 0 
L 581 0 
L 581 3500 
L 1159 3500 
L 1159 2956 
Q 1341 3275 1631 3429 
Q 1922 3584 2338 3584 
Q 2397 3584 2469 3576 
Q 2541 3569 2628 3553 
L 2631 2963 
z
" transform="scale(0.015625)"/>
       <path id="DejaVuSans-71" d="M 947 1747 
Q 947 1113 1208 752 
Q 1469 391 1925 391 
Q 2381 391 2643 752 
Q 2906 1113 2906 1747 
Q 2906 2381 2643 2742 
Q 2381 3103 1925 3103 
Q 1469 3103 1208 2742 
Q 947 2381 947 1747 
z
M 2906 525 
Q 2725 213 2448 61 
Q 2172 -91 1784 -91 
Q 1150 -91 751 415 
Q 353 922 353 1747 
Q 353 2572 751 3078 
Q 1150 3584 1784 3584 
Q 2172 3584 2448 3432 
Q 2725 3281 2906 2969 
L 2906 3500 
L 3481 3500 
L 3481 -1331 
L 2906 -1331 
L 2906 525 
z
" transform="scale(0.015625)"/>
       <path id="DejaVuSans-6e" d="M 3513 2113 
L 3513 0 
L 2938 0 
L 2938 2094 
Q 2938 2591 2744 2837 
Q 2550 3084 2163 3084 
Q 1697 3084 1428 2787 
Q 1159 2491 1159 1978 
L 1159 0 
L 581 0 
L 581 3500 
L 1159 3500 
L 1159 2956 
Q 1366 3272 1645 3428 
Q 1925 3584 2291 3584 
Q 2894 3584 3203 3211 
Q 3513 2838 3513 2113 
z
" transform="scale(0.015625)"/>
       <path id="DejaVuSans-63" d="M 3122 3366 
L 3122 2828 
Q 2878 2963 2633 3030 
Q 2388 3097 2138 3097 
Q 1578 3097 1268 2742 
Q 959 2388 959 1747 
Q 959 1106 1268 751 
Q 1578 397 2138 397 
Q 2388 397 2633 464 
Q 2878 531 3122 666 
L 3122 134 
Q 2881 22 2623 -34 
Q 2366 -91 2075 -91 
Q 1284 -91 818 406 
Q 353 903 353 1747 
Q 353 2603 823 3093 
Q 1294 3584 2113 3584 
Q 2378 3584 2631 3529 
Q 2884 3475 3122 3366 
z
" transform="scale(0.015625)"/>
       <path id="DejaVuSans-79" d="M 2059 -325 
Q 1816 -950 1584 -1140 
Q 1353 -1331 966 -1331 
L 506 -1331 
L 506 -850 
L 844 -850 
Q 1081 -850 1212 -737 
Q 1344 -625 1503 -206 
L 1606 56 
L 191 3500 
L 800 3500 
L 1894 763 
L 2988 3500 
L 3597 3500 
L 2059 -325 
z
" transform="scale(0.015625)"/>
      </defs>
      <use xlink:href="#DejaVuSans-46"/>
      <use xlink:href="#DejaVuSans-72" x="50.269531"/>
      <use xlink:href="#DejaVuSans-65" x="89.132812"/>
      <use xlink:href="#DejaVuSans-71" x="150.65625"/>
      <use xlink:href="#DejaVuSans-75" x="214.132812"/>
      <use xlink:href="#DejaVuSans-65" x="277.511719"/>
      <use xlink:href="#DejaVuSans-6e" x="339.035156"/>
      <use xlink:href="#DejaVuSans-63" x="402.414062"/>
      <use xlink:href="#DejaVuSans-79" x="457.394531"/>
     </g>
    </g>
   </g>
   <g id="patch_3">
    <path d="M 138.436364 512.64 
L 142.508118 512.64 
L 142.508118 512.612556 
L 138.436364 512.612556 
z
" clip-path="url(#pe74fef932e)" style="fill: #bbbbbb; stroke: #5a5a5a; stroke-linejoin: miter"/>
   </g>
   <g id="patch_4">
    <path d="M 142.508118 512.64 
L 146.579872 512.64 
L 146.579872 512.585072 
L 142.508118 512.585072 
z
" clip-path="url(#pe74fef932e)" style="fill: #bbbbbb; stroke: #5a5a5a; stroke-linejoin: miter"/>
   </g>
   <g id="patch_5">
    <path d="M 146.579872 512.64 
L 150.651627 512.64 
L 150.651627 512.585088 
L 146.579872 512.585088 
z
" clip-path="url(#pe74fef932e)" style="fill: #bbbbbb; stroke: #5a5a5a; stroke-linejoin: miter"/>
   </g>
   <g id="patch_6">
    <path d="M 150.651627 512.64 
L 154.723381 512.64 
L 154.723381 512.585377 
L 150.651627 512.585377 
z
" clip-path="url(#pe74fef932e)" style="fill: #bbbbbb; stroke: #5a5a5a; stroke-linejoin: miter"/>
   </g>
   <g id="patch_7">
    <path d="M 154.723381 512.64 
L 158.795135 512.64 
L 158.795135 512.613444 
L 154.723381 512.613444 
z
" clip-path="url(#pe74fef932e)" style="fill: #bbbbbb; stroke: #5a5a5a; stroke-linejoin: miter"/>
   </g>
   <g id="patch_8">
    <path d="M 158.795135 512.64 
L 162.86689 512.64 
L 162.86689 512.610337 
L 158.795135 512.610337 
z
" clip-path="url(#pe74fef932e)" style="fill: #bbbbbb; stroke: #5a5a5a; stroke-linejoin: miter"/>
   </g>
   <g id="patch_9">
    <path d="M 162.86689 512.64 
L 166.938644 512.64 
L 166.938644 512.529305 
L 162.86689 512.529305 
z
" clip-path="url(#pe74fef932e)" style="fill: #bbbbbb; stroke: #5a5a5a; stroke-linejoin: miter"/>
   </g>
   <g id="patch_10">
    <path d="M 166.938644 512.64 
L 171.010398 512.64 
L 171.010398 512.557934 
L 166.938644 512.557934 
z
" clip-path="url(#pe74fef932e)" style="fill: #bbbbbb; stroke: #5a5a5a; stroke-linejoin: miter"/>
   </g>
   <g id="patch_11">
    <path d="M 171.010398 512.64 
L 175.082153 512.64 
L 175.082153 512.529802 
L 171.010398 512.529802 
z
" clip-path="url(#pe74fef932e)" style="fill: #bbbbbb; stroke: #5a5a5a; stroke-linejoin: miter"/>
   </g>
   <g id="patch_12">
    <path d="M 175.082153 512.64 
L 179.153907 512.64 
L 179.153907 512.527047 
L 175.082153 512.527047 
z
" clip-path="url(#pe74fef932e)" style="fill: #bbbbbb; stroke: #5a5a5a; stroke-linejoin: miter"/>
   </g>
   <g id="patch_13">
    <path d="M 179.153907 512.64 
L 183.225661 512.64 
L 183.225661 512.44501 
L 179.153907 512.44501 
z
" clip-path="url(#pe74fef932e)" style="fill: #bbbbbb; stroke: #5a5a5a; stroke-linejoin: miter"/>
   </g>
   <g id="patch_14">
    <path d="M 183.225661 512.64 
L 187.297416 512.64 
L 187.297416 512.447424 
L 183.225661 512.447424 
z
" clip-path="url(#pe74fef932e)" style="fill: #bbbbbb; stroke: #5a5a5a; stroke-linejoin: miter"/>
   </g>
   <g id="patch_15">
    <path d="M 187.297416 512.64 
L 191.36917 512.64 
L 191.36917 512.418814 
L 187.297416 512.418814 
z
" clip-path="url(#pe74fef932e)" style="fill: #bbbbbb; stroke: #5a5a5a; stroke-linejoin: miter"/>
   </g>
   <g id="patch_16">
    <path d="M 191.36917 512.64 
L 195.440924 512.64 
L 195.440924 512.421376 
L 191.36917 512.421376 
z
" clip-path="url(#pe74fef932e)" style="fill: #bbbbbb; stroke: #5a5a5a; stroke-linejoin: miter"/>
   </g>
   <g id="patch_17">
    <path d="M 195.440924 512.64 
L 199.512679 512.64 
L 199.512679 512.202766 
L 195.440924 512.202766 
z
" clip-path="url(#pe74fef932e)" style="fill: #bbbbbb; stroke: #5a5a5a; stroke-linejoin: miter"/>
   </g>
   <g id="patch_18">
    <path d="M 199.512679 512.64 
L 203.584433 512.64 
L 203.584433 511.708107 
L 199.512679 511.708107 
z
" clip-path="url(#pe74fef932e)" style="fill: #bbbbbb; stroke: #5a5a5a; stroke-linejoin: miter"/>
   </g>
   <g id="patch_19">
    <path d="M 203.584433 512.64 
L 207.656187 512.64 
L 207.656187 511.7124 
L 203.584433 511.7124 
z
" clip-path="url(#pe74fef932e)" style="fill: #bbbbbb; stroke: #5a5a5a; stroke-linejoin: miter"/>
   </g>
   <g id="patch_20">
    <path d="M 207.656187 512.64 
L 211.727942 512.64 
L 211.727942 510.780393 
L 207.656187 510.780393 
z
" clip-path="url(#pe74fef932e)" style="fill: #bbbbbb; stroke: #5a5a5a; stroke-linejoin: miter"/>
   </g>
   <g id="patch_21">
    <path d="M 211.727942 512.64 
L 215.799696 512.64 
L 215.799696 510.808658 
L 211.727942 510.808658 
z
" clip-path="url(#pe74fef932e)" style="fill: #bbbbbb; stroke: #5a5a5a; stroke-linejoin: miter"/>
   </g>
   <g id="patch_22">
    <path d="M 215.799696 512.64 
L 219.87145 512.64 
L 219.87145 509.605239 
L 215.799696 509.605239 
z
" clip-path="url(#pe74fef932e)" style="fill: #bbbbbb; stroke: #5a5a5a; stroke-linejoin: miter"/>
   </g>
   <g id="patch_23">
    <path d="M 219.87145 512.64 
L 223.943205 512.64 
L 223.943205 509.774388 
L 219.87145 509.774388 
z
" clip-path="url(#pe74fef932e)" style="fill: #bbbbbb; stroke: #5a5a5a; stroke-linejoin: miter"/>
   </g>
   <g id="patch_24">
    <path d="M 223.943205 512.64 
L 228.014959 512.64 
L 228.014959 508.373371 
L 223.943205 508.373371 
z
" clip-path="url(#pe74fef932e)" style="fill: #bbbbbb; stroke: #5a5a5a; stroke-linejoin: miter"/>
   </g>
   <g id="patch_25">
    <path d="M 228.014959 512.64 
L 232.086713 512.64 
L 232.086713 507.832858 
L 228.014959 507.832858 
z
" clip-path="url(#pe74fef932e)" style="fill: #bbbbbb; stroke: #5a5a5a; stroke-linejoin: miter"/>
   </g>
   <g id="patch_26">
    <path d="M 232.086713 512.64 
L 236.158468 512.64 
L 236.158468 506.624406 
L 232.086713 506.624406 
z
" clip-path="url(#pe74fef932e)" style="fill: #bbbbbb; stroke: #5a5a5a; stroke-linejoin: miter"/>
   </g>
   <g id="patch_27">
    <path d="M 236.158468 512.64 
L 240.230222 512.64 
L 240.230222 503.336074 
L 236.158468 503.336074 
z
" clip-path="url(#pe74fef932e)" style="fill: #bbbbbb; stroke: #5a5a5a; stroke-linejoin: miter"/>
   </g>
   <g id="patch_28">
    <path d="M 240.230222 512.64 
L 244.301976 512.64 
L 244.301976 503.837968 
L 240.230222 503.837968 
z
" clip-path="url(#pe74fef932e)" style="fill: #bbbbbb; stroke: #5a5a5a; stroke-linejoin: miter"/>
   </g>
   <g id="patch_29">
    <path d="M 244.301976 512.64 
L 248.373731 512.64 
L 248.373731 499.0722 
L 244.301976 499.0722 
z
" clip-path="url(#pe74fef932e)" style="fill: #bbbbbb; stroke: #5a5a5a; stroke-linejoin: miter"/>
   </g>
   <g id="patch_30">
    <path d="M 248.373731 512.64 
L 252.445485 512.64 
L 252.445485 500.147043 
L 248.373731 500.147043 
z
" clip-path="url(#pe74fef932e)" style="fill: #bbbbbb; stroke: #5a5a5a; stroke-linejoin: miter"/>
   </g>
   <g id="patch_31">
    <path d="M 252.445485 512.64 
L 256.517239 512.64 
L 256.517239 494.160824 
L 252.445485 494.160824 
z
" clip-path="url(#pe74fef932e)" style="fill: #bbbbbb; stroke: #5a5a5a; stroke-linejoin: miter"/>
   </g>
   <g id="patch_32">
    <path d="M 256.517239 512.64 
L 260.588994 512.64 
L 260.588994 496.164044 
L 256.517239 496.164044 
z
" clip-path="url(#pe74fef932e)" style="fill: #bbbbbb; stroke: #5a5a5a; stroke-linejoin: miter"/>
   </g>
   <g id="patch_33">
    <path d="M 260.588994 512.64 
L 264.660748 512.64 
L 264.660748 488.087481 
L 260.588994 488.087481 
z
" clip-path="url(#pe74fef932e)" style="fill: #bbbbbb; stroke: #5a5a5a; stroke-linejoin: miter"/>
   </g>
   <g id="patch_34">
    <path d="M 264.660748 512.64 
L 268.732502 512.64 
L 268.732502 479.519066 
L 264.660748 479.519066 
z
" clip-path="url(#pe74fef932e)" style="fill: #bbbbbb; stroke: #5a5a5a; stroke-linejoin: miter"/>
   </g>
   <g id="patch_35">
    <path d="M 268.732502 512.64 
L 272.804257 512.64 
L 272.804257 481.644066 
L 268.732502 481.644066 
z
" clip-path="url(#pe74fef932e)" style="fill: #bbbbbb; stroke: #5a5a5a; stroke-linejoin: miter"/>
   </g>
   <g id="patch_36">
    <path d="M 272.804257 512.64 
L 276.876011 512.64 
L 276.876011 469.95851 
L 272.804257 469.95851 
z
" clip-path="url(#pe74fef932e)" style="fill: #bbbbbb; stroke: #5a5a5a; stroke-linejoin: miter"/>
   </g>
   <g id="patch_37">
    <path d="M 276.876011 512.64 
L 280.947765 512.64 
L 280.947765 473.212217 
L 276.876011 473.212217 
z
" clip-path="url(#pe74fef932e)" style="fill: #bbbbbb; stroke: #5a5a5a; stroke-linejoin: miter"/>
   </g>
   <g id="patch_38">
    <path d="M 280.947765 512.64 
L 285.01952 512.64 
L 285.01952 457.877 
L 280.947765 457.877 
z
" clip-path="url(#pe74fef932e)" style="fill: #bbbbbb; stroke: #5a5a5a; stroke-linejoin: miter"/>
   </g>
   <g id="patch_39">
    <path d="M 285.01952 512.64 
L 289.091274 512.64 
L 289.091274 465.409042 
L 285.01952 465.409042 
z
" clip-path="url(#pe74fef932e)" style="fill: #bbbbbb; stroke: #5a5a5a; stroke-linejoin: miter"/>
   </g>
   <g id="patch_40">
    <path d="M 289.091274 512.64 
L 293.163028 512.64 
L 293.163028 453.210647 
L 289.091274 453.210647 
z
" clip-path="url(#pe74fef932e)" style="fill: #bbbbbb; stroke: #5a5a5a; stroke-linejoin: miter"/>
   </g>
   <g id="patch_41">
    <path d="M 293.163028 512.64 
L 297.234783 512.64 
L 297.234783 454.347335 
L 293.163028 454.347335 
z
" clip-path="url(#pe74fef932e)" style="fill: #bbbbbb; stroke: #5a5a5a; stroke-linejoin: miter"/>
   </g>
   <g id="patch_42">
    <path d="M 297.234783 512.64 
L 301.306537 512.64 
L 301.306537 429.231306 
L 297.234783 429.231306 
z
" clip-path="url(#pe74fef932e)" style="fill: #bbbbbb; stroke: #5a5a5a; stroke-linejoin: miter"/>
   </g>
   <g id="patch_43">
    <path d="M 301.306537 512.64 
L 305.378291 512.64 
L 305.378291 410.002495 
L 301.306537 410.002495 
z
" clip-path="url(#pe74fef932e)" style="fill: #bbbbbb; stroke: #5a5a5a; stroke-linejoin: miter"/>
   </g>
   <g id="patch_44">
    <path d="M 305.378291 512.64 
L 309.450046 512.64 
L 309.450046 414.142937 
L 305.378291 414.142937 
z
" clip-path="url(#pe74fef932e)" style="fill: #bbbbbb; stroke: #5a5a5a; stroke-linejoin: miter"/>
   </g>
   <g id="patch_45">
    <path d="M 309.450046 512.64 
L 313.5218 512.64 
L 313.5218 385.007081 
L 309.450046 385.007081 
z
" clip-path="url(#pe74fef932e)" style="fill: #bbbbbb; stroke: #5a5a5a; stroke-linejoin: miter"/>
   </g>
   <g id="patch_46">
    <path d="M 313.5218 512.64 
L 317.593554 512.64 
L 317.593554 394.45875 
L 313.5218 394.45875 
z
" clip-path="url(#pe74fef932e)" style="fill: #bbbbbb; stroke: #5a5a5a; stroke-linejoin: miter"/>
   </g>
   <g id="patch_47">
    <path d="M 317.593554 512.64 
L 321.665309 512.64 
L 321.665309 360.534145 
L 317.593554 360.534145 
z
" clip-path="url(#pe74fef932e)" style="fill: #bbbbbb; stroke: #5a5a5a; stroke-linejoin: miter"/>
   </g>
   <g id="patch_48">
    <path d="M 321.665309 512.64 
L 325.737063 512.64 
L 325.737063 385.385333 
L 321.665309 385.385333 
z
" clip-path="url(#pe74fef932e)" style="fill: #bbbbbb; stroke: #5a5a5a; stroke-linejoin: miter"/>
   </g>
   <g id="patch_49">
    <path d="M 325.737063 512.64 
L 329.808817 512.64 
L 329.808817 361.144635 
L 325.737063 361.144635 
z
" clip-path="url(#pe74fef932e)" style="fill: #bbbbbb; stroke: #5a5a5a; stroke-linejoin: miter"/>
   </g>
   <g id="patch_50">
    <path d="M 329.808817 512.64 
L 333.880572 512.64 
L 333.880572 366.630422 
L 329.808817 366.630422 
z
" clip-path="url(#pe74fef932e)" style="fill: #bbbbbb; stroke: #5a5a5a; stroke-linejoin: miter"/>
   </g>
   <g id="patch_51">
    <path d="M 333.880572 512.64 
L 337.952326 512.64 
L 337.952326 316.363587 
L 333.880572 316.363587 
z
" clip-path="url(#pe74fef932e)" style="fill: #bbbbbb; stroke: #5a5a5a; stroke-linejoin: miter"/>
   </g>
   <g id="patch_52">
    <path d="M 337.952326 512.64 
L 342.02408 512.64 
L 342.02408 287.16237 
L 337.952326 287.16237 
z
" clip-path="url(#pe74fef932e)" style="fill: #bbbbbb; stroke: #5a5a5a; stroke-linejoin: miter"/>
   </g>
   <g id="patch_53">
    <path d="M 342.02408 512.64 
L 346.095835 512.64 
L 346.095835 296.016199 
L 342.02408 296.016199 
z
" clip-path="url(#pe74fef932e)" style="fill: #bbbbbb; stroke: #5a5a5a; stroke-linejoin: miter"/>
   </g>
   <g id="patch_54">
    <path d="M 346.095835 512.64 
L 350.167589 512.64 
L 350.167589 254.555761 
L 346.095835 254.555761 
z
" clip-path="url(#pe74fef932e)" style="fill: #bbbbbb; stroke: #5a5a5a; stroke-linejoin: miter"/>
   </g>
   <g id="patch_55">
    <path d="M 350.167589 512.64 
L 354.239343 512.64 
L 354.239343 271.892369 
L 350.167589 271.892369 
z
" clip-path="url(#pe74fef932e)" style="fill: #bbbbbb; stroke: #5a5a5a; stroke-linejoin: miter"/>
   </g>
   <g id="patch_56">
    <path d="M 354.239343 512.64 
L 358.311098 512.64 
L 358.311098 215.963263 
L 354.239343 215.963263 
z
" clip-path="url(#pe74fef932e)" style="fill: #bbbbbb; stroke: #5a5a5a; stroke-linejoin: miter"/>
   </g>
   <g id="patch_57">
    <path d="M 358.311098 512.64 
L 362.382852 512.64 
L 362.382852 284.48974 
L 358.311098 284.48974 
z
" clip-path="url(#pe74fef932e)" style="fill: #bbbbbb; stroke: #5a5a5a; stroke-linejoin: miter"/>
   </g>
   <g id="patch_58">
    <path d="M 362.382852 512.64 
L 366.454606 512.64 
L 366.454606 201.496866 
L 362.382852 201.496866 
z
" clip-path="url(#pe74fef932e)" style="fill: #bbbbbb; stroke: #5a5a5a; stroke-linejoin: miter"/>
   </g>
   <g id="patch_59">
    <path d="M 366.454606 512.64 
L 370.526361 512.64 
L 370.526361 180.662974 
L 366.454606 180.662974 
z
" clip-path="url(#pe74fef932e)" style="fill: #bbbbbb; stroke: #5a5a5a; stroke-linejoin: miter"/>
   </g>
   <g id="patch_60">
    <path d="M 370.526361 512.64 
L 374.598115 512.64 
L 374.598115 194.091809 
L 370.526361 194.091809 
z
" clip-path="url(#pe74fef932e)" style="fill: #bbbbbb; stroke: #5a5a5a; stroke-linejoin: miter"/>
   </g>
   <g id="patch_61">
    <path d="M 374.598115 512.64 
L 378.669869 512.64 
L 378.669869 155.799079 
L 374.598115 155.799079 
z
" clip-path="url(#pe74fef932e)" style="fill: #bbbbbb; stroke: #5a5a5a; stroke-linejoin: miter"/>
   </g>
   <g id="patch_62">
    <path d="M 378.669869 512.64 
L 382.741624 512.64 
L 382.741624 178.280074 
L 378.669869 178.280074 
z
" clip-path="url(#pe74fef932e)" style="fill: #bbbbbb; stroke: #5a5a5a; stroke-linejoin: miter"/>
   </g>
   <g id="patch_63">
    <path d="M 382.741624 512.64 
L 386.813378 512.64 
L 386.813378 126.804815 
L 382.741624 126.804815 
z
" clip-path="url(#pe74fef932e)" style="fill: #bbbbbb; stroke: #5a5a5a; stroke-linejoin: miter"/>
   </g>
   <g id="patch_64">
    <path d="M 386.813378 512.64 
L 390.885132 512.64 
L 390.885132 208.52479 
L 386.813378 208.52479 
z
" clip-path="url(#pe74fef932e)" style="fill: #bbbbbb; stroke: #5a5a5a; stroke-linejoin: miter"/>
   </g>
   <g id="patch_65">
    <path d="M 390.885132 512.64 
L 394.956887 512.64 
L 394.956887 177.707882 
L 390.885132 177.707882 
z
" clip-path="url(#pe74fef932e)" style="fill: #bbbbbb; stroke: #5a5a5a; stroke-linejoin: miter"/>
   </g>
   <g id="patch_66">
    <path d="M 394.956887 512.64 
L 399.028641 512.64 
L 399.028641 197.84375 
L 394.956887 197.84375 
z
" clip-path="url(#pe74fef932e)" style="fill: #bbbbbb; stroke: #5a5a5a; stroke-linejoin: miter"/>
   </g>
   <g id="patch_67">
    <path d="M 399.028641 512.64 
L 403.100395 512.64 
L 403.100395 114.1495 
L 399.028641 114.1495 
z
" clip-path="url(#pe74fef932e)" style="fill: #bbbbbb; stroke: #5a5a5a; stroke-linejoin: miter"/>
   </g>
   <g id="patch_68">
    <path d="M 403.100395 512.64 
L 407.17215 512.64 
L 407.17215 109.663363 
L 403.100395 109.663363 
z
" clip-path="url(#pe74fef932e)" style="fill: #bbbbbb; stroke: #5a5a5a; stroke-linejoin: miter"/>
   </g>
   <g id="patch_69">
    <path d="M 407.17215 512.64 
L 411.243904 512.64 
L 411.243904 121.53883 
L 407.17215 121.53883 
z
" clip-path="url(#pe74fef932e)" style="fill: #bbbbbb; stroke: #5a5a5a; stroke-linejoin: miter"/>
   </g>
   <g id="patch_70">
    <path d="M 411.243904 512.64 
L 415.315658 512.64 
L 415.315658 102.901316 
L 411.243904 102.901316 
z
" clip-path="url(#pe74fef932e)" style="fill: #bbbbbb; stroke: #5a5a5a; stroke-linejoin: miter"/>
   </g>
   <g id="patch_71">
    <path d="M 415.315658 512.64 
L 419.387413 512.64 
L 419.387413 123.810233 
L 415.315658 123.810233 
z
" clip-path="url(#pe74fef932e)" style="fill: #bbbbbb; stroke: #5a5a5a; stroke-linejoin: miter"/>
   </g>
   <g id="patch_72">
    <path d="M 419.387413 512.64 
L 423.459167 512.64 
L 423.459167 90.24 
L 419.387413 90.24 
z
" clip-path="url(#pe74fef932e)" style="fill: #bbbbbb; stroke: #5a5a5a; stroke-linejoin: miter"/>
   </g>
   <g id="patch_73">
    <path d="M 423.459167 512.64 
L 427.530921 512.64 
L 427.530921 190.278319 
L 423.459167 190.278319 
z
" clip-path="url(#pe74fef932e)" style="fill: #bbbbbb; stroke: #5a5a5a; stroke-linejoin: miter"/>
   </g>
   <g id="patch_74">
    <path d="M 427.530921 512.64 
L 431.602676 512.64 
L 431.602676 170.237244 
L 427.530921 170.237244 
z
" clip-path="url(#pe74fef932e)" style="fill: #bbbbbb; stroke: #5a5a5a; stroke-linejoin: miter"/>
   </g>
   <g id="patch_75">
    <path d="M 431.602676 512.64 
L 435.67443 512.64 
L 435.67443 196.475718 
L 431.602676 196.475718 
z
" clip-path="url(#pe74fef932e)" style="fill: #bbbbbb; stroke: #5a5a5a; stroke-linejoin: miter"/>
   </g>
   <g id="patch_76">
    <path d="M 435.67443 512.64 
L 439.746184 512.64 
L 439.746184 123.8945 
L 435.67443 123.8945 
z
" clip-path="url(#pe74fef932e)" style="fill: #bbbbbb; stroke: #5a5a5a; stroke-linejoin: miter"/>
   </g>
   <g id="patch_77">
    <path d="M 439.746184 512.64 
L 443.817939 512.64 
L 443.817939 146.660363 
L 439.746184 146.660363 
z
" clip-path="url(#pe74fef932e)" style="fill: #bbbbbb; stroke: #5a5a5a; stroke-linejoin: miter"/>
   </g>
   <g id="patch_78">
    <path d="M 443.817939 512.64 
L 447.889693 512.64 
L 447.889693 151.79868 
L 443.817939 151.79868 
z
" clip-path="url(#pe74fef932e)" style="fill: #bbbbbb; stroke: #5a5a5a; stroke-linejoin: miter"/>
   </g>
   <g id="patch_79">
    <path d="M 447.889693 512.64 
L 451.961447 512.64 
L 451.961447 157.166661 
L 447.889693 157.166661 
z
" clip-path="url(#pe74fef932e)" style="fill: #bbbbbb; stroke: #5a5a5a; stroke-linejoin: miter"/>
   </g>
   <g id="patch_80">
    <path d="M 451.961447 512.64 
L 456.033202 512.64 
L 456.033202 169.610768 
L 451.961447 169.610768 
z
" clip-path="url(#pe74fef932e)" style="fill: #bbbbbb; stroke: #5a5a5a; stroke-linejoin: miter"/>
   </g>
   <g id="patch_81">
    <path d="M 456.033202 512.64 
L 460.104956 512.64 
L 460.104956 161.419776 
L 456.033202 161.419776 
z
" clip-path="url(#pe74fef932e)" style="fill: #bbbbbb; stroke: #5a5a5a; stroke-linejoin: miter"/>
   </g>
   <g id="patch_82">
    <path d="M 460.104956 512.64 
L 464.17671 512.64 
L 464.17671 262.567875 
L 460.104956 262.567875 
z
" clip-path="url(#pe74fef932e)" style="fill: #bbbbbb; stroke: #5a5a5a; stroke-linejoin: miter"/>
   </g>
   <g id="patch_83">
    <path d="M 464.17671 512.64 
L 468.248465 512.64 
L 468.248465 190.859218 
L 464.17671 190.859218 
z
" clip-path="url(#pe74fef932e)" style="fill: #bbbbbb; stroke: #5a5a5a; stroke-linejoin: miter"/>
   </g>
   <g id="patch_84">
    <path d="M 468.248465 512.64 
L 472.320219 512.64 
L 472.320219 228.886734 
L 468.248465 228.886734 
z
" clip-path="url(#pe74fef932e)" style="fill: #bbbbbb; stroke: #5a5a5a; stroke-linejoin: miter"/>
   </g>
   <g id="patch_85">
    <path d="M 472.320219 512.64 
L 476.391973 512.64 
L 476.391973 228.231072 
L 472.320219 228.231072 
z
" clip-path="url(#pe74fef932e)" style="fill: #bbbbbb; stroke: #5a5a5a; stroke-linejoin: miter"/>
   </g>
   <g id="patch_86">
    <path d="M 476.391973 512.64 
L 480.463728 512.64 
L 480.463728 247.661653 
L 476.391973 247.661653 
z
" clip-path="url(#pe74fef932e)" style="fill: #bbbbbb; stroke: #5a5a5a; stroke-linejoin: miter"/>
   </g>
   <g id="patch_87">
    <path d="M 480.463728 512.64 
L 484.535482 512.64 
L 484.535482 255.623387 
L 480.463728 255.623387 
z
" clip-path="url(#pe74fef932e)" style="fill: #bbbbbb; stroke: #5a5a5a; stroke-linejoin: miter"/>
   </g>
   <g id="patch_88">
    <path d="M 484.535482 512.64 
L 488.607236 512.64 
L 488.607236 264.745404 
L 484.535482 264.745404 
z
" clip-path="url(#pe74fef932e)" style="fill: #bbbbbb; stroke: #5a5a5a; stroke-linejoin: miter"/>
   </g>
   <g id="patch_89">
    <path d="M 488.607236 512.64 
L 492.678991 512.64 
L 492.678991 332.458962 
L 488.607236 332.458962 
z
" clip-path="url(#pe74fef932e)" style="fill: #bbbbbb; stroke: #5a5a5a; stroke-linejoin: miter"/>
   </g>
   <g id="patch_90">
    <path d="M 492.678991 512.64 
L 496.750745 512.64 
L 496.750745 325.985534 
L 492.678991 325.985534 
z
" clip-path="url(#pe74fef932e)" style="fill: #bbbbbb; stroke: #5a5a5a; stroke-linejoin: miter"/>
   </g>
   <g id="patch_91">
    <path d="M 496.750745 512.64 
L 500.822499 512.64 
L 500.822499 349.972918 
L 496.750745 349.972918 
z
" clip-path="url(#pe74fef932e)" style="fill: #bbbbbb; stroke: #5a5a5a; stroke-linejoin: miter"/>
   </g>
   <g id="patch_92">
    <path d="M 500.822499 512.64 
L 504.894254 512.64 
L 504.894254 319.922687 
L 500.822499 319.922687 
z
" clip-path="url(#pe74fef932e)" style="fill: #bbbbbb; stroke: #5a5a5a; stroke-linejoin: miter"/>
   </g>
   <g id="patch_93">
    <path d="M 504.894254 512.64 
L 508.966008 512.64 
L 508.966008 348.867753 
L 504.894254 348.867753 
z
" clip-path="url(#pe74fef932e)" style="fill: #bbbbbb; stroke: #5a5a5a; stroke-linejoin: miter"/>
   </g>
   <g id="patch_94">
    <path d="M 508.966008 512.64 
L 513.037762 512.64 
L 513.037762 345.107578 
L 508.966008 345.107578 
z
" clip-path="url(#pe74fef932e)" style="fill: #bbbbbb; stroke: #5a5a5a; stroke-linejoin: miter"/>
   </g>
   <g id="patch_95">
    <path d="M 513.037762 512.64 
L 517.109517 512.64 
L 517.109517 366.35481 
L 513.037762 366.35481 
z
" clip-path="url(#pe74fef932e)" style="fill: #bbbbbb; stroke: #5a5a5a; stroke-linejoin: miter"/>
   </g>
   <g id="patch_96">
    <path d="M 517.109517 512.64 
L 521.181271 512.64 
L 521.181271 365.551455 
L 517.109517 365.551455 
z
" clip-path="url(#pe74fef932e)" style="fill: #bbbbbb; stroke: #5a5a5a; stroke-linejoin: miter"/>
   </g>
   <g id="patch_97">
    <path d="M 521.181271 512.64 
L 525.253025 512.64 
L 525.253025 380.106459 
L 521.181271 380.106459 
z
" clip-path="url(#pe74fef932e)" style="fill: #bbbbbb; stroke: #5a5a5a; stroke-linejoin: miter"/>
   </g>
   <g id="patch_98">
    <path d="M 525.253025 512.64 
L 529.32478 512.64 
L 529.32478 417.348516 
L 525.253025 417.348516 
z
" clip-path="url(#pe74fef932e)" style="fill: #bbbbbb; stroke: #5a5a5a; stroke-linejoin: miter"/>
   </g>
   <g id="patch_99">
    <path d="M 529.32478 512.64 
L 533.396534 512.64 
L 533.396534 413.936357 
L 529.32478 413.936357 
z
" clip-path="url(#pe74fef932e)" style="fill: #bbbbbb; stroke: #5a5a5a; stroke-linejoin: miter"/>
   </g>
   <g id="patch_100">
    <path d="M 533.396534 512.64 
L 537.468288 512.64 
L 537.468288 429.076216 
L 533.396534 429.076216 
z
" clip-path="url(#pe74fef932e)" style="fill: #bbbbbb; stroke: #5a5a5a; stroke-linejoin: miter"/>
   </g>
   <g id="patch_101">
    <path d="M 537.468288 512.64 
L 541.540043 512.64 
L 541.540043 413.982032 
L 537.468288 413.982032 
z
" clip-path="url(#pe74fef932e)" style="fill: #bbbbbb; stroke: #5a5a5a; stroke-linejoin: miter"/>
   </g>
   <g id="patch_102">
    <path d="M 541.540043 512.64 
L 545.611797 512.64 
L 545.611797 433.967408 
L 541.540043 433.967408 
z
" clip-path="url(#pe74fef932e)" style="fill: #bbbbbb; stroke: #5a5a5a; stroke-linejoin: miter"/>
   </g>
   <g id="patch_103">
    <path d="M 545.611797 512.64 
L 549.683551 512.64 
L 549.683551 430.395231 
L 545.611797 430.395231 
z
" clip-path="url(#pe74fef932e)" style="fill: #bbbbbb; stroke: #5a5a5a; stroke-linejoin: miter"/>
   </g>
   <g id="patch_104">
    <path d="M 549.683551 512.64 
L 553.755306 512.64 
L 553.755306 445.728174 
L 549.683551 445.728174 
z
" clip-path="url(#pe74fef932e)" style="fill: #bbbbbb; stroke: #5a5a5a; stroke-linejoin: miter"/>
   </g>
   <g id="patch_105">
    <path d="M 553.755306 512.64 
L 557.82706 512.64 
L 557.82706 444.344923 
L 553.755306 444.344923 
z
" clip-path="url(#pe74fef932e)" style="fill: #bbbbbb; stroke: #5a5a5a; stroke-linejoin: miter"/>
   </g>
   <g id="patch_106">
    <path d="M 557.82706 512.64 
L 561.898814 512.64 
L 561.898814 453.988414 
L 557.82706 453.988414 
z
" clip-path="url(#pe74fef932e)" style="fill: #bbbbbb; stroke: #5a5a5a; stroke-linejoin: miter"/>
   </g>
   <g id="patch_107">
    <path d="M 561.898814 512.64 
L 565.970569 512.64 
L 565.970569 472.956876 
L 561.898814 472.956876 
z
" clip-path="url(#pe74fef932e)" style="fill: #bbbbbb; stroke: #5a5a5a; stroke-linejoin: miter"/>
   </g>
   <g id="patch_108">
    <path d="M 565.970569 512.64 
L 570.042323 512.64 
L 570.042323 463.928793 
L 565.970569 463.928793 
z
" clip-path="url(#pe74fef932e)" style="fill: #bbbbbb; stroke: #5a5a5a; stroke-linejoin: miter"/>
   </g>
   <g id="patch_109">
    <path d="M 570.042323 512.64 
L 574.114077 512.64 
L 574.114077 476.581584 
L 570.042323 476.581584 
z
" clip-path="url(#pe74fef932e)" style="fill: #bbbbbb; stroke: #5a5a5a; stroke-linejoin: miter"/>
   </g>
   <g id="patch_110">
    <path d="M 574.114077 512.64 
L 578.185832 512.64 
L 578.185832 474.791127 
L 574.114077 474.791127 
z
" clip-path="url(#pe74fef932e)" style="fill: #bbbbbb; stroke: #5a5a5a; stroke-linejoin: miter"/>
   </g>
   <g id="patch_111">
    <path d="M 578.185832 512.64 
L 582.257586 512.64 
L 582.257586 483.987579 
L 578.185832 483.987579 
z
" clip-path="url(#pe74fef932e)" style="fill: #bbbbbb; stroke: #5a5a5a; stroke-linejoin: miter"/>
   </g>
   <g id="patch_112">
    <path d="M 582.257586 512.64 
L 586.32934 512.64 
L 586.32934 482.495814 
L 582.257586 482.495814 
z
" clip-path="url(#pe74fef932e)" style="fill: #bbbbbb; stroke: #5a5a5a; stroke-linejoin: miter"/>
   </g>
   <g id="patch_113">
    <path d="M 586.32934 512.64 
L 590.401095 512.64 
L 590.401095 488.274741 
L 586.32934 488.274741 
z
" clip-path="url(#pe74fef932e)" style="fill: #bbbbbb; stroke: #5a5a5a; stroke-linejoin: miter"/>
   </g>
   <g id="patch_114">
    <path d="M 590.401095 512.64 
L 594.472849 512.64 
L 594.472849 494.980797 
L 590.401095 494.980797 
z
" clip-path="url(#pe74fef932e)" style="fill: #bbbbbb; stroke: #5a5a5a; stroke-linejoin: miter"/>
   </g>
   <g id="patch_115">
    <path d="M 594.472849 512.64 
L 598.544603 512.64 
L 598.544603 494.434625 
L 594.472849 494.434625 
z
" clip-path="url(#pe74fef932e)" style="fill: #bbbbbb; stroke: #5a5a5a; stroke-linejoin: miter"/>
   </g>
   <g id="patch_116">
    <path d="M 598.544603 512.64 
L 602.616358 512.64 
L 602.616358 497.64133 
L 598.544603 497.64133 
z
" clip-path="url(#pe74fef932e)" style="fill: #bbbbbb; stroke: #5a5a5a; stroke-linejoin: miter"/>
   </g>
   <g id="patch_117">
    <path d="M 602.616358 512.64 
L 606.688112 512.64 
L 606.688112 495.21679 
L 602.616358 495.21679 
z
" clip-path="url(#pe74fef932e)" style="fill: #bbbbbb; stroke: #5a5a5a; stroke-linejoin: miter"/>
   </g>
   <g id="patch_118">
    <path d="M 606.688112 512.64 
L 610.759866 512.64 
L 610.759866 500.257944 
L 606.688112 500.257944 
z
" clip-path="url(#pe74fef932e)" style="fill: #bbbbbb; stroke: #5a5a5a; stroke-linejoin: miter"/>
   </g>
   <g id="patch_119">
    <path d="M 610.759866 512.64 
L 614.831621 512.64 
L 614.831621 499.123083 
L 610.759866 499.123083 
z
" clip-path="url(#pe74fef932e)" style="fill: #bbbbbb; stroke: #5a5a5a; stroke-linejoin: miter"/>
   </g>
   <g id="patch_120">
    <path d="M 614.831621 512.64 
L 618.903375 512.64 
L 618.903375 503.107932 
L 614.831621 503.107932 
z
" clip-path="url(#pe74fef932e)" style="fill: #bbbbbb; stroke: #5a5a5a; stroke-linejoin: miter"/>
   </g>
   <g id="patch_121">
    <path d="M 618.903375 512.64 
L 622.975129 512.64 
L 622.975129 502.699301 
L 618.903375 502.699301 
z
" clip-path="url(#pe74fef932e)" style="fill: #bbbbbb; stroke: #5a5a5a; stroke-linejoin: miter"/>
   </g>
   <g id="patch_122">
    <path d="M 622.975129 512.64 
L 627.046884 512.64 
L 627.046884 505.301201 
L 622.975129 505.301201 
z
" clip-path="url(#pe74fef932e)" style="fill: #bbbbbb; stroke: #5a5a5a; stroke-linejoin: miter"/>
   </g>
   <g id="patch_123">
    <path d="M 627.046884 512.64 
L 631.118638 512.64 
L 631.118638 507.269932 
L 627.046884 507.269932 
z
" clip-path="url(#pe74fef932e)" style="fill: #bbbbbb; stroke: #5a5a5a; stroke-linejoin: miter"/>
   </g>
   <g id="patch_124">
    <path d="M 631.118638 512.64 
L 635.190392 512.64 
L 635.190392 506.518055 
L 631.118638 506.518055 
z
" clip-path="url(#pe74fef932e)" style="fill: #bbbbbb; stroke: #5a5a5a; stroke-linejoin: miter"/>
   </g>
   <g id="patch_125">
    <path d="M 635.190392 512.64 
L 639.262147 512.64 
L 639.262147 508.023003 
L 635.190392 508.023003 
z
" clip-path="url(#pe74fef932e)" style="fill: #bbbbbb; stroke: #5a5a5a; stroke-linejoin: miter"/>
   </g>
   <g id="patch_126">
    <path d="M 639.262147 512.64 
L 643.333901 512.64 
L 643.333901 507.41656 
L 639.262147 507.41656 
z
" clip-path="url(#pe74fef932e)" style="fill: #bbbbbb; stroke: #5a5a5a; stroke-linejoin: miter"/>
   </g>
   <g id="patch_127">
    <path d="M 643.333901 512.64 
L 647.405655 512.64 
L 647.405655 508.789421 
L 643.333901 508.789421 
z
" clip-path="url(#pe74fef932e)" style="fill: #bbbbbb; stroke: #5a5a5a; stroke-linejoin: miter"/>
   </g>
   <g id="patch_128">
    <path d="M 647.405655 512.64 
L 651.47741 512.64 
L 651.47741 508.10644 
L 647.405655 508.10644 
z
" clip-path="url(#pe74fef932e)" style="fill: #bbbbbb; stroke: #5a5a5a; stroke-linejoin: miter"/>
   </g>
   <g id="patch_129">
    <path d="M 651.47741 512.64 
L 655.549164 512.64 
L 655.549164 509.442201 
L 651.47741 509.442201 
z
" clip-path="url(#pe74fef932e)" style="fill: #bbbbbb; stroke: #5a5a5a; stroke-linejoin: miter"/>
   </g>
   <g id="patch_130">
    <path d="M 655.549164 512.64 
L 659.620918 512.64 
L 659.620918 509.764713 
L 655.549164 509.764713 
z
" clip-path="url(#pe74fef932e)" style="fill: #bbbbbb; stroke: #5a5a5a; stroke-linejoin: miter"/>
   </g>
   <g id="patch_131">
    <path d="M 659.620918 512.64 
L 663.692673 512.64 
L 663.692673 510.390917 
L 659.620918 510.390917 
z
" clip-path="url(#pe74fef932e)" style="fill: #bbbbbb; stroke: #5a5a5a; stroke-linejoin: miter"/>
   </g>
   <g id="patch_132">
    <path d="M 663.692673 512.64 
L 667.764427 512.64 
L 667.764427 510.95914 
L 663.692673 510.95914 
z
" clip-path="url(#pe74fef932e)" style="fill: #bbbbbb; stroke: #5a5a5a; stroke-linejoin: miter"/>
   </g>
   <g id="patch_133">
    <path d="M 667.764427 512.64 
L 671.836181 512.64 
L 671.836181 510.583567 
L 667.764427 510.583567 
z
" clip-path="url(#pe74fef932e)" style="fill: #bbbbbb; stroke: #5a5a5a; stroke-linejoin: miter"/>
   </g>
   <g id="patch_134">
    <path d="M 671.836181 512.64 
L 675.907936 512.64 
L 675.907936 511.419005 
L 671.836181 511.419005 
z
" clip-path="url(#pe74fef932e)" style="fill: #bbbbbb; stroke: #5a5a5a; stroke-linejoin: miter"/>
   </g>
   <g id="patch_135">
    <path d="M 675.907936 512.64 
L 679.97969 512.64 
L 679.97969 511.301274 
L 675.907936 511.301274 
z
" clip-path="url(#pe74fef932e)" style="fill: #bbbbbb; stroke: #5a5a5a; stroke-linejoin: miter"/>
   </g>
   <g id="patch_136">
    <path d="M 679.97969 512.64 
L 684.051444 512.64 
L 684.051444 511.732917 
L 679.97969 511.732917 
z
" clip-path="url(#pe74fef932e)" style="fill: #bbbbbb; stroke: #5a5a5a; stroke-linejoin: miter"/>
   </g>
   <g id="patch_137">
    <path d="M 684.051444 512.64 
L 688.123199 512.64 
L 688.123199 511.530069 
L 684.051444 511.530069 
z
" clip-path="url(#pe74fef932e)" style="fill: #bbbbbb; stroke: #5a5a5a; stroke-linejoin: miter"/>
   </g>
   <g id="patch_138">
    <path d="M 688.123199 512.64 
L 692.194953 512.64 
L 692.194953 511.824254 
L 688.123199 511.824254 
z
" clip-path="url(#pe74fef932e)" style="fill: #bbbbbb; stroke: #5a5a5a; stroke-linejoin: miter"/>
   </g>
   <g id="patch_139">
    <path d="M 692.194953 512.64 
L 696.266707 512.64 
L 696.266707 512.163183 
L 692.194953 512.163183 
z
" clip-path="url(#pe74fef932e)" style="fill: #bbbbbb; stroke: #5a5a5a; stroke-linejoin: miter"/>
   </g>
   <g id="patch_140">
    <path d="M 696.266707 512.64 
L 700.338462 512.64 
L 700.338462 512.172628 
L 696.266707 512.172628 
z
" clip-path="url(#pe74fef932e)" style="fill: #bbbbbb; stroke: #5a5a5a; stroke-linejoin: miter"/>
   </g>
   <g id="patch_141">
    <path d="M 700.338462 512.64 
L 704.410216 512.64 
L 704.410216 512.228662 
L 700.338462 512.228662 
z
" clip-path="url(#pe74fef932e)" style="fill: #bbbbbb; stroke: #5a5a5a; stroke-linejoin: miter"/>
   </g>
   <g id="patch_142">
    <path d="M 704.410216 512.64 
L 708.48197 512.64 
L 708.48197 512.193619 
L 704.410216 512.193619 
z
" clip-path="url(#pe74fef932e)" style="fill: #bbbbbb; stroke: #5a5a5a; stroke-linejoin: miter"/>
   </g>
   <g id="patch_143">
    <path d="M 708.48197 512.64 
L 712.553725 512.64 
L 712.553725 512.437312 
L 708.48197 512.437312 
z
" clip-path="url(#pe74fef932e)" style="fill: #bbbbbb; stroke: #5a5a5a; stroke-linejoin: miter"/>
   </g>
   <g id="patch_144">
    <path d="M 712.553725 512.64 
L 716.625479 512.64 
L 716.625479 512.449311 
L 712.553725 512.449311 
z
" clip-path="url(#pe74fef932e)" style="fill: #bbbbbb; stroke: #5a5a5a; stroke-linejoin: miter"/>
   </g>
   <g id="patch_145">
    <path d="M 716.625479 512.64 
L 720.697233 512.64 
L 720.697233 512.474837 
L 716.625479 512.474837 
z
" clip-path="url(#pe74fef932e)" style="fill: #bbbbbb; stroke: #5a5a5a; stroke-linejoin: miter"/>
   </g>
   <g id="patch_146">
    <path d="M 720.697233 512.64 
L 724.768988 512.64 
L 724.768988 512.4725 
L 720.697233 512.4725 
z
" clip-path="url(#pe74fef932e)" style="fill: #bbbbbb; stroke: #5a5a5a; stroke-linejoin: miter"/>
   </g>
   <g id="patch_147">
    <path d="M 724.768988 512.64 
L 728.840742 512.64 
L 728.840742 512.609106 
L 724.768988 512.609106 
z
" clip-path="url(#pe74fef932e)" style="fill: #bbbbbb; stroke: #5a5a5a; stroke-linejoin: miter"/>
   </g>
   <g id="patch_148">
    <path d="M 728.840742 512.64 
L 732.912496 512.64 
L 732.912496 512.614102 
L 728.840742 512.614102 
z
" clip-path="url(#pe74fef932e)" style="fill: #bbbbbb; stroke: #5a5a5a; stroke-linejoin: miter"/>
   </g>
   <g id="patch_149">
    <path d="M 732.912496 512.64 
L 736.984251 512.64 
L 736.984251 512.558299 
L 732.912496 512.558299 
z
" clip-path="url(#pe74fef932e)" style="fill: #bbbbbb; stroke: #5a5a5a; stroke-linejoin: miter"/>
   </g>
   <g id="patch_150">
    <path d="M 736.984251 512.64 
L 741.056005 512.64 
L 741.056005 512.557463 
L 736.984251 512.557463 
z
" clip-path="url(#pe74fef932e)" style="fill: #bbbbbb; stroke: #5a5a5a; stroke-linejoin: miter"/>
   </g>
   <g id="patch_151">
    <path d="M 741.056005 512.64 
L 745.127759 512.64 
L 745.127759 512.55787 
L 741.056005 512.55787 
z
" clip-path="url(#pe74fef932e)" style="fill: #bbbbbb; stroke: #5a5a5a; stroke-linejoin: miter"/>
   </g>
   <g id="line2d_11">
    <path d="M 140.472241 512.612556 
L 156.759258 512.613444 
L 177.11803 512.527047 
L 185.261538 512.447424 
L 193.405047 512.421376 
L 197.476801 512.202766 
L 201.548556 511.708107 
L 205.62031 511.7124 
L 209.692064 510.780393 
L 213.763819 510.808658 
L 217.835573 509.605239 
L 221.907327 509.774388 
L 225.979082 508.373371 
L 230.050836 507.832858 
L 234.12259 506.624406 
L 238.194345 503.336074 
L 242.266099 503.837968 
L 246.337853 499.0722 
L 250.409608 500.147043 
L 254.481362 494.160824 
L 258.553116 496.164044 
L 262.624871 488.087481 
L 266.696625 479.519066 
L 270.768379 481.644066 
L 274.840134 469.95851 
L 278.911888 473.212217 
L 282.983642 457.877 
L 287.055397 465.409042 
L 291.127151 453.210647 
L 295.198905 454.347335 
L 299.27066 429.231306 
L 303.342414 410.002495 
L 307.414168 414.142937 
L 311.485923 385.007081 
L 315.557677 394.45875 
L 319.629431 360.534145 
L 323.701186 385.385333 
L 327.77294 361.144635 
L 331.844694 366.630422 
L 335.916449 316.363587 
L 339.988203 287.16237 
L 344.059957 296.016199 
L 348.131712 254.555761 
L 352.203466 271.892369 
L 356.27522 215.963263 
L 360.346975 284.48974 
L 364.418729 201.496866 
L 368.490483 180.662974 
L 372.562238 194.091809 
L 376.633992 155.799079 
L 380.705746 178.280074 
L 384.777501 126.804815 
L 388.849255 208.52479 
L 392.921009 177.707882 
L 396.992764 197.84375 
L 401.064518 114.1495 
L 405.136272 109.663363 
L 409.208027 121.53883 
L 413.279781 102.901316 
L 417.351535 123.810233 
L 421.42329 90.24 
L 425.495044 190.278319 
L 429.566798 170.237244 
L 433.638553 196.475718 
L 437.710307 123.8945 
L 441.782061 146.660363 
L 445.853816 151.79868 
L 449.92557 157.166661 
L 453.997324 169.610768 
L 458.069079 161.419776 
L 462.140833 262.567875 
L 466.212587 190.859218 
L 470.284342 228.886734 
L 474.356096 228.231072 
L 478.42785 247.661653 
L 482.499605 255.623387 
L 486.571359 264.745404 
L 490.643113 332.458962 
L 494.714868 325.985534 
L 498.786622 349.972918 
L 502.858376 319.922687 
L 506.930131 348.867753 
L 511.001885 345.107578 
L 515.073639 366.35481 
L 519.145394 365.551455 
L 523.217148 380.106459 
L 527.288902 417.348516 
L 531.360657 413.936357 
L 535.432411 429.076216 
L 539.504165 413.982032 
L 543.57592 433.967408 
L 547.647674 430.395231 
L 551.719428 445.728174 
L 555.791183 444.344923 
L 559.862937 453.988414 
L 563.934691 472.956876 
L 568.006446 463.928793 
L 572.0782 476.581584 
L 576.149954 474.791127 
L 580.221709 483.987579 
L 584.293463 482.495814 
L 588.365217 488.274741 
L 592.436972 494.980797 
L 596.508726 494.434625 
L 600.58048 497.64133 
L 604.652235 495.21679 
L 608.723989 500.257944 
L 612.795743 499.123083 
L 616.867498 503.107932 
L 620.939252 502.699301 
L 625.011006 505.301201 
L 629.082761 507.269932 
L 633.154515 506.518055 
L 637.226269 508.023003 
L 641.298024 507.41656 
L 645.369778 508.789421 
L 649.441532 508.10644 
L 653.513287 509.442201 
L 657.585041 509.764713 
L 665.72855 510.95914 
L 669.800304 510.583567 
L 673.872058 511.419005 
L 677.943813 511.301274 
L 682.015567 511.732917 
L 686.087321 511.530069 
L 694.23083 512.163183 
L 706.446093 512.193619 
L 710.517847 512.437312 
L 722.73311 512.4725 
L 726.804865 512.609106 
L 743.091882 512.55787 
L 747.163636 512.466346 
L 747.163636 512.466346 
" clip-path="url(#pe74fef932e)" style="fill: none; stroke: #000000; stroke-width: 3; stroke-linecap: round"/>
   </g>
   <g id="line2d_12">
    <path d="M 140.472241 512.525409 
L 160.990749 512.277181 
L 174.514035 511.901 
L 184.882495 511.397618 
L 193.418728 510.766483 
L 200.747634 510.006468 
L 207.221096 509.115523 
L 213.051458 508.092056 
L 218.390396 506.93191 
L 223.341047 505.630726 
L 227.976216 504.18427 
L 232.356572 502.585658 
L 236.524583 500.828908 
L 240.522719 498.903031 
L 244.375248 496.801028 
L 248.112505 494.508963 
L 251.758756 492.011653 
L 255.332204 489.293932 
L 258.844983 486.34227 
L 262.321359 483.129144 
L 265.767401 479.639279 
L 269.195241 475.849398 
L 272.617015 471.732709 
L 276.050923 467.250326 
L 279.496964 462.383231 
L 282.973341 457.084525 
L 286.486119 451.320549 
L 290.047433 445.044767 
L 293.669417 438.206 
L 297.364205 430.748601 
L 301.14393 422.612864 
L 305.032861 413.707143 
L 309.049198 403.945989 
L 313.223276 393.208027 
L 317.591498 381.347075 
L 322.214533 368.139271 
L 327.183385 353.255963 
L 332.655796 336.143844 
L 338.995784 315.560766 
L 347.550219 286.964953 
L 361.935016 238.847362 
L 367.868517 219.846635 
L 372.758498 204.910917 
L 377.041782 192.523672 
L 380.900378 182.027895 
L 384.437424 173.036433 
L 387.707524 165.31687 
L 390.753145 158.683288 
L 393.61069 152.980178 
L 396.29836 148.101742 
L 398.828288 143.959243 
L 401.224743 140.452378 
L 403.493792 137.517365 
L 405.647568 135.086915 
L 407.698205 133.101099 
L 409.651771 131.511954 
L 411.526466 130.268235 
L 413.328358 129.33504 
L 415.075646 128.677417 
L 416.774399 128.272715 
L 418.448884 128.100933 
L 420.111235 128.153759 
L 421.779653 128.430455 
L 423.466272 128.937441 
L 425.189293 129.690382 
L 426.96085 130.710716 
L 428.793076 132.026441 
L 430.704173 133.678023 
L 432.700208 135.703367 
L 434.787247 138.143866 
L 436.983492 141.061287 
L 439.295009 144.509254 
L 441.733933 148.554655 
L 444.318464 153.282058 
L 447.05467 158.760026 
L 449.966817 165.097786 
L 453.079175 172.414642 
L 456.428145 180.86855 
L 460.056196 190.644859 
L 464.036132 202.024966 
L 468.483224 215.434559 
L 473.609817 231.624605 
L 479.96194 252.461425 
L 490.961365 289.461239 
L 500.662457 321.758764 
L 507.111651 342.465999 
L 512.632598 359.462464 
L 517.637852 374.165768 
L 522.297289 387.175022 
L 526.701912 398.824016 
L 530.912393 409.340227 
L 534.965132 418.873093 
L 538.890464 427.546326 
L 542.712658 435.45986 
L 546.449915 442.69272 
L 550.114368 449.306299 
L 553.71815 455.35754 
L 557.279465 460.907706 
L 560.804377 465.993608 
L 564.305021 470.657807 
L 567.787465 474.931095 
L 571.269908 478.855346 
L 574.758418 482.453988 
L 578.26513 485.75432 
L 581.808243 488.785069 
L 585.393825 491.560998 
L 589.046144 494.108119 
L 592.777333 496.439514 
L 596.605594 498.569773 
L 600.561262 500.516278 
L 604.668603 502.288937 
L 608.957954 503.897139 
L 613.471784 505.350848 
L 618.264693 506.658797 
L 623.391287 507.824877 
L 628.936502 508.855191 
L 635.009543 509.753855 
L 641.762086 510.524169 
L 649.430742 511.169991 
L 658.373463 511.693489 
L 669.22728 512.097627 
L 683.254126 512.385375 
L 703.584558 512.560905 
L 742.510267 512.633377 
L 747.163636 512.63518 
L 747.163636 512.63518 
" clip-path="url(#pe74fef932e)" style="fill: none; stroke: #5d5d5d; stroke-width: 2; stroke-linecap: round"/>
   </g>
   <g id="line2d_13">
    <path d="M 305.2365 512.64 
L 305.2365 69.12 
" clip-path="url(#pe74fef932e)" style="fill: none; stroke-dasharray: 11.1,4.8; stroke-dashoffset: 0; stroke: #c41e3a; stroke-width: 3"/>
   </g>
   <g id="line2d_14">
    <path d="M 532.534544 512.64 
L 532.534544 69.12 
" clip-path="url(#pe74fef932e)" style="fill: none; stroke-dasharray: 11.1,4.8; stroke-dashoffset: 0; stroke: #c41e3a; stroke-width: 3"/>
   </g>
   <g id="patch_152">
    <path d="M 108 512.64 
L 108 69.12 
" style="fill: none; stroke: #ffffff; stroke-width: 1.25; stroke-linejoin: miter; stroke-linecap: square"/>
   </g>
   <g id="patch_153">
    <path d="M 777.6 512.64 
L 777.6 69.12 
" style="fill: none; stroke: #ffffff; stroke-width: 1.25; stroke-linejoin: miter; stroke-linecap: square"/>
   </g>
   <g id="patch_154">
    <path d="M 108 512.64 
L 777.6 512.64 
" style="fill: none; stroke: #ffffff; stroke-width: 1.25; stroke-linejoin: miter; stroke-linecap: square"/>
   </g>
   <g id="patch_155">
    <path d="M 108 69.12 
L 777.6 69.12 
" style="fill: none; stroke: #ffffff; stroke-width: 1.25; stroke-linejoin: miter; stroke-linecap: square"/>
   </g>
   <g id="text_13">
    <!-- blocked calls percentage - 0 channel reserve -->
    <g style="fill: #262626" transform="translate(263.45125 45.2035) scale(0.16 -0.16)">
     <defs>
      <path id="DejaVuSans-62" d="M 3116 1747 
Q 3116 2381 2855 2742 
Q 2594 3103 2138 3103 
Q 1681 3103 1420 2742 
Q 1159 2381 1159 1747 
Q 1159 1113 1420 752 
Q 1681 391 2138 391 
Q 2594 391 2855 752 
Q 3116 1113 3116 1747 
z
M 1159 2969 
Q 1341 3281 1617 3432 
Q 1894 3584 2278 3584 
Q 2916 3584 3314 3078 
Q 3713 2572 3713 1747 
Q 3713 922 3314 415 
Q 2916 -91 2278 -91 
Q 1894 -91 1617 61 
Q 1341 213 1159 525 
L 1159 0 
L 581 0 
L 581 4863 
L 1159 4863 
L 1159 2969 
z
" transform="scale(0.015625)"/>
      <path id="DejaVuSans-6f" d="M 1959 3097 
Q 1497 3097 1228 2736 
Q 959 2375 959 1747 
Q 959 1119 1226 758 
Q 1494 397 1959 397 
Q 2419 397 2687 759 
Q 2956 1122 2956 1747 
Q 2956 2369 2687 2733 
Q 2419 3097 1959 3097 
z
M 1959 3584 
Q 2709 3584 3137 3096 
Q 3566 2609 3566 1747 
Q 3566 888 3137 398 
Q 2709 -91 1959 -91 
Q 1206 -91 779 398 
Q 353 888 353 1747 
Q 353 2609 779 3096 
Q 1206 3584 1959 3584 
z
" transform="scale(0.015625)"/>
      <path id="DejaVuSans-6b" d="M 581 4863 
L 1159 4863 
L 1159 1991 
L 2875 3500 
L 3609 3500 
L 1753 1863 
L 3688 0 
L 2938 0 
L 1159 1709 
L 1159 0 
L 581 0 
L 581 4863 
z
" transform="scale(0.015625)"/>
      <path id="DejaVuSans-64" d="M 2906 2969 
L 2906 4863 
L 3481 4863 
L 3481 0 
L 2906 0 
L 2906 525 
Q 2725 213 2448 61 
Q 2172 -91 1784 -91 
Q 1150 -91 751 415 
Q 353 922 353 1747 
Q 353 2572 751 3078 
Q 1150 3584 1784 3584 
Q 2172 3584 2448 3432 
Q 2725 3281 2906 2969 
z
M 947 1747 
Q 947 1113 1208 752 
Q 1469 391 1925 391 
Q 2381 391 2643 752 
Q 2906 1113 2906 1747 
Q 2906 2381 2643 2742 
Q 2381 3103 1925 3103 
Q 1469 3103 1208 2742 
Q 947 2381 947 1747 
z
" transform="scale(0.015625)"/>
      <path id="DejaVuSans-20" transform="scale(0.015625)"/>
      <path id="DejaVuSans-70" d="M 1159 525 
L 1159 -1331 
L 581 -1331 
L 581 3500 
L 1159 3500 
L 1159 2969 
Q 1341 3281 1617 3432 
Q 1894 3584 2278 3584 
Q 2916 3584 3314 3078 
Q 3713 2572 3713 1747 
Q 3713 922 3314 415 
Q 2916 -91 2278 -91 
Q 1894 -91 1617 61 
Q 1341 213 1159 525 
z
M 3116 1747 
Q 3116 2381 2855 2742 
Q 2594 3103 2138 3103 
Q 1681 3103 1420 2742 
Q 1159 2381 1159 1747 
Q 1159 1113 1420 752 
Q 1681 391 2138 391 
Q 2594 391 2855 752 
Q 3116 1113 3116 1747 
z
" transform="scale(0.015625)"/>
      <path id="DejaVuSans-74" d="M 1172 4494 
L 1172 3500 
L 2356 3500 
L 2356 3053 
L 1172 3053 
L 1172 1153 
Q 1172 725 1289 603 
Q 1406 481 1766 481 
L 2356 481 
L 2356 0 
L 1766 0 
Q 1100 0 847 248 
Q 594 497 594 1153 
L 594 3053 
L 172 3053 
L 172 3500 
L 594 3500 
L 594 4494 
L 1172 4494 
z
" transform="scale(0.015625)"/>
      <path id="DejaVuSans-67" d="M 2906 1791 
Q 2906 2416 2648 2759 
Q 2391 3103 1925 3103 
Q 1463 3103 1205 2759 
Q 947 2416 947 1791 
Q 947 1169 1205 825 
Q 1463 481 1925 481 
Q 2391 481 2648 825 
Q 2906 1169 2906 1791 
z
M 3481 434 
Q 3481 -459 3084 -895 
Q 2688 -1331 1869 -1331 
Q 1566 -1331 1297 -1286 
Q 1028 -1241 775 -1147 
L 775 -588 
Q 1028 -725 1275 -790 
Q 1522 -856 1778 -856 
Q 2344 -856 2625 -561 
Q 2906 -266 2906 331 
L 2906 616 
Q 2728 306 2450 153 
Q 2172 0 1784 0 
Q 1141 0 747 490 
Q 353 981 353 1791 
Q 353 2603 747 3093 
Q 1141 3584 1784 3584 
Q 2172 3584 2450 3431 
Q 2728 3278 2906 2969 
L 2906 3500 
L 3481 3500 
L 3481 434 
z
" transform="scale(0.015625)"/>
      <path id="DejaVuSans-2d" d="M 313 2009 
L 1997 2009 
L 1997 1497 
L 313 1497 
L 313 2009 
z
" transform="scale(0.015625)"/>
      <path id="DejaVuSans-68" d="M 3513 2113 
L 3513 0 
L 2938 0 
L 2938 2094 
Q 2938 2591 2744 2837 
Q 2550 3084 2163 3084 
Q 1697 3084 1428 2787 
Q 1159 2491 1159 1978 
L 1159 0 
L 581 0 
L 581 4863 
L 1159 4863 
L 1159 2956 
Q 1366 3272 1645 3428 
Q 1925 3584 2291 3584 
Q 2894 3584 3203 3211 
Q 3513 2838 3513 2113 
z
" transform="scale(0.015625)"/>
      <path id="DejaVuSans-76" d="M 191 3500 
L 800 3500 
L 1894 563 
L 2988 3500 
L 3597 3500 
L 2284 0 
L 1503 0 
L 191 3500 
z
" transform="scale(0.015625)"/>
     </defs>
     <use xlink:href="#DejaVuSans-62"/>
     <use xlink:href="#DejaVuSans-6c" x="63.476562"/>
     <use xlink:href="#DejaVuSans-6f" x="91.259766"/>
     <use xlink:href="#DejaVuSans-63" x="152.441406"/>
     <use xlink:href="#DejaVuSans-6b" x="207.421875"/>
     <use xlink:href="#DejaVuSans-65" x="261.707031"/>
     <use xlink:href="#DejaVuSans-64" x="323.230469"/>
     <use xlink:href="#DejaVuSans-20" x="386.707031"/>
     <use xlink:href="#DejaVuSans-63" x="418.494141"/>
     <use xlink:href="#DejaVuSans-61" x="473.474609"/>
     <use xlink:href="#DejaVuSans-6c" x="534.753906"/>
     <use xlink:href="#DejaVuSans-6c" x="562.537109"/>
     <use xlink:href="#DejaVuSans-73" x="590.320312"/>
     <use xlink:href="#DejaVuSans-20" x="642.419922"/>
     <use xlink:href="#DejaVuSans-70" x="674.207031"/>
     <use xlink:href="#DejaVuSans-65" x="737.683594"/>
     <use xlink:href="#DejaVuSans-72" x="799.207031"/>
     <use xlink:href="#DejaVuSans-63" x="838.070312"/>
     <use xlink:href="#DejaVuSans-65" x="893.050781"/>
     <use xlink:href="#DejaVuSans-6e" x="954.574219"/>
     <use xlink:href="#DejaVuSans-74" x="1017.953125"/>
     <use xlink:href="#DejaVuSans-61" x="1057.162109"/>
     <use xlink:href="#DejaVuSans-67" x="1118.441406"/>
     <use xlink:href="#DejaVuSans-65" x="1181.917969"/>
     <use xlink:href="#DejaVuSans-20" x="1243.441406"/>
     <use xlink:href="#DejaVuSans-2d" x="1275.228516"/>
     <use xlink:href="#DejaVuSans-20" x="1311.3125"/>
     <use xlink:href="#DejaVuSans-30" x="1343.099609"/>
     <use xlink:href="#DejaVuSans-20" x="1406.722656"/>
     <use xlink:href="#DejaVuSans-63" x="1438.509766"/>
     <use xlink:href="#DejaVuSans-68" x="1493.490234"/>
     <use xlink:href="#DejaVuSans-61" x="1556.869141"/>
     <use xlink:href="#DejaVuSans-6e" x="1618.148438"/>
     <use xlink:href="#DejaVuSans-6e" x="1681.527344"/>
     <use xlink:href="#DejaVuSans-65" x="1744.90625"/>
     <use xlink:href="#DejaVuSans-6c" x="1806.429688"/>
     <use xlink:href="#DejaVuSans-20" x="1834.212891"/>
     <use xlink:href="#DejaVuSans-72" x="1866"/>
     <use xlink:href="#DejaVuSans-65" x="1904.863281"/>
     <use xlink:href="#DejaVuSans-73" x="1966.386719"/>
     <use xlink:href="#DejaVuSans-65" x="2018.486328"/>
     <use xlink:href="#DejaVuSans-72" x="2080.009766"/>
     <use xlink:href="#DejaVuSans-76" x="2121.123047"/>
     <use xlink:href="#DejaVuSans-65" x="2180.302734"/>
    </g>
    <!-- norm(loc=0.0031414, scale=0.000478321) -->
    <g style="fill: #262626" transform="translate(268.32375 63.12) scale(0.16 -0.16)">
     <defs>
      <path id="DejaVuSans-6d" d="M 3328 2828 
Q 3544 3216 3844 3400 
Q 4144 3584 4550 3584 
Q 5097 3584 5394 3201 
Q 5691 2819 5691 2113 
L 5691 0 
L 5113 0 
L 5113 2094 
Q 5113 2597 4934 2840 
Q 4756 3084 4391 3084 
Q 3944 3084 3684 2787 
Q 3425 2491 3425 1978 
L 3425 0 
L 2847 0 
L 2847 2094 
Q 2847 2600 2669 2842 
Q 2491 3084 2119 3084 
Q 1678 3084 1418 2786 
Q 1159 2488 1159 1978 
L 1159 0 
L 581 0 
L 581 3500 
L 1159 3500 
L 1159 2956 
Q 1356 3278 1631 3431 
Q 1906 3584 2284 3584 
Q 2666 3584 2933 3390 
Q 3200 3197 3328 2828 
z
" transform="scale(0.015625)"/>
      <path id="DejaVuSans-28" d="M 1984 4856 
Q 1566 4138 1362 3434 
Q 1159 2731 1159 2009 
Q 1159 1288 1364 580 
Q 1569 -128 1984 -844 
L 1484 -844 
Q 1016 -109 783 600 
Q 550 1309 550 2009 
Q 550 2706 781 3412 
Q 1013 4119 1484 4856 
L 1984 4856 
z
" transform="scale(0.015625)"/>
      <path id="DejaVuSans-3d" d="M 678 2906 
L 4684 2906 
L 4684 2381 
L 678 2381 
L 678 2906 
z
M 678 1631 
L 4684 1631 
L 4684 1100 
L 678 1100 
L 678 1631 
z
" transform="scale(0.015625)"/>
      <path id="DejaVuSans-2c" d="M 750 794 
L 1409 794 
L 1409 256 
L 897 -744 
L 494 -744 
L 750 256 
L 750 794 
z
" transform="scale(0.015625)"/>
      <path id="DejaVuSans-37" d="M 525 4666 
L 3525 4666 
L 3525 4397 
L 1831 0 
L 1172 0 
L 2766 4134 
L 525 4134 
L 525 4666 
z
" transform="scale(0.015625)"/>
      <path id="DejaVuSans-29" d="M 513 4856 
L 1013 4856 
Q 1481 4119 1714 3412 
Q 1947 2706 1947 2009 
Q 1947 1309 1714 600 
Q 1481 -109 1013 -844 
L 513 -844 
Q 928 -128 1133 580 
Q 1338 1288 1338 2009 
Q 1338 2731 1133 3434 
Q 928 4138 513 4856 
z
" transform="scale(0.015625)"/>
     </defs>
     <use xlink:href="#DejaVuSans-6e"/>
     <use xlink:href="#DejaVuSans-6f" x="63.378906"/>
     <use xlink:href="#DejaVuSans-72" x="124.560547"/>
     <use xlink:href="#DejaVuSans-6d" x="163.923828"/>
     <use xlink:href="#DejaVuSans-28" x="261.335938"/>
     <use xlink:href="#DejaVuSans-6c" x="300.349609"/>
     <use xlink:href="#DejaVuSans-6f" x="328.132812"/>
     <use xlink:href="#DejaVuSans-63" x="389.314453"/>
     <use xlink:href="#DejaVuSans-3d" x="444.294922"/>
     <use xlink:href="#DejaVuSans-30" x="528.083984"/>
     <use xlink:href="#DejaVuSans-2e" x="591.707031"/>
     <use xlink:href="#DejaVuSans-30" x="623.494141"/>
     <use xlink:href="#DejaVuSans-30" x="687.117188"/>
     <use xlink:href="#DejaVuSans-33" x="750.740234"/>
     <use xlink:href="#DejaVuSans-31" x="814.363281"/>
     <use xlink:href="#DejaVuSans-34" x="877.986328"/>
     <use xlink:href="#DejaVuSans-31" x="941.609375"/>
     <use xlink:href="#DejaVuSans-34" x="1005.232422"/>
     <use xlink:href="#DejaVuSans-2c" x="1068.855469"/>
     <use xlink:href="#DejaVuSans-20" x="1100.642578"/>
     <use xlink:href="#DejaVuSans-73" x="1132.429688"/>
     <use xlink:href="#DejaVuSans-63" x="1184.529297"/>
     <use xlink:href="#DejaVuSans-61" x="1239.509766"/>
     <use xlink:href="#DejaVuSans-6c" x="1300.789062"/>
     <use xlink:href="#DejaVuSans-65" x="1328.572266"/>
     <use xlink:href="#DejaVuSans-3d" x="1390.095703"/>
     <use xlink:href="#DejaVuSans-30" x="1473.884766"/>
     <use xlink:href="#DejaVuSans-2e" x="1537.507812"/>
     <use xlink:href="#DejaVuSans-30" x="1569.294922"/>
     <use xlink:href="#DejaVuSans-30" x="1632.917969"/>
     <use xlink:href="#DejaVuSans-30" x="1696.541016"/>
     <use xlink:href="#DejaVuSans-34" x="1760.164062"/>
     <use xlink:href="#DejaVuSans-37" x="1823.787109"/>
     <use xlink:href="#DejaVuSans-38" x="1887.410156"/>
     <use xlink:href="#DejaVuSans-33" x="1951.033203"/>
     <use xlink:href="#DejaVuSans-32" x="2014.65625"/>
     <use xlink:href="#DejaVuSans-31" x="2078.279297"/>
     <use xlink:href="#DejaVuSans-29" x="2141.902344"/>
    </g>
   </g>
   <g id="legend_1">
    <g id="patch_156">
     <path d="M 654.085469 126.357813 
L 769.9 126.357813 
Q 772.1 126.357813 772.1 124.157813 
L 772.1 76.82 
Q 772.1 74.62 769.9 74.62 
L 654.085469 74.62 
Q 651.885469 74.62 651.885469 76.82 
L 651.885469 124.157813 
Q 651.885469 126.357813 654.085469 126.357813 
z
" style="fill: #eaeaf2; opacity: 0.8; stroke: #cccccc; stroke-linejoin: miter"/>
    </g>
    <g id="line2d_15">
     <path d="M 656.285469 83.528281 
L 667.285469 83.528281 
L 678.285469 83.528281 
" style="fill: none; stroke: #5d5d5d; stroke-width: 2; stroke-linecap: round"/>
    </g>
    <g id="text_14">
     <!-- Norm (best fit) -->
     <g style="fill: #262626" transform="translate(687.085469 87.378281) scale(0.11 -0.11)">
      <defs>
       <path id="DejaVuSans-4e" d="M 628 4666 
L 1478 4666 
L 3547 763 
L 3547 4666 
L 4159 4666 
L 4159 0 
L 3309 0 
L 1241 3903 
L 1241 0 
L 628 0 
L 628 4666 
z
" transform="scale(0.015625)"/>
       <path id="DejaVuSans-66" d="M 2375 4863 
L 2375 4384 
L 1825 4384 
Q 1516 4384 1395 4259 
Q 1275 4134 1275 3809 
L 1275 3500 
L 2222 3500 
L 2222 3053 
L 1275 3053 
L 1275 0 
L 697 0 
L 697 3053 
L 147 3053 
L 147 3500 
L 697 3500 
L 697 3744 
Q 697 4328 969 4595 
Q 1241 4863 1831 4863 
L 2375 4863 
z
" transform="scale(0.015625)"/>
       <path id="DejaVuSans-69" d="M 603 3500 
L 1178 3500 
L 1178 0 
L 603 0 
L 603 3500 
z
M 603 4863 
L 1178 4863 
L 1178 4134 
L 603 4134 
L 603 4863 
z
" transform="scale(0.015625)"/>
      </defs>
      <use xlink:href="#DejaVuSans-4e"/>
      <use xlink:href="#DejaVuSans-6f" x="74.804688"/>
      <use xlink:href="#DejaVuSans-72" x="135.986328"/>
      <use xlink:href="#DejaVuSans-6d" x="175.349609"/>
      <use xlink:href="#DejaVuSans-20" x="272.761719"/>
      <use xlink:href="#DejaVuSans-28" x="304.548828"/>
      <use xlink:href="#DejaVuSans-62" x="343.5625"/>
      <use xlink:href="#DejaVuSans-65" x="407.039062"/>
      <use xlink:href="#DejaVuSans-73" x="468.5625"/>
      <use xlink:href="#DejaVuSans-74" x="520.662109"/>
      <use xlink:href="#DejaVuSans-20" x="559.871094"/>
      <use xlink:href="#DejaVuSans-66" x="591.658203"/>
      <use xlink:href="#DejaVuSans-69" x="626.863281"/>
      <use xlink:href="#DejaVuSans-74" x="654.646484"/>
      <use xlink:href="#DejaVuSans-29" x="693.855469"/>
     </g>
    </g>
    <g id="line2d_16">
     <path d="M 656.285469 99.674219 
L 667.285469 99.674219 
L 678.285469 99.674219 
" style="fill: none; stroke-dasharray: 11.1,4.8; stroke-dashoffset: 0; stroke: #c41e3a; stroke-width: 3"/>
    </g>
    <g id="text_15">
     <!-- CII low (0.05) -->
     <g style="fill: #262626" transform="translate(687.085469 103.524219) scale(0.11 -0.11)">
      <defs>
       <path id="DejaVuSans-43" d="M 4122 4306 
L 4122 3641 
Q 3803 3938 3442 4084 
Q 3081 4231 2675 4231 
Q 1875 4231 1450 3742 
Q 1025 3253 1025 2328 
Q 1025 1406 1450 917 
Q 1875 428 2675 428 
Q 3081 428 3442 575 
Q 3803 722 4122 1019 
L 4122 359 
Q 3791 134 3420 21 
Q 3050 -91 2638 -91 
Q 1578 -91 968 557 
Q 359 1206 359 2328 
Q 359 3453 968 4101 
Q 1578 4750 2638 4750 
Q 3056 4750 3426 4639 
Q 3797 4528 4122 4306 
z
" transform="scale(0.015625)"/>
       <path id="DejaVuSans-49" d="M 628 4666 
L 1259 4666 
L 1259 0 
L 628 0 
L 628 4666 
z
" transform="scale(0.015625)"/>
       <path id="DejaVuSans-77" d="M 269 3500 
L 844 3500 
L 1563 769 
L 2278 3500 
L 2956 3500 
L 3675 769 
L 4391 3500 
L 4966 3500 
L 4050 0 
L 3372 0 
L 2619 2869 
L 1863 0 
L 1184 0 
L 269 3500 
z
" transform="scale(0.015625)"/>
      </defs>
      <use xlink:href="#DejaVuSans-43"/>
      <use xlink:href="#DejaVuSans-49" x="69.824219"/>
      <use xlink:href="#DejaVuSans-49" x="99.316406"/>
      <use xlink:href="#DejaVuSans-20" x="128.808594"/>
      <use xlink:href="#DejaVuSans-6c" x="160.595703"/>
      <use xlink:href="#DejaVuSans-6f" x="188.378906"/>
      <use xlink:href="#DejaVuSans-77" x="249.560547"/>
      <use xlink:href="#DejaVuSans-20" x="331.347656"/>
      <use xlink:href="#DejaVuSans-28" x="363.134766"/>
      <use xlink:href="#DejaVuSans-30" x="402.148438"/>
      <use xlink:href="#DejaVuSans-2e" x="465.771484"/>
      <use xlink:href="#DejaVuSans-30" x="497.558594"/>
      <use xlink:href="#DejaVuSans-35" x="561.181641"/>
      <use xlink:href="#DejaVuSans-29" x="624.804688"/>
     </g>
    </g>
    <g id="line2d_17">
     <path d="M 656.285469 115.820156 
L 667.285469 115.820156 
L 678.285469 115.820156 
" style="fill: none; stroke-dasharray: 11.1,4.8; stroke-dashoffset: 0; stroke: #c41e3a; stroke-width: 3"/>
    </g>
    <g id="text_16">
     <!-- CII high (0.05) -->
     <g style="fill: #262626" transform="translate(687.085469 119.670156) scale(0.11 -0.11)">
      <use xlink:href="#DejaVuSans-43"/>
      <use xlink:href="#DejaVuSans-49" x="69.824219"/>
      <use xlink:href="#DejaVuSans-49" x="99.316406"/>
      <use xlink:href="#DejaVuSans-20" x="128.808594"/>
      <use xlink:href="#DejaVuSans-68" x="160.595703"/>
      <use xlink:href="#DejaVuSans-69" x="223.974609"/>
      <use xlink:href="#DejaVuSans-67" x="251.757812"/>
      <use xlink:href="#DejaVuSans-68" x="315.234375"/>
      <use xlink:href="#DejaVuSans-20" x="378.613281"/>
      <use xlink:href="#DejaVuSans-28" x="410.400391"/>
      <use xlink:href="#DejaVuSans-30" x="449.414062"/>
      <use xlink:href="#DejaVuSans-2e" x="513.037109"/>
      <use xlink:href="#DejaVuSans-30" x="544.824219"/>
      <use xlink:href="#DejaVuSans-35" x="608.447266"/>
      <use xlink:href="#DejaVuSans-29" x="672.070312"/>
     </g>
    </g>
   </g>
  </g>
 </g>
 <defs>
  <clipPath id="pe74fef932e">
   <rect x="108" y="69.12" width="669.6" height="443.52"/>
  </clipPath>
 </defs>
</svg>
