<?xml version="1.0" encoding="utf-8" standalone="no"?>
<!DOCTYPE svg PUBLIC "-//W3C//DTD SVG 1.1//EN"
  "http://www.w3.org/Graphics/SVG/1.1/DTD/svg11.dtd">
<svg xmlns:xlink="http://www.w3.org/1999/xlink" width="864pt" height="648pt" viewBox="0 0 864 648" xmlns="http://www.w3.org/2000/svg" version="1.1">
 <metadata>
  <rdf:RDF xmlns:dc="http://purl.org/dc/elements/1.1/" xmlns:cc="http://creativecommons.org/ns#" xmlns:rdf="http://www.w3.org/1999/02/22-rdf-syntax-ns#">
   <cc:Work>
    <dc:type rdf:resource="http://purl.org/dc/dcmitype/StillImage"/>
    <dc:date>2024-04-14T23:10:23.328931</dc:date>
    <dc:format>image/svg+xml</dc:format>
    <dc:creator>
     <cc:Agent>
      <dc:title>Matplotlib v3.8.3, https://matplotlib.org/</dc:title>
     </cc:Agent>
    </dc:creator>
   </cc:Work>
  </rdf:RDF>
 </metadata>
 <defs>
  <style type="text/css">*{stroke-linejoin: round; stroke-linecap: butt}</style>
 </defs>
 <g id="figure_1">
  <g id="patch_1">
   <path d="M 0 648 
L 864 648 
L 864 0 
L 0 0 
z
" style="fill: #ffffff"/>
  </g>
  <g id="axes_1">
   <g id="patch_2">
    <path d="M 108 576.72 
L 777.6 576.72 
L 777.6 77.76 
L 108 77.76 
z
" style="fill: #eaeaf2"/>
   </g>
   <g id="matplotlib.axis_1">
    <g id="xtick_1">
     <g id="line2d_1">
      <path d="M 147.801399 576.72 
L 147.801399 77.76 
" clip-path="url(#pd88ce653b0)" style="fill: none; stroke: #ffffff; stroke-linecap: round"/>
     </g>
     <g id="text_1">
      <!-- 0.002 -->
      <g style="fill: #262626" transform="translate(132.05593 594.578281) scale(0.11 -0.11)">
       <defs>
        <path id="DejaVuSans-30" d="M 2034 4250 
Q 1547 4250 1301 3770 
Q 1056 3291 1056 2328 
Q 1056 1369 1301 889 
Q 1547 409 2034 409 
Q 2525 409 2770 889 
Q 3016 1369 3016 2328 
Q 3016 3291 2770 3770 
Q 2525 4250 2034 4250 
z
M 2034 4750 
Q 2819 4750 3233 4129 
Q 3647 3509 3647 2328 
Q 3647 1150 3233 529 
Q 2819 -91 2034 -91 
Q 1250 -91 836 529 
Q 422 1150 422 2328 
Q 422 3509 836 4129 
Q 1250 4750 2034 4750 
z
" transform="scale(0.015625)"/>
        <path id="DejaVuSans-2e" d="M 684 794 
L 1344 794 
L 1344 0 
L 684 0 
L 684 794 
z
" transform="scale(0.015625)"/>
        <path id="DejaVuSans-32" d="M 1228 531 
L 3431 531 
L 3431 0 
L 469 0 
L 469 531 
Q 828 903 1448 1529 
Q 2069 2156 2228 2338 
Q 2531 2678 2651 2914 
Q 2772 3150 2772 3378 
Q 2772 3750 2511 3984 
Q 2250 4219 1831 4219 
Q 1534 4219 1204 4116 
Q 875 4013 500 3803 
L 500 4441 
Q 881 4594 1212 4672 
Q 1544 4750 1819 4750 
Q 2544 4750 2975 4387 
Q 3406 4025 3406 3419 
Q 3406 3131 3298 2873 
Q 3191 2616 2906 2266 
Q 2828 2175 2409 1742 
Q 1991 1309 1228 531 
z
" transform="scale(0.015625)"/>
       </defs>
       <use xlink:href="#DejaVuSans-30"/>
       <use xlink:href="#DejaVuSans-2e" x="63.623047"/>
       <use xlink:href="#DejaVuSans-30" x="95.410156"/>
       <use xlink:href="#DejaVuSans-30" x="159.033203"/>
       <use xlink:href="#DejaVuSans-32" x="222.65625"/>
      </g>
     </g>
    </g>
    <g id="xtick_2">
     <g id="line2d_2">
      <path d="M 241.451748 576.72 
L 241.451748 77.76 
" clip-path="url(#pd88ce653b0)" style="fill: none; stroke: #ffffff; stroke-linecap: round"/>
     </g>
     <g id="text_2">
      <!-- 0.004 -->
      <g style="fill: #262626" transform="translate(225.70628 594.578281) scale(0.11 -0.11)">
       <defs>
        <path id="DejaVuSans-34" d="M 2419 4116 
L 825 1625 
L 2419 1625 
L 2419 4116 
z
M 2253 4666 
L 3047 4666 
L 3047 1625 
L 3713 1625 
L 3713 1100 
L 3047 1100 
L 3047 0 
L 2419 0 
L 2419 1100 
L 313 1100 
L 313 1709 
L 2253 4666 
z
" transform="scale(0.015625)"/>
       </defs>
       <use xlink:href="#DejaVuSans-30"/>
       <use xlink:href="#DejaVuSans-2e" x="63.623047"/>
       <use xlink:href="#DejaVuSans-30" x="95.410156"/>
       <use xlink:href="#DejaVuSans-30" x="159.033203"/>
       <use xlink:href="#DejaVuSans-34" x="222.65625"/>
      </g>
     </g>
    </g>
    <g id="xtick_3">
     <g id="line2d_3">
      <path d="M 335.102098 576.72 
L 335.102098 77.76 
" clip-path="url(#pd88ce653b0)" style="fill: none; stroke: #ffffff; stroke-linecap: round"/>
     </g>
     <g id="text_3">
      <!-- 0.006 -->
      <g style="fill: #262626" transform="translate(319.356629 594.578281) scale(0.11 -0.11)">
       <defs>
        <path id="DejaVuSans-36" d="M 2113 2584 
Q 1688 2584 1439 2293 
Q 1191 2003 1191 1497 
Q 1191 994 1439 701 
Q 1688 409 2113 409 
Q 2538 409 2786 701 
Q 3034 994 3034 1497 
Q 3034 2003 2786 2293 
Q 2538 2584 2113 2584 
z
M 3366 4563 
L 3366 3988 
Q 3128 4100 2886 4159 
Q 2644 4219 2406 4219 
Q 1781 4219 1451 3797 
Q 1122 3375 1075 2522 
Q 1259 2794 1537 2939 
Q 1816 3084 2150 3084 
Q 2853 3084 3261 2657 
Q 3669 2231 3669 1497 
Q 3669 778 3244 343 
Q 2819 -91 2113 -91 
Q 1303 -91 875 529 
Q 447 1150 447 2328 
Q 447 3434 972 4092 
Q 1497 4750 2381 4750 
Q 2619 4750 2861 4703 
Q 3103 4656 3366 4563 
z
" transform="scale(0.015625)"/>
       </defs>
       <use xlink:href="#DejaVuSans-30"/>
       <use xlink:href="#DejaVuSans-2e" x="63.623047"/>
       <use xlink:href="#DejaVuSans-30" x="95.410156"/>
       <use xlink:href="#DejaVuSans-30" x="159.033203"/>
       <use xlink:href="#DejaVuSans-36" x="222.65625"/>
      </g>
     </g>
    </g>
    <g id="xtick_4">
     <g id="line2d_4">
      <path d="M 428.752448 576.72 
L 428.752448 77.76 
" clip-path="url(#pd88ce653b0)" style="fill: none; stroke: #ffffff; stroke-linecap: round"/>
     </g>
     <g id="text_4">
      <!-- 0.008 -->
      <g style="fill: #262626" transform="translate(413.006979 594.578281) scale(0.11 -0.11)">
       <defs>
        <path id="DejaVuSans-38" d="M 2034 2216 
Q 1584 2216 1326 1975 
Q 1069 1734 1069 1313 
Q 1069 891 1326 650 
Q 1584 409 2034 409 
Q 2484 409 2743 651 
Q 3003 894 3003 1313 
Q 3003 1734 2745 1975 
Q 2488 2216 2034 2216 
z
M 1403 2484 
Q 997 2584 770 2862 
Q 544 3141 544 3541 
Q 544 4100 942 4425 
Q 1341 4750 2034 4750 
Q 2731 4750 3128 4425 
Q 3525 4100 3525 3541 
Q 3525 3141 3298 2862 
Q 3072 2584 2669 2484 
Q 3125 2378 3379 2068 
Q 3634 1759 3634 1313 
Q 3634 634 3220 271 
Q 2806 -91 2034 -91 
Q 1263 -91 848 271 
Q 434 634 434 1313 
Q 434 1759 690 2068 
Q 947 2378 1403 2484 
z
M 1172 3481 
Q 1172 3119 1398 2916 
Q 1625 2713 2034 2713 
Q 2441 2713 2670 2916 
Q 2900 3119 2900 3481 
Q 2900 3844 2670 4047 
Q 2441 4250 2034 4250 
Q 1625 4250 1398 4047 
Q 1172 3844 1172 3481 
z
" transform="scale(0.015625)"/>
       </defs>
       <use xlink:href="#DejaVuSans-30"/>
       <use xlink:href="#DejaVuSans-2e" x="63.623047"/>
       <use xlink:href="#DejaVuSans-30" x="95.410156"/>
       <use xlink:href="#DejaVuSans-30" x="159.033203"/>
       <use xlink:href="#DejaVuSans-38" x="222.65625"/>
      </g>
     </g>
    </g>
    <g id="xtick_5">
     <g id="line2d_5">
      <path d="M 522.402797 576.72 
L 522.402797 77.76 
" clip-path="url(#pd88ce653b0)" style="fill: none; stroke: #ffffff; stroke-linecap: round"/>
     </g>
     <g id="text_5">
      <!-- 0.010 -->
      <g style="fill: #262626" transform="translate(506.657328 594.578281) scale(0.11 -0.11)">
       <defs>
        <path id="DejaVuSans-31" d="M 794 531 
L 1825 531 
L 1825 4091 
L 703 3866 
L 703 4441 
L 1819 4666 
L 2450 4666 
L 2450 531 
L 3481 531 
L 3481 0 
L 794 0 
L 794 531 
z
" transform="scale(0.015625)"/>
       </defs>
       <use xlink:href="#DejaVuSans-30"/>
       <use xlink:href="#DejaVuSans-2e" x="63.623047"/>
       <use xlink:href="#DejaVuSans-30" x="95.410156"/>
       <use xlink:href="#DejaVuSans-31" x="159.033203"/>
       <use xlink:href="#DejaVuSans-30" x="222.65625"/>
      </g>
     </g>
    </g>
    <g id="xtick_6">
     <g id="line2d_6">
      <path d="M 616.053147 576.72 
L 616.053147 77.76 
" clip-path="url(#pd88ce653b0)" style="fill: none; stroke: #ffffff; stroke-linecap: round"/>
     </g>
     <g id="text_6">
      <!-- 0.012 -->
      <g style="fill: #262626" transform="translate(600.307678 594.578281) scale(0.11 -0.11)">
       <use xlink:href="#DejaVuSans-30"/>
       <use xlink:href="#DejaVuSans-2e" x="63.623047"/>
       <use xlink:href="#DejaVuSans-30" x="95.410156"/>
       <use xlink:href="#DejaVuSans-31" x="159.033203"/>
       <use xlink:href="#DejaVuSans-32" x="222.65625"/>
      </g>
     </g>
    </g>
    <g id="xtick_7">
     <g id="line2d_7">
      <path d="M 709.703497 576.72 
L 709.703497 77.76 
" clip-path="url(#pd88ce653b0)" style="fill: none; stroke: #ffffff; stroke-linecap: round"/>
     </g>
     <g id="text_7">
      <!-- 0.014 -->
      <g style="fill: #262626" transform="translate(693.958028 594.578281) scale(0.11 -0.11)">
       <use xlink:href="#DejaVuSans-30"/>
       <use xlink:href="#DejaVuSans-2e" x="63.623047"/>
       <use xlink:href="#DejaVuSans-30" x="95.410156"/>
       <use xlink:href="#DejaVuSans-31" x="159.033203"/>
       <use xlink:href="#DejaVuSans-34" x="222.65625"/>
      </g>
     </g>
    </g>
   </g>
   <g id="matplotlib.axis_2">
    <g id="ytick_1">
     <g id="line2d_8">
      <path d="M 108 576.72 
L 777.6 576.72 
" clip-path="url(#pd88ce653b0)" style="fill: none; stroke: #ffffff; stroke-linecap: round"/>
     </g>
     <g id="text_8">
      <!-- 0 -->
      <g style="fill: #262626" transform="translate(91.50125 580.899141) scale(0.11 -0.11)">
       <use xlink:href="#DejaVuSans-30"/>
      </g>
     </g>
    </g>
    <g id="ytick_2">
     <g id="line2d_9">
      <path d="M 108 509.72626 
L 777.6 509.72626 
" clip-path="url(#pd88ce653b0)" style="fill: none; stroke: #ffffff; stroke-linecap: round"/>
     </g>
     <g id="text_9">
      <!-- 2500 -->
      <g style="fill: #262626" transform="translate(70.505 513.9054) scale(0.11 -0.11)">
       <defs>
        <path id="DejaVuSans-35" d="M 691 4666 
L 3169 4666 
L 3169 4134 
L 1269 4134 
L 1269 2991 
Q 1406 3038 1543 3061 
Q 1681 3084 1819 3084 
Q 2600 3084 3056 2656 
Q 3513 2228 3513 1497 
Q 3513 744 3044 326 
Q 2575 -91 1722 -91 
Q 1428 -91 1123 -41 
Q 819 9 494 109 
L 494 744 
Q 775 591 1075 516 
Q 1375 441 1709 441 
Q 2250 441 2565 725 
Q 2881 1009 2881 1497 
Q 2881 1984 2565 2268 
Q 2250 2553 1709 2553 
Q 1456 2553 1204 2497 
Q 953 2441 691 2322 
L 691 4666 
z
" transform="scale(0.015625)"/>
       </defs>
       <use xlink:href="#DejaVuSans-32"/>
       <use xlink:href="#DejaVuSans-35" x="63.623047"/>
       <use xlink:href="#DejaVuSans-30" x="127.246094"/>
       <use xlink:href="#DejaVuSans-30" x="190.869141"/>
      </g>
     </g>
    </g>
    <g id="ytick_3">
     <g id="line2d_10">
      <path d="M 108 442.732519 
L 777.6 442.732519 
" clip-path="url(#pd88ce653b0)" style="fill: none; stroke: #ffffff; stroke-linecap: round"/>
     </g>
     <g id="text_10">
      <!-- 5000 -->
      <g style="fill: #262626" transform="translate(70.505 446.91166) scale(0.11 -0.11)">
       <use xlink:href="#DejaVuSans-35"/>
       <use xlink:href="#DejaVuSans-30" x="63.623047"/>
       <use xlink:href="#DejaVuSans-30" x="127.246094"/>
       <use xlink:href="#DejaVuSans-30" x="190.869141"/>
      </g>
     </g>
    </g>
    <g id="ytick_4">
     <g id="line2d_11">
      <path d="M 108 375.738779 
L 777.6 375.738779 
" clip-path="url(#pd88ce653b0)" style="fill: none; stroke: #ffffff; stroke-linecap: round"/>
     </g>
     <g id="text_11">
      <!-- 7500 -->
      <g style="fill: #262626" transform="translate(70.505 379.917919) scale(0.11 -0.11)">
       <defs>
        <path id="DejaVuSans-37" d="M 525 4666 
L 3525 4666 
L 3525 4397 
L 1831 0 
L 1172 0 
L 2766 4134 
L 525 4134 
L 525 4666 
z
" transform="scale(0.015625)"/>
       </defs>
       <use xlink:href="#DejaVuSans-37"/>
       <use xlink:href="#DejaVuSans-35" x="63.623047"/>
       <use xlink:href="#DejaVuSans-30" x="127.246094"/>
       <use xlink:href="#DejaVuSans-30" x="190.869141"/>
      </g>
     </g>
    </g>
    <g id="ytick_5">
     <g id="line2d_12">
      <path d="M 108 308.745038 
L 777.6 308.745038 
" clip-path="url(#pd88ce653b0)" style="fill: none; stroke: #ffffff; stroke-linecap: round"/>
     </g>
     <g id="text_12">
      <!-- 10000 -->
      <g style="fill: #262626" transform="translate(63.50625 312.924179) scale(0.11 -0.11)">
       <use xlink:href="#DejaVuSans-31"/>
       <use xlink:href="#DejaVuSans-30" x="63.623047"/>
       <use xlink:href="#DejaVuSans-30" x="127.246094"/>
       <use xlink:href="#DejaVuSans-30" x="190.869141"/>
       <use xlink:href="#DejaVuSans-30" x="254.492188"/>
      </g>
     </g>
    </g>
    <g id="ytick_6">
     <g id="line2d_13">
      <path d="M 108 241.751298 
L 777.6 241.751298 
" clip-path="url(#pd88ce653b0)" style="fill: none; stroke: #ffffff; stroke-linecap: round"/>
     </g>
     <g id="text_13">
      <!-- 12500 -->
      <g style="fill: #262626" transform="translate(63.50625 245.930438) scale(0.11 -0.11)">
       <use xlink:href="#DejaVuSans-31"/>
       <use xlink:href="#DejaVuSans-32" x="63.623047"/>
       <use xlink:href="#DejaVuSans-35" x="127.246094"/>
       <use xlink:href="#DejaVuSans-30" x="190.869141"/>
       <use xlink:href="#DejaVuSans-30" x="254.492188"/>
      </g>
     </g>
    </g>
    <g id="ytick_7">
     <g id="line2d_14">
      <path d="M 108 174.757557 
L 777.6 174.757557 
" clip-path="url(#pd88ce653b0)" style="fill: none; stroke: #ffffff; stroke-linecap: round"/>
     </g>
     <g id="text_14">
      <!-- 15000 -->
      <g style="fill: #262626" transform="translate(63.50625 178.936698) scale(0.11 -0.11)">
       <use xlink:href="#DejaVuSans-31"/>
       <use xlink:href="#DejaVuSans-35" x="63.623047"/>
       <use xlink:href="#DejaVuSans-30" x="127.246094"/>
       <use xlink:href="#DejaVuSans-30" x="190.869141"/>
       <use xlink:href="#DejaVuSans-30" x="254.492188"/>
      </g>
     </g>
    </g>
    <g id="ytick_8">
     <g id="line2d_15">
      <path d="M 108 107.763817 
L 777.6 107.763817 
" clip-path="url(#pd88ce653b0)" style="fill: none; stroke: #ffffff; stroke-linecap: round"/>
     </g>
     <g id="text_15">
      <!-- 17500 -->
      <g style="fill: #262626" transform="translate(63.50625 111.942957) scale(0.11 -0.11)">
       <use xlink:href="#DejaVuSans-31"/>
       <use xlink:href="#DejaVuSans-37" x="63.623047"/>
       <use xlink:href="#DejaVuSans-35" x="127.246094"/>
       <use xlink:href="#DejaVuSans-30" x="190.869141"/>
       <use xlink:href="#DejaVuSans-30" x="254.492188"/>
      </g>
     </g>
    </g>
    <g id="text_16">
     <!-- Count -->
     <g style="fill: #262626" transform="translate(57.010625 345.058125) rotate(-90) scale(0.12 -0.12)">
      <defs>
       <path id="DejaVuSans-43" d="M 4122 4306 
L 4122 3641 
Q 3803 3938 3442 4084 
Q 3081 4231 2675 4231 
Q 1875 4231 1450 3742 
Q 1025 3253 1025 2328 
Q 1025 1406 1450 917 
Q 1875 428 2675 428 
Q 3081 428 3442 575 
Q 3803 722 4122 1019 
L 4122 359 
Q 3791 134 3420 21 
Q 3050 -91 2638 -91 
Q 1578 -91 968 557 
Q 359 1206 359 2328 
Q 359 3453 968 4101 
Q 1578 4750 2638 4750 
Q 3056 4750 3426 4639 
Q 3797 4528 4122 4306 
z
" transform="scale(0.015625)"/>
       <path id="DejaVuSans-6f" d="M 1959 3097 
Q 1497 3097 1228 2736 
Q 959 2375 959 1747 
Q 959 1119 1226 758 
Q 1494 397 1959 397 
Q 2419 397 2687 759 
Q 2956 1122 2956 1747 
Q 2956 2369 2687 2733 
Q 2419 3097 1959 3097 
z
M 1959 3584 
Q 2709 3584 3137 3096 
Q 3566 2609 3566 1747 
Q 3566 888 3137 398 
Q 2709 -91 1959 -91 
Q 1206 -91 779 398 
Q 353 888 353 1747 
Q 353 2609 779 3096 
Q 1206 3584 1959 3584 
z
" transform="scale(0.015625)"/>
       <path id="DejaVuSans-75" d="M 544 1381 
L 544 3500 
L 1119 3500 
L 1119 1403 
Q 1119 906 1312 657 
Q 1506 409 1894 409 
Q 2359 409 2629 706 
Q 2900 1003 2900 1516 
L 2900 3500 
L 3475 3500 
L 3475 0 
L 2900 0 
L 2900 538 
Q 2691 219 2414 64 
Q 2138 -91 1772 -91 
Q 1169 -91 856 284 
Q 544 659 544 1381 
z
M 1991 3584 
L 1991 3584 
z
" transform="scale(0.015625)"/>
       <path id="DejaVuSans-6e" d="M 3513 2113 
L 3513 0 
L 2938 0 
L 2938 2094 
Q 2938 2591 2744 2837 
Q 2550 3084 2163 3084 
Q 1697 3084 1428 2787 
Q 1159 2491 1159 1978 
L 1159 0 
L 581 0 
L 581 3500 
L 1159 3500 
L 1159 2956 
Q 1366 3272 1645 3428 
Q 1925 3584 2291 3584 
Q 2894 3584 3203 3211 
Q 3513 2838 3513 2113 
z
" transform="scale(0.015625)"/>
       <path id="DejaVuSans-74" d="M 1172 4494 
L 1172 3500 
L 2356 3500 
L 2356 3053 
L 1172 3053 
L 1172 1153 
Q 1172 725 1289 603 
Q 1406 481 1766 481 
L 2356 481 
L 2356 0 
L 1766 0 
Q 1100 0 847 248 
Q 594 497 594 1153 
L 594 3053 
L 172 3053 
L 172 3500 
L 594 3500 
L 594 4494 
L 1172 4494 
z
" transform="scale(0.015625)"/>
      </defs>
      <use xlink:href="#DejaVuSans-43"/>
      <use xlink:href="#DejaVuSans-6f" x="69.824219"/>
      <use xlink:href="#DejaVuSans-75" x="131.005859"/>
      <use xlink:href="#DejaVuSans-6e" x="194.384766"/>
      <use xlink:href="#DejaVuSans-74" x="257.763672"/>
     </g>
    </g>
   </g>
   <g id="patch_3">
    <path d="M 138.436364 576.72 
L 150.610909 576.72 
L 150.610909 576.50562 
L 138.436364 576.50562 
z
" clip-path="url(#pd88ce653b0)" style="fill: #782c3f; fill-opacity: 0.5; stroke: #ffffff; stroke-linejoin: miter"/>
   </g>
   <g id="patch_4">
    <path d="M 150.610909 576.72 
L 162.785455 576.72 
L 162.785455 575.835683 
L 150.610909 575.835683 
z
" clip-path="url(#pd88ce653b0)" style="fill: #782c3f; fill-opacity: 0.5; stroke: #ffffff; stroke-linejoin: miter"/>
   </g>
   <g id="patch_5">
    <path d="M 162.785455 576.72 
L 174.96 576.72 
L 174.96 572.753971 
L 162.785455 572.753971 
z
" clip-path="url(#pd88ce653b0)" style="fill: #782c3f; fill-opacity: 0.5; stroke: #ffffff; stroke-linejoin: miter"/>
   </g>
   <g id="patch_6">
    <path d="M 174.96 576.72 
L 187.134545 576.72 
L 187.134545 560.319932 
L 174.96 560.319932 
z
" clip-path="url(#pd88ce653b0)" style="fill: #782c3f; fill-opacity: 0.5; stroke: #ffffff; stroke-linejoin: miter"/>
   </g>
   <g id="patch_7">
    <path d="M 187.134545 576.72 
L 199.309091 576.72 
L 199.309091 506.61775 
L 187.134545 506.61775 
z
" clip-path="url(#pd88ce653b0)" style="fill: #782c3f; fill-opacity: 0.5; stroke: #ffffff; stroke-linejoin: miter"/>
   </g>
   <g id="patch_8">
    <path d="M 199.309091 576.72 
L 211.483636 576.72 
L 211.483636 437.90897 
L 199.309091 437.90897 
z
" clip-path="url(#pd88ce653b0)" style="fill: #782c3f; fill-opacity: 0.5; stroke: #ffffff; stroke-linejoin: miter"/>
   </g>
   <g id="patch_9">
    <path d="M 211.483636 576.72 
L 223.658182 576.72 
L 223.658182 324.394776 
L 211.483636 324.394776 
z
" clip-path="url(#pd88ce653b0)" style="fill: #782c3f; fill-opacity: 0.5; stroke: #ffffff; stroke-linejoin: miter"/>
   </g>
   <g id="patch_10">
    <path d="M 223.658182 576.72 
L 235.832727 576.72 
L 235.832727 218.303488 
L 223.658182 218.303488 
z
" clip-path="url(#pd88ce653b0)" style="fill: #782c3f; fill-opacity: 0.5; stroke: #ffffff; stroke-linejoin: miter"/>
   </g>
   <g id="patch_11">
    <path d="M 235.832727 576.72 
L 248.007273 576.72 
L 248.007273 149.273138 
L 235.832727 149.273138 
z
" clip-path="url(#pd88ce653b0)" style="fill: #782c3f; fill-opacity: 0.5; stroke: #ffffff; stroke-linejoin: miter"/>
   </g>
   <g id="patch_12">
    <path d="M 248.007273 576.72 
L 260.181818 576.72 
L 260.181818 101.52 
L 248.007273 101.52 
z
" clip-path="url(#pd88ce653b0)" style="fill: #782c3f; fill-opacity: 0.5; stroke: #ffffff; stroke-linejoin: miter"/>
   </g>
   <g id="patch_13">
    <path d="M 260.181818 576.72 
L 272.356364 576.72 
L 272.356364 193.006652 
L 260.181818 193.006652 
z
" clip-path="url(#pd88ce653b0)" style="fill: #782c3f; fill-opacity: 0.5; stroke: #ffffff; stroke-linejoin: miter"/>
   </g>
   <g id="patch_14">
    <path d="M 272.356364 576.72 
L 284.530909 576.72 
L 284.530909 330.799377 
L 272.356364 330.799377 
z
" clip-path="url(#pd88ce653b0)" style="fill: #782c3f; fill-opacity: 0.5; stroke: #ffffff; stroke-linejoin: miter"/>
   </g>
   <g id="patch_15">
    <path d="M 284.530909 576.72 
L 296.705455 576.72 
L 296.705455 422.687992 
L 284.530909 422.687992 
z
" clip-path="url(#pd88ce653b0)" style="fill: #782c3f; fill-opacity: 0.5; stroke: #ffffff; stroke-linejoin: miter"/>
   </g>
   <g id="patch_16">
    <path d="M 296.705455 576.72 
L 308.88 576.72 
L 308.88 492.629457 
L 296.705455 492.629457 
z
" clip-path="url(#pd88ce653b0)" style="fill: #782c3f; fill-opacity: 0.5; stroke: #ffffff; stroke-linejoin: miter"/>
   </g>
   <g id="patch_17">
    <path d="M 308.88 576.72 
L 321.054545 576.72 
L 321.054545 536.845326 
L 308.88 536.845326 
z
" clip-path="url(#pd88ce653b0)" style="fill: #782c3f; fill-opacity: 0.5; stroke: #ffffff; stroke-linejoin: miter"/>
   </g>
   <g id="patch_18">
    <path d="M 321.054545 576.72 
L 333.229091 576.72 
L 333.229091 556.246713 
L 321.054545 556.246713 
z
" clip-path="url(#pd88ce653b0)" style="fill: #782c3f; fill-opacity: 0.5; stroke: #ffffff; stroke-linejoin: miter"/>
   </g>
   <g id="patch_19">
    <path d="M 333.229091 576.72 
L 345.403636 576.72 
L 345.403636 571.280108 
L 333.229091 571.280108 
z
" clip-path="url(#pd88ce653b0)" style="fill: #782c3f; fill-opacity: 0.5; stroke: #ffffff; stroke-linejoin: miter"/>
   </g>
   <g id="patch_20">
    <path d="M 345.403636 576.72 
L 357.578182 576.72 
L 357.578182 575.11215 
L 345.403636 575.11215 
z
" clip-path="url(#pd88ce653b0)" style="fill: #782c3f; fill-opacity: 0.5; stroke: #ffffff; stroke-linejoin: miter"/>
   </g>
   <g id="patch_21">
    <path d="M 357.578182 576.72 
L 369.752727 576.72 
L 369.752727 576.07686 
L 357.578182 576.07686 
z
" clip-path="url(#pd88ce653b0)" style="fill: #782c3f; fill-opacity: 0.5; stroke: #ffffff; stroke-linejoin: miter"/>
   </g>
   <g id="patch_22">
    <path d="M 369.752727 576.72 
L 381.927273 576.72 
L 381.927273 576.559215 
L 369.752727 576.559215 
z
" clip-path="url(#pd88ce653b0)" style="fill: #782c3f; fill-opacity: 0.5; stroke: #ffffff; stroke-linejoin: miter"/>
   </g>
   <g id="patch_23">
    <path d="M 381.927273 576.72 
L 394.101818 576.72 
L 394.101818 576.693203 
L 381.927273 576.693203 
z
" clip-path="url(#pd88ce653b0)" style="fill: #782c3f; fill-opacity: 0.5; stroke: #ffffff; stroke-linejoin: miter"/>
   </g>
   <g id="patch_24">
    <path d="M 394.101818 576.72 
L 406.276364 576.72 
L 406.276364 576.72 
L 394.101818 576.72 
z
" clip-path="url(#pd88ce653b0)" style="fill: #782c3f; fill-opacity: 0.5; stroke: #ffffff; stroke-linejoin: miter"/>
   </g>
   <g id="patch_25">
    <path d="M 406.276364 576.72 
L 418.450909 576.72 
L 418.450909 576.72 
L 406.276364 576.72 
z
" clip-path="url(#pd88ce653b0)" style="fill: #782c3f; fill-opacity: 0.5; stroke: #ffffff; stroke-linejoin: miter"/>
   </g>
   <g id="patch_26">
    <path d="M 418.450909 576.72 
L 430.625455 576.72 
L 430.625455 576.72 
L 418.450909 576.72 
z
" clip-path="url(#pd88ce653b0)" style="fill: #782c3f; fill-opacity: 0.5; stroke: #ffffff; stroke-linejoin: miter"/>
   </g>
   <g id="patch_27">
    <path d="M 430.625455 576.72 
L 442.8 576.72 
L 442.8 576.72 
L 430.625455 576.72 
z
" clip-path="url(#pd88ce653b0)" style="fill: #782c3f; fill-opacity: 0.5; stroke: #ffffff; stroke-linejoin: miter"/>
   </g>
   <g id="patch_28">
    <path d="M 442.8 576.72 
L 454.974545 576.72 
L 454.974545 576.72 
L 442.8 576.72 
z
" clip-path="url(#pd88ce653b0)" style="fill: #782c3f; fill-opacity: 0.5; stroke: #ffffff; stroke-linejoin: miter"/>
   </g>
   <g id="patch_29">
    <path d="M 454.974545 576.72 
L 467.149091 576.72 
L 467.149091 576.72 
L 454.974545 576.72 
z
" clip-path="url(#pd88ce653b0)" style="fill: #782c3f; fill-opacity: 0.5; stroke: #ffffff; stroke-linejoin: miter"/>
   </g>
   <g id="patch_30">
    <path d="M 467.149091 576.72 
L 479.323636 576.72 
L 479.323636 576.72 
L 467.149091 576.72 
z
" clip-path="url(#pd88ce653b0)" style="fill: #782c3f; fill-opacity: 0.5; stroke: #ffffff; stroke-linejoin: miter"/>
   </g>
   <g id="patch_31">
    <path d="M 479.323636 576.72 
L 491.498182 576.72 
L 491.498182 576.72 
L 479.323636 576.72 
z
" clip-path="url(#pd88ce653b0)" style="fill: #782c3f; fill-opacity: 0.5; stroke: #ffffff; stroke-linejoin: miter"/>
   </g>
   <g id="patch_32">
    <path d="M 491.498182 576.72 
L 503.672727 576.72 
L 503.672727 576.72 
L 491.498182 576.72 
z
" clip-path="url(#pd88ce653b0)" style="fill: #782c3f; fill-opacity: 0.5; stroke: #ffffff; stroke-linejoin: miter"/>
   </g>
   <g id="patch_33">
    <path d="M 503.672727 576.72 
L 515.847273 576.72 
L 515.847273 576.72 
L 503.672727 576.72 
z
" clip-path="url(#pd88ce653b0)" style="fill: #782c3f; fill-opacity: 0.5; stroke: #ffffff; stroke-linejoin: miter"/>
   </g>
   <g id="patch_34">
    <path d="M 515.847273 576.72 
L 528.021818 576.72 
L 528.021818 576.72 
L 515.847273 576.72 
z
" clip-path="url(#pd88ce653b0)" style="fill: #782c3f; fill-opacity: 0.5; stroke: #ffffff; stroke-linejoin: miter"/>
   </g>
   <g id="patch_35">
    <path d="M 528.021818 576.72 
L 540.196364 576.72 
L 540.196364 576.72 
L 528.021818 576.72 
z
" clip-path="url(#pd88ce653b0)" style="fill: #782c3f; fill-opacity: 0.5; stroke: #ffffff; stroke-linejoin: miter"/>
   </g>
   <g id="patch_36">
    <path d="M 540.196364 576.72 
L 552.370909 576.72 
L 552.370909 576.72 
L 540.196364 576.72 
z
" clip-path="url(#pd88ce653b0)" style="fill: #782c3f; fill-opacity: 0.5; stroke: #ffffff; stroke-linejoin: miter"/>
   </g>
   <g id="patch_37">
    <path d="M 552.370909 576.72 
L 564.545455 576.72 
L 564.545455 576.72 
L 552.370909 576.72 
z
" clip-path="url(#pd88ce653b0)" style="fill: #782c3f; fill-opacity: 0.5; stroke: #ffffff; stroke-linejoin: miter"/>
   </g>
   <g id="patch_38">
    <path d="M 564.545455 576.72 
L 576.72 576.72 
L 576.72 576.72 
L 564.545455 576.72 
z
" clip-path="url(#pd88ce653b0)" style="fill: #782c3f; fill-opacity: 0.5; stroke: #ffffff; stroke-linejoin: miter"/>
   </g>
   <g id="patch_39">
    <path d="M 576.72 576.72 
L 588.894545 576.72 
L 588.894545 576.72 
L 576.72 576.72 
z
" clip-path="url(#pd88ce653b0)" style="fill: #782c3f; fill-opacity: 0.5; stroke: #ffffff; stroke-linejoin: miter"/>
   </g>
   <g id="patch_40">
    <path d="M 588.894545 576.72 
L 601.069091 576.72 
L 601.069091 576.72 
L 588.894545 576.72 
z
" clip-path="url(#pd88ce653b0)" style="fill: #782c3f; fill-opacity: 0.5; stroke: #ffffff; stroke-linejoin: miter"/>
   </g>
   <g id="patch_41">
    <path d="M 601.069091 576.72 
L 613.243636 576.72 
L 613.243636 576.72 
L 601.069091 576.72 
z
" clip-path="url(#pd88ce653b0)" style="fill: #782c3f; fill-opacity: 0.5; stroke: #ffffff; stroke-linejoin: miter"/>
   </g>
   <g id="patch_42">
    <path d="M 613.243636 576.72 
L 625.418182 576.72 
L 625.418182 576.72 
L 613.243636 576.72 
z
" clip-path="url(#pd88ce653b0)" style="fill: #782c3f; fill-opacity: 0.5; stroke: #ffffff; stroke-linejoin: miter"/>
   </g>
   <g id="patch_43">
    <path d="M 625.418182 576.72 
L 637.592727 576.72 
L 637.592727 576.72 
L 625.418182 576.72 
z
" clip-path="url(#pd88ce653b0)" style="fill: #782c3f; fill-opacity: 0.5; stroke: #ffffff; stroke-linejoin: miter"/>
   </g>
   <g id="patch_44">
    <path d="M 637.592727 576.72 
L 649.767273 576.72 
L 649.767273 576.72 
L 637.592727 576.72 
z
" clip-path="url(#pd88ce653b0)" style="fill: #782c3f; fill-opacity: 0.5; stroke: #ffffff; stroke-linejoin: miter"/>
   </g>
   <g id="patch_45">
    <path d="M 649.767273 576.72 
L 661.941818 576.72 
L 661.941818 576.72 
L 649.767273 576.72 
z
" clip-path="url(#pd88ce653b0)" style="fill: #782c3f; fill-opacity: 0.5; stroke: #ffffff; stroke-linejoin: miter"/>
   </g>
   <g id="patch_46">
    <path d="M 661.941818 576.72 
L 674.116364 576.72 
L 674.116364 576.72 
L 661.941818 576.72 
z
" clip-path="url(#pd88ce653b0)" style="fill: #782c3f; fill-opacity: 0.5; stroke: #ffffff; stroke-linejoin: miter"/>
   </g>
   <g id="patch_47">
    <path d="M 674.116364 576.72 
L 686.290909 576.72 
L 686.290909 576.72 
L 674.116364 576.72 
z
" clip-path="url(#pd88ce653b0)" style="fill: #782c3f; fill-opacity: 0.5; stroke: #ffffff; stroke-linejoin: miter"/>
   </g>
   <g id="patch_48">
    <path d="M 686.290909 576.72 
L 698.465455 576.72 
L 698.465455 576.72 
L 686.290909 576.72 
z
" clip-path="url(#pd88ce653b0)" style="fill: #782c3f; fill-opacity: 0.5; stroke: #ffffff; stroke-linejoin: miter"/>
   </g>
   <g id="patch_49">
    <path d="M 698.465455 576.72 
L 710.64 576.72 
L 710.64 576.72 
L 698.465455 576.72 
z
" clip-path="url(#pd88ce653b0)" style="fill: #782c3f; fill-opacity: 0.5; stroke: #ffffff; stroke-linejoin: miter"/>
   </g>
   <g id="patch_50">
    <path d="M 710.64 576.72 
L 722.814545 576.72 
L 722.814545 576.72 
L 710.64 576.72 
z
" clip-path="url(#pd88ce653b0)" style="fill: #782c3f; fill-opacity: 0.5; stroke: #ffffff; stroke-linejoin: miter"/>
   </g>
   <g id="patch_51">
    <path d="M 722.814545 576.72 
L 734.989091 576.72 
L 734.989091 576.72 
L 722.814545 576.72 
z
" clip-path="url(#pd88ce653b0)" style="fill: #782c3f; fill-opacity: 0.5; stroke: #ffffff; stroke-linejoin: miter"/>
   </g>
   <g id="patch_52">
    <path d="M 734.989091 576.72 
L 747.163636 576.72 
L 747.163636 576.72 
L 734.989091 576.72 
z
" clip-path="url(#pd88ce653b0)" style="fill: #782c3f; fill-opacity: 0.5; stroke: #ffffff; stroke-linejoin: miter"/>
   </g>
   <g id="patch_53">
    <path d="M 138.436364 576.72 
L 150.610909 576.72 
L 150.610909 576.72 
L 138.436364 576.72 
z
" clip-path="url(#pd88ce653b0)" style="fill: #444282; fill-opacity: 0.5; stroke: #ffffff; stroke-linejoin: miter"/>
   </g>
   <g id="patch_54">
    <path d="M 150.610909 576.72 
L 162.785455 576.72 
L 162.785455 576.72 
L 150.610909 576.72 
z
" clip-path="url(#pd88ce653b0)" style="fill: #444282; fill-opacity: 0.5; stroke: #ffffff; stroke-linejoin: miter"/>
   </g>
   <g id="patch_55">
    <path d="M 162.785455 576.72 
L 174.96 576.72 
L 174.96 576.72 
L 162.785455 576.72 
z
" clip-path="url(#pd88ce653b0)" style="fill: #444282; fill-opacity: 0.5; stroke: #ffffff; stroke-linejoin: miter"/>
   </g>
   <g id="patch_56">
    <path d="M 174.96 576.72 
L 187.134545 576.72 
L 187.134545 576.72 
L 174.96 576.72 
z
" clip-path="url(#pd88ce653b0)" style="fill: #444282; fill-opacity: 0.5; stroke: #ffffff; stroke-linejoin: miter"/>
   </g>
   <g id="patch_57">
    <path d="M 187.134545 576.72 
L 199.309091 576.72 
L 199.309091 576.72 
L 187.134545 576.72 
z
" clip-path="url(#pd88ce653b0)" style="fill: #444282; fill-opacity: 0.5; stroke: #ffffff; stroke-linejoin: miter"/>
   </g>
   <g id="patch_58">
    <path d="M 199.309091 576.72 
L 211.483636 576.72 
L 211.483636 576.72 
L 199.309091 576.72 
z
" clip-path="url(#pd88ce653b0)" style="fill: #444282; fill-opacity: 0.5; stroke: #ffffff; stroke-linejoin: miter"/>
   </g>
   <g id="patch_59">
    <path d="M 211.483636 576.72 
L 223.658182 576.72 
L 223.658182 576.72 
L 211.483636 576.72 
z
" clip-path="url(#pd88ce653b0)" style="fill: #444282; fill-opacity: 0.5; stroke: #ffffff; stroke-linejoin: miter"/>
   </g>
   <g id="patch_60">
    <path d="M 223.658182 576.72 
L 235.832727 576.72 
L 235.832727 576.72 
L 223.658182 576.72 
z
" clip-path="url(#pd88ce653b0)" style="fill: #444282; fill-opacity: 0.5; stroke: #ffffff; stroke-linejoin: miter"/>
   </g>
   <g id="patch_61">
    <path d="M 235.832727 576.72 
L 248.007273 576.72 
L 248.007273 576.72 
L 235.832727 576.72 
z
" clip-path="url(#pd88ce653b0)" style="fill: #444282; fill-opacity: 0.5; stroke: #ffffff; stroke-linejoin: miter"/>
   </g>
   <g id="patch_62">
    <path d="M 248.007273 576.72 
L 260.181818 576.72 
L 260.181818 576.72 
L 248.007273 576.72 
z
" clip-path="url(#pd88ce653b0)" style="fill: #444282; fill-opacity: 0.5; stroke: #ffffff; stroke-linejoin: miter"/>
   </g>
   <g id="patch_63">
    <path d="M 260.181818 576.72 
L 272.356364 576.72 
L 272.356364 576.72 
L 260.181818 576.72 
z
" clip-path="url(#pd88ce653b0)" style="fill: #444282; fill-opacity: 0.5; stroke: #ffffff; stroke-linejoin: miter"/>
   </g>
   <g id="patch_64">
    <path d="M 272.356364 576.72 
L 284.530909 576.72 
L 284.530909 576.72 
L 272.356364 576.72 
z
" clip-path="url(#pd88ce653b0)" style="fill: #444282; fill-opacity: 0.5; stroke: #ffffff; stroke-linejoin: miter"/>
   </g>
   <g id="patch_65">
    <path d="M 284.530909 576.72 
L 296.705455 576.72 
L 296.705455 576.72 
L 284.530909 576.72 
z
" clip-path="url(#pd88ce653b0)" style="fill: #444282; fill-opacity: 0.5; stroke: #ffffff; stroke-linejoin: miter"/>
   </g>
   <g id="patch_66">
    <path d="M 296.705455 576.72 
L 308.88 576.72 
L 308.88 576.72 
L 296.705455 576.72 
z
" clip-path="url(#pd88ce653b0)" style="fill: #444282; fill-opacity: 0.5; stroke: #ffffff; stroke-linejoin: miter"/>
   </g>
   <g id="patch_67">
    <path d="M 308.88 576.72 
L 321.054545 576.72 
L 321.054545 576.72 
L 308.88 576.72 
z
" clip-path="url(#pd88ce653b0)" style="fill: #444282; fill-opacity: 0.5; stroke: #ffffff; stroke-linejoin: miter"/>
   </g>
   <g id="patch_68">
    <path d="M 321.054545 576.72 
L 333.229091 576.72 
L 333.229091 576.72 
L 321.054545 576.72 
z
" clip-path="url(#pd88ce653b0)" style="fill: #444282; fill-opacity: 0.5; stroke: #ffffff; stroke-linejoin: miter"/>
   </g>
   <g id="patch_69">
    <path d="M 333.229091 576.72 
L 345.403636 576.72 
L 345.403636 576.72 
L 333.229091 576.72 
z
" clip-path="url(#pd88ce653b0)" style="fill: #444282; fill-opacity: 0.5; stroke: #ffffff; stroke-linejoin: miter"/>
   </g>
   <g id="patch_70">
    <path d="M 345.403636 576.72 
L 357.578182 576.72 
L 357.578182 576.72 
L 345.403636 576.72 
z
" clip-path="url(#pd88ce653b0)" style="fill: #444282; fill-opacity: 0.5; stroke: #ffffff; stroke-linejoin: miter"/>
   </g>
   <g id="patch_71">
    <path d="M 357.578182 576.72 
L 369.752727 576.72 
L 369.752727 576.639608 
L 357.578182 576.639608 
z
" clip-path="url(#pd88ce653b0)" style="fill: #444282; fill-opacity: 0.5; stroke: #ffffff; stroke-linejoin: miter"/>
   </g>
   <g id="patch_72">
    <path d="M 369.752727 576.72 
L 381.927273 576.72 
L 381.927273 576.318038 
L 369.752727 576.318038 
z
" clip-path="url(#pd88ce653b0)" style="fill: #444282; fill-opacity: 0.5; stroke: #ffffff; stroke-linejoin: miter"/>
   </g>
   <g id="patch_73">
    <path d="M 381.927273 576.72 
L 394.101818 576.72 
L 394.101818 576.050063 
L 381.927273 576.050063 
z
" clip-path="url(#pd88ce653b0)" style="fill: #444282; fill-opacity: 0.5; stroke: #ffffff; stroke-linejoin: miter"/>
   </g>
   <g id="patch_74">
    <path d="M 394.101818 576.72 
L 406.276364 576.72 
L 406.276364 575.353328 
L 394.101818 575.353328 
z
" clip-path="url(#pd88ce653b0)" style="fill: #444282; fill-opacity: 0.5; stroke: #ffffff; stroke-linejoin: miter"/>
   </g>
   <g id="patch_75">
    <path d="M 406.276364 576.72 
L 418.450909 576.72 
L 418.450909 572.030438 
L 406.276364 572.030438 
z
" clip-path="url(#pd88ce653b0)" style="fill: #444282; fill-opacity: 0.5; stroke: #ffffff; stroke-linejoin: miter"/>
   </g>
   <g id="patch_76">
    <path d="M 418.450909 576.72 
L 430.625455 576.72 
L 430.625455 566.617344 
L 418.450909 566.617344 
z
" clip-path="url(#pd88ce653b0)" style="fill: #444282; fill-opacity: 0.5; stroke: #ffffff; stroke-linejoin: miter"/>
   </g>
   <g id="patch_77">
    <path d="M 430.625455 576.72 
L 442.8 576.72 
L 442.8 556.353903 
L 430.625455 556.353903 
z
" clip-path="url(#pd88ce653b0)" style="fill: #444282; fill-opacity: 0.5; stroke: #ffffff; stroke-linejoin: miter"/>
   </g>
   <g id="patch_78">
    <path d="M 442.8 576.72 
L 454.974545 576.72 
L 454.974545 524.840047 
L 442.8 524.840047 
z
" clip-path="url(#pd88ce653b0)" style="fill: #444282; fill-opacity: 0.5; stroke: #ffffff; stroke-linejoin: miter"/>
   </g>
   <g id="patch_79">
    <path d="M 454.974545 576.72 
L 467.149091 576.72 
L 467.149091 498.953666 
L 454.974545 498.953666 
z
" clip-path="url(#pd88ce653b0)" style="fill: #444282; fill-opacity: 0.5; stroke: #ffffff; stroke-linejoin: miter"/>
   </g>
   <g id="patch_80">
    <path d="M 467.149091 576.72 
L 479.323636 576.72 
L 479.323636 458.516244 
L 467.149091 458.516244 
z
" clip-path="url(#pd88ce653b0)" style="fill: #444282; fill-opacity: 0.5; stroke: #ffffff; stroke-linejoin: miter"/>
   </g>
   <g id="patch_81">
    <path d="M 479.323636 576.72 
L 491.498182 576.72 
L 491.498182 409.316041 
L 479.323636 409.316041 
z
" clip-path="url(#pd88ce653b0)" style="fill: #444282; fill-opacity: 0.5; stroke: #ffffff; stroke-linejoin: miter"/>
   </g>
   <g id="patch_82">
    <path d="M 491.498182 576.72 
L 503.672727 576.72 
L 503.672727 317.481022 
L 491.498182 317.481022 
z
" clip-path="url(#pd88ce653b0)" style="fill: #444282; fill-opacity: 0.5; stroke: #ffffff; stroke-linejoin: miter"/>
   </g>
   <g id="patch_83">
    <path d="M 503.672727 576.72 
L 515.847273 576.72 
L 515.847273 317.748997 
L 503.672727 317.748997 
z
" clip-path="url(#pd88ce653b0)" style="fill: #444282; fill-opacity: 0.5; stroke: #ffffff; stroke-linejoin: miter"/>
   </g>
   <g id="patch_84">
    <path d="M 515.847273 576.72 
L 528.021818 576.72 
L 528.021818 298.910357 
L 515.847273 298.910357 
z
" clip-path="url(#pd88ce653b0)" style="fill: #444282; fill-opacity: 0.5; stroke: #ffffff; stroke-linejoin: miter"/>
   </g>
   <g id="patch_85">
    <path d="M 528.021818 576.72 
L 540.196364 576.72 
L 540.196364 291.675033 
L 528.021818 291.675033 
z
" clip-path="url(#pd88ce653b0)" style="fill: #444282; fill-opacity: 0.5; stroke: #ffffff; stroke-linejoin: miter"/>
   </g>
   <g id="patch_86">
    <path d="M 540.196364 576.72 
L 552.370909 576.72 
L 552.370909 308.959418 
L 540.196364 308.959418 
z
" clip-path="url(#pd88ce653b0)" style="fill: #444282; fill-opacity: 0.5; stroke: #ffffff; stroke-linejoin: miter"/>
   </g>
   <g id="patch_87">
    <path d="M 552.370909 576.72 
L 564.545455 576.72 
L 564.545455 335.998092 
L 552.370909 335.998092 
z
" clip-path="url(#pd88ce653b0)" style="fill: #444282; fill-opacity: 0.5; stroke: #ffffff; stroke-linejoin: miter"/>
   </g>
   <g id="patch_88">
    <path d="M 564.545455 576.72 
L 576.72 576.72 
L 576.72 348.834092 
L 564.545455 348.834092 
z
" clip-path="url(#pd88ce653b0)" style="fill: #444282; fill-opacity: 0.5; stroke: #ffffff; stroke-linejoin: miter"/>
   </g>
   <g id="patch_89">
    <path d="M 576.72 576.72 
L 588.894545 576.72 
L 588.894545 436.783475 
L 576.72 436.783475 
z
" clip-path="url(#pd88ce653b0)" style="fill: #444282; fill-opacity: 0.5; stroke: #ffffff; stroke-linejoin: miter"/>
   </g>
   <g id="patch_90">
    <path d="M 588.894545 576.72 
L 601.069091 576.72 
L 601.069091 474.62154 
L 588.894545 474.62154 
z
" clip-path="url(#pd88ce653b0)" style="fill: #444282; fill-opacity: 0.5; stroke: #ffffff; stroke-linejoin: miter"/>
   </g>
   <g id="patch_91">
    <path d="M 601.069091 576.72 
L 613.243636 576.72 
L 613.243636 508.922335 
L 601.069091 508.922335 
z
" clip-path="url(#pd88ce653b0)" style="fill: #444282; fill-opacity: 0.5; stroke: #ffffff; stroke-linejoin: miter"/>
   </g>
   <g id="patch_92">
    <path d="M 613.243636 576.72 
L 625.418182 576.72 
L 625.418182 528.618494 
L 613.243636 528.618494 
z
" clip-path="url(#pd88ce653b0)" style="fill: #444282; fill-opacity: 0.5; stroke: #ffffff; stroke-linejoin: miter"/>
   </g>
   <g id="patch_93">
    <path d="M 625.418182 576.72 
L 637.592727 576.72 
L 637.592727 552.280683 
L 625.418182 552.280683 
z
" clip-path="url(#pd88ce653b0)" style="fill: #444282; fill-opacity: 0.5; stroke: #ffffff; stroke-linejoin: miter"/>
   </g>
   <g id="patch_94">
    <path d="M 637.592727 576.72 
L 649.767273 576.72 
L 649.767273 563.374847 
L 637.592727 563.374847 
z
" clip-path="url(#pd88ce653b0)" style="fill: #444282; fill-opacity: 0.5; stroke: #ffffff; stroke-linejoin: miter"/>
   </g>
   <g id="patch_95">
    <path d="M 649.767273 576.72 
L 661.941818 576.72 
L 661.941818 569.645461 
L 649.767273 569.645461 
z
" clip-path="url(#pd88ce653b0)" style="fill: #444282; fill-opacity: 0.5; stroke: #ffffff; stroke-linejoin: miter"/>
   </g>
   <g id="patch_96">
    <path d="M 661.941818 576.72 
L 674.116364 576.72 
L 674.116364 572.941553 
L 661.941818 572.941553 
z
" clip-path="url(#pd88ce653b0)" style="fill: #444282; fill-opacity: 0.5; stroke: #ffffff; stroke-linejoin: miter"/>
   </g>
   <g id="patch_97">
    <path d="M 674.116364 576.72 
L 686.290909 576.72 
L 686.290909 574.951365 
L 674.116364 574.951365 
z
" clip-path="url(#pd88ce653b0)" style="fill: #444282; fill-opacity: 0.5; stroke: #ffffff; stroke-linejoin: miter"/>
   </g>
   <g id="patch_98">
    <path d="M 686.290909 576.72 
L 698.465455 576.72 
L 698.465455 576.210848 
L 686.290909 576.210848 
z
" clip-path="url(#pd88ce653b0)" style="fill: #444282; fill-opacity: 0.5; stroke: #ffffff; stroke-linejoin: miter"/>
   </g>
   <g id="patch_99">
    <path d="M 698.465455 576.72 
L 710.64 576.72 
L 710.64 576.371633 
L 698.465455 576.371633 
z
" clip-path="url(#pd88ce653b0)" style="fill: #444282; fill-opacity: 0.5; stroke: #ffffff; stroke-linejoin: miter"/>
   </g>
   <g id="patch_100">
    <path d="M 710.64 576.72 
L 722.814545 576.72 
L 722.814545 576.666405 
L 710.64 576.666405 
z
" clip-path="url(#pd88ce653b0)" style="fill: #444282; fill-opacity: 0.5; stroke: #ffffff; stroke-linejoin: miter"/>
   </g>
   <g id="patch_101">
    <path d="M 722.814545 576.72 
L 734.989091 576.72 
L 734.989091 576.639608 
L 722.814545 576.639608 
z
" clip-path="url(#pd88ce653b0)" style="fill: #444282; fill-opacity: 0.5; stroke: #ffffff; stroke-linejoin: miter"/>
   </g>
   <g id="patch_102">
    <path d="M 734.989091 576.72 
L 747.163636 576.72 
L 747.163636 576.666405 
L 734.989091 576.666405 
z
" clip-path="url(#pd88ce653b0)" style="fill: #444282; fill-opacity: 0.5; stroke: #ffffff; stroke-linejoin: miter"/>
   </g>
   <g id="line2d_16">
    <path d="M 138.436364 576.641595 
L 144.554226 576.65425 
L 156.78995 575.990565 
L 159.848881 575.562162 
L 165.966743 574.028503 
L 169.025674 572.694663 
L 172.084605 570.552922 
L 175.143536 567.603293 
L 178.202467 563.741307 
L 181.261398 558.460932 
L 184.320329 551.055883 
L 187.37926 541.254482 
L 190.438191 529.975199 
L 193.497122 516.872854 
L 196.556053 500.650748 
L 199.614984 481.110583 
L 202.673915 458.624867 
L 205.732846 437.425725 
L 208.791777 413.120421 
L 214.909639 346.823828 
L 217.96857 317.081168 
L 224.086432 255.072738 
L 230.204294 199.009179 
L 233.263225 173.899309 
L 236.322156 155.033453 
L 239.381087 141.859522 
L 242.440018 131.421363 
L 245.498949 121.501905 
L 248.55788 118.956854 
L 251.616811 123.354704 
L 254.675742 131.561785 
L 257.734673 143.893282 
L 260.793604 161.84372 
L 263.852535 187.123059 
L 266.911466 213.422979 
L 269.970397 240.82377 
L 273.029328 266.917366 
L 276.088259 294.780048 
L 279.14719 325.273924 
L 282.206122 352.096122 
L 288.323984 398.131418 
L 294.441846 444.677574 
L 297.500777 464.045822 
L 300.559708 480.552588 
L 303.618639 495.874755 
L 306.67757 509.813675 
L 309.736501 521.910319 
L 312.795432 531.812168 
L 315.854363 540.10949 
L 318.913294 547.03586 
L 321.972225 552.218007 
L 328.090087 561.231572 
L 331.149018 564.201817 
L 334.207949 566.849589 
L 337.26688 569.309272 
L 340.325811 571.064135 
L 343.384742 572.672992 
L 346.443673 573.969082 
L 349.502604 574.716757 
L 352.561535 575.192204 
L 361.738328 576.127784 
L 367.85619 576.139422 
L 377.032983 576.661243 
L 692.102878 576.72 
L 747.163636 576.72 
L 747.163636 576.72 
" clip-path="url(#pd88ce653b0)" style="fill: none; stroke: #782c3f; stroke-width: 1.5; stroke-linecap: round"/>
   </g>
   <g id="line2d_17">
    <path d="M 138.436364 576.72 
L 364.797259 576.627472 
L 383.150845 576.186338 
L 392.327638 575.854637 
L 398.4455 575.391644 
L 401.504431 575.05613 
L 404.563362 574.529665 
L 407.622293 573.652595 
L 416.799086 570.220533 
L 419.858017 568.807879 
L 422.916948 566.793536 
L 425.975879 564.249215 
L 432.093741 558.75631 
L 435.152672 555.744724 
L 438.211603 551.945229 
L 441.270534 546.954216 
L 444.329466 540.986467 
L 447.388397 534.587199 
L 450.447328 527.750572 
L 453.506259 520.035428 
L 456.56519 511.423706 
L 459.624121 502.114734 
L 462.683052 492.064682 
L 465.741983 481.354624 
L 468.800914 470.143623 
L 474.918776 446.200525 
L 477.977707 433.528167 
L 484.095569 406.65955 
L 487.1545 393.965706 
L 499.390224 345.720071 
L 502.449155 334.713294 
L 505.508086 324.197475 
L 508.567017 314.437456 
L 511.625948 306.054516 
L 514.684879 299.346436 
L 517.74381 293.806258 
L 520.802741 289.085208 
L 523.861672 285.787475 
L 529.979534 281.743963 
L 533.038465 280.340477 
L 536.097396 281.402995 
L 539.156327 285.375709 
L 542.215258 291.347674 
L 545.274189 297.939243 
L 551.392051 309.693403 
L 554.450982 317.087553 
L 557.509913 327.254541 
L 563.627775 352.762282 
L 566.686706 364.197641 
L 569.745637 375.190133 
L 572.804568 387.122108 
L 578.92243 412.614555 
L 581.981361 425.856837 
L 585.040292 438.494542 
L 588.099223 449.496843 
L 597.276016 478.423829 
L 600.334947 488.213264 
L 603.393878 496.989802 
L 609.511741 512.685307 
L 612.570672 520.245521 
L 615.629603 527.03517 
L 618.688534 532.766923 
L 621.747465 537.528829 
L 633.983189 554.040475 
L 637.04212 557.532787 
L 640.101051 560.179834 
L 643.159982 562.323938 
L 646.218913 564.268467 
L 649.277844 566.063954 
L 652.336775 567.633532 
L 655.395706 568.946183 
L 661.513568 571.190953 
L 664.572499 572.058439 
L 673.749292 574.00801 
L 676.808223 574.611244 
L 679.867154 575.095154 
L 685.985016 575.663089 
L 695.161809 576.241662 
L 704.338602 576.418131 
L 716.574326 576.64834 
L 747.163636 576.660068 
L 747.163636 576.660068 
" clip-path="url(#pd88ce653b0)" style="fill: none; stroke: #444282; stroke-width: 1.5; stroke-linecap: round"/>
   </g>
   <g id="patch_103">
    <path d="M 108 576.72 
L 108 77.76 
" style="fill: none; stroke: #ffffff; stroke-width: 1.25; stroke-linejoin: miter; stroke-linecap: square"/>
   </g>
   <g id="patch_104">
    <path d="M 777.6 576.72 
L 777.6 77.76 
" style="fill: none; stroke: #ffffff; stroke-width: 1.25; stroke-linejoin: miter; stroke-linecap: square"/>
   </g>
   <g id="patch_105">
    <path d="M 108 576.72 
L 777.6 576.72 
" style="fill: none; stroke: #ffffff; stroke-width: 1.25; stroke-linejoin: miter; stroke-linecap: square"/>
   </g>
   <g id="patch_106">
    <path d="M 108 77.76 
L 777.6 77.76 
" style="fill: none; stroke: #ffffff; stroke-width: 1.25; stroke-linejoin: miter; stroke-linecap: square"/>
   </g>
   <g id="text_17">
    <!-- 1 channel reservation -->
    <g style="fill: #262626" transform="translate(333.796875 71.76) scale(0.2 -0.2)">
     <defs>
      <path id="DejaVuSans-20" transform="scale(0.015625)"/>
      <path id="DejaVuSans-63" d="M 3122 3366 
L 3122 2828 
Q 2878 2963 2633 3030 
Q 2388 3097 2138 3097 
Q 1578 3097 1268 2742 
Q 959 2388 959 1747 
Q 959 1106 1268 751 
Q 1578 397 2138 397 
Q 2388 397 2633 464 
Q 2878 531 3122 666 
L 3122 134 
Q 2881 22 2623 -34 
Q 2366 -91 2075 -91 
Q 1284 -91 818 406 
Q 353 903 353 1747 
Q 353 2603 823 3093 
Q 1294 3584 2113 3584 
Q 2378 3584 2631 3529 
Q 2884 3475 3122 3366 
z
" transform="scale(0.015625)"/>
      <path id="DejaVuSans-68" d="M 3513 2113 
L 3513 0 
L 2938 0 
L 2938 2094 
Q 2938 2591 2744 2837 
Q 2550 3084 2163 3084 
Q 1697 3084 1428 2787 
Q 1159 2491 1159 1978 
L 1159 0 
L 581 0 
L 581 4863 
L 1159 4863 
L 1159 2956 
Q 1366 3272 1645 3428 
Q 1925 3584 2291 3584 
Q 2894 3584 3203 3211 
Q 3513 2838 3513 2113 
z
" transform="scale(0.015625)"/>
      <path id="DejaVuSans-61" d="M 2194 1759 
Q 1497 1759 1228 1600 
Q 959 1441 959 1056 
Q 959 750 1161 570 
Q 1363 391 1709 391 
Q 2188 391 2477 730 
Q 2766 1069 2766 1631 
L 2766 1759 
L 2194 1759 
z
M 3341 1997 
L 3341 0 
L 2766 0 
L 2766 531 
Q 2569 213 2275 61 
Q 1981 -91 1556 -91 
Q 1019 -91 701 211 
Q 384 513 384 1019 
Q 384 1609 779 1909 
Q 1175 2209 1959 2209 
L 2766 2209 
L 2766 2266 
Q 2766 2663 2505 2880 
Q 2244 3097 1772 3097 
Q 1472 3097 1187 3025 
Q 903 2953 641 2809 
L 641 3341 
Q 956 3463 1253 3523 
Q 1550 3584 1831 3584 
Q 2591 3584 2966 3190 
Q 3341 2797 3341 1997 
z
" transform="scale(0.015625)"/>
      <path id="DejaVuSans-65" d="M 3597 1894 
L 3597 1613 
L 953 1613 
Q 991 1019 1311 708 
Q 1631 397 2203 397 
Q 2534 397 2845 478 
Q 3156 559 3463 722 
L 3463 178 
Q 3153 47 2828 -22 
Q 2503 -91 2169 -91 
Q 1331 -91 842 396 
Q 353 884 353 1716 
Q 353 2575 817 3079 
Q 1281 3584 2069 3584 
Q 2775 3584 3186 3129 
Q 3597 2675 3597 1894 
z
M 3022 2063 
Q 3016 2534 2758 2815 
Q 2500 3097 2075 3097 
Q 1594 3097 1305 2825 
Q 1016 2553 972 2059 
L 3022 2063 
z
" transform="scale(0.015625)"/>
      <path id="DejaVuSans-6c" d="M 603 4863 
L 1178 4863 
L 1178 0 
L 603 0 
L 603 4863 
z
" transform="scale(0.015625)"/>
      <path id="DejaVuSans-72" d="M 2631 2963 
Q 2534 3019 2420 3045 
Q 2306 3072 2169 3072 
Q 1681 3072 1420 2755 
Q 1159 2438 1159 1844 
L 1159 0 
L 581 0 
L 581 3500 
L 1159 3500 
L 1159 2956 
Q 1341 3275 1631 3429 
Q 1922 3584 2338 3584 
Q 2397 3584 2469 3576 
Q 2541 3569 2628 3553 
L 2631 2963 
z
" transform="scale(0.015625)"/>
      <path id="DejaVuSans-73" d="M 2834 3397 
L 2834 2853 
Q 2591 2978 2328 3040 
Q 2066 3103 1784 3103 
Q 1356 3103 1142 2972 
Q 928 2841 928 2578 
Q 928 2378 1081 2264 
Q 1234 2150 1697 2047 
L 1894 2003 
Q 2506 1872 2764 1633 
Q 3022 1394 3022 966 
Q 3022 478 2636 193 
Q 2250 -91 1575 -91 
Q 1294 -91 989 -36 
Q 684 19 347 128 
L 347 722 
Q 666 556 975 473 
Q 1284 391 1588 391 
Q 1994 391 2212 530 
Q 2431 669 2431 922 
Q 2431 1156 2273 1281 
Q 2116 1406 1581 1522 
L 1381 1569 
Q 847 1681 609 1914 
Q 372 2147 372 2553 
Q 372 3047 722 3315 
Q 1072 3584 1716 3584 
Q 2034 3584 2315 3537 
Q 2597 3491 2834 3397 
z
" transform="scale(0.015625)"/>
      <path id="DejaVuSans-76" d="M 191 3500 
L 800 3500 
L 1894 563 
L 2988 3500 
L 3597 3500 
L 2284 0 
L 1503 0 
L 191 3500 
z
" transform="scale(0.015625)"/>
      <path id="DejaVuSans-69" d="M 603 3500 
L 1178 3500 
L 1178 0 
L 603 0 
L 603 3500 
z
M 603 4863 
L 1178 4863 
L 1178 4134 
L 603 4134 
L 603 4863 
z
" transform="scale(0.015625)"/>
     </defs>
     <use xlink:href="#DejaVuSans-31"/>
     <use xlink:href="#DejaVuSans-20" x="63.623047"/>
     <use xlink:href="#DejaVuSans-63" x="95.410156"/>
     <use xlink:href="#DejaVuSans-68" x="150.390625"/>
     <use xlink:href="#DejaVuSans-61" x="213.769531"/>
     <use xlink:href="#DejaVuSans-6e" x="275.048828"/>
     <use xlink:href="#DejaVuSans-6e" x="338.427734"/>
     <use xlink:href="#DejaVuSans-65" x="401.806641"/>
     <use xlink:href="#DejaVuSans-6c" x="463.330078"/>
     <use xlink:href="#DejaVuSans-20" x="491.113281"/>
     <use xlink:href="#DejaVuSans-72" x="522.900391"/>
     <use xlink:href="#DejaVuSans-65" x="561.763672"/>
     <use xlink:href="#DejaVuSans-73" x="623.287109"/>
     <use xlink:href="#DejaVuSans-65" x="675.386719"/>
     <use xlink:href="#DejaVuSans-72" x="736.910156"/>
     <use xlink:href="#DejaVuSans-76" x="778.023438"/>
     <use xlink:href="#DejaVuSans-61" x="837.203125"/>
     <use xlink:href="#DejaVuSans-74" x="898.482422"/>
     <use xlink:href="#DejaVuSans-69" x="937.691406"/>
     <use xlink:href="#DejaVuSans-6f" x="965.474609"/>
     <use xlink:href="#DejaVuSans-6e" x="1026.65625"/>
    </g>
   </g>
   <g id="legend_1">
    <g id="patch_107">
     <path d="M 658.861875 119.46375 
L 769.9 119.46375 
Q 772.1 119.46375 772.1 117.26375 
L 772.1 85.46 
Q 772.1 83.26 769.9 83.26 
L 658.861875 83.26 
Q 656.661875 83.26 656.661875 85.46 
L 656.661875 117.26375 
Q 656.661875 119.46375 658.861875 119.46375 
z
" style="fill: #eaeaf2; opacity: 0.8; stroke: #cccccc; stroke-linejoin: miter"/>
    </g>
    <g id="patch_108">
     <path d="M 661.061875 96.018281 
L 683.061875 96.018281 
L 683.061875 88.318281 
L 661.061875 88.318281 
z
" style="fill: #444282; fill-opacity: 0.5; stroke: #ffffff; stroke-linejoin: miter"/>
    </g>
    <g id="text_18">
     <!-- blocked_calls -->
     <g style="fill: #262626" transform="translate(691.861875 96.018281) scale(0.11 -0.11)">
      <defs>
       <path id="DejaVuSans-62" d="M 3116 1747 
Q 3116 2381 2855 2742 
Q 2594 3103 2138 3103 
Q 1681 3103 1420 2742 
Q 1159 2381 1159 1747 
Q 1159 1113 1420 752 
Q 1681 391 2138 391 
Q 2594 391 2855 752 
Q 3116 1113 3116 1747 
z
M 1159 2969 
Q 1341 3281 1617 3432 
Q 1894 3584 2278 3584 
Q 2916 3584 3314 3078 
Q 3713 2572 3713 1747 
Q 3713 922 3314 415 
Q 2916 -91 2278 -91 
Q 1894 -91 1617 61 
Q 1341 213 1159 525 
L 1159 0 
L 581 0 
L 581 4863 
L 1159 4863 
L 1159 2969 
z
" transform="scale(0.015625)"/>
       <path id="DejaVuSans-6b" d="M 581 4863 
L 1159 4863 
L 1159 1991 
L 2875 3500 
L 3609 3500 
L 1753 1863 
L 3688 0 
L 2938 0 
L 1159 1709 
L 1159 0 
L 581 0 
L 581 4863 
z
" transform="scale(0.015625)"/>
       <path id="DejaVuSans-64" d="M 2906 2969 
L 2906 4863 
L 3481 4863 
L 3481 0 
L 2906 0 
L 2906 525 
Q 2725 213 2448 61 
Q 2172 -91 1784 -91 
Q 1150 -91 751 415 
Q 353 922 353 1747 
Q 353 2572 751 3078 
Q 1150 3584 1784 3584 
Q 2172 3584 2448 3432 
Q 2725 3281 2906 2969 
z
M 947 1747 
Q 947 1113 1208 752 
Q 1469 391 1925 391 
Q 2381 391 2643 752 
Q 2906 1113 2906 1747 
Q 2906 2381 2643 2742 
Q 2381 3103 1925 3103 
Q 1469 3103 1208 2742 
Q 947 2381 947 1747 
z
" transform="scale(0.015625)"/>
       <path id="DejaVuSans-5f" d="M 3263 -1063 
L 3263 -1509 
L -63 -1509 
L -63 -1063 
L 3263 -1063 
z
" transform="scale(0.015625)"/>
      </defs>
      <use xlink:href="#DejaVuSans-62"/>
      <use xlink:href="#DejaVuSans-6c" x="63.476562"/>
      <use xlink:href="#DejaVuSans-6f" x="91.259766"/>
      <use xlink:href="#DejaVuSans-63" x="152.441406"/>
      <use xlink:href="#DejaVuSans-6b" x="207.421875"/>
      <use xlink:href="#DejaVuSans-65" x="261.707031"/>
      <use xlink:href="#DejaVuSans-64" x="323.230469"/>
      <use xlink:href="#DejaVuSans-5f" x="386.707031"/>
      <use xlink:href="#DejaVuSans-63" x="436.707031"/>
      <use xlink:href="#DejaVuSans-61" x="491.6875"/>
      <use xlink:href="#DejaVuSans-6c" x="552.966797"/>
      <use xlink:href="#DejaVuSans-6c" x="580.75"/>
      <use xlink:href="#DejaVuSans-73" x="608.533203"/>
     </g>
    </g>
    <g id="patch_109">
     <path d="M 661.061875 112.470156 
L 683.061875 112.470156 
L 683.061875 104.770156 
L 661.061875 104.770156 
z
" style="fill: #782c3f; fill-opacity: 0.5; stroke: #ffffff; stroke-linejoin: miter"/>
    </g>
    <g id="text_19">
     <!-- dropped_calls -->
     <g style="fill: #262626" transform="translate(691.861875 112.470156) scale(0.11 -0.11)">
      <defs>
       <path id="DejaVuSans-70" d="M 1159 525 
L 1159 -1331 
L 581 -1331 
L 581 3500 
L 1159 3500 
L 1159 2969 
Q 1341 3281 1617 3432 
Q 1894 3584 2278 3584 
Q 2916 3584 3314 3078 
Q 3713 2572 3713 1747 
Q 3713 922 3314 415 
Q 2916 -91 2278 -91 
Q 1894 -91 1617 61 
Q 1341 213 1159 525 
z
M 3116 1747 
Q 3116 2381 2855 2742 
Q 2594 3103 2138 3103 
Q 1681 3103 1420 2742 
Q 1159 2381 1159 1747 
Q 1159 1113 1420 752 
Q 1681 391 2138 391 
Q 2594 391 2855 752 
Q 3116 1113 3116 1747 
z
" transform="scale(0.015625)"/>
      </defs>
      <use xlink:href="#DejaVuSans-64"/>
      <use xlink:href="#DejaVuSans-72" x="63.476562"/>
      <use xlink:href="#DejaVuSans-6f" x="102.339844"/>
      <use xlink:href="#DejaVuSans-70" x="163.521484"/>
      <use xlink:href="#DejaVuSans-70" x="226.998047"/>
      <use xlink:href="#DejaVuSans-65" x="290.474609"/>
      <use xlink:href="#DejaVuSans-64" x="351.998047"/>
      <use xlink:href="#DejaVuSans-5f" x="415.474609"/>
      <use xlink:href="#DejaVuSans-63" x="465.474609"/>
      <use xlink:href="#DejaVuSans-61" x="520.455078"/>
      <use xlink:href="#DejaVuSans-6c" x="581.734375"/>
      <use xlink:href="#DejaVuSans-6c" x="609.517578"/>
      <use xlink:href="#DejaVuSans-73" x="637.300781"/>
     </g>
    </g>
   </g>
  </g>
 </g>
 <defs>
  <clipPath id="pd88ce653b0">
   <rect x="108" y="77.76" width="669.6" height="498.96"/>
  </clipPath>
 </defs>
</svg>
