<?xml version="1.0" encoding="utf-8" standalone="no"?>
<!DOCTYPE svg PUBLIC "-//W3C//DTD SVG 1.1//EN"
  "http://www.w3.org/Graphics/SVG/1.1/DTD/svg11.dtd">
<svg xmlns:xlink="http://www.w3.org/1999/xlink" width="648pt" height="432pt" viewBox="0 0 648 432" xmlns="http://www.w3.org/2000/svg" version="1.1">
 <metadata>
  <rdf:RDF xmlns:dc="http://purl.org/dc/elements/1.1/" xmlns:cc="http://creativecommons.org/ns#" xmlns:rdf="http://www.w3.org/1999/02/22-rdf-syntax-ns#">
   <cc:Work>
    <dc:type rdf:resource="http://purl.org/dc/dcmitype/StillImage"/>
    <dc:date>2024-04-14T16:24:04.075031</dc:date>
    <dc:format>image/svg+xml</dc:format>
    <dc:creator>
     <cc:Agent>
      <dc:title>Matplotlib v3.8.3, https://matplotlib.org/</dc:title>
     </cc:Agent>
    </dc:creator>
   </cc:Work>
  </rdf:RDF>
 </metadata>
 <defs>
  <style type="text/css">*{stroke-linejoin: round; stroke-linecap: butt}</style>
 </defs>
 <g id="figure_1">
  <g id="patch_1">
   <path d="M 0 432 
L 648 432 
L 648 0 
L 0 0 
z
" style="fill: #ffffff"/>
  </g>
  <g id="axes_1">
   <g id="patch_2">
    <path d="M 81 384.48 
L 583.2 384.48 
L 583.2 51.84 
L 81 51.84 
z
" style="fill: #eaeaf2"/>
   </g>
   <g id="matplotlib.axis_1">
    <g id="xtick_1">
     <g id="line2d_1">
      <path d="M 103.827199 384.48 
L 103.827199 51.84 
" clip-path="url(#p75809871e1)" style="fill: none; stroke: #ffffff; stroke-linecap: round"/>
     </g>
     <g id="text_1">
      <!-- 0 -->
      <g style="fill: #262626" transform="translate(100.327824 402.338281) scale(0.11 -0.11)">
       <defs>
        <path id="DejaVuSans-30" d="M 2034 4250 
Q 1547 4250 1301 3770 
Q 1056 3291 1056 2328 
Q 1056 1369 1301 889 
Q 1547 409 2034 409 
Q 2525 409 2770 889 
Q 3016 1369 3016 2328 
Q 3016 3291 2770 3770 
Q 2525 4250 2034 4250 
z
M 2034 4750 
Q 2819 4750 3233 4129 
Q 3647 3509 3647 2328 
Q 3647 1150 3233 529 
Q 2819 -91 2034 -91 
Q 1250 -91 836 529 
Q 422 1150 422 2328 
Q 422 3509 836 4129 
Q 1250 4750 2034 4750 
z
" transform="scale(0.015625)"/>
       </defs>
       <use xlink:href="#DejaVuSans-30"/>
      </g>
     </g>
    </g>
    <g id="xtick_2">
     <g id="line2d_2">
      <path d="M 160.8954 384.48 
L 160.8954 51.84 
" clip-path="url(#p75809871e1)" style="fill: none; stroke: #ffffff; stroke-linecap: round"/>
     </g>
     <g id="text_2">
      <!-- 250 -->
      <g style="fill: #262626" transform="translate(150.397275 402.338281) scale(0.11 -0.11)">
       <defs>
        <path id="DejaVuSans-32" d="M 1228 531 
L 3431 531 
L 3431 0 
L 469 0 
L 469 531 
Q 828 903 1448 1529 
Q 2069 2156 2228 2338 
Q 2531 2678 2651 2914 
Q 2772 3150 2772 3378 
Q 2772 3750 2511 3984 
Q 2250 4219 1831 4219 
Q 1534 4219 1204 4116 
Q 875 4013 500 3803 
L 500 4441 
Q 881 4594 1212 4672 
Q 1544 4750 1819 4750 
Q 2544 4750 2975 4387 
Q 3406 4025 3406 3419 
Q 3406 3131 3298 2873 
Q 3191 2616 2906 2266 
Q 2828 2175 2409 1742 
Q 1991 1309 1228 531 
z
" transform="scale(0.015625)"/>
        <path id="DejaVuSans-35" d="M 691 4666 
L 3169 4666 
L 3169 4134 
L 1269 4134 
L 1269 2991 
Q 1406 3038 1543 3061 
Q 1681 3084 1819 3084 
Q 2600 3084 3056 2656 
Q 3513 2228 3513 1497 
Q 3513 744 3044 326 
Q 2575 -91 1722 -91 
Q 1428 -91 1123 -41 
Q 819 9 494 109 
L 494 744 
Q 775 591 1075 516 
Q 1375 441 1709 441 
Q 2250 441 2565 725 
Q 2881 1009 2881 1497 
Q 2881 1984 2565 2268 
Q 2250 2553 1709 2553 
Q 1456 2553 1204 2497 
Q 953 2441 691 2322 
L 691 4666 
z
" transform="scale(0.015625)"/>
       </defs>
       <use xlink:href="#DejaVuSans-32"/>
       <use xlink:href="#DejaVuSans-35" x="63.623047"/>
       <use xlink:href="#DejaVuSans-30" x="127.246094"/>
      </g>
     </g>
    </g>
    <g id="xtick_3">
     <g id="line2d_3">
      <path d="M 217.963602 384.48 
L 217.963602 51.84 
" clip-path="url(#p75809871e1)" style="fill: none; stroke: #ffffff; stroke-linecap: round"/>
     </g>
     <g id="text_3">
      <!-- 500 -->
      <g style="fill: #262626" transform="translate(207.465477 402.338281) scale(0.11 -0.11)">
       <use xlink:href="#DejaVuSans-35"/>
       <use xlink:href="#DejaVuSans-30" x="63.623047"/>
       <use xlink:href="#DejaVuSans-30" x="127.246094"/>
      </g>
     </g>
    </g>
    <g id="xtick_4">
     <g id="line2d_4">
      <path d="M 275.031803 384.48 
L 275.031803 51.84 
" clip-path="url(#p75809871e1)" style="fill: none; stroke: #ffffff; stroke-linecap: round"/>
     </g>
     <g id="text_4">
      <!-- 750 -->
      <g style="fill: #262626" transform="translate(264.533678 402.338281) scale(0.11 -0.11)">
       <defs>
        <path id="DejaVuSans-37" d="M 525 4666 
L 3525 4666 
L 3525 4397 
L 1831 0 
L 1172 0 
L 2766 4134 
L 525 4134 
L 525 4666 
z
" transform="scale(0.015625)"/>
       </defs>
       <use xlink:href="#DejaVuSans-37"/>
       <use xlink:href="#DejaVuSans-35" x="63.623047"/>
       <use xlink:href="#DejaVuSans-30" x="127.246094"/>
      </g>
     </g>
    </g>
    <g id="xtick_5">
     <g id="line2d_5">
      <path d="M 332.100005 384.48 
L 332.100005 51.84 
" clip-path="url(#p75809871e1)" style="fill: none; stroke: #ffffff; stroke-linecap: round"/>
     </g>
     <g id="text_5">
      <!-- 1000 -->
      <g style="fill: #262626" transform="translate(318.102505 402.338281) scale(0.11 -0.11)">
       <defs>
        <path id="DejaVuSans-31" d="M 794 531 
L 1825 531 
L 1825 4091 
L 703 3866 
L 703 4441 
L 1819 4666 
L 2450 4666 
L 2450 531 
L 3481 531 
L 3481 0 
L 794 0 
L 794 531 
z
" transform="scale(0.015625)"/>
       </defs>
       <use xlink:href="#DejaVuSans-31"/>
       <use xlink:href="#DejaVuSans-30" x="63.623047"/>
       <use xlink:href="#DejaVuSans-30" x="127.246094"/>
       <use xlink:href="#DejaVuSans-30" x="190.869141"/>
      </g>
     </g>
    </g>
    <g id="xtick_6">
     <g id="line2d_6">
      <path d="M 389.168206 384.48 
L 389.168206 51.84 
" clip-path="url(#p75809871e1)" style="fill: none; stroke: #ffffff; stroke-linecap: round"/>
     </g>
     <g id="text_6">
      <!-- 1250 -->
      <g style="fill: #262626" transform="translate(375.170706 402.338281) scale(0.11 -0.11)">
       <use xlink:href="#DejaVuSans-31"/>
       <use xlink:href="#DejaVuSans-32" x="63.623047"/>
       <use xlink:href="#DejaVuSans-35" x="127.246094"/>
       <use xlink:href="#DejaVuSans-30" x="190.869141"/>
      </g>
     </g>
    </g>
    <g id="xtick_7">
     <g id="line2d_7">
      <path d="M 446.236408 384.48 
L 446.236408 51.84 
" clip-path="url(#p75809871e1)" style="fill: none; stroke: #ffffff; stroke-linecap: round"/>
     </g>
     <g id="text_7">
      <!-- 1500 -->
      <g style="fill: #262626" transform="translate(432.238908 402.338281) scale(0.11 -0.11)">
       <use xlink:href="#DejaVuSans-31"/>
       <use xlink:href="#DejaVuSans-35" x="63.623047"/>
       <use xlink:href="#DejaVuSans-30" x="127.246094"/>
       <use xlink:href="#DejaVuSans-30" x="190.869141"/>
      </g>
     </g>
    </g>
    <g id="xtick_8">
     <g id="line2d_8">
      <path d="M 503.304609 384.48 
L 503.304609 51.84 
" clip-path="url(#p75809871e1)" style="fill: none; stroke: #ffffff; stroke-linecap: round"/>
     </g>
     <g id="text_8">
      <!-- 1750 -->
      <g style="fill: #262626" transform="translate(489.307109 402.338281) scale(0.11 -0.11)">
       <use xlink:href="#DejaVuSans-31"/>
       <use xlink:href="#DejaVuSans-37" x="63.623047"/>
       <use xlink:href="#DejaVuSans-35" x="127.246094"/>
       <use xlink:href="#DejaVuSans-30" x="190.869141"/>
      </g>
     </g>
    </g>
    <g id="xtick_9">
     <g id="line2d_9">
      <path d="M 560.37281 384.48 
L 560.37281 51.84 
" clip-path="url(#p75809871e1)" style="fill: none; stroke: #ffffff; stroke-linecap: round"/>
     </g>
     <g id="text_9">
      <!-- 2000 -->
      <g style="fill: #262626" transform="translate(546.37531 402.338281) scale(0.11 -0.11)">
       <use xlink:href="#DejaVuSans-32"/>
       <use xlink:href="#DejaVuSans-30" x="63.623047"/>
       <use xlink:href="#DejaVuSans-30" x="127.246094"/>
       <use xlink:href="#DejaVuSans-30" x="190.869141"/>
      </g>
     </g>
    </g>
    <g id="text_10">
     <!-- position -->
     <g style="fill: #262626" transform="translate(308.334375 417.744062) scale(0.12 -0.12)">
      <defs>
       <path id="DejaVuSans-70" d="M 1159 525 
L 1159 -1331 
L 581 -1331 
L 581 3500 
L 1159 3500 
L 1159 2969 
Q 1341 3281 1617 3432 
Q 1894 3584 2278 3584 
Q 2916 3584 3314 3078 
Q 3713 2572 3713 1747 
Q 3713 922 3314 415 
Q 2916 -91 2278 -91 
Q 1894 -91 1617 61 
Q 1341 213 1159 525 
z
M 3116 1747 
Q 3116 2381 2855 2742 
Q 2594 3103 2138 3103 
Q 1681 3103 1420 2742 
Q 1159 2381 1159 1747 
Q 1159 1113 1420 752 
Q 1681 391 2138 391 
Q 2594 391 2855 752 
Q 3116 1113 3116 1747 
z
" transform="scale(0.015625)"/>
       <path id="DejaVuSans-6f" d="M 1959 3097 
Q 1497 3097 1228 2736 
Q 959 2375 959 1747 
Q 959 1119 1226 758 
Q 1494 397 1959 397 
Q 2419 397 2687 759 
Q 2956 1122 2956 1747 
Q 2956 2369 2687 2733 
Q 2419 3097 1959 3097 
z
M 1959 3584 
Q 2709 3584 3137 3096 
Q 3566 2609 3566 1747 
Q 3566 888 3137 398 
Q 2709 -91 1959 -91 
Q 1206 -91 779 398 
Q 353 888 353 1747 
Q 353 2609 779 3096 
Q 1206 3584 1959 3584 
z
" transform="scale(0.015625)"/>
       <path id="DejaVuSans-73" d="M 2834 3397 
L 2834 2853 
Q 2591 2978 2328 3040 
Q 2066 3103 1784 3103 
Q 1356 3103 1142 2972 
Q 928 2841 928 2578 
Q 928 2378 1081 2264 
Q 1234 2150 1697 2047 
L 1894 2003 
Q 2506 1872 2764 1633 
Q 3022 1394 3022 966 
Q 3022 478 2636 193 
Q 2250 -91 1575 -91 
Q 1294 -91 989 -36 
Q 684 19 347 128 
L 347 722 
Q 666 556 975 473 
Q 1284 391 1588 391 
Q 1994 391 2212 530 
Q 2431 669 2431 922 
Q 2431 1156 2273 1281 
Q 2116 1406 1581 1522 
L 1381 1569 
Q 847 1681 609 1914 
Q 372 2147 372 2553 
Q 372 3047 722 3315 
Q 1072 3584 1716 3584 
Q 2034 3584 2315 3537 
Q 2597 3491 2834 3397 
z
" transform="scale(0.015625)"/>
       <path id="DejaVuSans-69" d="M 603 3500 
L 1178 3500 
L 1178 0 
L 603 0 
L 603 3500 
z
M 603 4863 
L 1178 4863 
L 1178 4134 
L 603 4134 
L 603 4863 
z
" transform="scale(0.015625)"/>
       <path id="DejaVuSans-74" d="M 1172 4494 
L 1172 3500 
L 2356 3500 
L 2356 3053 
L 1172 3053 
L 1172 1153 
Q 1172 725 1289 603 
Q 1406 481 1766 481 
L 2356 481 
L 2356 0 
L 1766 0 
Q 1100 0 847 248 
Q 594 497 594 1153 
L 594 3053 
L 172 3053 
L 172 3500 
L 594 3500 
L 594 4494 
L 1172 4494 
z
" transform="scale(0.015625)"/>
       <path id="DejaVuSans-6e" d="M 3513 2113 
L 3513 0 
L 2938 0 
L 2938 2094 
Q 2938 2591 2744 2837 
Q 2550 3084 2163 3084 
Q 1697 3084 1428 2787 
Q 1159 2491 1159 1978 
L 1159 0 
L 581 0 
L 581 3500 
L 1159 3500 
L 1159 2956 
Q 1366 3272 1645 3428 
Q 1925 3584 2291 3584 
Q 2894 3584 3203 3211 
Q 3513 2838 3513 2113 
z
" transform="scale(0.015625)"/>
      </defs>
      <use xlink:href="#DejaVuSans-70"/>
      <use xlink:href="#DejaVuSans-6f" x="63.476562"/>
      <use xlink:href="#DejaVuSans-73" x="124.658203"/>
      <use xlink:href="#DejaVuSans-69" x="176.757812"/>
      <use xlink:href="#DejaVuSans-74" x="204.541016"/>
      <use xlink:href="#DejaVuSans-69" x="243.75"/>
      <use xlink:href="#DejaVuSans-6f" x="271.533203"/>
      <use xlink:href="#DejaVuSans-6e" x="332.714844"/>
     </g>
    </g>
   </g>
   <g id="matplotlib.axis_2">
    <g id="ytick_1">
     <g id="line2d_10">
      <path d="M 81 384.48 
L 583.2 384.48 
" clip-path="url(#p75809871e1)" style="fill: none; stroke: #ffffff; stroke-linecap: round"/>
     </g>
     <g id="text_11">
      <!-- 0 -->
      <g style="fill: #262626" transform="translate(64.50125 388.659141) scale(0.11 -0.11)">
       <use xlink:href="#DejaVuSans-30"/>
      </g>
     </g>
    </g>
    <g id="ytick_2">
     <g id="line2d_11">
      <path d="M 81 322.839763 
L 583.2 322.839763 
" clip-path="url(#p75809871e1)" style="fill: none; stroke: #ffffff; stroke-linecap: round"/>
     </g>
     <g id="text_12">
      <!-- 2000 -->
      <g style="fill: #262626" transform="translate(43.505 327.018903) scale(0.11 -0.11)">
       <use xlink:href="#DejaVuSans-32"/>
       <use xlink:href="#DejaVuSans-30" x="63.623047"/>
       <use xlink:href="#DejaVuSans-30" x="127.246094"/>
       <use xlink:href="#DejaVuSans-30" x="190.869141"/>
      </g>
     </g>
    </g>
    <g id="ytick_3">
     <g id="line2d_12">
      <path d="M 81 261.199525 
L 583.2 261.199525 
" clip-path="url(#p75809871e1)" style="fill: none; stroke: #ffffff; stroke-linecap: round"/>
     </g>
     <g id="text_13">
      <!-- 4000 -->
      <g style="fill: #262626" transform="translate(43.505 265.378666) scale(0.11 -0.11)">
       <defs>
        <path id="DejaVuSans-34" d="M 2419 4116 
L 825 1625 
L 2419 1625 
L 2419 4116 
z
M 2253 4666 
L 3047 4666 
L 3047 1625 
L 3713 1625 
L 3713 1100 
L 3047 1100 
L 3047 0 
L 2419 0 
L 2419 1100 
L 313 1100 
L 313 1709 
L 2253 4666 
z
" transform="scale(0.015625)"/>
       </defs>
       <use xlink:href="#DejaVuSans-34"/>
       <use xlink:href="#DejaVuSans-30" x="63.623047"/>
       <use xlink:href="#DejaVuSans-30" x="127.246094"/>
       <use xlink:href="#DejaVuSans-30" x="190.869141"/>
      </g>
     </g>
    </g>
    <g id="ytick_4">
     <g id="line2d_13">
      <path d="M 81 199.559288 
L 583.2 199.559288 
" clip-path="url(#p75809871e1)" style="fill: none; stroke: #ffffff; stroke-linecap: round"/>
     </g>
     <g id="text_14">
      <!-- 6000 -->
      <g style="fill: #262626" transform="translate(43.505 203.738428) scale(0.11 -0.11)">
       <defs>
        <path id="DejaVuSans-36" d="M 2113 2584 
Q 1688 2584 1439 2293 
Q 1191 2003 1191 1497 
Q 1191 994 1439 701 
Q 1688 409 2113 409 
Q 2538 409 2786 701 
Q 3034 994 3034 1497 
Q 3034 2003 2786 2293 
Q 2538 2584 2113 2584 
z
M 3366 4563 
L 3366 3988 
Q 3128 4100 2886 4159 
Q 2644 4219 2406 4219 
Q 1781 4219 1451 3797 
Q 1122 3375 1075 2522 
Q 1259 2794 1537 2939 
Q 1816 3084 2150 3084 
Q 2853 3084 3261 2657 
Q 3669 2231 3669 1497 
Q 3669 778 3244 343 
Q 2819 -91 2113 -91 
Q 1303 -91 875 529 
Q 447 1150 447 2328 
Q 447 3434 972 4092 
Q 1497 4750 2381 4750 
Q 2619 4750 2861 4703 
Q 3103 4656 3366 4563 
z
" transform="scale(0.015625)"/>
       </defs>
       <use xlink:href="#DejaVuSans-36"/>
       <use xlink:href="#DejaVuSans-30" x="63.623047"/>
       <use xlink:href="#DejaVuSans-30" x="127.246094"/>
       <use xlink:href="#DejaVuSans-30" x="190.869141"/>
      </g>
     </g>
    </g>
    <g id="ytick_5">
     <g id="line2d_14">
      <path d="M 81 137.91905 
L 583.2 137.91905 
" clip-path="url(#p75809871e1)" style="fill: none; stroke: #ffffff; stroke-linecap: round"/>
     </g>
     <g id="text_15">
      <!-- 8000 -->
      <g style="fill: #262626" transform="translate(43.505 142.098191) scale(0.11 -0.11)">
       <defs>
        <path id="DejaVuSans-38" d="M 2034 2216 
Q 1584 2216 1326 1975 
Q 1069 1734 1069 1313 
Q 1069 891 1326 650 
Q 1584 409 2034 409 
Q 2484 409 2743 651 
Q 3003 894 3003 1313 
Q 3003 1734 2745 1975 
Q 2488 2216 2034 2216 
z
M 1403 2484 
Q 997 2584 770 2862 
Q 544 3141 544 3541 
Q 544 4100 942 4425 
Q 1341 4750 2034 4750 
Q 2731 4750 3128 4425 
Q 3525 4100 3525 3541 
Q 3525 3141 3298 2862 
Q 3072 2584 2669 2484 
Q 3125 2378 3379 2068 
Q 3634 1759 3634 1313 
Q 3634 634 3220 271 
Q 2806 -91 2034 -91 
Q 1263 -91 848 271 
Q 434 634 434 1313 
Q 434 1759 690 2068 
Q 947 2378 1403 2484 
z
M 1172 3481 
Q 1172 3119 1398 2916 
Q 1625 2713 2034 2713 
Q 2441 2713 2670 2916 
Q 2900 3119 2900 3481 
Q 2900 3844 2670 4047 
Q 2441 4250 2034 4250 
Q 1625 4250 1398 4047 
Q 1172 3844 1172 3481 
z
" transform="scale(0.015625)"/>
       </defs>
       <use xlink:href="#DejaVuSans-38"/>
       <use xlink:href="#DejaVuSans-30" x="63.623047"/>
       <use xlink:href="#DejaVuSans-30" x="127.246094"/>
       <use xlink:href="#DejaVuSans-30" x="190.869141"/>
      </g>
     </g>
    </g>
    <g id="ytick_6">
     <g id="line2d_15">
      <path d="M 81 76.278813 
L 583.2 76.278813 
" clip-path="url(#p75809871e1)" style="fill: none; stroke: #ffffff; stroke-linecap: round"/>
     </g>
     <g id="text_16">
      <!-- 10000 -->
      <g style="fill: #262626" transform="translate(36.50625 80.457954) scale(0.11 -0.11)">
       <use xlink:href="#DejaVuSans-31"/>
       <use xlink:href="#DejaVuSans-30" x="63.623047"/>
       <use xlink:href="#DejaVuSans-30" x="127.246094"/>
       <use xlink:href="#DejaVuSans-30" x="190.869141"/>
       <use xlink:href="#DejaVuSans-30" x="254.492188"/>
      </g>
     </g>
    </g>
    <g id="text_17">
     <!-- Count -->
     <g style="fill: #262626" transform="translate(30.010625 235.978125) rotate(-90) scale(0.12 -0.12)">
      <defs>
       <path id="DejaVuSans-43" d="M 4122 4306 
L 4122 3641 
Q 3803 3938 3442 4084 
Q 3081 4231 2675 4231 
Q 1875 4231 1450 3742 
Q 1025 3253 1025 2328 
Q 1025 1406 1450 917 
Q 1875 428 2675 428 
Q 3081 428 3442 575 
Q 3803 722 4122 1019 
L 4122 359 
Q 3791 134 3420 21 
Q 3050 -91 2638 -91 
Q 1578 -91 968 557 
Q 359 1206 359 2328 
Q 359 3453 968 4101 
Q 1578 4750 2638 4750 
Q 3056 4750 3426 4639 
Q 3797 4528 4122 4306 
z
" transform="scale(0.015625)"/>
       <path id="DejaVuSans-75" d="M 544 1381 
L 544 3500 
L 1119 3500 
L 1119 1403 
Q 1119 906 1312 657 
Q 1506 409 1894 409 
Q 2359 409 2629 706 
Q 2900 1003 2900 1516 
L 2900 3500 
L 3475 3500 
L 3475 0 
L 2900 0 
L 2900 538 
Q 2691 219 2414 64 
Q 2138 -91 1772 -91 
Q 1169 -91 856 284 
Q 544 659 544 1381 
z
M 1991 3584 
L 1991 3584 
z
" transform="scale(0.015625)"/>
      </defs>
      <use xlink:href="#DejaVuSans-43"/>
      <use xlink:href="#DejaVuSans-6f" x="69.824219"/>
      <use xlink:href="#DejaVuSans-75" x="131.005859"/>
      <use xlink:href="#DejaVuSans-6e" x="194.384766"/>
      <use xlink:href="#DejaVuSans-74" x="257.763672"/>
     </g>
    </g>
   </g>
   <g id="patch_3">
    <path d="M 103.827273 384.48 
L 108.392727 384.48 
L 108.392727 72.395478 
L 103.827273 72.395478 
z
" clip-path="url(#p75809871e1)" style="fill-opacity: 0.75; stroke: #ffffff; stroke-width: 0.456545; stroke-linejoin: miter"/>
   </g>
   <g id="patch_4">
    <path d="M 108.392727 384.48 
L 112.958182 384.48 
L 112.958182 79.206724 
L 108.392727 79.206724 
z
" clip-path="url(#p75809871e1)" style="fill-opacity: 0.75; stroke: #ffffff; stroke-width: 0.456545; stroke-linejoin: miter"/>
   </g>
   <g id="patch_5">
    <path d="M 112.958182 384.48 
L 117.523636 384.48 
L 117.523636 75.261749 
L 112.958182 75.261749 
z
" clip-path="url(#p75809871e1)" style="fill-opacity: 0.75; stroke: #ffffff; stroke-width: 0.456545; stroke-linejoin: miter"/>
   </g>
   <g id="patch_6">
    <path d="M 117.523636 384.48 
L 122.089091 384.48 
L 122.089091 76.617834 
L 117.523636 76.617834 
z
" clip-path="url(#p75809871e1)" style="fill-opacity: 0.75; stroke: #ffffff; stroke-width: 0.456545; stroke-linejoin: miter"/>
   </g>
   <g id="patch_7">
    <path d="M 122.089091 384.48 
L 126.654545 384.48 
L 126.654545 72.703679 
L 122.089091 72.703679 
z
" clip-path="url(#p75809871e1)" style="fill-opacity: 0.75; stroke: #ffffff; stroke-width: 0.456545; stroke-linejoin: miter"/>
   </g>
   <g id="patch_8">
    <path d="M 126.654545 384.48 
L 131.22 384.48 
L 131.22 77.203417 
L 126.654545 77.203417 
z
" clip-path="url(#p75809871e1)" style="fill-opacity: 0.75; stroke: #ffffff; stroke-width: 0.456545; stroke-linejoin: miter"/>
   </g>
   <g id="patch_9">
    <path d="M 131.22 384.48 
L 135.785455 384.48 
L 135.785455 77.172597 
L 131.22 77.172597 
z
" clip-path="url(#p75809871e1)" style="fill-opacity: 0.75; stroke: #ffffff; stroke-width: 0.456545; stroke-linejoin: miter"/>
   </g>
   <g id="patch_10">
    <path d="M 135.785455 384.48 
L 140.350909 384.48 
L 140.350909 75.292569 
L 135.785455 75.292569 
z
" clip-path="url(#p75809871e1)" style="fill-opacity: 0.75; stroke: #ffffff; stroke-width: 0.456545; stroke-linejoin: miter"/>
   </g>
   <g id="patch_11">
    <path d="M 140.350909 384.48 
L 144.916364 384.48 
L 144.916364 75.47749 
L 140.350909 75.47749 
z
" clip-path="url(#p75809871e1)" style="fill-opacity: 0.75; stroke: #ffffff; stroke-width: 0.456545; stroke-linejoin: miter"/>
   </g>
   <g id="patch_12">
    <path d="M 144.916364 384.48 
L 149.481818 384.48 
L 149.481818 74.614527 
L 144.916364 74.614527 
z
" clip-path="url(#p75809871e1)" style="fill-opacity: 0.75; stroke: #ffffff; stroke-width: 0.456545; stroke-linejoin: miter"/>
   </g>
   <g id="patch_13">
    <path d="M 149.481818 384.48 
L 154.047273 384.48 
L 154.047273 75.939792 
L 149.481818 75.939792 
z
" clip-path="url(#p75809871e1)" style="fill-opacity: 0.75; stroke: #ffffff; stroke-width: 0.456545; stroke-linejoin: miter"/>
   </g>
   <g id="patch_14">
    <path d="M 154.047273 384.48 
L 158.612727 384.48 
L 158.612727 67.68 
L 154.047273 67.68 
z
" clip-path="url(#p75809871e1)" style="fill-opacity: 0.75; stroke: #ffffff; stroke-width: 0.456545; stroke-linejoin: miter"/>
   </g>
   <g id="patch_15">
    <path d="M 158.612727 384.48 
L 163.178182 384.48 
L 163.178182 76.093892 
L 158.612727 76.093892 
z
" clip-path="url(#p75809871e1)" style="fill-opacity: 0.75; stroke: #ffffff; stroke-width: 0.456545; stroke-linejoin: miter"/>
   </g>
   <g id="patch_16">
    <path d="M 163.178182 384.48 
L 167.743636 384.48 
L 167.743636 75.631591 
L 163.178182 75.631591 
z
" clip-path="url(#p75809871e1)" style="fill-opacity: 0.75; stroke: #ffffff; stroke-width: 0.456545; stroke-linejoin: miter"/>
   </g>
   <g id="patch_17">
    <path d="M 167.743636 384.48 
L 172.309091 384.48 
L 172.309091 74.737807 
L 167.743636 74.737807 
z
" clip-path="url(#p75809871e1)" style="fill-opacity: 0.75; stroke: #ffffff; stroke-width: 0.456545; stroke-linejoin: miter"/>
   </g>
   <g id="patch_18">
    <path d="M 172.309091 384.48 
L 176.874545 384.48 
L 176.874545 78.713602 
L 172.309091 78.713602 
z
" clip-path="url(#p75809871e1)" style="fill-opacity: 0.75; stroke: #ffffff; stroke-width: 0.456545; stroke-linejoin: miter"/>
   </g>
   <g id="patch_19">
    <path d="M 176.874545 384.48 
L 181.44 384.48 
L 181.44 79.638206 
L 176.874545 79.638206 
z
" clip-path="url(#p75809871e1)" style="fill-opacity: 0.75; stroke: #ffffff; stroke-width: 0.456545; stroke-linejoin: miter"/>
   </g>
   <g id="patch_20">
    <path d="M 181.44 384.48 
L 186.005455 384.48 
L 186.005455 74.429606 
L 181.44 74.429606 
z
" clip-path="url(#p75809871e1)" style="fill-opacity: 0.75; stroke: #ffffff; stroke-width: 0.456545; stroke-linejoin: miter"/>
   </g>
   <g id="patch_21">
    <path d="M 186.005455 384.48 
L 190.570909 384.48 
L 190.570909 81.055932 
L 186.005455 81.055932 
z
" clip-path="url(#p75809871e1)" style="fill-opacity: 0.75; stroke: #ffffff; stroke-width: 0.456545; stroke-linejoin: miter"/>
   </g>
   <g id="patch_22">
    <path d="M 190.570909 384.48 
L 195.136364 384.48 
L 195.136364 74.706987 
L 190.570909 74.706987 
z
" clip-path="url(#p75809871e1)" style="fill-opacity: 0.75; stroke: #ffffff; stroke-width: 0.456545; stroke-linejoin: miter"/>
   </g>
   <g id="patch_23">
    <path d="M 195.136364 384.48 
L 199.701818 384.48 
L 199.701818 76.710295 
L 195.136364 76.710295 
z
" clip-path="url(#p75809871e1)" style="fill-opacity: 0.75; stroke: #ffffff; stroke-width: 0.456545; stroke-linejoin: miter"/>
   </g>
   <g id="patch_24">
    <path d="M 199.701818 384.48 
L 204.267273 384.48 
L 204.267273 81.148392 
L 199.701818 81.148392 
z
" clip-path="url(#p75809871e1)" style="fill-opacity: 0.75; stroke: #ffffff; stroke-width: 0.456545; stroke-linejoin: miter"/>
   </g>
   <g id="patch_25">
    <path d="M 204.267273 384.48 
L 208.832727 384.48 
L 208.832727 74.676167 
L 204.267273 74.676167 
z
" clip-path="url(#p75809871e1)" style="fill-opacity: 0.75; stroke: #ffffff; stroke-width: 0.456545; stroke-linejoin: miter"/>
   </g>
   <g id="patch_26">
    <path d="M 208.832727 384.48 
L 213.398182 384.48 
L 213.398182 82.812678 
L 208.832727 82.812678 
z
" clip-path="url(#p75809871e1)" style="fill-opacity: 0.75; stroke: #ffffff; stroke-width: 0.456545; stroke-linejoin: miter"/>
   </g>
   <g id="patch_27">
    <path d="M 213.398182 384.48 
L 217.963636 384.48 
L 217.963636 78.374581 
L 213.398182 78.374581 
z
" clip-path="url(#p75809871e1)" style="fill-opacity: 0.75; stroke: #ffffff; stroke-width: 0.456545; stroke-linejoin: miter"/>
   </g>
   <g id="patch_28">
    <path d="M 217.963636 384.48 
L 222.529091 384.48 
L 222.529091 74.090585 
L 217.963636 74.090585 
z
" clip-path="url(#p75809871e1)" style="fill-opacity: 0.75; stroke: #ffffff; stroke-width: 0.456545; stroke-linejoin: miter"/>
   </g>
   <g id="patch_29">
    <path d="M 222.529091 384.48 
L 227.094545 384.48 
L 227.094545 76.032252 
L 222.529091 76.032252 
z
" clip-path="url(#p75809871e1)" style="fill-opacity: 0.75; stroke: #ffffff; stroke-width: 0.456545; stroke-linejoin: miter"/>
   </g>
   <g id="patch_30">
    <path d="M 227.094545 384.48 
L 231.66 384.48 
L 231.66 79.114264 
L 227.094545 79.114264 
z
" clip-path="url(#p75809871e1)" style="fill-opacity: 0.75; stroke: #ffffff; stroke-width: 0.456545; stroke-linejoin: miter"/>
   </g>
   <g id="patch_31">
    <path d="M 231.66 384.48 
L 236.225455 384.48 
L 236.225455 76.895215 
L 231.66 76.895215 
z
" clip-path="url(#p75809871e1)" style="fill-opacity: 0.75; stroke: #ffffff; stroke-width: 0.456545; stroke-linejoin: miter"/>
   </g>
   <g id="patch_32">
    <path d="M 236.225455 384.48 
L 240.790909 384.48 
L 240.790909 75.046008 
L 236.225455 75.046008 
z
" clip-path="url(#p75809871e1)" style="fill-opacity: 0.75; stroke: #ffffff; stroke-width: 0.456545; stroke-linejoin: miter"/>
   </g>
   <g id="patch_33">
    <path d="M 240.790909 384.48 
L 245.356364 384.48 
L 245.356364 78.775243 
L 240.790909 78.775243 
z
" clip-path="url(#p75809871e1)" style="fill-opacity: 0.75; stroke: #ffffff; stroke-width: 0.456545; stroke-linejoin: miter"/>
   </g>
   <g id="patch_34">
    <path d="M 245.356364 384.48 
L 249.921818 384.48 
L 249.921818 70.577091 
L 245.356364 70.577091 
z
" clip-path="url(#p75809871e1)" style="fill-opacity: 0.75; stroke: #ffffff; stroke-width: 0.456545; stroke-linejoin: miter"/>
   </g>
   <g id="patch_35">
    <path d="M 249.921818 384.48 
L 254.487273 384.48 
L 254.487273 69.005265 
L 249.921818 69.005265 
z
" clip-path="url(#p75809871e1)" style="fill-opacity: 0.75; stroke: #ffffff; stroke-width: 0.456545; stroke-linejoin: miter"/>
   </g>
   <g id="patch_36">
    <path d="M 254.487273 384.48 
L 259.052727 384.48 
L 259.052727 78.405401 
L 254.487273 78.405401 
z
" clip-path="url(#p75809871e1)" style="fill-opacity: 0.75; stroke: #ffffff; stroke-width: 0.456545; stroke-linejoin: miter"/>
   </g>
   <g id="patch_37">
    <path d="M 259.052727 384.48 
L 263.618182 384.48 
L 263.618182 74.398786 
L 259.052727 74.398786 
z
" clip-path="url(#p75809871e1)" style="fill-opacity: 0.75; stroke: #ffffff; stroke-width: 0.456545; stroke-linejoin: miter"/>
   </g>
   <g id="patch_38">
    <path d="M 263.618182 384.48 
L 268.183636 384.48 
L 268.183636 76.679475 
L 263.618182 76.679475 
z
" clip-path="url(#p75809871e1)" style="fill-opacity: 0.75; stroke: #ffffff; stroke-width: 0.456545; stroke-linejoin: miter"/>
   </g>
   <g id="patch_39">
    <path d="M 268.183636 384.48 
L 272.749091 384.48 
L 272.749091 79.977227 
L 268.183636 79.977227 
z
" clip-path="url(#p75809871e1)" style="fill-opacity: 0.75; stroke: #ffffff; stroke-width: 0.456545; stroke-linejoin: miter"/>
   </g>
   <g id="patch_40">
    <path d="M 272.749091 384.48 
L 277.314545 384.48 
L 277.314545 76.648655 
L 272.749091 76.648655 
z
" clip-path="url(#p75809871e1)" style="fill-opacity: 0.75; stroke: #ffffff; stroke-width: 0.456545; stroke-linejoin: miter"/>
   </g>
   <g id="patch_41">
    <path d="M 277.314545 384.48 
L 281.88 384.48 
L 281.88 80.377889 
L 277.314545 80.377889 
z
" clip-path="url(#p75809871e1)" style="fill-opacity: 0.75; stroke: #ffffff; stroke-width: 0.456545; stroke-linejoin: miter"/>
   </g>
   <g id="patch_42">
    <path d="M 281.88 384.48 
L 286.445455 384.48 
L 286.445455 78.343761 
L 281.88 78.343761 
z
" clip-path="url(#p75809871e1)" style="fill-opacity: 0.75; stroke: #ffffff; stroke-width: 0.456545; stroke-linejoin: miter"/>
   </g>
   <g id="patch_43">
    <path d="M 286.445455 384.48 
L 291.010909 384.48 
L 291.010909 82.227096 
L 286.445455 82.227096 
z
" clip-path="url(#p75809871e1)" style="fill-opacity: 0.75; stroke: #ffffff; stroke-width: 0.456545; stroke-linejoin: miter"/>
   </g>
   <g id="patch_44">
    <path d="M 291.010909 384.48 
L 295.576364 384.48 
L 295.576364 76.124713 
L 291.010909 76.124713 
z
" clip-path="url(#p75809871e1)" style="fill-opacity: 0.75; stroke: #ffffff; stroke-width: 0.456545; stroke-linejoin: miter"/>
   </g>
   <g id="patch_45">
    <path d="M 295.576364 384.48 
L 300.141818 384.48 
L 300.141818 78.467042 
L 295.576364 78.467042 
z
" clip-path="url(#p75809871e1)" style="fill-opacity: 0.75; stroke: #ffffff; stroke-width: 0.456545; stroke-linejoin: miter"/>
   </g>
   <g id="patch_46">
    <path d="M 300.141818 384.48 
L 304.707273 384.48 
L 304.707273 74.676167 
L 300.141818 74.676167 
z
" clip-path="url(#p75809871e1)" style="fill-opacity: 0.75; stroke: #ffffff; stroke-width: 0.456545; stroke-linejoin: miter"/>
   </g>
   <g id="patch_47">
    <path d="M 304.707273 384.48 
L 309.272727 384.48 
L 309.272727 76.186353 
L 304.707273 76.186353 
z
" clip-path="url(#p75809871e1)" style="fill-opacity: 0.75; stroke: #ffffff; stroke-width: 0.456545; stroke-linejoin: miter"/>
   </g>
   <g id="patch_48">
    <path d="M 309.272727 384.48 
L 313.838182 384.48 
L 313.838182 80.377889 
L 309.272727 80.377889 
z
" clip-path="url(#p75809871e1)" style="fill-opacity: 0.75; stroke: #ffffff; stroke-width: 0.456545; stroke-linejoin: miter"/>
   </g>
   <g id="patch_49">
    <path d="M 313.838182 384.48 
L 318.403636 384.48 
L 318.403636 75.35421 
L 313.838182 75.35421 
z
" clip-path="url(#p75809871e1)" style="fill-opacity: 0.75; stroke: #ffffff; stroke-width: 0.456545; stroke-linejoin: miter"/>
   </g>
   <g id="patch_50">
    <path d="M 318.403636 384.48 
L 322.969091 384.48 
L 322.969091 73.443362 
L 318.403636 73.443362 
z
" clip-path="url(#p75809871e1)" style="fill-opacity: 0.75; stroke: #ffffff; stroke-width: 0.456545; stroke-linejoin: miter"/>
   </g>
   <g id="patch_51">
    <path d="M 322.969091 384.48 
L 327.534545 384.48 
L 327.534545 75.56995 
L 322.969091 75.56995 
z
" clip-path="url(#p75809871e1)" style="fill-opacity: 0.75; stroke: #ffffff; stroke-width: 0.456545; stroke-linejoin: miter"/>
   </g>
   <g id="patch_52">
    <path d="M 327.534545 384.48 
L 332.1 384.48 
L 332.1 71.255134 
L 327.534545 71.255134 
z
" clip-path="url(#p75809871e1)" style="fill-opacity: 0.75; stroke: #ffffff; stroke-width: 0.456545; stroke-linejoin: miter"/>
   </g>
   <g id="patch_53">
    <path d="M 332.1 384.48 
L 336.665455 384.48 
L 336.665455 76.340453 
L 332.1 76.340453 
z
" clip-path="url(#p75809871e1)" style="fill-opacity: 0.75; stroke: #ffffff; stroke-width: 0.456545; stroke-linejoin: miter"/>
   </g>
   <g id="patch_54">
    <path d="M 336.665455 384.48 
L 341.230909 384.48 
L 341.230909 77.388337 
L 336.665455 77.388337 
z
" clip-path="url(#p75809871e1)" style="fill-opacity: 0.75; stroke: #ffffff; stroke-width: 0.456545; stroke-linejoin: miter"/>
   </g>
   <g id="patch_55">
    <path d="M 341.230909 384.48 
L 345.796364 384.48 
L 345.796364 76.155533 
L 341.230909 76.155533 
z
" clip-path="url(#p75809871e1)" style="fill-opacity: 0.75; stroke: #ffffff; stroke-width: 0.456545; stroke-linejoin: miter"/>
   </g>
   <g id="patch_56">
    <path d="M 345.796364 384.48 
L 350.361818 384.48 
L 350.361818 74.552886 
L 345.796364 74.552886 
z
" clip-path="url(#p75809871e1)" style="fill-opacity: 0.75; stroke: #ffffff; stroke-width: 0.456545; stroke-linejoin: miter"/>
   </g>
   <g id="patch_57">
    <path d="M 350.361818 384.48 
L 354.927273 384.48 
L 354.927273 72.703679 
L 350.361818 72.703679 
z
" clip-path="url(#p75809871e1)" style="fill-opacity: 0.75; stroke: #ffffff; stroke-width: 0.456545; stroke-linejoin: miter"/>
   </g>
   <g id="patch_58">
    <path d="M 354.927273 384.48 
L 359.492727 384.48 
L 359.492727 73.073521 
L 354.927273 73.073521 
z
" clip-path="url(#p75809871e1)" style="fill-opacity: 0.75; stroke: #ffffff; stroke-width: 0.456545; stroke-linejoin: miter"/>
   </g>
   <g id="patch_59">
    <path d="M 359.492727 384.48 
L 364.058182 384.48 
L 364.058182 77.141776 
L 359.492727 77.141776 
z
" clip-path="url(#p75809871e1)" style="fill-opacity: 0.75; stroke: #ffffff; stroke-width: 0.456545; stroke-linejoin: miter"/>
   </g>
   <g id="patch_60">
    <path d="M 364.058182 384.48 
L 368.623636 384.48 
L 368.623636 74.768627 
L 364.058182 74.768627 
z
" clip-path="url(#p75809871e1)" style="fill-opacity: 0.75; stroke: #ffffff; stroke-width: 0.456545; stroke-linejoin: miter"/>
   </g>
   <g id="patch_61">
    <path d="M 368.623636 384.48 
L 373.189091 384.48 
L 373.189091 76.525374 
L 368.623636 76.525374 
z
" clip-path="url(#p75809871e1)" style="fill-opacity: 0.75; stroke: #ffffff; stroke-width: 0.456545; stroke-linejoin: miter"/>
   </g>
   <g id="patch_62">
    <path d="M 373.189091 384.48 
L 377.754545 384.48 
L 377.754545 74.676167 
L 373.189091 74.676167 
z
" clip-path="url(#p75809871e1)" style="fill-opacity: 0.75; stroke: #ffffff; stroke-width: 0.456545; stroke-linejoin: miter"/>
   </g>
   <g id="patch_63">
    <path d="M 377.754545 384.48 
L 382.32 384.48 
L 382.32 77.788999 
L 377.754545 77.788999 
z
" clip-path="url(#p75809871e1)" style="fill-opacity: 0.75; stroke: #ffffff; stroke-width: 0.456545; stroke-linejoin: miter"/>
   </g>
   <g id="patch_64">
    <path d="M 382.32 384.48 
L 386.885455 384.48 
L 386.885455 76.802755 
L 382.32 76.802755 
z
" clip-path="url(#p75809871e1)" style="fill-opacity: 0.75; stroke: #ffffff; stroke-width: 0.456545; stroke-linejoin: miter"/>
   </g>
   <g id="patch_65">
    <path d="M 386.885455 384.48 
L 391.450909 384.48 
L 391.450909 79.669026 
L 386.885455 79.669026 
z
" clip-path="url(#p75809871e1)" style="fill-opacity: 0.75; stroke: #ffffff; stroke-width: 0.456545; stroke-linejoin: miter"/>
   </g>
   <g id="patch_66">
    <path d="M 391.450909 384.48 
L 396.016364 384.48 
L 396.016364 75.908972 
L 391.450909 75.908972 
z
" clip-path="url(#p75809871e1)" style="fill-opacity: 0.75; stroke: #ffffff; stroke-width: 0.456545; stroke-linejoin: miter"/>
   </g>
   <g id="patch_67">
    <path d="M 396.016364 384.48 
L 400.581818 384.48 
L 400.581818 71.255134 
L 396.016364 71.255134 
z
" clip-path="url(#p75809871e1)" style="fill-opacity: 0.75; stroke: #ffffff; stroke-width: 0.456545; stroke-linejoin: miter"/>
   </g>
   <g id="patch_68">
    <path d="M 400.581818 384.48 
L 405.147273 384.48 
L 405.147273 80.038868 
L 400.581818 80.038868 
z
" clip-path="url(#p75809871e1)" style="fill-opacity: 0.75; stroke: #ffffff; stroke-width: 0.456545; stroke-linejoin: miter"/>
   </g>
   <g id="patch_69">
    <path d="M 405.147273 384.48 
L 409.712727 384.48 
L 409.712727 77.727359 
L 405.147273 77.727359 
z
" clip-path="url(#p75809871e1)" style="fill-opacity: 0.75; stroke: #ffffff; stroke-width: 0.456545; stroke-linejoin: miter"/>
   </g>
   <g id="patch_70">
    <path d="M 409.712727 384.48 
L 414.278182 384.48 
L 414.278182 80.038868 
L 409.712727 80.038868 
z
" clip-path="url(#p75809871e1)" style="fill-opacity: 0.75; stroke: #ffffff; stroke-width: 0.456545; stroke-linejoin: miter"/>
   </g>
   <g id="patch_71">
    <path d="M 414.278182 384.48 
L 418.843636 384.48 
L 418.843636 76.587014 
L 414.278182 76.587014 
z
" clip-path="url(#p75809871e1)" style="fill-opacity: 0.75; stroke: #ffffff; stroke-width: 0.456545; stroke-linejoin: miter"/>
   </g>
   <g id="patch_72">
    <path d="M 418.843636 384.48 
L 423.409091 384.48 
L 423.409091 77.326697 
L 418.843636 77.326697 
z
" clip-path="url(#p75809871e1)" style="fill-opacity: 0.75; stroke: #ffffff; stroke-width: 0.456545; stroke-linejoin: miter"/>
   </g>
   <g id="patch_73">
    <path d="M 423.409091 384.48 
L 427.974545 384.48 
L 427.974545 78.590322 
L 423.409091 78.590322 
z
" clip-path="url(#p75809871e1)" style="fill-opacity: 0.75; stroke: #ffffff; stroke-width: 0.456545; stroke-linejoin: miter"/>
   </g>
   <g id="patch_74">
    <path d="M 427.974545 384.48 
L 432.54 384.48 
L 432.54 79.915587 
L 427.974545 79.915587 
z
" clip-path="url(#p75809871e1)" style="fill-opacity: 0.75; stroke: #ffffff; stroke-width: 0.456545; stroke-linejoin: miter"/>
   </g>
   <g id="patch_75">
    <path d="M 432.54 384.48 
L 437.105455 384.48 
L 437.105455 78.651962 
L 432.54 78.651962 
z
" clip-path="url(#p75809871e1)" style="fill-opacity: 0.75; stroke: #ffffff; stroke-width: 0.456545; stroke-linejoin: miter"/>
   </g>
   <g id="patch_76">
    <path d="M 437.105455 384.48 
L 441.670909 384.48 
L 441.670909 75.816511 
L 437.105455 75.816511 
z
" clip-path="url(#p75809871e1)" style="fill-opacity: 0.75; stroke: #ffffff; stroke-width: 0.456545; stroke-linejoin: miter"/>
   </g>
   <g id="patch_77">
    <path d="M 441.670909 384.48 
L 446.236364 384.48 
L 446.236364 76.494554 
L 441.670909 76.494554 
z
" clip-path="url(#p75809871e1)" style="fill-opacity: 0.75; stroke: #ffffff; stroke-width: 0.456545; stroke-linejoin: miter"/>
   </g>
   <g id="patch_78">
    <path d="M 446.236364 384.48 
L 450.801818 384.48 
L 450.801818 78.836883 
L 446.236364 78.836883 
z
" clip-path="url(#p75809871e1)" style="fill-opacity: 0.75; stroke: #ffffff; stroke-width: 0.456545; stroke-linejoin: miter"/>
   </g>
   <g id="patch_79">
    <path d="M 450.801818 384.48 
L 455.367273 384.48 
L 455.367273 74.891908 
L 450.801818 74.891908 
z
" clip-path="url(#p75809871e1)" style="fill-opacity: 0.75; stroke: #ffffff; stroke-width: 0.456545; stroke-linejoin: miter"/>
   </g>
   <g id="patch_80">
    <path d="M 455.367273 384.48 
L 459.932727 384.48 
L 459.932727 72.056457 
L 455.367273 72.056457 
z
" clip-path="url(#p75809871e1)" style="fill-opacity: 0.75; stroke: #ffffff; stroke-width: 0.456545; stroke-linejoin: miter"/>
   </g>
   <g id="patch_81">
    <path d="M 459.932727 384.48 
L 464.498182 384.48 
L 464.498182 70.546271 
L 459.932727 70.546271 
z
" clip-path="url(#p75809871e1)" style="fill-opacity: 0.75; stroke: #ffffff; stroke-width: 0.456545; stroke-linejoin: miter"/>
   </g>
   <g id="patch_82">
    <path d="M 464.498182 384.48 
L 469.063636 384.48 
L 469.063636 79.792307 
L 464.498182 79.792307 
z
" clip-path="url(#p75809871e1)" style="fill-opacity: 0.75; stroke: #ffffff; stroke-width: 0.456545; stroke-linejoin: miter"/>
   </g>
   <g id="patch_83">
    <path d="M 469.063636 384.48 
L 473.629091 384.48 
L 473.629091 73.597463 
L 469.063636 73.597463 
z
" clip-path="url(#p75809871e1)" style="fill-opacity: 0.75; stroke: #ffffff; stroke-width: 0.456545; stroke-linejoin: miter"/>
   </g>
   <g id="patch_84">
    <path d="M 473.629091 384.48 
L 478.194545 384.48 
L 478.194545 69.899049 
L 473.629091 69.899049 
z
" clip-path="url(#p75809871e1)" style="fill-opacity: 0.75; stroke: #ffffff; stroke-width: 0.456545; stroke-linejoin: miter"/>
   </g>
   <g id="patch_85">
    <path d="M 478.194545 384.48 
L 482.76 384.48 
L 482.76 76.340453 
L 478.194545 76.340453 
z
" clip-path="url(#p75809871e1)" style="fill-opacity: 0.75; stroke: #ffffff; stroke-width: 0.456545; stroke-linejoin: miter"/>
   </g>
   <g id="patch_86">
    <path d="M 482.76 384.48 
L 487.325455 384.48 
L 487.325455 74.799447 
L 482.76 74.799447 
z
" clip-path="url(#p75809871e1)" style="fill-opacity: 0.75; stroke: #ffffff; stroke-width: 0.456545; stroke-linejoin: miter"/>
   </g>
   <g id="patch_87">
    <path d="M 487.325455 384.48 
L 491.890909 384.48 
L 491.890909 72.672859 
L 487.325455 72.672859 
z
" clip-path="url(#p75809871e1)" style="fill-opacity: 0.75; stroke: #ffffff; stroke-width: 0.456545; stroke-linejoin: miter"/>
   </g>
   <g id="patch_88">
    <path d="M 491.890909 384.48 
L 496.456364 384.48 
L 496.456364 75.785691 
L 491.890909 75.785691 
z
" clip-path="url(#p75809871e1)" style="fill-opacity: 0.75; stroke: #ffffff; stroke-width: 0.456545; stroke-linejoin: miter"/>
   </g>
   <g id="patch_89">
    <path d="M 496.456364 384.48 
L 501.021818 384.48 
L 501.021818 75.631591 
L 496.456364 75.631591 
z
" clip-path="url(#p75809871e1)" style="fill-opacity: 0.75; stroke: #ffffff; stroke-width: 0.456545; stroke-linejoin: miter"/>
   </g>
   <g id="patch_90">
    <path d="M 501.021818 384.48 
L 505.587273 384.48 
L 505.587273 76.802755 
L 501.021818 76.802755 
z
" clip-path="url(#p75809871e1)" style="fill-opacity: 0.75; stroke: #ffffff; stroke-width: 0.456545; stroke-linejoin: miter"/>
   </g>
   <g id="patch_91">
    <path d="M 505.587273 384.48 
L 510.152727 384.48 
L 510.152727 77.357517 
L 505.587273 77.357517 
z
" clip-path="url(#p75809871e1)" style="fill-opacity: 0.75; stroke: #ffffff; stroke-width: 0.456545; stroke-linejoin: miter"/>
   </g>
   <g id="patch_92">
    <path d="M 510.152727 384.48 
L 514.718182 384.48 
L 514.718182 79.853947 
L 510.152727 79.853947 
z
" clip-path="url(#p75809871e1)" style="fill-opacity: 0.75; stroke: #ffffff; stroke-width: 0.456545; stroke-linejoin: miter"/>
   </g>
   <g id="patch_93">
    <path d="M 514.718182 384.48 
L 519.283636 384.48 
L 519.283636 76.371273 
L 514.718182 76.371273 
z
" clip-path="url(#p75809871e1)" style="fill-opacity: 0.75; stroke: #ffffff; stroke-width: 0.456545; stroke-linejoin: miter"/>
   </g>
   <g id="patch_94">
    <path d="M 519.283636 384.48 
L 523.849091 384.48 
L 523.849091 73.011881 
L 519.283636 73.011881 
z
" clip-path="url(#p75809871e1)" style="fill-opacity: 0.75; stroke: #ffffff; stroke-width: 0.456545; stroke-linejoin: miter"/>
   </g>
   <g id="patch_95">
    <path d="M 523.849091 384.48 
L 528.414545 384.48 
L 528.414545 73.844024 
L 523.849091 73.844024 
z
" clip-path="url(#p75809871e1)" style="fill-opacity: 0.75; stroke: #ffffff; stroke-width: 0.456545; stroke-linejoin: miter"/>
   </g>
   <g id="patch_96">
    <path d="M 528.414545 384.48 
L 532.98 384.48 
L 532.98 74.645347 
L 528.414545 74.645347 
z
" clip-path="url(#p75809871e1)" style="fill-opacity: 0.75; stroke: #ffffff; stroke-width: 0.456545; stroke-linejoin: miter"/>
   </g>
   <g id="patch_97">
    <path d="M 532.98 384.48 
L 537.545455 384.48 
L 537.545455 79.360825 
L 532.98 79.360825 
z
" clip-path="url(#p75809871e1)" style="fill-opacity: 0.75; stroke: #ffffff; stroke-width: 0.456545; stroke-linejoin: miter"/>
   </g>
   <g id="patch_98">
    <path d="M 537.545455 384.48 
L 542.110909 384.48 
L 542.110909 77.788999 
L 537.545455 77.788999 
z
" clip-path="url(#p75809871e1)" style="fill-opacity: 0.75; stroke: #ffffff; stroke-width: 0.456545; stroke-linejoin: miter"/>
   </g>
   <g id="patch_99">
    <path d="M 542.110909 384.48 
L 546.676364 384.48 
L 546.676364 75.600771 
L 542.110909 75.600771 
z
" clip-path="url(#p75809871e1)" style="fill-opacity: 0.75; stroke: #ffffff; stroke-width: 0.456545; stroke-linejoin: miter"/>
   </g>
   <g id="patch_100">
    <path d="M 546.676364 384.48 
L 551.241818 384.48 
L 551.241818 75.724051 
L 546.676364 75.724051 
z
" clip-path="url(#p75809871e1)" style="fill-opacity: 0.75; stroke: #ffffff; stroke-width: 0.456545; stroke-linejoin: miter"/>
   </g>
   <g id="patch_101">
    <path d="M 551.241818 384.48 
L 555.807273 384.48 
L 555.807273 77.850639 
L 551.241818 77.850639 
z
" clip-path="url(#p75809871e1)" style="fill-opacity: 0.75; stroke: #ffffff; stroke-width: 0.456545; stroke-linejoin: miter"/>
   </g>
   <g id="patch_102">
    <path d="M 555.807273 384.48 
L 560.372727 384.48 
L 560.372727 82.535297 
L 555.807273 82.535297 
z
" clip-path="url(#p75809871e1)" style="fill-opacity: 0.75; stroke: #ffffff; stroke-width: 0.456545; stroke-linejoin: miter"/>
   </g>
   <g id="patch_103">
    <path d="M 81 384.48 
L 81 51.84 
" style="fill: none; stroke: #ffffff; stroke-width: 1.25; stroke-linejoin: miter; stroke-linecap: square"/>
   </g>
   <g id="patch_104">
    <path d="M 583.2 384.48 
L 583.2 51.84 
" style="fill: none; stroke: #ffffff; stroke-width: 1.25; stroke-linejoin: miter; stroke-linecap: square"/>
   </g>
   <g id="patch_105">
    <path d="M 81 384.48 
L 583.2 384.48 
" style="fill: none; stroke: #ffffff; stroke-width: 1.25; stroke-linejoin: miter; stroke-linecap: square"/>
   </g>
   <g id="patch_106">
    <path d="M 81 51.84 
L 583.2 51.84 
" style="fill: none; stroke: #ffffff; stroke-width: 1.25; stroke-linejoin: miter; stroke-linecap: square"/>
   </g>
   <g id="text_18">
    <!-- simulated relative vehicle position -->
    <g style="fill: #262626" transform="translate(228.977813 45.84) scale(0.12 -0.12)">
     <defs>
      <path id="DejaVuSans-6d" d="M 3328 2828 
Q 3544 3216 3844 3400 
Q 4144 3584 4550 3584 
Q 5097 3584 5394 3201 
Q 5691 2819 5691 2113 
L 5691 0 
L 5113 0 
L 5113 2094 
Q 5113 2597 4934 2840 
Q 4756 3084 4391 3084 
Q 3944 3084 3684 2787 
Q 3425 2491 3425 1978 
L 3425 0 
L 2847 0 
L 2847 2094 
Q 2847 2600 2669 2842 
Q 2491 3084 2119 3084 
Q 1678 3084 1418 2786 
Q 1159 2488 1159 1978 
L 1159 0 
L 581 0 
L 581 3500 
L 1159 3500 
L 1159 2956 
Q 1356 3278 1631 3431 
Q 1906 3584 2284 3584 
Q 2666 3584 2933 3390 
Q 3200 3197 3328 2828 
z
" transform="scale(0.015625)"/>
      <path id="DejaVuSans-6c" d="M 603 4863 
L 1178 4863 
L 1178 0 
L 603 0 
L 603 4863 
z
" transform="scale(0.015625)"/>
      <path id="DejaVuSans-61" d="M 2194 1759 
Q 1497 1759 1228 1600 
Q 959 1441 959 1056 
Q 959 750 1161 570 
Q 1363 391 1709 391 
Q 2188 391 2477 730 
Q 2766 1069 2766 1631 
L 2766 1759 
L 2194 1759 
z
M 3341 1997 
L 3341 0 
L 2766 0 
L 2766 531 
Q 2569 213 2275 61 
Q 1981 -91 1556 -91 
Q 1019 -91 701 211 
Q 384 513 384 1019 
Q 384 1609 779 1909 
Q 1175 2209 1959 2209 
L 2766 2209 
L 2766 2266 
Q 2766 2663 2505 2880 
Q 2244 3097 1772 3097 
Q 1472 3097 1187 3025 
Q 903 2953 641 2809 
L 641 3341 
Q 956 3463 1253 3523 
Q 1550 3584 1831 3584 
Q 2591 3584 2966 3190 
Q 3341 2797 3341 1997 
z
" transform="scale(0.015625)"/>
      <path id="DejaVuSans-65" d="M 3597 1894 
L 3597 1613 
L 953 1613 
Q 991 1019 1311 708 
Q 1631 397 2203 397 
Q 2534 397 2845 478 
Q 3156 559 3463 722 
L 3463 178 
Q 3153 47 2828 -22 
Q 2503 -91 2169 -91 
Q 1331 -91 842 396 
Q 353 884 353 1716 
Q 353 2575 817 3079 
Q 1281 3584 2069 3584 
Q 2775 3584 3186 3129 
Q 3597 2675 3597 1894 
z
M 3022 2063 
Q 3016 2534 2758 2815 
Q 2500 3097 2075 3097 
Q 1594 3097 1305 2825 
Q 1016 2553 972 2059 
L 3022 2063 
z
" transform="scale(0.015625)"/>
      <path id="DejaVuSans-64" d="M 2906 2969 
L 2906 4863 
L 3481 4863 
L 3481 0 
L 2906 0 
L 2906 525 
Q 2725 213 2448 61 
Q 2172 -91 1784 -91 
Q 1150 -91 751 415 
Q 353 922 353 1747 
Q 353 2572 751 3078 
Q 1150 3584 1784 3584 
Q 2172 3584 2448 3432 
Q 2725 3281 2906 2969 
z
M 947 1747 
Q 947 1113 1208 752 
Q 1469 391 1925 391 
Q 2381 391 2643 752 
Q 2906 1113 2906 1747 
Q 2906 2381 2643 2742 
Q 2381 3103 1925 3103 
Q 1469 3103 1208 2742 
Q 947 2381 947 1747 
z
" transform="scale(0.015625)"/>
      <path id="DejaVuSans-20" transform="scale(0.015625)"/>
      <path id="DejaVuSans-72" d="M 2631 2963 
Q 2534 3019 2420 3045 
Q 2306 3072 2169 3072 
Q 1681 3072 1420 2755 
Q 1159 2438 1159 1844 
L 1159 0 
L 581 0 
L 581 3500 
L 1159 3500 
L 1159 2956 
Q 1341 3275 1631 3429 
Q 1922 3584 2338 3584 
Q 2397 3584 2469 3576 
Q 2541 3569 2628 3553 
L 2631 2963 
z
" transform="scale(0.015625)"/>
      <path id="DejaVuSans-76" d="M 191 3500 
L 800 3500 
L 1894 563 
L 2988 3500 
L 3597 3500 
L 2284 0 
L 1503 0 
L 191 3500 
z
" transform="scale(0.015625)"/>
      <path id="DejaVuSans-68" d="M 3513 2113 
L 3513 0 
L 2938 0 
L 2938 2094 
Q 2938 2591 2744 2837 
Q 2550 3084 2163 3084 
Q 1697 3084 1428 2787 
Q 1159 2491 1159 1978 
L 1159 0 
L 581 0 
L 581 4863 
L 1159 4863 
L 1159 2956 
Q 1366 3272 1645 3428 
Q 1925 3584 2291 3584 
Q 2894 3584 3203 3211 
Q 3513 2838 3513 2113 
z
" transform="scale(0.015625)"/>
      <path id="DejaVuSans-63" d="M 3122 3366 
L 3122 2828 
Q 2878 2963 2633 3030 
Q 2388 3097 2138 3097 
Q 1578 3097 1268 2742 
Q 959 2388 959 1747 
Q 959 1106 1268 751 
Q 1578 397 2138 397 
Q 2388 397 2633 464 
Q 2878 531 3122 666 
L 3122 134 
Q 2881 22 2623 -34 
Q 2366 -91 2075 -91 
Q 1284 -91 818 406 
Q 353 903 353 1747 
Q 353 2603 823 3093 
Q 1294 3584 2113 3584 
Q 2378 3584 2631 3529 
Q 2884 3475 3122 3366 
z
" transform="scale(0.015625)"/>
     </defs>
     <use xlink:href="#DejaVuSans-73"/>
     <use xlink:href="#DejaVuSans-69" x="52.099609"/>
     <use xlink:href="#DejaVuSans-6d" x="79.882812"/>
     <use xlink:href="#DejaVuSans-75" x="177.294922"/>
     <use xlink:href="#DejaVuSans-6c" x="240.673828"/>
     <use xlink:href="#DejaVuSans-61" x="268.457031"/>
     <use xlink:href="#DejaVuSans-74" x="329.736328"/>
     <use xlink:href="#DejaVuSans-65" x="368.945312"/>
     <use xlink:href="#DejaVuSans-64" x="430.46875"/>
     <use xlink:href="#DejaVuSans-20" x="493.945312"/>
     <use xlink:href="#DejaVuSans-72" x="525.732422"/>
     <use xlink:href="#DejaVuSans-65" x="564.595703"/>
     <use xlink:href="#DejaVuSans-6c" x="626.119141"/>
     <use xlink:href="#DejaVuSans-61" x="653.902344"/>
     <use xlink:href="#DejaVuSans-74" x="715.181641"/>
     <use xlink:href="#DejaVuSans-69" x="754.390625"/>
     <use xlink:href="#DejaVuSans-76" x="782.173828"/>
     <use xlink:href="#DejaVuSans-65" x="841.353516"/>
     <use xlink:href="#DejaVuSans-20" x="902.876953"/>
     <use xlink:href="#DejaVuSans-76" x="934.664062"/>
     <use xlink:href="#DejaVuSans-65" x="993.84375"/>
     <use xlink:href="#DejaVuSans-68" x="1055.367188"/>
     <use xlink:href="#DejaVuSans-69" x="1118.746094"/>
     <use xlink:href="#DejaVuSans-63" x="1146.529297"/>
     <use xlink:href="#DejaVuSans-6c" x="1201.509766"/>
     <use xlink:href="#DejaVuSans-65" x="1229.292969"/>
     <use xlink:href="#DejaVuSans-20" x="1290.816406"/>
     <use xlink:href="#DejaVuSans-70" x="1322.603516"/>
     <use xlink:href="#DejaVuSans-6f" x="1386.080078"/>
     <use xlink:href="#DejaVuSans-73" x="1447.261719"/>
     <use xlink:href="#DejaVuSans-69" x="1499.361328"/>
     <use xlink:href="#DejaVuSans-74" x="1527.144531"/>
     <use xlink:href="#DejaVuSans-69" x="1566.353516"/>
     <use xlink:href="#DejaVuSans-6f" x="1594.136719"/>
     <use xlink:href="#DejaVuSans-6e" x="1655.318359"/>
    </g>
   </g>
  </g>
 </g>
 <defs>
  <clipPath id="p75809871e1">
   <rect x="81" y="51.84" width="502.2" height="332.64"/>
  </clipPath>
 </defs>
</svg>
