<?xml version="1.0" encoding="utf-8" standalone="no"?>
<!DOCTYPE svg PUBLIC "-//W3C//DTD SVG 1.1//EN"
  "http://www.w3.org/Graphics/SVG/1.1/DTD/svg11.dtd">
<svg xmlns:xlink="http://www.w3.org/1999/xlink" width="864pt" height="576pt" viewBox="0 0 864 576" xmlns="http://www.w3.org/2000/svg" version="1.1">
 <metadata>
  <rdf:RDF xmlns:dc="http://purl.org/dc/elements/1.1/" xmlns:cc="http://creativecommons.org/ns#" xmlns:rdf="http://www.w3.org/1999/02/22-rdf-syntax-ns#">
   <cc:Work>
    <dc:type rdf:resource="http://purl.org/dc/dcmitype/StillImage"/>
    <dc:date>2024-04-14T16:23:59.879972</dc:date>
    <dc:format>image/svg+xml</dc:format>
    <dc:creator>
     <cc:Agent>
      <dc:title>Matplotlib v3.8.3, https://matplotlib.org/</dc:title>
     </cc:Agent>
    </dc:creator>
   </cc:Work>
  </rdf:RDF>
 </metadata>
 <defs>
  <style type="text/css">*{stroke-linejoin: round; stroke-linecap: butt}</style>
 </defs>
 <g id="figure_1">
  <g id="patch_1">
   <path d="M 0 576 
L 864 576 
L 864 0 
L 0 0 
z
" style="fill: #ffffff"/>
  </g>
  <g id="axes_1">
   <g id="patch_2">
    <path d="M 108 512.64 
L 777.6 512.64 
L 777.6 69.12 
L 108 69.12 
z
" style="fill: #eaeaf2"/>
   </g>
   <g id="matplotlib.axis_1">
    <g id="xtick_1">
     <g id="line2d_1">
      <path d="M 172.185888 512.64 
L 172.185888 69.12 
" clip-path="url(#pafad838794)" style="fill: none; stroke: #ffffff; stroke-linecap: round"/>
     </g>
     <g id="text_1">
      <!-- 90 -->
      <g style="fill: #262626" transform="translate(162.005888 534.2975) scale(0.16 -0.16)">
       <defs>
        <path id="DejaVuSans-39" d="M 703 97 
L 703 672 
Q 941 559 1184 500 
Q 1428 441 1663 441 
Q 2288 441 2617 861 
Q 2947 1281 2994 2138 
Q 2813 1869 2534 1725 
Q 2256 1581 1919 1581 
Q 1219 1581 811 2004 
Q 403 2428 403 3163 
Q 403 3881 828 4315 
Q 1253 4750 1959 4750 
Q 2769 4750 3195 4129 
Q 3622 3509 3622 2328 
Q 3622 1225 3098 567 
Q 2575 -91 1691 -91 
Q 1453 -91 1209 -44 
Q 966 3 703 97 
z
M 1959 2075 
Q 2384 2075 2632 2365 
Q 2881 2656 2881 3163 
Q 2881 3666 2632 3958 
Q 2384 4250 1959 4250 
Q 1534 4250 1286 3958 
Q 1038 3666 1038 3163 
Q 1038 2656 1286 2365 
Q 1534 2075 1959 2075 
z
" transform="scale(0.015625)"/>
        <path id="DejaVuSans-30" d="M 2034 4250 
Q 1547 4250 1301 3770 
Q 1056 3291 1056 2328 
Q 1056 1369 1301 889 
Q 1547 409 2034 409 
Q 2525 409 2770 889 
Q 3016 1369 3016 2328 
Q 3016 3291 2770 3770 
Q 2525 4250 2034 4250 
z
M 2034 4750 
Q 2819 4750 3233 4129 
Q 3647 3509 3647 2328 
Q 3647 1150 3233 529 
Q 2819 -91 2034 -91 
Q 1250 -91 836 529 
Q 422 1150 422 2328 
Q 422 3509 836 4129 
Q 1250 4750 2034 4750 
z
" transform="scale(0.015625)"/>
       </defs>
       <use xlink:href="#DejaVuSans-39"/>
       <use xlink:href="#DejaVuSans-30" x="63.623047"/>
      </g>
     </g>
    </g>
    <g id="xtick_2">
     <g id="line2d_2">
      <path d="M 266.537366 512.64 
L 266.537366 69.12 
" clip-path="url(#pafad838794)" style="fill: none; stroke: #ffffff; stroke-linecap: round"/>
     </g>
     <g id="text_2">
      <!-- 100 -->
      <g style="fill: #262626" transform="translate(251.267366 534.2975) scale(0.16 -0.16)">
       <defs>
        <path id="DejaVuSans-31" d="M 794 531 
L 1825 531 
L 1825 4091 
L 703 3866 
L 703 4441 
L 1819 4666 
L 2450 4666 
L 2450 531 
L 3481 531 
L 3481 0 
L 794 0 
L 794 531 
z
" transform="scale(0.015625)"/>
       </defs>
       <use xlink:href="#DejaVuSans-31"/>
       <use xlink:href="#DejaVuSans-30" x="63.623047"/>
       <use xlink:href="#DejaVuSans-30" x="127.246094"/>
      </g>
     </g>
    </g>
    <g id="xtick_3">
     <g id="line2d_3">
      <path d="M 360.888845 512.64 
L 360.888845 69.12 
" clip-path="url(#pafad838794)" style="fill: none; stroke: #ffffff; stroke-linecap: round"/>
     </g>
     <g id="text_3">
      <!-- 110 -->
      <g style="fill: #262626" transform="translate(345.618845 534.2975) scale(0.16 -0.16)">
       <use xlink:href="#DejaVuSans-31"/>
       <use xlink:href="#DejaVuSans-31" x="63.623047"/>
       <use xlink:href="#DejaVuSans-30" x="127.246094"/>
      </g>
     </g>
    </g>
    <g id="xtick_4">
     <g id="line2d_4">
      <path d="M 455.240324 512.64 
L 455.240324 69.12 
" clip-path="url(#pafad838794)" style="fill: none; stroke: #ffffff; stroke-linecap: round"/>
     </g>
     <g id="text_4">
      <!-- 120 -->
      <g style="fill: #262626" transform="translate(439.970324 534.2975) scale(0.16 -0.16)">
       <defs>
        <path id="DejaVuSans-32" d="M 1228 531 
L 3431 531 
L 3431 0 
L 469 0 
L 469 531 
Q 828 903 1448 1529 
Q 2069 2156 2228 2338 
Q 2531 2678 2651 2914 
Q 2772 3150 2772 3378 
Q 2772 3750 2511 3984 
Q 2250 4219 1831 4219 
Q 1534 4219 1204 4116 
Q 875 4013 500 3803 
L 500 4441 
Q 881 4594 1212 4672 
Q 1544 4750 1819 4750 
Q 2544 4750 2975 4387 
Q 3406 4025 3406 3419 
Q 3406 3131 3298 2873 
Q 3191 2616 2906 2266 
Q 2828 2175 2409 1742 
Q 1991 1309 1228 531 
z
" transform="scale(0.015625)"/>
       </defs>
       <use xlink:href="#DejaVuSans-31"/>
       <use xlink:href="#DejaVuSans-32" x="63.623047"/>
       <use xlink:href="#DejaVuSans-30" x="127.246094"/>
      </g>
     </g>
    </g>
    <g id="xtick_5">
     <g id="line2d_5">
      <path d="M 549.591803 512.64 
L 549.591803 69.12 
" clip-path="url(#pafad838794)" style="fill: none; stroke: #ffffff; stroke-linecap: round"/>
     </g>
     <g id="text_5">
      <!-- 130 -->
      <g style="fill: #262626" transform="translate(534.321803 534.2975) scale(0.16 -0.16)">
       <defs>
        <path id="DejaVuSans-33" d="M 2597 2516 
Q 3050 2419 3304 2112 
Q 3559 1806 3559 1356 
Q 3559 666 3084 287 
Q 2609 -91 1734 -91 
Q 1441 -91 1130 -33 
Q 819 25 488 141 
L 488 750 
Q 750 597 1062 519 
Q 1375 441 1716 441 
Q 2309 441 2620 675 
Q 2931 909 2931 1356 
Q 2931 1769 2642 2001 
Q 2353 2234 1838 2234 
L 1294 2234 
L 1294 2753 
L 1863 2753 
Q 2328 2753 2575 2939 
Q 2822 3125 2822 3475 
Q 2822 3834 2567 4026 
Q 2313 4219 1838 4219 
Q 1578 4219 1281 4162 
Q 984 4106 628 3988 
L 628 4550 
Q 988 4650 1302 4700 
Q 1616 4750 1894 4750 
Q 2613 4750 3031 4423 
Q 3450 4097 3450 3541 
Q 3450 3153 3228 2886 
Q 3006 2619 2597 2516 
z
" transform="scale(0.015625)"/>
       </defs>
       <use xlink:href="#DejaVuSans-31"/>
       <use xlink:href="#DejaVuSans-33" x="63.623047"/>
       <use xlink:href="#DejaVuSans-30" x="127.246094"/>
      </g>
     </g>
    </g>
    <g id="xtick_6">
     <g id="line2d_6">
      <path d="M 643.943281 512.64 
L 643.943281 69.12 
" clip-path="url(#pafad838794)" style="fill: none; stroke: #ffffff; stroke-linecap: round"/>
     </g>
     <g id="text_6">
      <!-- 140 -->
      <g style="fill: #262626" transform="translate(628.673281 534.2975) scale(0.16 -0.16)">
       <defs>
        <path id="DejaVuSans-34" d="M 2419 4116 
L 825 1625 
L 2419 1625 
L 2419 4116 
z
M 2253 4666 
L 3047 4666 
L 3047 1625 
L 3713 1625 
L 3713 1100 
L 3047 1100 
L 3047 0 
L 2419 0 
L 2419 1100 
L 313 1100 
L 313 1709 
L 2253 4666 
z
" transform="scale(0.015625)"/>
       </defs>
       <use xlink:href="#DejaVuSans-31"/>
       <use xlink:href="#DejaVuSans-34" x="63.623047"/>
       <use xlink:href="#DejaVuSans-30" x="127.246094"/>
      </g>
     </g>
    </g>
    <g id="xtick_7">
     <g id="line2d_7">
      <path d="M 738.29476 512.64 
L 738.29476 69.12 
" clip-path="url(#pafad838794)" style="fill: none; stroke: #ffffff; stroke-linecap: round"/>
     </g>
     <g id="text_7">
      <!-- 150 -->
      <g style="fill: #262626" transform="translate(723.02476 534.2975) scale(0.16 -0.16)">
       <defs>
        <path id="DejaVuSans-35" d="M 691 4666 
L 3169 4666 
L 3169 4134 
L 1269 4134 
L 1269 2991 
Q 1406 3038 1543 3061 
Q 1681 3084 1819 3084 
Q 2600 3084 3056 2656 
Q 3513 2228 3513 1497 
Q 3513 744 3044 326 
Q 2575 -91 1722 -91 
Q 1428 -91 1123 -41 
Q 819 9 494 109 
L 494 744 
Q 775 591 1075 516 
Q 1375 441 1709 441 
Q 2250 441 2565 725 
Q 2881 1009 2881 1497 
Q 2881 1984 2565 2268 
Q 2250 2553 1709 2553 
Q 1456 2553 1204 2497 
Q 953 2441 691 2322 
L 691 4666 
z
" transform="scale(0.015625)"/>
       </defs>
       <use xlink:href="#DejaVuSans-31"/>
       <use xlink:href="#DejaVuSans-35" x="63.623047"/>
       <use xlink:href="#DejaVuSans-30" x="127.246094"/>
      </g>
     </g>
    </g>
    <g id="text_8">
     <!-- Values -->
     <g style="fill: #262626" transform="translate(416.6625 553.7825) scale(0.16 -0.16)">
      <defs>
       <path id="DejaVuSans-56" d="M 1831 0 
L 50 4666 
L 709 4666 
L 2188 738 
L 3669 4666 
L 4325 4666 
L 2547 0 
L 1831 0 
z
" transform="scale(0.015625)"/>
       <path id="DejaVuSans-61" d="M 2194 1759 
Q 1497 1759 1228 1600 
Q 959 1441 959 1056 
Q 959 750 1161 570 
Q 1363 391 1709 391 
Q 2188 391 2477 730 
Q 2766 1069 2766 1631 
L 2766 1759 
L 2194 1759 
z
M 3341 1997 
L 3341 0 
L 2766 0 
L 2766 531 
Q 2569 213 2275 61 
Q 1981 -91 1556 -91 
Q 1019 -91 701 211 
Q 384 513 384 1019 
Q 384 1609 779 1909 
Q 1175 2209 1959 2209 
L 2766 2209 
L 2766 2266 
Q 2766 2663 2505 2880 
Q 2244 3097 1772 3097 
Q 1472 3097 1187 3025 
Q 903 2953 641 2809 
L 641 3341 
Q 956 3463 1253 3523 
Q 1550 3584 1831 3584 
Q 2591 3584 2966 3190 
Q 3341 2797 3341 1997 
z
" transform="scale(0.015625)"/>
       <path id="DejaVuSans-6c" d="M 603 4863 
L 1178 4863 
L 1178 0 
L 603 0 
L 603 4863 
z
" transform="scale(0.015625)"/>
       <path id="DejaVuSans-75" d="M 544 1381 
L 544 3500 
L 1119 3500 
L 1119 1403 
Q 1119 906 1312 657 
Q 1506 409 1894 409 
Q 2359 409 2629 706 
Q 2900 1003 2900 1516 
L 2900 3500 
L 3475 3500 
L 3475 0 
L 2900 0 
L 2900 538 
Q 2691 219 2414 64 
Q 2138 -91 1772 -91 
Q 1169 -91 856 284 
Q 544 659 544 1381 
z
M 1991 3584 
L 1991 3584 
z
" transform="scale(0.015625)"/>
       <path id="DejaVuSans-65" d="M 3597 1894 
L 3597 1613 
L 953 1613 
Q 991 1019 1311 708 
Q 1631 397 2203 397 
Q 2534 397 2845 478 
Q 3156 559 3463 722 
L 3463 178 
Q 3153 47 2828 -22 
Q 2503 -91 2169 -91 
Q 1331 -91 842 396 
Q 353 884 353 1716 
Q 353 2575 817 3079 
Q 1281 3584 2069 3584 
Q 2775 3584 3186 3129 
Q 3597 2675 3597 1894 
z
M 3022 2063 
Q 3016 2534 2758 2815 
Q 2500 3097 2075 3097 
Q 1594 3097 1305 2825 
Q 1016 2553 972 2059 
L 3022 2063 
z
" transform="scale(0.015625)"/>
       <path id="DejaVuSans-73" d="M 2834 3397 
L 2834 2853 
Q 2591 2978 2328 3040 
Q 2066 3103 1784 3103 
Q 1356 3103 1142 2972 
Q 928 2841 928 2578 
Q 928 2378 1081 2264 
Q 1234 2150 1697 2047 
L 1894 2003 
Q 2506 1872 2764 1633 
Q 3022 1394 3022 966 
Q 3022 478 2636 193 
Q 2250 -91 1575 -91 
Q 1294 -91 989 -36 
Q 684 19 347 128 
L 347 722 
Q 666 556 975 473 
Q 1284 391 1588 391 
Q 1994 391 2212 530 
Q 2431 669 2431 922 
Q 2431 1156 2273 1281 
Q 2116 1406 1581 1522 
L 1381 1569 
Q 847 1681 609 1914 
Q 372 2147 372 2553 
Q 372 3047 722 3315 
Q 1072 3584 1716 3584 
Q 2034 3584 2315 3537 
Q 2597 3491 2834 3397 
z
" transform="scale(0.015625)"/>
      </defs>
      <use xlink:href="#DejaVuSans-56"/>
      <use xlink:href="#DejaVuSans-61" x="60.658203"/>
      <use xlink:href="#DejaVuSans-6c" x="121.9375"/>
      <use xlink:href="#DejaVuSans-75" x="149.720703"/>
      <use xlink:href="#DejaVuSans-65" x="213.099609"/>
      <use xlink:href="#DejaVuSans-73" x="274.623047"/>
     </g>
    </g>
   </g>
   <g id="matplotlib.axis_2">
    <g id="ytick_1">
     <g id="line2d_8">
      <path d="M 108 512.64 
L 777.6 512.64 
" clip-path="url(#pafad838794)" style="fill: none; stroke: #ffffff; stroke-linecap: round"/>
     </g>
     <g id="text_9">
      <!-- 0.00 -->
      <g style="fill: #262626" transform="translate(62.875 518.71875) scale(0.16 -0.16)">
       <defs>
        <path id="DejaVuSans-2e" d="M 684 794 
L 1344 794 
L 1344 0 
L 684 0 
L 684 794 
z
" transform="scale(0.015625)"/>
       </defs>
       <use xlink:href="#DejaVuSans-30"/>
       <use xlink:href="#DejaVuSans-2e" x="63.623047"/>
       <use xlink:href="#DejaVuSans-30" x="95.410156"/>
       <use xlink:href="#DejaVuSans-30" x="159.033203"/>
      </g>
     </g>
    </g>
    <g id="ytick_2">
     <g id="line2d_9">
      <path d="M 108 418.415872 
L 777.6 418.415872 
" clip-path="url(#pafad838794)" style="fill: none; stroke: #ffffff; stroke-linecap: round"/>
     </g>
     <g id="text_10">
      <!-- 0.01 -->
      <g style="fill: #262626" transform="translate(62.875 424.494622) scale(0.16 -0.16)">
       <use xlink:href="#DejaVuSans-30"/>
       <use xlink:href="#DejaVuSans-2e" x="63.623047"/>
       <use xlink:href="#DejaVuSans-30" x="95.410156"/>
       <use xlink:href="#DejaVuSans-31" x="159.033203"/>
      </g>
     </g>
    </g>
    <g id="ytick_3">
     <g id="line2d_10">
      <path d="M 108 324.191743 
L 777.6 324.191743 
" clip-path="url(#pafad838794)" style="fill: none; stroke: #ffffff; stroke-linecap: round"/>
     </g>
     <g id="text_11">
      <!-- 0.02 -->
      <g style="fill: #262626" transform="translate(62.875 330.270493) scale(0.16 -0.16)">
       <use xlink:href="#DejaVuSans-30"/>
       <use xlink:href="#DejaVuSans-2e" x="63.623047"/>
       <use xlink:href="#DejaVuSans-30" x="95.410156"/>
       <use xlink:href="#DejaVuSans-32" x="159.033203"/>
      </g>
     </g>
    </g>
    <g id="ytick_4">
     <g id="line2d_11">
      <path d="M 108 229.967615 
L 777.6 229.967615 
" clip-path="url(#pafad838794)" style="fill: none; stroke: #ffffff; stroke-linecap: round"/>
     </g>
     <g id="text_12">
      <!-- 0.03 -->
      <g style="fill: #262626" transform="translate(62.875 236.046365) scale(0.16 -0.16)">
       <use xlink:href="#DejaVuSans-30"/>
       <use xlink:href="#DejaVuSans-2e" x="63.623047"/>
       <use xlink:href="#DejaVuSans-30" x="95.410156"/>
       <use xlink:href="#DejaVuSans-33" x="159.033203"/>
      </g>
     </g>
    </g>
    <g id="ytick_5">
     <g id="line2d_12">
      <path d="M 108 135.743487 
L 777.6 135.743487 
" clip-path="url(#pafad838794)" style="fill: none; stroke: #ffffff; stroke-linecap: round"/>
     </g>
     <g id="text_13">
      <!-- 0.04 -->
      <g style="fill: #262626" transform="translate(62.875 141.822237) scale(0.16 -0.16)">
       <use xlink:href="#DejaVuSans-30"/>
       <use xlink:href="#DejaVuSans-2e" x="63.623047"/>
       <use xlink:href="#DejaVuSans-30" x="95.410156"/>
       <use xlink:href="#DejaVuSans-34" x="159.033203"/>
      </g>
     </g>
    </g>
    <g id="text_14">
     <!-- Frequency -->
     <g style="fill: #262626" transform="translate(55.5475 332.2075) rotate(-90) scale(0.16 -0.16)">
      <defs>
       <path id="DejaVuSans-46" d="M 628 4666 
L 3309 4666 
L 3309 4134 
L 1259 4134 
L 1259 2759 
L 3109 2759 
L 3109 2228 
L 1259 2228 
L 1259 0 
L 628 0 
L 628 4666 
z
" transform="scale(0.015625)"/>
       <path id="DejaVuSans-72" d="M 2631 2963 
Q 2534 3019 2420 3045 
Q 2306 3072 2169 3072 
Q 1681 3072 1420 2755 
Q 1159 2438 1159 1844 
L 1159 0 
L 581 0 
L 581 3500 
L 1159 3500 
L 1159 2956 
Q 1341 3275 1631 3429 
Q 1922 3584 2338 3584 
Q 2397 3584 2469 3576 
Q 2541 3569 2628 3553 
L 2631 2963 
z
" transform="scale(0.015625)"/>
       <path id="DejaVuSans-71" d="M 947 1747 
Q 947 1113 1208 752 
Q 1469 391 1925 391 
Q 2381 391 2643 752 
Q 2906 1113 2906 1747 
Q 2906 2381 2643 2742 
Q 2381 3103 1925 3103 
Q 1469 3103 1208 2742 
Q 947 2381 947 1747 
z
M 2906 525 
Q 2725 213 2448 61 
Q 2172 -91 1784 -91 
Q 1150 -91 751 415 
Q 353 922 353 1747 
Q 353 2572 751 3078 
Q 1150 3584 1784 3584 
Q 2172 3584 2448 3432 
Q 2725 3281 2906 2969 
L 2906 3500 
L 3481 3500 
L 3481 -1331 
L 2906 -1331 
L 2906 525 
z
" transform="scale(0.015625)"/>
       <path id="DejaVuSans-6e" d="M 3513 2113 
L 3513 0 
L 2938 0 
L 2938 2094 
Q 2938 2591 2744 2837 
Q 2550 3084 2163 3084 
Q 1697 3084 1428 2787 
Q 1159 2491 1159 1978 
L 1159 0 
L 581 0 
L 581 3500 
L 1159 3500 
L 1159 2956 
Q 1366 3272 1645 3428 
Q 1925 3584 2291 3584 
Q 2894 3584 3203 3211 
Q 3513 2838 3513 2113 
z
" transform="scale(0.015625)"/>
       <path id="DejaVuSans-63" d="M 3122 3366 
L 3122 2828 
Q 2878 2963 2633 3030 
Q 2388 3097 2138 3097 
Q 1578 3097 1268 2742 
Q 959 2388 959 1747 
Q 959 1106 1268 751 
Q 1578 397 2138 397 
Q 2388 397 2633 464 
Q 2878 531 3122 666 
L 3122 134 
Q 2881 22 2623 -34 
Q 2366 -91 2075 -91 
Q 1284 -91 818 406 
Q 353 903 353 1747 
Q 353 2603 823 3093 
Q 1294 3584 2113 3584 
Q 2378 3584 2631 3529 
Q 2884 3475 3122 3366 
z
" transform="scale(0.015625)"/>
       <path id="DejaVuSans-79" d="M 2059 -325 
Q 1816 -950 1584 -1140 
Q 1353 -1331 966 -1331 
L 506 -1331 
L 506 -850 
L 844 -850 
Q 1081 -850 1212 -737 
Q 1344 -625 1503 -206 
L 1606 56 
L 191 3500 
L 800 3500 
L 1894 763 
L 2988 3500 
L 3597 3500 
L 2059 -325 
z
" transform="scale(0.015625)"/>
      </defs>
      <use xlink:href="#DejaVuSans-46"/>
      <use xlink:href="#DejaVuSans-72" x="50.269531"/>
      <use xlink:href="#DejaVuSans-65" x="89.132812"/>
      <use xlink:href="#DejaVuSans-71" x="150.65625"/>
      <use xlink:href="#DejaVuSans-75" x="214.132812"/>
      <use xlink:href="#DejaVuSans-65" x="277.511719"/>
      <use xlink:href="#DejaVuSans-6e" x="339.035156"/>
      <use xlink:href="#DejaVuSans-63" x="402.414062"/>
      <use xlink:href="#DejaVuSans-79" x="457.394531"/>
     </g>
    </g>
   </g>
   <g id="patch_3">
    <path d="M 138.436364 512.64 
L 149.022925 512.64 
L 149.022925 511.800239 
L 138.436364 511.800239 
z
" clip-path="url(#pafad838794)" style="fill: #bbbbbb; stroke: #5a5a5a; stroke-linejoin: miter"/>
   </g>
   <g id="patch_4">
    <path d="M 149.022925 512.64 
L 159.609486 512.64 
L 159.609486 512.64 
L 149.022925 512.64 
z
" clip-path="url(#pafad838794)" style="fill: #bbbbbb; stroke: #5a5a5a; stroke-linejoin: miter"/>
   </g>
   <g id="patch_5">
    <path d="M 159.609486 512.64 
L 170.196047 512.64 
L 170.196047 510.960477 
L 159.609486 510.960477 
z
" clip-path="url(#pafad838794)" style="fill: #bbbbbb; stroke: #5a5a5a; stroke-linejoin: miter"/>
   </g>
   <g id="patch_6">
    <path d="M 170.196047 512.64 
L 180.782609 512.64 
L 180.782609 512.64 
L 170.196047 512.64 
z
" clip-path="url(#pafad838794)" style="fill: #bbbbbb; stroke: #5a5a5a; stroke-linejoin: miter"/>
   </g>
   <g id="patch_7">
    <path d="M 180.782609 512.64 
L 191.36917 512.64 
L 191.36917 510.120716 
L 180.782609 510.120716 
z
" clip-path="url(#pafad838794)" style="fill: #bbbbbb; stroke: #5a5a5a; stroke-linejoin: miter"/>
   </g>
   <g id="patch_8">
    <path d="M 191.36917 512.64 
L 201.955731 512.64 
L 201.955731 508.441193 
L 191.36917 508.441193 
z
" clip-path="url(#pafad838794)" style="fill: #bbbbbb; stroke: #5a5a5a; stroke-linejoin: miter"/>
   </g>
   <g id="patch_9">
    <path d="M 201.955731 512.64 
L 212.542292 512.64 
L 212.542292 503.402624 
L 201.955731 503.402624 
z
" clip-path="url(#pafad838794)" style="fill: #bbbbbb; stroke: #5a5a5a; stroke-linejoin: miter"/>
   </g>
   <g id="patch_10">
    <path d="M 212.542292 512.64 
L 223.128854 512.64 
L 223.128854 503.402624 
L 212.542292 503.402624 
z
" clip-path="url(#pafad838794)" style="fill: #bbbbbb; stroke: #5a5a5a; stroke-linejoin: miter"/>
   </g>
   <g id="patch_11">
    <path d="M 223.128854 512.64 
L 233.715415 512.64 
L 233.715415 501.723101 
L 223.128854 501.723101 
z
" clip-path="url(#pafad838794)" style="fill: #bbbbbb; stroke: #5a5a5a; stroke-linejoin: miter"/>
   </g>
   <g id="patch_12">
    <path d="M 233.715415 512.64 
L 244.301976 512.64 
L 244.301976 495.844771 
L 233.715415 495.844771 
z
" clip-path="url(#pafad838794)" style="fill: #bbbbbb; stroke: #5a5a5a; stroke-linejoin: miter"/>
   </g>
   <g id="patch_13">
    <path d="M 244.301976 512.64 
L 254.888538 512.64 
L 254.888538 492.485726 
L 244.301976 492.485726 
z
" clip-path="url(#pafad838794)" style="fill: #bbbbbb; stroke: #5a5a5a; stroke-linejoin: miter"/>
   </g>
   <g id="patch_14">
    <path d="M 254.888538 512.64 
L 265.475099 512.64 
L 265.475099 484.088111 
L 254.888538 484.088111 
z
" clip-path="url(#pafad838794)" style="fill: #bbbbbb; stroke: #5a5a5a; stroke-linejoin: miter"/>
   </g>
   <g id="patch_15">
    <path d="M 265.475099 512.64 
L 276.06166 512.64 
L 276.06166 479.049543 
L 265.475099 479.049543 
z
" clip-path="url(#pafad838794)" style="fill: #bbbbbb; stroke: #5a5a5a; stroke-linejoin: miter"/>
   </g>
   <g id="patch_16">
    <path d="M 276.06166 512.64 
L 286.648221 512.64 
L 286.648221 463.094076 
L 276.06166 463.094076 
z
" clip-path="url(#pafad838794)" style="fill: #bbbbbb; stroke: #5a5a5a; stroke-linejoin: miter"/>
   </g>
   <g id="patch_17">
    <path d="M 286.648221 512.64 
L 297.234783 512.64 
L 297.234783 442.10004 
L 286.648221 442.10004 
z
" clip-path="url(#pafad838794)" style="fill: #bbbbbb; stroke: #5a5a5a; stroke-linejoin: miter"/>
   </g>
   <g id="patch_18">
    <path d="M 297.234783 512.64 
L 307.821344 512.64 
L 307.821344 436.22171 
L 297.234783 436.22171 
z
" clip-path="url(#pafad838794)" style="fill: #bbbbbb; stroke: #5a5a5a; stroke-linejoin: miter"/>
   </g>
   <g id="patch_19">
    <path d="M 307.821344 512.64 
L 318.407905 512.64 
L 318.407905 406.83006 
L 307.821344 406.83006 
z
" clip-path="url(#pafad838794)" style="fill: #bbbbbb; stroke: #5a5a5a; stroke-linejoin: miter"/>
   </g>
   <g id="patch_20">
    <path d="M 318.407905 512.64 
L 328.994466 512.64 
L 328.994466 380.797455 
L 318.407905 380.797455 
z
" clip-path="url(#pafad838794)" style="fill: #bbbbbb; stroke: #5a5a5a; stroke-linejoin: miter"/>
   </g>
   <g id="patch_21">
    <path d="M 328.994466 512.64 
L 339.581028 512.64 
L 339.581028 370.720318 
L 328.994466 370.720318 
z
" clip-path="url(#pafad838794)" style="fill: #bbbbbb; stroke: #5a5a5a; stroke-linejoin: miter"/>
   </g>
   <g id="patch_22">
    <path d="M 339.581028 512.64 
L 350.167589 512.64 
L 350.167589 342.168429 
L 339.581028 342.168429 
z
" clip-path="url(#pafad838794)" style="fill: #bbbbbb; stroke: #5a5a5a; stroke-linejoin: miter"/>
   </g>
   <g id="patch_23">
    <path d="M 350.167589 512.64 
L 360.75415 512.64 
L 360.75415 312.776779 
L 350.167589 312.776779 
z
" clip-path="url(#pafad838794)" style="fill: #bbbbbb; stroke: #5a5a5a; stroke-linejoin: miter"/>
   </g>
   <g id="patch_24">
    <path d="M 360.75415 512.64 
L 371.340711 512.64 
L 371.340711 274.147753 
L 360.75415 274.147753 
z
" clip-path="url(#pafad838794)" style="fill: #bbbbbb; stroke: #5a5a5a; stroke-linejoin: miter"/>
   </g>
   <g id="patch_25">
    <path d="M 371.340711 512.64 
L 381.927273 512.64 
L 381.927273 243.916342 
L 371.340711 243.916342 
z
" clip-path="url(#pafad838794)" style="fill: #bbbbbb; stroke: #5a5a5a; stroke-linejoin: miter"/>
   </g>
   <g id="patch_26">
    <path d="M 381.927273 512.64 
L 392.513834 512.64 
L 392.513834 181.773996 
L 381.927273 181.773996 
z
" clip-path="url(#pafad838794)" style="fill: #bbbbbb; stroke: #5a5a5a; stroke-linejoin: miter"/>
   </g>
   <g id="patch_27">
    <path d="M 392.513834 512.64 
L 403.100395 512.64 
L 403.100395 144.824493 
L 392.513834 144.824493 
z
" clip-path="url(#pafad838794)" style="fill: #bbbbbb; stroke: #5a5a5a; stroke-linejoin: miter"/>
   </g>
   <g id="patch_28">
    <path d="M 403.100395 512.64 
L 413.686957 512.64 
L 413.686957 165.818529 
L 403.100395 165.818529 
z
" clip-path="url(#pafad838794)" style="fill: #bbbbbb; stroke: #5a5a5a; stroke-linejoin: miter"/>
   </g>
   <g id="patch_29">
    <path d="M 413.686957 512.64 
L 424.273518 512.64 
L 424.273518 143.984732 
L 413.686957 143.984732 
z
" clip-path="url(#pafad838794)" style="fill: #bbbbbb; stroke: #5a5a5a; stroke-linejoin: miter"/>
   </g>
   <g id="patch_30">
    <path d="M 424.273518 512.64 
L 434.860079 512.64 
L 434.860079 126.349742 
L 424.273518 126.349742 
z
" clip-path="url(#pafad838794)" style="fill: #bbbbbb; stroke: #5a5a5a; stroke-linejoin: miter"/>
   </g>
   <g id="patch_31">
    <path d="M 434.860079 512.64 
L 445.44664 512.64 
L 445.44664 90.24 
L 434.860079 90.24 
z
" clip-path="url(#pafad838794)" style="fill: #bbbbbb; stroke: #5a5a5a; stroke-linejoin: miter"/>
   </g>
   <g id="patch_32">
    <path d="M 445.44664 512.64 
L 456.033202 512.64 
L 456.033202 99.477376 
L 445.44664 99.477376 
z
" clip-path="url(#pafad838794)" style="fill: #bbbbbb; stroke: #5a5a5a; stroke-linejoin: miter"/>
   </g>
   <g id="patch_33">
    <path d="M 456.033202 512.64 
L 466.619763 512.64 
L 466.619763 116.272604 
L 456.033202 116.272604 
z
" clip-path="url(#pafad838794)" style="fill: #bbbbbb; stroke: #5a5a5a; stroke-linejoin: miter"/>
   </g>
   <g id="patch_34">
    <path d="M 466.619763 512.64 
L 477.206324 512.64 
L 477.206324 98.637614 
L 466.619763 98.637614 
z
" clip-path="url(#pafad838794)" style="fill: #bbbbbb; stroke: #5a5a5a; stroke-linejoin: miter"/>
   </g>
   <g id="patch_35">
    <path d="M 477.206324 512.64 
L 487.792885 512.64 
L 487.792885 126.349742 
L 477.206324 126.349742 
z
" clip-path="url(#pafad838794)" style="fill: #bbbbbb; stroke: #5a5a5a; stroke-linejoin: miter"/>
   </g>
   <g id="patch_36">
    <path d="M 487.792885 512.64 
L 498.379447 512.64 
L 498.379447 138.106402 
L 487.792885 138.106402 
z
" clip-path="url(#pafad838794)" style="fill: #bbbbbb; stroke: #5a5a5a; stroke-linejoin: miter"/>
   </g>
   <g id="patch_37">
    <path d="M 498.379447 512.64 
L 508.966008 512.64 
L 508.966008 163.299245 
L 498.379447 163.299245 
z
" clip-path="url(#pafad838794)" style="fill: #bbbbbb; stroke: #5a5a5a; stroke-linejoin: miter"/>
   </g>
   <g id="patch_38">
    <path d="M 508.966008 512.64 
L 519.552569 512.64 
L 519.552569 180.094473 
L 508.966008 180.094473 
z
" clip-path="url(#pafad838794)" style="fill: #bbbbbb; stroke: #5a5a5a; stroke-linejoin: miter"/>
   </g>
   <g id="patch_39">
    <path d="M 519.552569 512.64 
L 530.13913 512.64 
L 530.13913 206.127078 
L 519.552569 206.127078 
z
" clip-path="url(#pafad838794)" style="fill: #bbbbbb; stroke: #5a5a5a; stroke-linejoin: miter"/>
   </g>
   <g id="patch_40">
    <path d="M 530.13913 512.64 
L 540.725692 512.64 
L 540.725692 248.115149 
L 530.13913 248.115149 
z
" clip-path="url(#pafad838794)" style="fill: #bbbbbb; stroke: #5a5a5a; stroke-linejoin: miter"/>
   </g>
   <g id="patch_41">
    <path d="M 540.725692 512.64 
L 551.312253 512.64 
L 551.312253 280.026083 
L 540.725692 280.026083 
z
" clip-path="url(#pafad838794)" style="fill: #bbbbbb; stroke: #5a5a5a; stroke-linejoin: miter"/>
   </g>
   <g id="patch_42">
    <path d="M 551.312253 512.64 
L 561.898814 512.64 
L 561.898814 295.981551 
L 551.312253 295.981551 
z
" clip-path="url(#pafad838794)" style="fill: #bbbbbb; stroke: #5a5a5a; stroke-linejoin: miter"/>
   </g>
   <g id="patch_43">
    <path d="M 561.898814 512.64 
L 572.485375 512.64 
L 572.485375 316.135825 
L 561.898814 316.135825 
z
" clip-path="url(#pafad838794)" style="fill: #bbbbbb; stroke: #5a5a5a; stroke-linejoin: miter"/>
   </g>
   <g id="patch_44">
    <path d="M 572.485375 512.64 
L 583.071937 512.64 
L 583.071937 356.444374 
L 572.485375 356.444374 
z
" clip-path="url(#pafad838794)" style="fill: #bbbbbb; stroke: #5a5a5a; stroke-linejoin: miter"/>
   </g>
   <g id="patch_45">
    <path d="M 583.071937 512.64 
L 593.658498 512.64 
L 593.658498 404.310775 
L 583.071937 404.310775 
z
" clip-path="url(#pafad838794)" style="fill: #bbbbbb; stroke: #5a5a5a; stroke-linejoin: miter"/>
   </g>
   <g id="patch_46">
    <path d="M 593.658498 512.64 
L 604.245059 512.64 
L 604.245059 421.945765 
L 593.658498 421.945765 
z
" clip-path="url(#pafad838794)" style="fill: #bbbbbb; stroke: #5a5a5a; stroke-linejoin: miter"/>
   </g>
   <g id="patch_47">
    <path d="M 604.245059 512.64 
L 614.831621 512.64 
L 614.831621 443.779563 
L 604.245059 443.779563 
z
" clip-path="url(#pafad838794)" style="fill: #bbbbbb; stroke: #5a5a5a; stroke-linejoin: miter"/>
   </g>
   <g id="patch_48">
    <path d="M 614.831621 512.64 
L 625.418182 512.64 
L 625.418182 451.337416 
L 614.831621 451.337416 
z
" clip-path="url(#pafad838794)" style="fill: #bbbbbb; stroke: #5a5a5a; stroke-linejoin: miter"/>
   </g>
   <g id="patch_49">
    <path d="M 625.418182 512.64 
L 636.004743 512.64 
L 636.004743 454.696461 
L 625.418182 454.696461 
z
" clip-path="url(#pafad838794)" style="fill: #bbbbbb; stroke: #5a5a5a; stroke-linejoin: miter"/>
   </g>
   <g id="patch_50">
    <path d="M 636.004743 512.64 
L 646.591304 512.64 
L 646.591304 464.773598 
L 636.004743 464.773598 
z
" clip-path="url(#pafad838794)" style="fill: #bbbbbb; stroke: #5a5a5a; stroke-linejoin: miter"/>
   </g>
   <g id="patch_51">
    <path d="M 646.591304 512.64 
L 657.177866 512.64 
L 657.177866 484.927873 
L 646.591304 484.927873 
z
" clip-path="url(#pafad838794)" style="fill: #bbbbbb; stroke: #5a5a5a; stroke-linejoin: miter"/>
   </g>
   <g id="patch_52">
    <path d="M 657.177866 512.64 
L 667.764427 512.64 
L 667.764427 484.927873 
L 657.177866 484.927873 
z
" clip-path="url(#pafad838794)" style="fill: #bbbbbb; stroke: #5a5a5a; stroke-linejoin: miter"/>
   </g>
   <g id="patch_53">
    <path d="M 667.764427 512.64 
L 678.350988 512.64 
L 678.350988 500.043579 
L 667.764427 500.043579 
z
" clip-path="url(#pafad838794)" style="fill: #bbbbbb; stroke: #5a5a5a; stroke-linejoin: miter"/>
   </g>
   <g id="patch_54">
    <path d="M 678.350988 512.64 
L 688.937549 512.64 
L 688.937549 501.723101 
L 678.350988 501.723101 
z
" clip-path="url(#pafad838794)" style="fill: #bbbbbb; stroke: #5a5a5a; stroke-linejoin: miter"/>
   </g>
   <g id="patch_55">
    <path d="M 688.937549 512.64 
L 699.524111 512.64 
L 699.524111 503.402624 
L 688.937549 503.402624 
z
" clip-path="url(#pafad838794)" style="fill: #bbbbbb; stroke: #5a5a5a; stroke-linejoin: miter"/>
   </g>
   <g id="patch_56">
    <path d="M 699.524111 512.64 
L 710.110672 512.64 
L 710.110672 503.402624 
L 699.524111 503.402624 
z
" clip-path="url(#pafad838794)" style="fill: #bbbbbb; stroke: #5a5a5a; stroke-linejoin: miter"/>
   </g>
   <g id="patch_57">
    <path d="M 710.110672 512.64 
L 720.697233 512.64 
L 720.697233 509.280954 
L 710.110672 509.280954 
z
" clip-path="url(#pafad838794)" style="fill: #bbbbbb; stroke: #5a5a5a; stroke-linejoin: miter"/>
   </g>
   <g id="patch_58">
    <path d="M 720.697233 512.64 
L 731.283794 512.64 
L 731.283794 509.280954 
L 720.697233 509.280954 
z
" clip-path="url(#pafad838794)" style="fill: #bbbbbb; stroke: #5a5a5a; stroke-linejoin: miter"/>
   </g>
   <g id="patch_59">
    <path d="M 731.283794 512.64 
L 741.870356 512.64 
L 741.870356 510.120716 
L 731.283794 510.120716 
z
" clip-path="url(#pafad838794)" style="fill: #bbbbbb; stroke: #5a5a5a; stroke-linejoin: miter"/>
   </g>
   <g id="line2d_13">
    <path d="M 143.729644 511.800239 
L 154.316206 512.64 
L 164.902767 510.960477 
L 175.489328 512.64 
L 186.075889 510.120716 
L 196.662451 508.441193 
L 207.249012 503.402624 
L 217.835573 503.402624 
L 228.422134 501.723101 
L 239.008696 495.844771 
L 249.595257 492.485726 
L 260.181818 484.088111 
L 270.768379 479.049543 
L 281.354941 463.094076 
L 291.941502 442.10004 
L 302.528063 436.22171 
L 313.114625 406.83006 
L 323.701186 380.797455 
L 334.287747 370.720318 
L 344.874308 342.168429 
L 355.46087 312.776779 
L 366.047431 274.147753 
L 376.633992 243.916342 
L 387.220553 181.773996 
L 397.807115 144.824493 
L 408.393676 165.818529 
L 418.980237 143.984732 
L 429.566798 126.349742 
L 440.15336 90.24 
L 450.739921 99.477376 
L 461.326482 116.272604 
L 471.913043 98.637614 
L 482.499605 126.349742 
L 493.086166 138.106402 
L 503.672727 163.299245 
L 514.259289 180.094473 
L 524.84585 206.127078 
L 535.432411 248.115149 
L 546.018972 280.026083 
L 556.605534 295.981551 
L 567.192095 316.135825 
L 577.778656 356.444374 
L 588.365217 404.310775 
L 598.951779 421.945765 
L 609.53834 443.779563 
L 620.124901 451.337416 
L 630.711462 454.696461 
L 641.298024 464.773598 
L 651.884585 484.927873 
L 662.471146 484.927873 
L 673.057708 500.043579 
L 683.644269 501.723101 
L 694.23083 503.402624 
L 704.817391 503.402624 
L 715.403953 509.280954 
L 725.990514 509.280954 
L 736.577075 510.120716 
L 747.163636 510.120716 
" clip-path="url(#pafad838794)" style="fill: none; stroke: #000000; stroke-width: 3; stroke-linecap: round"/>
   </g>
   <g id="line2d_14">
    <path d="M 143.729644 512.142262 
L 158.454906 511.714806 
L 170.102347 511.160964 
L 179.878955 510.478691 
L 188.388226 509.665365 
L 195.931905 508.724585 
L 202.751391 507.654285 
L 209.027732 506.447682 
L 214.881627 505.097522 
L 220.373426 503.603347 
L 225.563477 501.96112 
L 230.512131 500.16139 
L 235.219386 498.214064 
L 239.745594 496.103399 
L 244.151103 493.804073 
L 248.435913 491.31633 
L 252.600023 488.642599 
L 256.703785 485.742904 
L 260.747197 482.611745 
L 264.73026 479.244942 
L 268.652973 475.639722 
L 272.575686 471.732323 
L 276.498399 467.508301 
L 280.421113 462.953822 
L 284.343826 458.05585 
L 288.266539 452.802347 
L 292.249602 447.093101 
L 296.293014 440.90087 
L 300.336426 434.300746 
L 304.500537 427.070543 
L 308.724997 419.282115 
L 313.009807 410.914407 
L 317.415316 401.821722 
L 322.001873 391.835341 
L 326.709129 381.047825 
L 331.657782 369.141173 
L 336.847834 356.064581 
L 342.399982 341.460169 
L 348.434925 324.945213 
L 355.254411 305.614984 
L 363.703332 280.955804 
L 388.506949 208.103087 
L 394.662591 190.982414 
L 399.973342 176.855172 
L 404.680598 164.949515 
L 408.965407 154.699313 
L 412.94847 145.735447 
L 416.629786 137.98186 
L 420.130053 131.120526 
L 423.388922 125.209241 
L 426.466743 120.07135 
L 429.423866 115.56042 
L 432.19994 111.719389 
L 434.855315 108.413385 
L 437.389991 105.602156 
L 439.803968 103.244481 
L 442.157596 101.251498 
L 444.390525 99.643934 
L 446.563105 98.347705 
L 448.675335 97.343215 
L 450.727216 96.610631 
L 452.718747 96.130032 
L 454.710278 95.877229 
L 456.70181 95.85264 
L 458.693341 96.056303 
L 460.684872 96.487885 
L 462.676404 97.146677 
L 464.728285 98.06193 
L 466.840515 99.253153 
L 469.013094 100.739711 
L 471.246023 102.540669 
L 473.599651 104.734638 
L 476.013629 107.294945 
L 478.548305 110.314606 
L 481.20368 113.833654 
L 483.979754 117.890984 
L 486.876527 122.523663 
L 489.954348 127.875224 
L 493.213217 134.001915 
L 496.653135 140.955087 
L 500.334451 148.913873 
L 504.257164 157.938453 
L 508.481624 168.226517 
L 513.128531 180.146937 
L 518.258233 193.932972 
L 524.172477 210.485474 
L 531.474759 231.620735 
L 543.665344 267.714249 
L 555.312785 301.939309 
L 562.796115 323.242557 
L 569.193155 340.794119 
L 574.986701 356.047675 
L 580.3578 369.570532 
L 585.427153 381.739967 
L 590.255108 392.762426 
L 594.902014 402.828386 
L 599.428222 412.108358 
L 603.83373 420.637475 
L 608.11854 428.454969 
L 612.343 435.703024 
L 616.507111 442.406173 
L 620.610873 448.590792 
L 624.654285 454.284478 
L 628.637348 459.515503 
L 632.62041 464.383466 
L 636.603473 468.901302 
L 640.586536 473.082941 
L 644.569598 476.943094 
L 648.552661 480.497061 
L 652.596073 483.807839 
L 656.699835 486.879071 
L 660.863946 489.715811 
L 665.088406 492.324413 
L 669.433565 494.744285 
L 673.899423 496.973981 
L 678.48598 499.014227 
L 683.253586 500.890099 
L 688.202239 502.597948 
L 693.392291 504.153957 
L 698.884089 505.567423 
L 704.737984 506.842496 
L 711.014325 507.979948 
L 717.833811 508.986964 
L 725.317141 509.864033 
L 733.705713 510.618111 
L 743.240923 511.246334 
L 747.163636 511.448498 
L 747.163636 511.448498 
" clip-path="url(#pafad838794)" style="fill: none; stroke: #5d5d5d; stroke-width: 2; stroke-linecap: round"/>
   </g>
   <g id="line2d_15">
    <path d="M 315.956881 512.64 
L 315.956881 69.12 
" clip-path="url(#pafad838794)" style="fill: none; stroke-dasharray: 11.1,4.8; stroke-dashoffset: 0; stroke: #c41e3a; stroke-width: 3"/>
   </g>
   <g id="line2d_16">
    <path d="M 595.884218 512.64 
L 595.884218 69.12 
" clip-path="url(#pafad838794)" style="fill: none; stroke-dasharray: 11.1,4.8; stroke-dashoffset: 0; stroke: #c41e3a; stroke-width: 3"/>
   </g>
   <g id="patch_60">
    <path d="M 108 512.64 
L 108 69.12 
" style="fill: none; stroke: #ffffff; stroke-width: 1.25; stroke-linejoin: miter; stroke-linecap: square"/>
   </g>
   <g id="patch_61">
    <path d="M 777.6 512.64 
L 777.6 69.12 
" style="fill: none; stroke: #ffffff; stroke-width: 1.25; stroke-linejoin: miter; stroke-linecap: square"/>
   </g>
   <g id="patch_62">
    <path d="M 108 512.64 
L 777.6 512.64 
" style="fill: none; stroke: #ffffff; stroke-width: 1.25; stroke-linejoin: miter; stroke-linecap: square"/>
   </g>
   <g id="patch_63">
    <path d="M 108 69.12 
L 777.6 69.12 
" style="fill: none; stroke: #ffffff; stroke-width: 1.25; stroke-linejoin: miter; stroke-linecap: square"/>
   </g>
   <g id="text_15">
    <!-- vehicle velocity -->
    <g style="fill: #262626" transform="translate(380.49625 45.2035) scale(0.16 -0.16)">
     <defs>
      <path id="DejaVuSans-76" d="M 191 3500 
L 800 3500 
L 1894 563 
L 2988 3500 
L 3597 3500 
L 2284 0 
L 1503 0 
L 191 3500 
z
" transform="scale(0.015625)"/>
      <path id="DejaVuSans-68" d="M 3513 2113 
L 3513 0 
L 2938 0 
L 2938 2094 
Q 2938 2591 2744 2837 
Q 2550 3084 2163 3084 
Q 1697 3084 1428 2787 
Q 1159 2491 1159 1978 
L 1159 0 
L 581 0 
L 581 4863 
L 1159 4863 
L 1159 2956 
Q 1366 3272 1645 3428 
Q 1925 3584 2291 3584 
Q 2894 3584 3203 3211 
Q 3513 2838 3513 2113 
z
" transform="scale(0.015625)"/>
      <path id="DejaVuSans-69" d="M 603 3500 
L 1178 3500 
L 1178 0 
L 603 0 
L 603 3500 
z
M 603 4863 
L 1178 4863 
L 1178 4134 
L 603 4134 
L 603 4863 
z
" transform="scale(0.015625)"/>
      <path id="DejaVuSans-20" transform="scale(0.015625)"/>
      <path id="DejaVuSans-6f" d="M 1959 3097 
Q 1497 3097 1228 2736 
Q 959 2375 959 1747 
Q 959 1119 1226 758 
Q 1494 397 1959 397 
Q 2419 397 2687 759 
Q 2956 1122 2956 1747 
Q 2956 2369 2687 2733 
Q 2419 3097 1959 3097 
z
M 1959 3584 
Q 2709 3584 3137 3096 
Q 3566 2609 3566 1747 
Q 3566 888 3137 398 
Q 2709 -91 1959 -91 
Q 1206 -91 779 398 
Q 353 888 353 1747 
Q 353 2609 779 3096 
Q 1206 3584 1959 3584 
z
" transform="scale(0.015625)"/>
      <path id="DejaVuSans-74" d="M 1172 4494 
L 1172 3500 
L 2356 3500 
L 2356 3053 
L 1172 3053 
L 1172 1153 
Q 1172 725 1289 603 
Q 1406 481 1766 481 
L 2356 481 
L 2356 0 
L 1766 0 
Q 1100 0 847 248 
Q 594 497 594 1153 
L 594 3053 
L 172 3053 
L 172 3500 
L 594 3500 
L 594 4494 
L 1172 4494 
z
" transform="scale(0.015625)"/>
     </defs>
     <use xlink:href="#DejaVuSans-76"/>
     <use xlink:href="#DejaVuSans-65" x="59.179688"/>
     <use xlink:href="#DejaVuSans-68" x="120.703125"/>
     <use xlink:href="#DejaVuSans-69" x="184.082031"/>
     <use xlink:href="#DejaVuSans-63" x="211.865234"/>
     <use xlink:href="#DejaVuSans-6c" x="266.845703"/>
     <use xlink:href="#DejaVuSans-65" x="294.628906"/>
     <use xlink:href="#DejaVuSans-20" x="356.152344"/>
     <use xlink:href="#DejaVuSans-76" x="387.939453"/>
     <use xlink:href="#DejaVuSans-65" x="447.119141"/>
     <use xlink:href="#DejaVuSans-6c" x="508.642578"/>
     <use xlink:href="#DejaVuSans-6f" x="536.425781"/>
     <use xlink:href="#DejaVuSans-63" x="597.607422"/>
     <use xlink:href="#DejaVuSans-69" x="652.587891"/>
     <use xlink:href="#DejaVuSans-74" x="680.371094"/>
     <use xlink:href="#DejaVuSans-79" x="719.580078"/>
    </g>
    <!-- norm(loc=120.072, scale=9.0186) -->
    <g style="fill: #262626" transform="translate(303.95375 63.12) scale(0.16 -0.16)">
     <defs>
      <path id="DejaVuSans-6d" d="M 3328 2828 
Q 3544 3216 3844 3400 
Q 4144 3584 4550 3584 
Q 5097 3584 5394 3201 
Q 5691 2819 5691 2113 
L 5691 0 
L 5113 0 
L 5113 2094 
Q 5113 2597 4934 2840 
Q 4756 3084 4391 3084 
Q 3944 3084 3684 2787 
Q 3425 2491 3425 1978 
L 3425 0 
L 2847 0 
L 2847 2094 
Q 2847 2600 2669 2842 
Q 2491 3084 2119 3084 
Q 1678 3084 1418 2786 
Q 1159 2488 1159 1978 
L 1159 0 
L 581 0 
L 581 3500 
L 1159 3500 
L 1159 2956 
Q 1356 3278 1631 3431 
Q 1906 3584 2284 3584 
Q 2666 3584 2933 3390 
Q 3200 3197 3328 2828 
z
" transform="scale(0.015625)"/>
      <path id="DejaVuSans-28" d="M 1984 4856 
Q 1566 4138 1362 3434 
Q 1159 2731 1159 2009 
Q 1159 1288 1364 580 
Q 1569 -128 1984 -844 
L 1484 -844 
Q 1016 -109 783 600 
Q 550 1309 550 2009 
Q 550 2706 781 3412 
Q 1013 4119 1484 4856 
L 1984 4856 
z
" transform="scale(0.015625)"/>
      <path id="DejaVuSans-3d" d="M 678 2906 
L 4684 2906 
L 4684 2381 
L 678 2381 
L 678 2906 
z
M 678 1631 
L 4684 1631 
L 4684 1100 
L 678 1100 
L 678 1631 
z
" transform="scale(0.015625)"/>
      <path id="DejaVuSans-37" d="M 525 4666 
L 3525 4666 
L 3525 4397 
L 1831 0 
L 1172 0 
L 2766 4134 
L 525 4134 
L 525 4666 
z
" transform="scale(0.015625)"/>
      <path id="DejaVuSans-2c" d="M 750 794 
L 1409 794 
L 1409 256 
L 897 -744 
L 494 -744 
L 750 256 
L 750 794 
z
" transform="scale(0.015625)"/>
      <path id="DejaVuSans-38" d="M 2034 2216 
Q 1584 2216 1326 1975 
Q 1069 1734 1069 1313 
Q 1069 891 1326 650 
Q 1584 409 2034 409 
Q 2484 409 2743 651 
Q 3003 894 3003 1313 
Q 3003 1734 2745 1975 
Q 2488 2216 2034 2216 
z
M 1403 2484 
Q 997 2584 770 2862 
Q 544 3141 544 3541 
Q 544 4100 942 4425 
Q 1341 4750 2034 4750 
Q 2731 4750 3128 4425 
Q 3525 4100 3525 3541 
Q 3525 3141 3298 2862 
Q 3072 2584 2669 2484 
Q 3125 2378 3379 2068 
Q 3634 1759 3634 1313 
Q 3634 634 3220 271 
Q 2806 -91 2034 -91 
Q 1263 -91 848 271 
Q 434 634 434 1313 
Q 434 1759 690 2068 
Q 947 2378 1403 2484 
z
M 1172 3481 
Q 1172 3119 1398 2916 
Q 1625 2713 2034 2713 
Q 2441 2713 2670 2916 
Q 2900 3119 2900 3481 
Q 2900 3844 2670 4047 
Q 2441 4250 2034 4250 
Q 1625 4250 1398 4047 
Q 1172 3844 1172 3481 
z
" transform="scale(0.015625)"/>
      <path id="DejaVuSans-36" d="M 2113 2584 
Q 1688 2584 1439 2293 
Q 1191 2003 1191 1497 
Q 1191 994 1439 701 
Q 1688 409 2113 409 
Q 2538 409 2786 701 
Q 3034 994 3034 1497 
Q 3034 2003 2786 2293 
Q 2538 2584 2113 2584 
z
M 3366 4563 
L 3366 3988 
Q 3128 4100 2886 4159 
Q 2644 4219 2406 4219 
Q 1781 4219 1451 3797 
Q 1122 3375 1075 2522 
Q 1259 2794 1537 2939 
Q 1816 3084 2150 3084 
Q 2853 3084 3261 2657 
Q 3669 2231 3669 1497 
Q 3669 778 3244 343 
Q 2819 -91 2113 -91 
Q 1303 -91 875 529 
Q 447 1150 447 2328 
Q 447 3434 972 4092 
Q 1497 4750 2381 4750 
Q 2619 4750 2861 4703 
Q 3103 4656 3366 4563 
z
" transform="scale(0.015625)"/>
      <path id="DejaVuSans-29" d="M 513 4856 
L 1013 4856 
Q 1481 4119 1714 3412 
Q 1947 2706 1947 2009 
Q 1947 1309 1714 600 
Q 1481 -109 1013 -844 
L 513 -844 
Q 928 -128 1133 580 
Q 1338 1288 1338 2009 
Q 1338 2731 1133 3434 
Q 928 4138 513 4856 
z
" transform="scale(0.015625)"/>
     </defs>
     <use xlink:href="#DejaVuSans-6e"/>
     <use xlink:href="#DejaVuSans-6f" x="63.378906"/>
     <use xlink:href="#DejaVuSans-72" x="124.560547"/>
     <use xlink:href="#DejaVuSans-6d" x="163.923828"/>
     <use xlink:href="#DejaVuSans-28" x="261.335938"/>
     <use xlink:href="#DejaVuSans-6c" x="300.349609"/>
     <use xlink:href="#DejaVuSans-6f" x="328.132812"/>
     <use xlink:href="#DejaVuSans-63" x="389.314453"/>
     <use xlink:href="#DejaVuSans-3d" x="444.294922"/>
     <use xlink:href="#DejaVuSans-31" x="528.083984"/>
     <use xlink:href="#DejaVuSans-32" x="591.707031"/>
     <use xlink:href="#DejaVuSans-30" x="655.330078"/>
     <use xlink:href="#DejaVuSans-2e" x="718.953125"/>
     <use xlink:href="#DejaVuSans-30" x="750.740234"/>
     <use xlink:href="#DejaVuSans-37" x="814.363281"/>
     <use xlink:href="#DejaVuSans-32" x="877.986328"/>
     <use xlink:href="#DejaVuSans-2c" x="941.609375"/>
     <use xlink:href="#DejaVuSans-20" x="973.396484"/>
     <use xlink:href="#DejaVuSans-73" x="1005.183594"/>
     <use xlink:href="#DejaVuSans-63" x="1057.283203"/>
     <use xlink:href="#DejaVuSans-61" x="1112.263672"/>
     <use xlink:href="#DejaVuSans-6c" x="1173.542969"/>
     <use xlink:href="#DejaVuSans-65" x="1201.326172"/>
     <use xlink:href="#DejaVuSans-3d" x="1262.849609"/>
     <use xlink:href="#DejaVuSans-39" x="1346.638672"/>
     <use xlink:href="#DejaVuSans-2e" x="1410.261719"/>
     <use xlink:href="#DejaVuSans-30" x="1442.048828"/>
     <use xlink:href="#DejaVuSans-31" x="1505.671875"/>
     <use xlink:href="#DejaVuSans-38" x="1569.294922"/>
     <use xlink:href="#DejaVuSans-36" x="1632.917969"/>
     <use xlink:href="#DejaVuSans-29" x="1696.541016"/>
    </g>
   </g>
   <g id="legend_1">
    <g id="patch_64">
     <path d="M 654.085469 126.357813 
L 769.9 126.357813 
Q 772.1 126.357813 772.1 124.157813 
L 772.1 76.82 
Q 772.1 74.62 769.9 74.62 
L 654.085469 74.62 
Q 651.885469 74.62 651.885469 76.82 
L 651.885469 124.157813 
Q 651.885469 126.357813 654.085469 126.357813 
z
" style="fill: #eaeaf2; opacity: 0.8; stroke: #cccccc; stroke-linejoin: miter"/>
    </g>
    <g id="line2d_17">
     <path d="M 656.285469 83.528281 
L 667.285469 83.528281 
L 678.285469 83.528281 
" style="fill: none; stroke: #5d5d5d; stroke-width: 2; stroke-linecap: round"/>
    </g>
    <g id="text_16">
     <!-- Norm (best fit) -->
     <g style="fill: #262626" transform="translate(687.085469 87.378281) scale(0.11 -0.11)">
      <defs>
       <path id="DejaVuSans-4e" d="M 628 4666 
L 1478 4666 
L 3547 763 
L 3547 4666 
L 4159 4666 
L 4159 0 
L 3309 0 
L 1241 3903 
L 1241 0 
L 628 0 
L 628 4666 
z
" transform="scale(0.015625)"/>
       <path id="DejaVuSans-62" d="M 3116 1747 
Q 3116 2381 2855 2742 
Q 2594 3103 2138 3103 
Q 1681 3103 1420 2742 
Q 1159 2381 1159 1747 
Q 1159 1113 1420 752 
Q 1681 391 2138 391 
Q 2594 391 2855 752 
Q 3116 1113 3116 1747 
z
M 1159 2969 
Q 1341 3281 1617 3432 
Q 1894 3584 2278 3584 
Q 2916 3584 3314 3078 
Q 3713 2572 3713 1747 
Q 3713 922 3314 415 
Q 2916 -91 2278 -91 
Q 1894 -91 1617 61 
Q 1341 213 1159 525 
L 1159 0 
L 581 0 
L 581 4863 
L 1159 4863 
L 1159 2969 
z
" transform="scale(0.015625)"/>
       <path id="DejaVuSans-66" d="M 2375 4863 
L 2375 4384 
L 1825 4384 
Q 1516 4384 1395 4259 
Q 1275 4134 1275 3809 
L 1275 3500 
L 2222 3500 
L 2222 3053 
L 1275 3053 
L 1275 0 
L 697 0 
L 697 3053 
L 147 3053 
L 147 3500 
L 697 3500 
L 697 3744 
Q 697 4328 969 4595 
Q 1241 4863 1831 4863 
L 2375 4863 
z
" transform="scale(0.015625)"/>
      </defs>
      <use xlink:href="#DejaVuSans-4e"/>
      <use xlink:href="#DejaVuSans-6f" x="74.804688"/>
      <use xlink:href="#DejaVuSans-72" x="135.986328"/>
      <use xlink:href="#DejaVuSans-6d" x="175.349609"/>
      <use xlink:href="#DejaVuSans-20" x="272.761719"/>
      <use xlink:href="#DejaVuSans-28" x="304.548828"/>
      <use xlink:href="#DejaVuSans-62" x="343.5625"/>
      <use xlink:href="#DejaVuSans-65" x="407.039062"/>
      <use xlink:href="#DejaVuSans-73" x="468.5625"/>
      <use xlink:href="#DejaVuSans-74" x="520.662109"/>
      <use xlink:href="#DejaVuSans-20" x="559.871094"/>
      <use xlink:href="#DejaVuSans-66" x="591.658203"/>
      <use xlink:href="#DejaVuSans-69" x="626.863281"/>
      <use xlink:href="#DejaVuSans-74" x="654.646484"/>
      <use xlink:href="#DejaVuSans-29" x="693.855469"/>
     </g>
    </g>
    <g id="line2d_18">
     <path d="M 656.285469 99.674219 
L 667.285469 99.674219 
L 678.285469 99.674219 
" style="fill: none; stroke-dasharray: 11.1,4.8; stroke-dashoffset: 0; stroke: #c41e3a; stroke-width: 3"/>
    </g>
    <g id="text_17">
     <!-- CII low (0.05) -->
     <g style="fill: #262626" transform="translate(687.085469 103.524219) scale(0.11 -0.11)">
      <defs>
       <path id="DejaVuSans-43" d="M 4122 4306 
L 4122 3641 
Q 3803 3938 3442 4084 
Q 3081 4231 2675 4231 
Q 1875 4231 1450 3742 
Q 1025 3253 1025 2328 
Q 1025 1406 1450 917 
Q 1875 428 2675 428 
Q 3081 428 3442 575 
Q 3803 722 4122 1019 
L 4122 359 
Q 3791 134 3420 21 
Q 3050 -91 2638 -91 
Q 1578 -91 968 557 
Q 359 1206 359 2328 
Q 359 3453 968 4101 
Q 1578 4750 2638 4750 
Q 3056 4750 3426 4639 
Q 3797 4528 4122 4306 
z
" transform="scale(0.015625)"/>
       <path id="DejaVuSans-49" d="M 628 4666 
L 1259 4666 
L 1259 0 
L 628 0 
L 628 4666 
z
" transform="scale(0.015625)"/>
       <path id="DejaVuSans-77" d="M 269 3500 
L 844 3500 
L 1563 769 
L 2278 3500 
L 2956 3500 
L 3675 769 
L 4391 3500 
L 4966 3500 
L 4050 0 
L 3372 0 
L 2619 2869 
L 1863 0 
L 1184 0 
L 269 3500 
z
" transform="scale(0.015625)"/>
      </defs>
      <use xlink:href="#DejaVuSans-43"/>
      <use xlink:href="#DejaVuSans-49" x="69.824219"/>
      <use xlink:href="#DejaVuSans-49" x="99.316406"/>
      <use xlink:href="#DejaVuSans-20" x="128.808594"/>
      <use xlink:href="#DejaVuSans-6c" x="160.595703"/>
      <use xlink:href="#DejaVuSans-6f" x="188.378906"/>
      <use xlink:href="#DejaVuSans-77" x="249.560547"/>
      <use xlink:href="#DejaVuSans-20" x="331.347656"/>
      <use xlink:href="#DejaVuSans-28" x="363.134766"/>
      <use xlink:href="#DejaVuSans-30" x="402.148438"/>
      <use xlink:href="#DejaVuSans-2e" x="465.771484"/>
      <use xlink:href="#DejaVuSans-30" x="497.558594"/>
      <use xlink:href="#DejaVuSans-35" x="561.181641"/>
      <use xlink:href="#DejaVuSans-29" x="624.804688"/>
     </g>
    </g>
    <g id="line2d_19">
     <path d="M 656.285469 115.820156 
L 667.285469 115.820156 
L 678.285469 115.820156 
" style="fill: none; stroke-dasharray: 11.1,4.8; stroke-dashoffset: 0; stroke: #c41e3a; stroke-width: 3"/>
    </g>
    <g id="text_18">
     <!-- CII high (0.05) -->
     <g style="fill: #262626" transform="translate(687.085469 119.670156) scale(0.11 -0.11)">
      <defs>
       <path id="DejaVuSans-67" d="M 2906 1791 
Q 2906 2416 2648 2759 
Q 2391 3103 1925 3103 
Q 1463 3103 1205 2759 
Q 947 2416 947 1791 
Q 947 1169 1205 825 
Q 1463 481 1925 481 
Q 2391 481 2648 825 
Q 2906 1169 2906 1791 
z
M 3481 434 
Q 3481 -459 3084 -895 
Q 2688 -1331 1869 -1331 
Q 1566 -1331 1297 -1286 
Q 1028 -1241 775 -1147 
L 775 -588 
Q 1028 -725 1275 -790 
Q 1522 -856 1778 -856 
Q 2344 -856 2625 -561 
Q 2906 -266 2906 331 
L 2906 616 
Q 2728 306 2450 153 
Q 2172 0 1784 0 
Q 1141 0 747 490 
Q 353 981 353 1791 
Q 353 2603 747 3093 
Q 1141 3584 1784 3584 
Q 2172 3584 2450 3431 
Q 2728 3278 2906 2969 
L 2906 3500 
L 3481 3500 
L 3481 434 
z
" transform="scale(0.015625)"/>
      </defs>
      <use xlink:href="#DejaVuSans-43"/>
      <use xlink:href="#DejaVuSans-49" x="69.824219"/>
      <use xlink:href="#DejaVuSans-49" x="99.316406"/>
      <use xlink:href="#DejaVuSans-20" x="128.808594"/>
      <use xlink:href="#DejaVuSans-68" x="160.595703"/>
      <use xlink:href="#DejaVuSans-69" x="223.974609"/>
      <use xlink:href="#DejaVuSans-67" x="251.757812"/>
      <use xlink:href="#DejaVuSans-68" x="315.234375"/>
      <use xlink:href="#DejaVuSans-20" x="378.613281"/>
      <use xlink:href="#DejaVuSans-28" x="410.400391"/>
      <use xlink:href="#DejaVuSans-30" x="449.414062"/>
      <use xlink:href="#DejaVuSans-2e" x="513.037109"/>
      <use xlink:href="#DejaVuSans-30" x="544.824219"/>
      <use xlink:href="#DejaVuSans-35" x="608.447266"/>
      <use xlink:href="#DejaVuSans-29" x="672.070312"/>
     </g>
    </g>
   </g>
  </g>
 </g>
 <defs>
  <clipPath id="pafad838794">
   <rect x="108" y="69.12" width="669.6" height="443.52"/>
  </clipPath>
 </defs>
</svg>
